<?xml version="1.0" encoding="UTF-8"?>
<svg width="512pt" height="512pt" version="1.1" viewBox="0 0 512 512" xmlns="http://www.w3.org/2000/svg">
	<path transform="scale(5.12)" d="m94.608 40.762-0.18158 1.5907-3.6575 0.69656-5.6664 2.3026-6.0059 3.1509-4.2168 2.3422-4.0459 1.4069-7.7301 0.46616 2.5131 3.3623 1.7464 5.1552h7.8369l4.6432 3.8322 5.1109 3.112 0.043488 1.4893-0.095368 1.0757-1.5022-0.19226-1.4374-0.99106-5.8914-4.0115-12.349 0.43564-5.2399-4.155-2.771-1.2772-4.3838-4.5677-2.9381-1.1169-3.2074 0.20218-3.6621 1.2985-9.9388-0.34866-3.1502-2.1713-0.67902-2.2896v3.6278l-1.0216 1.4999-10.331-3.6888-1.2138-0.48294-3.0991 0.67215-3.2585 1.2764-1.7769 0.88196-1.6602-0.95673 0.95825-1.7891 7.8697-3.1952 6.0585 0.57526 0.92621-0.25558-2.8107-4.1855-0.38376-0.76599-1.4687-0.98953-0.44861 1.0849-1.9157 0.064087-2.0767-0.74997-0.44708 0.44174-1.0223 0.16861-1.7891-1.8555-0.42496-1.0399 1.873-2.214 0.08545-1.1086 1.3626-1.3618 3.492-0.68207 1.6205-1.2772h0.93536l0.17014 0.93613 2.6421 0.085449 2.4689 1.5335 7.2624 0.77744 6.5796 3.6415 6.0921 1.8845 3.8345 1.4481 6.0478 1.2787 6.366 0.13886 6.2187 1.3962 5.1338 0.33874 3.9192-1.0223 8.7509-4.3427 5.2193-1.8768 3.7247-0.80566z" fill="currentColor" stroke="#fff" stroke-miterlimit="10" stroke-width=".5111" />
</svg>
