<?xml version="1.0" encoding="UTF-8"?>
<svg id="carnivore-species" data-name="carnivore-species" xmlns="http://www.w3.org/2000/svg" viewBox="0 0 84.03 72.82">
	<defs>
		<style>
			.letter-spacing-0 {
			letter-spacing: 0em;
			}
			
			.letter-spacing-01 {
			letter-spacing: .01em;
			}

			.species-title {
			font-family: Grandstander-Bold, Grandstander;
			font-size: 9.83px;
			font-weight: 700;
			display: var(--species-title-display)
			}
		</style>
	</defs>
	<g id="carnivore-species-icon" data-name="carnivore-species-icon">
		<text class="species-title" transform="translate(17.46 70.07)">
			<tspan x="0" y="0">
				Ca
			</tspan>
			<tspan class="letter-spacing-01" x="11.97" y="0">
				r
			</tspan>
			<tspan x="16.29" y="0">
				nass
			</tspan>
			<tspan class="letter-spacing-01" x="38.95" y="0">
				i
			</tspan>
			<tspan class="letter-spacing-0" x="42.07" y="0">
				è
			</tspan>
			<tspan class="letter-spacing-0" x="47.55" y="0">
				r
			</tspan>
			<tspan class="letter-spacing-0" x="51.69" y="0">
				e
			</tspan>
		</text>
		<g>
			<path d="m35.6,25.81c-1.78.24-3.81.52-4.08,1.03-.22.41.5,2.74,1.09,4.77.78-1.57,1.75-3.57,2.99-5.8Z" />
			<path d="m43.66,14.5c.15-.16.29-.31.44-.46-2.55-.03-5.81-.17-6.49.55-.67.7-.07,4.38.38,7.22,1.55-2.38,3.41-4.88,5.67-7.31Z" />
			<path d="m67.22,2.76c-1.66-1.13-4.06-2.92-4.67-2.75-.57.16-1.65,2.54-2.53,4.35,2.43-.79,4.77-1.3,6.85-1.57.11-.01.23-.02.34-.04Z" />
			<path d="m49.25,4.62c-.64.36-1.01,3.54-1.36,6.06,2.57-1.98,5.34-3.55,8.1-4.77-2.59-.66-6.08-1.66-6.74-1.29Z" />
			<path d="m30.62,34.95c-1.56-.03-3.29-.09-3.62.2-.5.44-.83,2.5-1.14,4.18,2.16-1.47,3.79-3.21,4.77-4.38Z" />
			<path d="m20.23,39.4c-.45.09-1.46,1.55-2.32,2.73,1.94-.07,3.73-.58,5.33-1.32-1.17-.68-2.49-1.52-3.01-1.41Z" />
			<path d="m7.42,38.26c-.27-.16-.86-.13-1.43-.1.79.63,1.66,1.19,2.49,1.64-.4-.68-.83-1.4-1.06-1.54Z" />
			<path d="m13.39,39.68c-.55-.16-1.97.54-3.04,1,1.47.53,3.1.88,4.81,1.06-.66-.93-1.37-1.94-1.76-2.06Z" />
			<path d="m83.91,6.92c-.44-2.8-7.6-4.48-15.82-3.44-6.88.87-16.43,4.42-23.22,11.71-7.87,8.44-10.91,17.78-12.75,20.08-1.84,2.3-6.95,7.76-13.86,7.55-6.91-.21-12.58-2.73-14.97-6.78-1.48-2.52-4.86-3.71-2.43,2.43,2.43,6.14,9.97,11.01,16.89,12.41,4.88.99,12.81,1.14,21.02-1.42.08-1.13.42-1.72.73-2.26.38-.67-1.21-2.3-1.57-3.01-1.04-2.06.21-1.41.59-.9.7.95,2.87,3.53,2.24,4.36,0,0,0,0,0,0-.02.03-.04.05-.07.08-1,.85-.85,2.26-.9,4.81,0,.19.02.67.04.78,0,0,.17,1.13,1.39,1.35,1.31.23,3.3,1.18,4.05,1.48.74.3,2.6,1.92,2.83,1.95.23.03.19-.37.08-.99-.06-.35-.29-.8-.54-1.19.51.2,1.1.52,1.68.79.94.45,1.82,1.59,1.84,1.33.02-.26,0-1.81-.53-2.32-.21-.2-.48-.4-.75-.58.52.02.79.15,1.5.43,1.02.4,1.5,1.02,1.69.98.19-.04-.18-1.56-.67-1.95-.39-.31-1.41-1-2.69-1.29-1.28-.3-2.62-1.52-2.48-2.06.04-.09.09-.17.18-.24.64-.51,5.07-.04,6.53-3.11,1.03-2.18.33-4.3-.98-6.09,0,0,0,0,0,0-.14-.2-.3-.38-.46-.57-1.97-2.34-4.85-4-5.81-4.26-.06-.02-.13-.02-.21-.02-1.2-.36-1.16-.31-1.91-.49-.95-.22,1.03-.83,3.63-.14.99.26,4.01,2,5.97,4.45,1.91-1.7,3.28-3.31,4.28-4.83-.63-1.12-1.11-1.91-1.21-1.97-.98-.55-1.29-6.31-1.3-8.38,0-.35.03-.9.27-1.33.48-.89,1.06-1.16,1.04-.64,0,.09.02.41,0,.59,0,.06-.02.18-.02.34-.06,1.03.07,3.94.42,6.13.2,1.32.49,2.37.88,2.59.08.04.37.51.78,1.22,0,0,0-.01.01-.02.77,1.32,1.96,3.5,3,5.42,1.34,2.46,3.99,3.49,4.31,3.58.06.02.11.04.17.07-.3.24-.58.6-.85,1.14-.51,1-.16,2.25.65,3.12.58.62.55.4.6-.43.06-.89.22-1.24.6-1.58.55-.49.64-.4,1.26.62.44.74.38,1.74,0,2.64-.37.88-1.32,1.92-1.22,1.98.09.05,1.6-.04,2.58-1.36.13-.17.23-.34.3-.5-.09,1.37-1.1,2.61-.76,2.65.34.05,1.83-1.1,2.45-2.33.05-.09.09-.18.13-.26-.13,1.19-.78,2.69-.58,2.59.33-.16.99-.41,1.85-1.55.86-1.14.83-2.43.66-3.91-.19-1.56-.66-2.43-.76-2.67-.66-2.08-1.99-5.62-4.16-8.28-2.39-2.91-7.49-4.18-7.68-4.36-.16-.16-.45-1.24-.74-2.61,0,0,0-.02,0-.02-.17-.8-.44-2.15-.65-3.34-.16-.92-.27-1.74-.31-2.28,0-.04,0-.09,0-.13,0-.17,0-.3,0-.39.17-.45.59-.56.67-.2.04.21.27,2.12.61,3.59.72-5.21,3.26-7.5,4.03-7.05,1.64.97,8.43,6.12,9.71,4.85,1.22-1.22,1.47-1.84,1.57-2.61.07-.53-.97-.7-1.36-.72-2.28-.16-6.34-3.41-6.58-3.83-.27-.49-.05-.88,1.22-1.15,4.11-.9,8.95-.96,11.09-.71.78.09,1.86.44,2.16.04.36-.48.54-.95.35-2.08-.38-2.24.75-2.42.27-5.51Zm-16.53,5.22c-.89,0-1.62-.72-1.62-1.62s.72-1.62,1.62-1.62,1.62.72,1.62,1.62-.72,1.62-1.62,1.62Z" />
			<path d="m61.02,40.62c-.58-1.07-1.21-2.22-1.79-3.26-.65.9-2.01,2.63-3.02,3.58.22.41.45.8.66,1.14-.47.45-1.28,1.29-1.3,2.43-.01.66.02,1.13.34,1.92.34.86,1.44,2.15,1.3,1.02-.17-1.42.29-2.02.63-2.5.11-.11.31-.11.61.82.39,1.21-.21,2.34-.9,2.93-.68.58-1.57,1.17-1.51,1.26.06.08.82.33,2.18-.35.14-.07.26-.14.37-.21-.07.11-.14.23-.21.35-.65,1.11-2.03,1.72-1.76,1.91.26.18,1.99-.14,3.02-.91.08-.06.15-.11.22-.16-.62.93-1.78,1.9-1.58,1.91.34,0,1,.08,2.19-.51,1.19-.58,1.71-1.67,2.19-2.97.24-.65.35-1.19.42-1.61.05-.24.69-1.71,1.1-3.73-.97-.54-2.32-1.52-3.16-3.06Z" />
			<path d="m73,17.3c-.04-.28-.06-.53-.22-.33-.11.13-.67.69-1.12,1.04.46.3.94.59,1.42.85.08-.42-.04-1.33-.08-1.55Z" />
			<path d="m75.62,19.7c0-.54-.09-1.24-.12-1.45-.05-.33-.07-.63-.27-.4-.14.17-.92.95-1.48,1.34.6.27,1.18.45,1.68.48.05,0,.12.01.19.02Z" />
			<path d="m70.93,16.37c-.07.08-.37.38-.67.64.28.22.58.44.91.67.02-.35-.05-.9-.07-1.06-.03-.21-.05-.4-.17-.26Z" />
			<path d="m72.16,16.58c.09-.17.39-.77.54-1.23-.52.07-1.03.15-1.54.24.3.5.59,1.11.65,1.26.1.25.21,0,.35-.26Z" />
			<path d="m74.5,16.75c.14-.23.62-1.07.83-1.66-.68.04-1.38.1-2.09.19.37.67.74,1.57.8,1.77.1.33.26.02.46-.3Z" />
			<path d="m79.16,15.02c.42.88.84,2.29.91,2.58.09.42.32.06.6-.32.21-.28.97-1.34,1.28-2.05-.31-.02-.63-.05-.9-.08-.5-.06-1.15-.1-1.89-.12Z" />
			<path d="m75.98,15.05c.44.8.88,1.96.96,2.22.11.38.3.03.54-.34.17-.27.76-1.24,1.02-1.92-.77,0-1.62,0-2.52.05Z" />
		</g>
	</g>
</svg>
