<?xml version="1.0" encoding="UTF-8"?>
<svg width="512pt" height="512pt" version="1.1" viewBox="0 0 512 512" xmlns="http://www.w3.org/2000/svg">
 <g fill="#fff">
  <path d="m197.97 249.96c-0.054688 0.17969-0.039062 0.13281 0 0z"/>
  <path d="m453.73 180.47c-46.848 16.078-55.898 60.266-60.379 61.547s-20.801-1.6016-25.602-4.1641c-4.7969-2.5586 2.2422-7.6797-3.5234-5.7617-5.7656 1.9219-12.16 2.5586-12.16 2.5586s-54.398-13.441-69.18-16.961-12.5-47.586-12.5-47.586 6.3164-5.0391 2.9609-5.2031c-23.645-1.125-43.52 43.844-46.398 46.719-2.8789 2.8789-46.719 1.9219-86.723 5.1211-40 3.2031-91.512 31.68-91.512 31.68-0.59375 11.621 24.254 11.68 32.902 21.77 0.15234 0.1875 0.89453-0.070312 1.8984-0.53125 0.19531 0.46094 0.46094 0.91016 0.85938 1.2695 1.5195 1.3828-0.19922 0.26562 0.066406-1.7305 0.69141-0.34766 1.4297-0.74609 2.2188-1.1875 0.18359 0.35156 0.36328 0.71875 0.67969 1 1.4336 1.3008-0.015625 0.375 0.035156-1.4023 0.62891-0.35938 1.2383-0.72266 1.8438-1.082 0.1875 0.40625 0.41016 0.80469 0.76172 1.125 1.4883 1.3516-0.13672 0.31641 0.035156-1.5977 0.58203-0.35156 1.1367-0.69141 1.6016-0.97266 0.1875 0.62891 0.46094 1.25 1.0039 1.7422 1.6953 1.5352-0.65625-0.015624 0.21875-2.4414 0.011719-0.035156 0.011719-0.039062 0.019531-0.078125 0.26953-0.16797 0.44922-0.28125 0.44922-0.28125s0.35938-0.078125 0.875-0.16797c0.16797 0.72266 0.44531 1.4609 1.0703 2.0234 1.6484 1.4961-0.50781 0.0625 0.17969-2.2461 2.0547-0.35156 4.9609-0.78516 5.7148-0.48047 1.0664 0.42578-0.76953 2.9023-2.7031 4.1914-1.4453-1.4609-0.69141-3.4336-1.1211-1.4023-0.14453 0.67969-0.019531 1.3164 0.17578 1.9102-0.38281 0.15234-0.91797 0.29688-1.5469 0.43359-0.039062-0.03125-0.046875-0.039062-0.09375-0.070312-2.1367-1.4375-1.1484-4.082-1.6133-1.8398-0.16797 0.79688 0.027344 1.5352 0.30078 2.2109-0.58203 0.11328-1.1875 0.25-1.8242 0.39453-1.4492-1.4609-0.69531-3.4414-1.125-1.4023-0.11719 0.57422-0.066406 1.1406 0.070313 1.6602-0.70703 0.1875-1.3867 0.42578-2.043 0.69141-1.4297-1.4609-0.67969-3.4141-1.1055-1.3867-0.13281 0.64453-0.035157 1.2578 0.14453 1.8281-0.37891 0.19922-0.70312 0.43359-1.0195 0.67578-1.6484-1.4688-0.84375-3.6445-1.2812-1.5469-0.18359 0.88672 0.0625 1.7031 0.39062 2.4219-0.21484 0.27734-0.44531 0.53125-0.57422 0.85547 0.59375 0.33984 1.168 0.66016 1.7578 1 0.003906 0.003906 0.039063 0.046874 0.039063 0.046874l0.015625-0.015624c0.13281 0.0625 0.25781 0.12891 0.40234 0.21094 34.883 20.48 110.4 18.559 110.4 18.559s10.047 17.988 19.094 27.945c8.4258 9.2812 86.824 41.176 59.945 18.773-26.879-22.398-47.039-45.121-18.242-45.121 28.801 0 138.03-40.004 138.03-40.004s-5.1211 7.25 14.93 27.52c22.18 22.414 49.406 18.391 41.602 16.961-14.879-2.7188-26.449-42.527-26.344-52.008 0.10156-9.0977 29.219-60.84 29.219-60.84-0.003906 0.003907 16.066-11.977-3.3008-5.332zm-386.1 77.445c-1.5195 0.72266-0.12891-5.7734 2.4023-7.2031-0.38281 2.9766-0.88281 6.4805-2.4023 7.2031zm10.398-10.082c-1.2812 0-1.7617-0.79297-1.7617-2.0781s0.47656-2.5586 1.7617-2.5586 2.3203 1.0352 2.3203 2.3203c-0.003907 1.2852-1.0352 2.3164-2.3203 2.3164zm94.625 7.7344-0.097656 0.95312c-0.29297 2.9492-0.59766 5.9922-2.1406 8.6484-0.41016 0.71094-0.97266 1.3984-1.5703 2.1367-1.2578 1.543-2.5586 3.1328-2.3438 4.8242 0.039063 0.34766-0.20312 0.67188-0.55859 0.71875-0.027344 0.003906-0.050781 0.003906-0.078125 0.003906-0.32422 0-0.59375-0.23437-0.63672-0.55859-0.27734-2.2383 1.2656-4.125 2.625-5.7969 0.5625-0.69531 1.0938-1.3477 1.4609-1.9648 1.4023-2.4219 1.6953-5.3242 1.9727-8.1367l0.097656-0.95312c0.23438-2.3125 0.47656-4.707 0.25781-7.0195-0.13281-1.3945-0.71875-2.8398-1.2812-4.2383-0.29297-0.71875-0.57813-1.4336-0.80859-2.1406-0.62109-1.875-1.0859-3.8008-1.543-5.6562-0.60938-2.5156-1.2383-5.1094-2.2461-7.6133-0.13281-0.32813 0.027344-0.70313 0.35156-0.83594 0.32812-0.13672 0.69531 0.027344 0.83594 0.35156 1.0508 2.5898 1.6914 5.2344 2.3086 7.793 0.55859 2.3125 1.0391 4.1367 1.5117 5.5586 0.22656 0.67969 0.5 1.3672 0.78516 2.0586 0.59766 1.4844 1.2188 3.0195 1.3711 4.5977 0.21875 2.4414-0.03125 4.8984-0.27344 7.2695zm8.2695-6.8281c-0.91797 7.9219-0.26953 18.191-4.5156 24.984-0.94141 1.5039-1.582 0.11719-0.62109-0.24219 0.74219-1.1016 0.64844-2.0078 1.0898-3.2852 1.7578-4.9297 2.0938-11.812 2.418-17.023 0.30859-4.9258 0.63672-9.0586-0.45703-13.906-0.41797-1.8594-0.36719-3.6367-0.40625-5.5156-0.015625-1.0938-1.7305-5.2734-0.9375-6.1094 1.4609-1.5312 2.2266 7.2539 2.2266 7.7344 0.28906 4.6094 1.7383 8.6641 1.2031 13.363 0.042968-0.39844 0.14062-1.2109 0 0zm4.3359 16.141c-0.27734 1.3164-0.30078 2.582-0.47266 3.9062-0.21094 1.6289-1.9258 4.7578-1.8008 6.3789 0.066406 0.83594-0.72266-0.27734-0.78516-1.1055-0.13281-1.7969 1.0898-3.6641 1.3203-5.4492 0.52344-4.1172 1.2188-8.2422 2.3203-12.258 1.3477-4.9609 1.7148-10.645 1.7148-15.785 0-2.0234-0.10938-4.3164-0.39844-6.3164-0.09375-0.65625-3.8359-4.8086-2.2539-4.6094 1.9414 0.097656 3.6875 7.625 3.8086 8.9453 0.41797 4.3672-0.25 9.2109-0.67969 13.562-0.41797 4.25-1.8906 8.5586-2.7734 12.73zm15.254-19.996c-0.0625 0.20313-0.14844 0.48047-0.19922 0.64063-0.94531 3.0508-2.0938 6.5195-3.0938 9.5586-1.0859 3.3086-2.9883 5.4492-3.8867 8.8047-0.35938 1.3164-4.6797 10.922-5.8125 10.922-1.6602 0 2.625-5.6797 2.918-6.4375 2.75-7.0977 5.9375-13.531 7.957-20.91 0.97656-3.6211 2.4844-7.1484 1.9883-10.988-0.12891-1-4-8.0273-1.9453-7.957 0.55469 0.082031 2.375 4.7734 2.707 5.6719 1.3672 3.7031 0.27734 7.7266-0.83984 11.332 0.10547-0.29688 0.16797-0.49609 0.20703-0.63672z"/>
 </g>
</svg>
