<?xml version="1.0" encoding="UTF-8"?>
<svg id="flying-species" data-name="flying-species" xmlns="http://www.w3.org/2000/svg" viewBox="0 0 58.33 77.44">
	<defs>
		<style>
			.letter-spacing-0 {
			letter-spacing: 0em;
			}

			.letter-spacing-03 {
			letter-spacing: .03em;
			}

			.species-title {
			font-family: Grandstander-Bold, Grandstander;
			font-size: 9.83px;
			font-weight: 700;
			display: var(--species-title-display)
			}
		</style>
	</defs>
	<g id="flying-species-icon" data-name="flying-species-icon">
		<text class="species-title" transform="translate(19.93 74.69)">
			<tspan x="0" y="0">
				AIl
			</tspan>
			<tspan class="letter-spacing-03" x="11.71" y="0">
				é
			</tspan>
			<tspan class="letter-spacing-0" x="17.46" y="0">
				e
			</tspan>
		</text>
		<g>
			<path d="m58.31,9.73c.13-4.97-.21-6.33-1.62-7.52-3.05-2.57-9,2.93-11.64,5.58-.25.26-.5.5-.73.75,2.01.99,2.62,3.09,1.01,4.4-1.82,1.49-5.23,5.18-5.09,8.78.04,1.04.33,1.49.79,1.8,1.42.95,4.34,3.07,2.62,6.46-.63,1.25-2.12,2.3-3.16,2.31-.02.98-.08,1.79-.15,1.98-.06.14.26-.18.57-.28.43-.13,1.71.34,1.81,2.1.08,1.35.05,1.64-.05,1.93-.1.29.79-.65,2.12.74.74.77.51,2.55-.47,2.85-.89.27-1.13.43-1.63.91-.77.75-1.32,1.7-2.19,1.77-.39.03-1.12.1-1.69-.31.29.43.61.85.96,1.26,2.1,2.39,6.13,2.84,7.99,2.05,3.67-1.54,4.05-5.13,4.79-6.19.52-.76,1.23.11,2.06,1.49.93,1.55,1.93,1.23,2.17.65.24-.59.03-1.81-.85-2.44-1.35-.96-1.54-4.19-5.36-8.75-2.42-2.9-3.88-3.7-5.61-3.95,1.41-.29,2.93-.73,4.5-1.4,7.1-3.01,8.67-10.75,8.83-16.98Z" />
			<path d="m41.22,47.86c-1.83-.49-4.44.18-5.94,2.78-1.33,2.3.04,4.82.38,3.12.55-2.81,2.27-3.92,4.13-3.99,1.86-.07,3.05,1.04,2.95,3.78-.09,2.57-1.43,3.58-2.99,4.06-2.92.89-7.43.29-7.39-5.27.02-3.75,2.77-5.17,4.37-7.62,1.9-2.9,1.33-4.84,1.66-4.72.3.11.2.49.32,1.19.31,1.87,1.05,2.27,1.66,2.2.62-.07.85-.68,1.49-1.54.21-.29.86-.76,1.56-.89.65-.12,1.2-1.29.2-1.85-1.41-.8-2.41.44-2.32.16.1-.29.25-.81.17-2.16-.1-1.76-1.19-1.89-1.93-1.61-.31.12-.72.73-.67.59.19-.48.3-6.76.19-8.11-.02-.24,1.3.58,1.46,1.34.12.57-.4,1.4.05,1.78.21.18,1.36-.18,2-1.44,1.72-3.4-1.56-5.09-2.98-6.04-.46-.31-.69-1.14-.73-2.18-.14-3.6,3.27-7.29,5.09-8.78,2.18-1.78.36-3.98-3.55-3.96-6.34.03-10.22,5.69-11.36,7.16-.01.02-.02.03-.03.05-6.15-3.12-8.1-5.94-12.33-9.44C13.36,3.72,5.89-1.96,2.06.69.29,1.91-.13,3.32.03,8.46c.2,6.43,2.31,14.09,11.09,17.54,1.75.69,3.3,1.21,4.7,1.61-1.79.4-3.5,1.38-6.09,3.92-4.79,4.71-5.04,8.05-6.73,9.04-1.11.65-1.37,1.92-1.07,2.52.3.6,1.55.93,2.72-.67,1.04-1.43,1.94-2.32,2.59-1.54.93,1.1.84,5.91,6.41,7.83,2.34.81,5.52.42,8.15-2.05,2.52-2.37,4.18-5.71,5.07-9.03.49,2.05.97,3.63,1.28,5.8.41,2.9,0,3.28.43,10.13.4,6.32,5.88,7.44,9.73,7.1,3.9-.34,7.58-3.13,6.76-8.61-.26-1.7-1.04-3.44-3.86-4.19Zm-6.31-36.19c.79,0,1.43.64,1.43,1.43s-.64,1.43-1.43,1.43-1.43-.64-1.43-1.43.64-1.43,1.43-1.43Zm-.81,13.5c1.31,0,2.61.14,3.43,2.1.88,2.1-.29,5.68-.91,5.68s-1.83-2.58-1.88-2.72c-.37-.98-.14-.72.21-.07.35.64,1.07,1.67,1.43,1.69.36.02.71-1.97.39-3.49-.34-1.61-1.64-2.45-2.56-2.71-1.19-.33-1.34-.47-.12-.48Zm-1.35,15.48c.23-.64.52-1.04.33-.38-.39,1.35.09,2.89,1.38,2.98,1.32.1,2.28-1.47,2.43-2.98.17-1.66-1.41-1.13-1.4-1.2.04-.16.86-1.66.5-2.88-.61-2.07-2.54-.63-2.72-.52-.19.12-.59.29-.1-.12,1.73-1.44,3.01-1.01,3.47.2.4,1.03-.07,2.12-.42,2.8-.03.05.26-.11.61.06.73.36.81,1.27.71,1.88-.27,1.68-1.54,3.51-2.75,3.6-1.38.11-2.85-1.22-2.06-3.46Zm-5.15-22.42c-.86,2.39-1.4,4.36-1.61,8.44-.15,2.86.18,6.37.68,8.41.5,2.04-.77-.82-1.18-2.5-1.04-4.3-.39-8.95.64-11.67,1.04-2.72,1.94-3.99,1.47-2.68Z" />
		</g>
	</g>
</svg>
