<?xml version="1.0" encoding="UTF-8"?>
<svg width="512pt" height="512pt" version="1.1" viewBox="0 0 512 512" xmlns="http://www.w3.org/2000/svg">
 <path d="m81.922 408.06c-23.039 2.5586-57.344 3.5859-57.344 3.5859-0.003906 0 168.96-48.129 167.42-53.25-1.0234-2.5586-5.6328-5.6328-37.887-5.6328-25.602 0-86.016 1.5352-86.016 1.5352 1.0234 0 118.27-19.969 134.14-25.09 67.586-21.504 76.801-59.391 77.824-74.754 1.0234-17.922-7.168-31.23-15.359-34.816-10.238-4.6094-26.113-10.238-53.246-10.238-40.961 0-94.719 11.777-160.26 35.328l-26.113 9.2148 22.016-16.895c0.51172-0.51172 54.273-41.473 98.816-64 44.031-22.527 98.305-44.543 128.51-53.246 12.801-3.5859 37.887-9.7266 59.902-9.7266 10.754 0 19.457 1.5352 26.113 4.6094 21.504 9.7266 23.551 23.551 23.039 32.77-0.51172 7.6797-4.0977 23.551-6.6562 36.352-1.0234 4.6094-2.0469 9.2148-2.5586 12.289-1.5352 6.6562-1.5352 12.801-1.5352 16.383 5.6328-6.6562 10.238-15.359 14.336-24.062 5.1211-9.7266 9.7266-18.434 15.359-24.574 13.824-14.848 32.258-18.434 49.664-9.2148 2.0469 1.0234 3.5859 2.0469 5.1211 2.5586 4.6094 2.5586 7.6797 4.6094 11.266 3.5859l19.457-4.6094-1.5352 6.6562c0 1.0234-6.1445 23.551-12.801 37.375-8.1914 17.922-32.77 62.977-57.855 89.09-27.652 29.18-67.59 54.266-112.13 71.676-93.184 36.352-213.5 46.078-221.7 47.102z" fill="currentColor"/>
</svg>
