<?xml version="1.0" encoding="UTF-8"?>
<svg width="512pt" height="512pt" version="1.1" viewBox="0 0 512 512" xmlns="http://www.w3.org/2000/svg">
 <path d="m264.27 93.75c10.328 0 20.672 2.3242 27.84 9.0664 20.352 19.137 31.574 37.203 31.66 49.023l-0.023437 0.23438c-0.61719 5.0781-3.1758 20.184-12.199 34.133-0.12891 0.19141-0.25781 0.38672-0.38672 0.57812-2.1328 3.2422-4.6719 6.3789-7.5938 9.3438-0.32031 0.32031-0.68359 0.64062-1.0039 0.96094-2.9414 2.8359-6.2695 5.4375-10.047 7.7227-0.46875 0.27734-0.98047 0.51172-1.4492 0.76562-3.9258 2.1992-8.2773 4.0742-13.207 5.375-0.42578 0.12891-0.89453 0.17188-1.3203 0.27734-5.25 1.2812-10.945 2.0938-17.387 2.0938-6.0391 0-11.352-0.75-16.277-1.8594-0.68359-0.14844-1.4297-0.23438-2.1133-0.40234-4.2031-1.0898-7.8945-2.668-11.352-4.418-1.1094-0.57422-2.2578-1.0859-3.2852-1.707-2.8555-1.707-5.375-3.6484-7.6992-5.6953-1.1328-1.0039-2.2422-2.0039-3.2656-3.0508-1.9609-2.0469-3.7539-4.2031-5.332-6.4219-0.83203-1.1289-1.5781-2.2617-2.2812-3.4141-1.5391-2.4727-2.9688-4.9883-4.0977-7.5078-0.29687-0.61719-0.55469-1.2383-0.83203-1.8555-3.9883-9.4922-5.5469-18.434-6.1016-23.68 0.21484-13.676 11.328-31.551 31.402-50.434 3.9688-3.4141 20.16-9.1289 36.352-9.1289m244.82 258.13-36.91-62.914-58.473-14.613c-1.5352-20.137-4.6523-37.801-8.7461-53.117l30.336-29.25h34.047c11.777 0 21.332-9.5352 21.332-21.332 0-11.777-9.5547-21.332-21.332-21.332h-51.285l-29.547 28.5c-7.5312-14.637-15.383-25.492-21.738-32.727-0.33984-0.38281-0.76953-0.70312-1.1094-1.0664-2.3477-16.875-10.754-34.219-25.09-51.816l36.59-33.898c8.6602-8 9.1719-21.504 1.1523-30.145-8-8.6641-21.527-9.1523-30.145-1.1523l-38.723 35.883c-30.738-18.562-71.891-12.098-95.977-0.62109l-26.09-32.875c-7.3203-9.2578-20.758-10.773-29.977-3.4531-9.2148 7.3359-10.773 20.734-3.4336 29.973l27.266 34.367c-14.977 17.922-23.914 35.691-26.539 53.504-0.44922 0.44922-0.98047 0.83203-1.3867 1.3242-6.6367 7.5703-14.934 18.898-22.762 34.582l-37.676-30.379h-50.199c-11.773 0-21.332 9.5547-21.332 21.332 0 11.797 9.5586 21.332 21.332 21.332h35.137l37.121 29.934c-3.8828 14.695-6.9336 31.359-8.4688 50.387l-66.625 16.66-36.906 62.914c-5.9531 10.156-2.5586 23.211 7.6172 29.184 3.3906 2.0039 7.1016 2.9219 10.773 2.9219 7.3164 0 14.441-3.7539 18.43-10.539l27.82-47.445 38.633-9.6406c1.9219 14.996 7.4883 40.062 23.254 69.547l-44.414 19.027-19.203 57.664c-3.7305 11.16 2.3281 23.234 13.504 26.965 2.2188 0.75 4.5039 1.1094 6.7227 1.1094 8.9375 0 17.277-5.6523 20.246-14.613l13.141-39.445 33.578-14.398c7.2539 9.3867 15.551 18.945 25.172 28.566l10.176 10.176c19.137 19.156 44.586 29.695 71.66 29.695 27.094 0 52.543-10.539 71.699-29.695l10.156-10.176c9.3438-9.3438 17.449-18.648 24.578-27.797l25.832 12.926 13.375 40.148c2.9883 8.9609 11.309 14.613 20.246 14.613 2.2422 0 4.5234-0.35938 6.7422-1.1094 11.18-3.7305 17.238-15.805 13.504-26.965l-18.965-56.938-37.164-18.582c15.555-28.734 21.418-53.375 23.598-68.777l30.805 7.6992 27.816 47.445c3.9922 6.7852 11.117 10.539 18.434 10.539 3.668 0 7.3789-0.9375 10.773-2.9219 10.152-5.9727 13.566-19.027 7.6172-29.184" fill="#fff" fill-rule="evenodd"/>
</svg>
