<?xml version="1.0" encoding="UTF-8"?>
<svg width="512pt" height="512pt" version="1.1" viewBox="0 0 512 512" xmlns="http://www.w3.org/2000/svg">
	<path d="m440.12 345.77 5.1211 1.707 14.965-46.902-6.2383-43.309-16.945-32.016-34.73-17.578-60.094 3.3555-80.742-117.22-28.574 2.7852-46.859-26.691-35.84-32.328-0.058594-0.054688-35.223-9.3867-34.148 23.902-18.633 44.414-14.496 15.945-1.5039 14.055 8.0312 2.6523 16.625-9.625 17.594-4.9023-2.4062 7.6797-10.113 14.352-19.508-3.8906-11.184 8.457 1.8555 10.738-6.9727 7.7461-1.4492 12.664 13.707-2.3828 9.0898 15.109 3.1016-16.68 11.953 8.7148 7.6953 12.039-24.242 1.8945-9.5859-13.004-2.5586 13.078-10.609-1.9453 12.305 41.367 29.164 4.9609 0.046875 0.015625 22.863-1.7539 42.059-98.238 74.344-30.883-65.242 34.965-124.33 300.77 7.5352 43.52h105.87l-5.4375-30.133-20.922-12.555 23.109-2.9336 57.484-89.969 2.2578-33.535 12.555 34.797 16.949 22.598 27.406 18.828 51.676 10.047 43.316-8.1641 1.2578-37.039 10.047-31.797v40.172l4.1758 28.453 35.156 64.438-13.395 26.793h81.188l15.062-53.57z" fill="currentColor" />
</svg>
