<?xml version="1.0" encoding="UTF-8"?>
<svg id="giantism-species" data-name="giantism-species" xmlns="http://www.w3.org/2000/svg" viewBox="0 0 66.31 82.62">
	<defs>
		<style>
			.letter-spacing--04 {
			letter-spacing: -.04em;
			}

			.letter-spacing--01 {
			letter-spacing: -.01em;
			}
			.letter-spacing-0 {
			letter-spacing: 0em;
			}

			.letter-spacing-03 {
			letter-spacing: .03em;
			}

			.species-title {
			font-family: Grandstander-Bold, Grandstander;
			font-size: 9.83px;
			font-weight: 700;
			display: var(--species-title-display)
			}
		</style>
	</defs>
	<g id="giantism-species-icon" data-name="giantism-species-icon">
		<text class="species-title" transform="translate(0 79.87)">
			<tspan x="0" y="0">
				Giga
			</tspan>
			<tspan class="letter-spacing-0" x="21.68" y="0">
				n
			</tspan>
			<tspan class="letter-spacing--04" x="27.8" y="0">
				t
			</tspan>
			<tspan class="letter-spacing-03" x="32.19" y="0">
				e
			</tspan>
			<tspan class="letter-spacing-0" x="37.94" y="0">
				s
			</tspan>
			<tspan class="letter-spacing--01" x="42.81" y="0">
				q
			</tspan>
			<tspan x="48.62" y="0">
				ue
			</tspan>
		</text>
		<g>
			<path d="m51.72,56.63c-.43-.27-1.94-.92-2.94-1.33-.93.32-2.48.5-3.28.58-1.16.12-1.61,0-.71-.2,2.14-.46,3.54-.79,4.33-1.6,1.48-1.51,5.25-9.12,4.36-21.11-.01-.16-.1-.87-.13-1.07-.71-3.84-2.75-7.24-7.26-11.69h0s-.03-.03-.04-.04c-.57-.56-1.17-1.13-1.82-1.73-1.62-1.67-3.24-4.03-1.47-6.44,3.26-4.45,3.83-5.21,3.16-7.85-.67-2.63-6.18-5.88-16.26-3.04-8.61,2.42-9.43,7.65-12.05,10.95-.27.34-1.51,1.33-2.58,2.19,0,0,0,0,0,0-.03.02-.06.05-.09.07-.21.17-.41.33-.6.47-.03.03-.06.05-.1.08-.18.14-.33.27-.47.38C6.35,21.28.82,26.99.47,33.8c-.61,12.06,2.98,18.83,4.41,20.28.79.81,2.19,1.13,4.33,1.6.91.2.46.32-.71.2-.79-.08-2.32-.25-3.25-.57-1,.41-2.48,1.04-2.91,1.31-.61.38-1.58,2.18-1.44,2.38.06.09,1.65-.37,3.32-.88-.69.81-1.43,2.2-1.3,2.4.08.13,2.31-.6,4.43-1.3-.04.03-.07.05-.1.08-.69.56-1.62,2.9-1.42,3.13.17.19,4.46-1.88,5.91-2.51,1.14-.5,2.73-1.13,4.8-.89,3.24.38,3.56,2.28,3.92,2.55.52.39.74-1.9.61-2.55-.09-.48-.42-1.17-.85-1.6.02-.02.04-.04.06-.06-1.56.47-4.06-.05-5.24-.73-.92-.54-.33-.32,1.14.08.88.24,3,.39,3.61.03,1.43-.85,2.04-7.41,1.57-10.77-.58-4.17-3.33-7.26-6.25-9.22-2.21-1.49-2.85-1.8-4.06-3.4-1.21-1.6-1.1-4.85.65-7.32.29-.41.53-.34.38.11-.78,2.27-1.33,4.97.06,6.41,1.3,1.34,1.51,1.23,5.54,3.77,2.42,1.52,5.23,4.44,5.87,8.98.36,2.57-.55,7.57-1.63,10.18,1.41.36,2.89.55,4.42.55,1.84,0,3.62-.28,5.29-.79-1.03-2.67-1.88-7.45-1.53-9.94.64-4.54,3.45-7.46,5.87-8.98,4.03-2.53,4.24-2.42,5.54-3.77,1.39-1.44.84-4.14.07-6.41-.16-.45.09-.52.38-.11,1.76,2.46,1.86,5.72.65,7.32-1.21,1.6-1.85,1.91-4.06,3.4-2.92,1.96-5.67,5.04-6.25,9.22-.47,3.36.15,9.92,1.57,10.77.61.36,2.72.22,3.61-.03,1.46-.4,2.06-.62,1.14-.08-1.08.62-3.25,1.11-4.81.83-.41.43-.72,1.1-.81,1.56-.13.65.09,2.94.6,2.55.35-.26.67-2.17,3.92-2.55,2.07-.24,3.66.39,4.8.89,1.45.63,5.74,2.71,5.91,2.51.2-.22-.73-2.57-1.42-3.13-.03-.02-.06-.05-.1-.08,2.12.7,4.35,1.42,4.43,1.3.13-.2-.61-1.58-1.3-2.4,1.67.51,3.25.97,3.31.88.14-.2-.83-2-1.45-2.38ZM30.96,3.51c.79,0,1.43.64,1.43,1.43s-.64,1.43-1.43,1.43-1.43-.64-1.43-1.43.64-1.43,1.43-1.43Z" />
			<path d="m59.59,36.8c-1.16-1.05-2.63-2.12-4.27-3.11.57,11.27-1.49,15.63-3.22,19.36,2.21.06,3.63.59,4.34,1.93,1.52,2.91-1.24,4.96,1.13,6.61,2.39,1.67,8.12-4.98,8.64-10.21.56-5.58-1.08-9.57-6.62-14.59Z" />
		</g>
	</g>
</svg>
