<?xml version="1.0" encoding="UTF-8"?>
<svg id="gluttony-species" data-name="gluttony-species" xmlns="http://www.w3.org/2000/svg" viewBox="0 0 91.08 82.85">
	<defs>
		<style>
			.species-title {
			font-family: Grandstander-Bold, Grandstander;
			font-size: 9.83px;
			font-weight: 700;
			display: var(--species-title-display)
			}
		</style>
	</defs>
	<g id="gluttony-species-icon" data-name="gluttony-species-icon">
		<g>
			<path d="m53.76,35.41c.07-.49.86.71,1.08,1.3.27.72.36.81-.31.53-.88-.37-.85-1.28-.77-1.83Z" />
			<path d="m90.61,28.91c-1.06-2.83-4.91-11.69-11.69-13.9-6.77-2.21-12.31-1.64-15.27-3.45-2.97-1.81-7.35-4.69-7.48-8.06-.13-3.36-1.46-5.27-1.44-1.15.02,4.12-.6,9.47,7.46,13.33,8.06,3.85,10.23,3.72,12.53,6.51,2.3,2.79,3.32,5.67,2.61,6.86-.71,1.19-1.06,1.33-3.85,0-2.92-1.39-13.56-6.9-22.06-7.38-8.55-.49-15.06,1.2-21.75,4.74-5.88,3.12-10.23,5.84-11.85,10.48-3.58,10.21,1.42,17.71,7.08,20.01,5.67,2.3,24.44,10.27,28.16,10.1,3.72-.18,6.38-.89,3.9-1.42-2.48-.53-15.76-11.33-15.41-12.57.35-1.24,16.47-14.52,17.18-13.99.71.53.89.53,0-2.12-.89-2.66-3.36-5.31-5.14-4.25-1.77,1.06-.35,2.83-3.01,4.96-2.66,2.12-14.17,5.49-16.47,5.67-2.3.18-2.48-1.59-4.6-1.59s-3.19,2.66-4.07.35c-.89-2.3-.59-3.75.12-4.81.71-1.06-.55.91-.15,2.42.4,1.5.61,2.46,1.03,2.15.42-.31,1.47-1.27,3.13-1.24,1.45.03,2.82,1.96,4.63,1.59,1.81-.37,5.76-1.41,6.67-1.71,2.84-.95,8.31-2.96,9.33-4.16,1.4-1.65.68-3.98,2.89-4.66,1.72-.53,3.94-.53,5.58,2.48,1.64,3.01,1.74,4.58,1.56,5.28-.29,1.15-.68.98-1.09.83-.35-.13-1.02.12-1.55.56-.34.28-2.33,1.79-2.24,1.97.09.18,4.19.22,4.68.13.27-.04.8-1.98,1.5-3.34.71-1.4,2.58-3.04,3.04-3.16,1.14-.28-1.17,1.05-2.32,3.46-.69,1.44-1.7,3.73-1.03,5.22.36.8,1.02,1.66,1.56,2.17.26.25,1.66,1.07,1.82,1.12.06.44-.53,1.16-.66,1.3-.32.34-.88.83-.91,1.79-.03.98,1.31,1.58,1.86,1.12.64-.54.83-.75.9-1.64.04-.48-.22-1.2.22-1.16.71.06,1.43.54,1.69,1.16.4.97,1.18,3.7,2.57,3.27,1.4-.43.27-1.03-.22-2.54-.2-.62-1.07-1.33-.99-1.37.11-.06.39.07.7.15.56.15,1.05.36,1.25.54.2.18,1.63,1.97,2.57,1.45,1.05-.57.28-1.24-1.03-2.18-.54-.39-1.75-.96-1.93-1.17-.18-.21.65.04,1.73.25.6.12,2.06,1.85,2.71.43.45-.99-1.26-1.54-2.01-1.63-.76-.09-2.62-.87-3.34-.88-1.08-.02.08-.03-2.11.07-.6.03-1.22.2-1.74.39.38-.22.91-.48,1.69-.78.93-.35,2.32-.15,2.43-.21.02-.01.16-.14.36-.35.86-.88,2.95-3.23,2.83-4.5-.15-1.57-1.17-3.81-1.28-4.34-.11-.53.02-1.04.6-.02.57,1.02,1.44,2.44,1.55,3.12.11.69.24,1.66,0,2.46-.24.8-.49,1.22-.44,1.37.04.15,10.98-1.88,14.21-4.8,3.23-2.92,3.9-7.88,2.83-10.71Zm-57.43,22.73c.57-.66,18.06-11.22,19.45-11.92.73-.37,1.62-1.03,2.48-1.27,1.09-.3,2.02,0,2.21,0,.35,0,0,.15-1.21.91-1.21.77-15.46,12.02-16.1,12.75-.44.5-.72.68.04,1.68.68.89,8.84,8.01,11.62,9.68.47.28,1.77,1.03,1.66,1.21-.11.18-.8,0-1.96-.33-.89-.25-4.67-1.69-7.8-3.86-4.67-3.23-10.13-6.5-10.51-7.14-.26-.43-.22-1.32.12-1.71Zm-4.26-7.06c.98,0,1.77.79,1.77,1.77s-.79,1.77-1.77,1.77-1.77-.79-1.77-1.77.79-1.77,1.77-1.77Zm50.47-22.94c.07-.05,1.34,1.05,1.59,1.46.24.41.28,1.35.23,1.39-.05.04-.99-.82-1.21-1.12-.28-.38-.67-1.67-.6-1.72Zm-2.93-2.3c-.31-.19-.69-.77-.66-.83.04-.06.86.32,1.15.55.29.22.71.78.68.82-.03.04-.93-.39-1.18-.54Zm3.66,13.2c-4.81.15-10.02-2.2-15.54-4.85-6.6-3.17-14.94-4.53-20.61-3.41-8.67,1.71-13.41,6.19-15.8,8.45-1.04.98-.19-.42,1.3-2.06,1.89-2.08,5.13-5.24,10.65-7.17,7.46-2.6,15.95-1.87,25.89,3.15,3.17,1.6,6.54,3.34,8.35,3.98,2.74.96,4.6,1.22,6.38.99,2.75-.37,1.49-4.08,1.28-4.65-.55-1.49.53-.25,1.37,2.13.83,2.35-.27,3.34-3.28,3.44Z" />
			<path d="m18.42,34.04c.06-.12-10.12,2.63-12.01,4.84-1.64,1.92-1.42,4.25-1.19,5.07.04.16.2.82.24.95.06.19.26.49-.99.9-.49.16-1.63,0-2.37.19-.74.19-2.45,1.41-2.04,1.98.92,1.27,2.05-.33,2.63-.53,1.03-.36,2.17-.66,2.02-.42-.15.24-1.46.61-1.87,1.13-.98,1.25-1.84,1.87-.72,2.29,1,.39,2.18-1.58,2.35-1.78.18-.21.63-.48,1.17-.7.29-.12.56-.28.67-.24.08.03-.68.85-.8,1.49-.29,1.56-1.32,2.31.12,2.55,1.43.24,1.84-2.58,2.1-3.59.17-.65.82-1.22,1.51-1.38.74-.17,1.38.04,1.76.32.73.52,1.46,1.4,1.9,1.28.7-.19,1.26-1.14.7-1.94-.37-.52-1.1-.82-1.9-.82s-1.22-.32-1.27-.5c-.09-.32.09-1.86,1.66-2.5,1.3-.53,3.66.09,3.64-.12,0-.15-.09-2.18.69-4.46.79-2.27,1.94-3.9,2-4.01Z" />
			<path d="m58.41,51.21c-.75-.17-1.88.04-2.37-.1-1.26-.35-1.07-.67-1.02-.86.04-.14.17-.8.21-.96.19-.83.33-3.17-1.38-5.03-.15-.16-.33-.33-.57-.48-.19-.12-5.61,4.31-5.5,4.38.81.47,2.07.65,2.27,2.57.01.12-.44.44-1.24.47-.79.03-1.52.36-1.87.89-.53.82.07,1.74.77,1.91.45.1,1.14-.81,1.85-1.36.38-.29,1.01-.52,1.75-.38.7.13,1.37.68,1.56,1.32.3,1,.81,3.8,2.23,3.51,1.43-.29.37-1,.03-2.55-.14-.63-.93-1.43-.86-1.46.11-.05.38.1.68.22.54.21,1.01.46,1.19.66.18.2,1.43,2.12,2.42,1.69,1.1-.47.22-1.05-.81-2.27-.43-.5-1.76-.83-1.91-1.06-.16-.23.99.02,2.04.35.59.18,1.78,1.74,2.64.43.39-.58-1.36-1.73-2.11-1.9Z" />
		</g>
		<text class="species-title" transform="translate(30.9 80.09)">
			<tspan x="0" y="0">
				Vorace
			</tspan>
		</text>
	</g>
</svg>
