<?xml version="1.0" encoding="UTF-8"?>
<svg width="512pt" height="512pt" version="1.1" viewBox="0 0 512 512" xmlns="http://www.w3.org/2000/svg">
 <path d="m357.01 164.16c-121.48-53.293-207.03 0.054688-219.61 8.6836-0.69141-3.8086-2.0781-7.2773-4.8594-7.2383-6.1484 0.085937-5.7188 1.7656-3.9219 4.5156 0 0 2.0547 2.8984 3.793 6.2227-24.887 12.055-93.484 71.211-106.67 144.52-3.8203 21.203-6.8867 37.152-6.8867 44.988 0 1.3984-0.27734 3.7031 1.6797 3.7031h13.246c1.7461 0 1.6445-2.8789 1.6445-2.8789s5.1758-53.012 52.273-79.848c47.105-26.84 90.211-2.7188 90.211-2.7188s52.039 23.613 57.734 83.594c0.10938 1.1484 0.5625 3.4922 2.6211 3.4922h30.711c2.043 0 2.043-2.5977 2.043-4.6523 0-2.0547 4.1172-2.3281 4.1172 0s-0.10938 4.6523 1.4336 4.6523h26.086c1.6445 0 1.5117-2.3242 1.5117-4.6523s4.9297-3.0117 4.9297 0c0 3.0156 0.54297 4.6523 1.8828 4.6523h26.328c3.8242 0 6.5586-8.1836 6.5586-8.1836-0.003906 0.003907 12.008 8.1797 30.668 8.1797h111.24c7.3945 0 7.3945-6.7109 7.3945-6.7109s-4.4297-142.54-136.15-200.32zm-273.17 91.836c-2.1953 0-3.9688-1.7812-3.9688-3.9727s1.7773-3.9727 3.9688-3.9727c2.1914 0 3.9727 1.7812 3.9727 3.9727s-1.7891 3.9727-3.9727 3.9727zm73.664-66.094s-8.2188 1.6445-4.3789 0c3.8359-1.6445 3.2852-15.609 3.2852-15.609-0.011719-3.2852 0.54688-4.9297 5.7539-1.6367 5.2031 3.2773-4.6602 17.246-4.6602 17.246z"/>
</svg>
