<?xml version="1.0" encoding="UTF-8"?>
<svg width="512pt" height="512pt" version="1.1" viewBox="0 0 512 512" xmlns="http://www.w3.org/2000/svg">
 <path d="m350.95 458.07c0.38281-2.6172 0.75781-5.8555 0.875-8.1289 0.51562-10.07-2.2773-17.828-6.457-27.5-8.4258-19.516-17.977-32.855-32.102-48.426-16.785-18.508-32.027-36.684-37.746-61.891-0.89453-3.9727-2.5508-12.77-0.90625-16.805 1.6484-4.0352 7.25-5.8711 9.7383-9.2617 3.2266-4.3828 3.2266-9.0977 4.4336-14.148 1.168-4.9141 4.2031-8.9414 5.5703-13.414 1.4492-4.7266-0.55469-12.113 2.3594-15.984 2.4688-3.2617 11.441-7.0547 15.098-9.043 18.812-10.188 15.305 6.9727 9.9961 19.496 11.555 0.95703 32.543-20.66 37.473-30.125 7.8867-15.156 7.2383-39.602 6.3945-56.574-0.375-7.3867-0.66016-18-7.9102-22.02-6.332 7.1641-10.82 20.172-20.395 23.586-11.523 4.1172-9.207-9.4453-6.0742-16.969 3.4414-8.2031 9.9414-15.938 12.324-24.816 2.1641-8.0547 0.37891-17.867 0.83594-26.523 0.57812-10.828 2.1523-22.66 2.5273-33.051-1.543 1.1211-4.5859 1.4492-6.125 2.4727-1.1992-3.3086-2.2617-11.508-5.4375-13.859-3.6719-2.7148-9.3438 0.17578-13.398-2.0703-7.9414-4.3984-9.5352-14.305-1.7422-19.184-13.984 1.9766-25.281 1.5781-38.539-4.8008-10.27-4.9453-31.289-15.445-29.352-28.809-9.2734-1.3711-13.332 3.457-18.688 10.27-5.2227 6.6523-4.3945 9.4922-6.8359 17.09-2.7344 8.5391-5.3711 8.1055-12.637 12.047-5.2695 2.8555-8.0234 6.3633-10.582 12.59-5.043 12.266-8.1367 25.277-20.008 32.938-9.207 5.9453-28.855 10.41-35.184 19.234-3.7266 5.2031-4.4453 20.559 3.9883 21.477 4.3633 0.47656 12.594-7.1953 16.938-9.1406 10.91-4.8828 27.059-12.875 38.891-11.418 8.4805 1.0391 10.879 6.0859 19.426 1.8828 5.1523-2.5352 8.6133-10.902 13.496-12.348 7.707-2.2773 8.3672 5.9336 15.879 1.8906 5.5742-3 7.4648-11.035 13.449-14.156 14.754-7.6953 22.82 10.395 15.66 21.816-8.0391 12.832-26.082 15.668-38.066 22.625-13.242 7.6836-20.594 16.719-22.988 31.324-1.1758 7.1523 2.75 14.191 1.1367 20.281-1.5781 5.9453-6.6133 8.6562-7.3281 15.902-1.5352 15.594 2.9688 28.094 6.4453 42.461 2.832 11.684 7.4961 29.441 4.1641 40.668-4.168 14.027-8.3047 24.977-4.4805 39.633 3 11.516 10.246 20.363 19.727 26.348 20.691 13.066 33.617 34.059 51.227 51.359 9.6992 9.5234 14.945 17.516 22.988 27.945 11.414 14.801 13.312 28.262 7.8242 46.512-1.7422 5.832-2.918 12.426-6.7891 17.371-2.9492-4.3789-0.38281-11.43-7.3789-12.969-5.7969-1.2695-14.238-0.23437-18.238 3.5234-7 6.5742-6.4219 25.25 2.3867 30.547 26.766 16.082 45.465-20.586 46.512-23.691 1.2227-3.6055 1.7422-4.0898 3.5781-9.9062 2.082-6.5898 2.582-7.2969 2.9648-10.582" fill="#fff"/>
</svg>
