<?xml version="1.0" encoding="UTF-8"?>
<svg width="512pt" height="512pt" version="1.1" viewBox="0 0 512 512" xmlns="http://www.w3.org/2000/svg">
 <path d="m240.89 310.72c-3.9609 0.82812-8.1875 2.0391-12.723 3.8125-28.559 11.191-61.793 8.9766-85.086-24.602l1.5625-4.7773c2.0586-6.4141 3.9492-13.496 6.168-22.957 0.082032-0.082031 0.16406-0.24219 0.16406-0.32812v-0.16016l0.003906-0.078126c0.085937-0.16406 0.085937-0.32812 0.085937-0.49219 0-1.4023-0.98828-2.7148-2.3867-3.0469-1.6445-0.41406-3.2852 0.65625-3.7031 2.3047-1.8945 7.9766-3.8711 15.633-6.1797 22.949l-2.5508 7.8984c-2.3008 6.4258-4.7773 12.348-7.5664 17.777-0.74609 1.3984-1.6445 2.6406-2.8008 3.7891-13.496 13.984-18.023 32.258-13.496 54.957l3.375 17.941c0.33203 1.9766 1.5625 3.625 3.125 4.8555 4.1367 3.2969 7.1328 7.7305 9.3203 13.035 0.23047 0.56641-0.19531 1.1992-0.82031 1.1992h-20.73c-0.36328 0-0.67969-0.23047-0.8125-0.5625-1.3867-3.5391-4.0547-6.5469-8.4336-8.8164-2.5508-1.2344-4.0312-3.8711-4.1992-6.6602-1.4727-20.898-6.6602-41.641-15.141-62.289-1.2305-2.9609-1.3984-6.332-0.57422-9.4609 2.8828-10.699 3.9492-20.824 1.7266-29.961-0.24219-1.1523-0.82031-2.2188-1.5625-3.207-21.805-30.117-30.273-60.898-28.051-92.246l1.2305-9.0508c-6.9922 5.5156-8.5547 16.789-10.199 33.406-1.0625 11.453-2.3828 24.199-6.7461 36.461-0.82031 2.3047-3.4492 3.4609-5.6719 2.5508-2.0547-0.90234-3.125-3.2852-2.3867-5.3398 4.0352-11.355 5.2695-23.617 6.3398-34.559 1.8945-19.012 3.7031-36.945 20.074-43.117 67.07-18.461 130.36-34.152 187.04-45.062-5.5195 14.355 2.1094 24.359 9.6523 34.016 3.4453 4.3984 7 8.9531 10.211 14.551 2.2773 3.9727 1.25 6.3281-4.5312 15.555-1.2383 1.9727-2.5664 4.1016-3.9375 6.4375-13.246 22.652-39.867 78.094-9.7852 113.28zm239.55-12.559-2.3047 10.285c-0.73828 2.9648-3.375 5.0977-6.4219 5.0977h-5.3398c-0.91797 0-1.7344 0.09375-2.5586 0.41406l-10.859 3.457c-2.0547 0.65625-3.4492 2.3867-3.8672 4.4453-2.2266 11.273-7.3281 19.176-13.492 21.883-0.82422 0.41406-1.7344-0.16016-2.0625-0.98438-6.082-18.191-21.395-31.27-32.5-45.094-4.3672-5.3516-7.9805-10.777-10.199-16.707-0.32812-1.6445-1.9766-2.8008-3.625-2.4688-1.4805 0.32422-2.5508 1.6445-2.5508 3.0469 0 0.16797 0.085937 0.41016 0.085937 0.57422v0.082031c0.085938 0.32813 0.16406 0.66406 0.32422 0.90625 2.1406 5.6836 5.4375 11.273 10.367 17.445-21.395 10.777-41.957 20.402-61.133 27.566-10.039 7.5742-14.895 18.352-16.539 31.027 3.4648 37.203 17.766 29.332 21.246 44.586 0.12891 0.54688-0.28516 1.082-0.85156 1.082h-27.633c-0.39453 0-0.73828-0.26562-0.83984-0.64062-3.6758-12.965-14.027-16.5-19-31.617-9.375-3.9492-14.48-9.1328-13.402-16.051-4.3672-4.5273-6.6719-9.4609-4.4492-15.223-5.0977-3.9492-8.3047-8.8828-4.7734-17.363l3.6211-11.27 15.883-49.379c0.49609-1.6445-0.41016-3.375-1.9766-3.8594-1.6445-0.57422-3.375 0.32422-3.9492 1.9766l-15.801 49.285v0.082031c-4.7305-1.1719-10.715-1.8008-17.812-1.1172l-0.027344-0.027343c-32.609-33.391-2.0234-91.918 7.9922-109.05 7.3516-12.59 13.777-18.938 8.4922-28.172-11.699-20.418-28.066-28.199-17.891-46.93 5.0195-7.3281 11.438-11.766 21.473-8.9688 5.8477-3.293 11.199-4.4375 15.551 0 4.0312-3.4492 8.1523-5.1797 12.344-2.0547 5.5977-3.5391 11.434-4.6094 17.281-3.9492 3.8672-3.8672 10.121-4.1914 18.434-1.3164 8.2227-3.207 15.059-2.4688 20.164 2.0586 6.75-1.3984 10.531 1.1523 12.914 5.5156 5.8477-0.085937 10.121 2.0586 12.59 6.5859 4.5312 0.65625 7.5742 3.043 8.9766 7.3281 4.7734 2.4609 7.3984 6.168 8.8828 10.531 3.125 1.8125 5.3438 4.6094 5.5156 9.707 2.7969 1.5625 4.6016 4.3633 5.5078 8.1445 4.1172 3.457 6.25 7.6484 6.332 12.586 4.9375-0.41406 7.7344 1.8125 8.3984 6.5781 4.0312-1.5625 7.6484-0.65625 10.777 3.707 5.0195-1.5625 8.7188-1.0703 11.023 1.5664 4.8555-1.0703 9.625-0.33203 14.156 2.1367 6.3281-1.1523 10.281 0.085937 12.094 3.375 3.9492 2.4688 6.25 5.5156 6.8242 9.2148 4.4453 1.7266 6.1758 4.9375 4.6094 9.957 1.9766 4.7734 0.41406 7.6562-3.457 9.4609 11.027 19.5 12.594 45.988 3.457 80.551zm-22.75-62.32c3.3438-5.3203 3.0273-23.359-6.8438-35.527-0.65625-0.8125-1.9766-0.28125-2.0625 0.76172-1.5938 17.926-14.008 20.203-13.887 29.328-11.73-5.1914-24.562-5.1055-29.086 1.125-3.4336 4.7266-3.4727 13.516 15.848 28.551 0.55859 0.43359 1.2305 0.64844 1.8984 0.64844 0.91016 0 1.8242-0.41406 2.4336-1.1875 1.0508-1.3516 0.80469-3.2852-0.53906-4.332-12.891-10.035-16.648-17.297-14.637-20.055 2.8047-3.8516 16.316-3.5469 27.664 4.1484 0.046875 0.027343 0.097657 0.03125 0.14453 0.054687 9.8555 8.4023 16.664-0.23047 19.066-3.5156zm8.1133 29.02c0-3.7266-3.0195-6.7383-6.7383-6.7383-3.7266 0-6.7383 3.0156-6.7383 6.7383 0 3.7227 3.0156 6.7344 6.7383 6.7344 3.7227 0.003906 6.7383-3.0078 6.7383-6.7344z" fill="currentColor"/>
</svg>
