<?xml version="1.0" encoding="UTF-8"?>
<svg id="hounds-species" data-name="hounds-species" xmlns="http://www.w3.org/2000/svg" viewBox="0 0 76.83 76.46">
	<defs>
		<style>
			.species-title {
			font-family: Grandstander-Bold, Grandstander;
			font-size: 9.83px;
			font-weight: 700;
			display: var(--species-title-display)
			}
		</style>
	</defs>
	<g id="hounds-species-icon" data-name="hounds-species-icon">
		<text class="species-title" transform="translate(21.18 73.71)">
			<tspan x="0" y="0">
				Sociale
			</tspan>
		</text>
		<g>
			<path d="m44.55,49.66c-.45-.11-.86-.15-1.24-.16.24-.3.52-.71.89-1.26.11-.16.21-.32.3-.48-1.59.92-3.33,1.69-5.25,2.26-.69.21-1.35.38-1.97.51-.03.03-.06.07-.1.1-.99,1.06-1.14,1.34,1.24.56.55-.18,1.2-.05,1.83.09.99.23,1.52.28,2.54,1.62,1.27,1.67,1.89,1.96,1.46.31-.17-.66-.27-1.08-.6-1.48.44.24.91.55,1.24.93,1.28,1.47,1.38.79.7-.74-.21-.48-.45-.77-.71-.98.31.06.62.18.94.49,1.17,1.11,1.54.94.64-.61-.46-.79-.89-.92-1.9-1.16Z" />
			<path d="m64.1,48.43c-.36-.04-.69-.04-1-.02-.46-1.46-.1-4.09-.78-7.09,0,0,0,0,0,0-.07-.31-.14-.61-.23-.93-.53-1.81-1.41-3.93-2.2-5.69-.94.19-1.77.43-2.49.72.76,1.48,1.23,2.85.85,3.42-.87,1.34-1.04,1.87-.74,4.71,0,0,0,0,0,0,.04.35.08.74.13,1.18.21,1.77.32,2.71.36,3.57.02.5.05.81.11,1-.5.15-.81.52-1.21,1.1-.84,1.18-.95,1.49,1.31.39.52-.25,1.18-.22,1.83-.16,1.02.09,1.55.08,2.74,1.27,1.49,1.49,2.14,1.69,1.5.11-.26-.63-.41-1.03-.8-1.39.47.18.97.42,1.35.76,1.47,1.28,1.48.6.6-.83-.27-.44-.55-.7-.84-.88.32.02.65.1,1,.36,1.31.95,1.66.73.55-.69-.56-.72-1.01-.79-2.04-.9Z" />
			<path d="m63.98,20.51c-3.04.3-6.57,1.01-10.94,2.31-10.63,3.16-16.96,8.78-23.16,12.8-2.8,1.82-6.26,4.38-8.6,4.74-5.76.88-12.89,4.02-14.74,5.02-4.79,2.59-8.41,8.33-5.51,12.51,2.89,4.18,10.79,3.93,12.59,3.76,2.97-.27,3.42-1.18.23-1.48-1.98-.19-7.96-.41-9.01-4.41-1.03-3.92,4.55-5.82,8.53-6.48.95-.16,5.84-1.27,12.76-.2.52.17,1.2.31,2.08.43-.15.51-.4,1.13-.77,1.93-.36.78-.95,1.52-1.22,2.46-.24.84,2.05.43,2.68.5.98.11,1-.07,2.32.89,1.39,1.01,2.02,1.33,1.37,0-.19-.39-.25-.61-.35-.78.29.13.59.29.88.48,1.67,1.11,2.24,1.38,1.34-.02-.34-.52-.61-.97-.98-1.3.38.08.78.21,1.11.48,1.3,1.09,1.58,1.03.68-.51-.67-1.14-1.29-1.19-2.56-1.15.69-.47,1.81-1.3,3.56-2.77,0,0,0,0,0,0,.58-.48,1.22-1.04,1.94-1.67,4.85-4.25,1.38-8.85-7.2-6.87-.42.1-.87.26-1.33.48,0,0-.02,0-.02.01-.1.05-.2.1-.3.15-.07.04-.14.07-.21.11-.04.02-.07.04-.11.06-.12.07-.23.14-.35.21,0,0,0,0,0,0-.25.16-.49.33-.72.52.14-1.11,1.59-1.89,3.46-2.35,9.52-2.33,13.39,3.43,8.54,7.68-.46.4-.89.77-1.31,1.12.19-.05.37-.1.57-.16,2.45-.73,4.61-1.77,6.53-3.06-.35-1.05-.02-3.04.19-4.44.55-3.8,1.03-5.18,1.19-5.69.1-.33.6-1.62.96-2.2.44-.71.19.75-.11,2.13-.18.85-.56,2.26-1.03,5.51-.18,1.23-.46,2.93-.28,4.03,0,0,0,0,.01-.01.03.18.07.35.12.49,1.3,3.36,2.71,5.22,3.31,6.29.12.22.27.4.45.55-.25.15-.35.4-.44.68-.29.83,2.04.49,2.66.58.98.14,1.01-.04,2.3.96,1.36,1.06,1.98,1.39,1.37.04-.18-.4-.24-.62-.32-.79.28.14.58.3.87.51,1.64,1.16,2.2,1.44,1.34.02-.32-.53-.58-.99-.94-1.33.38.09.78.23,1.09.52,1.27,1.13,1.55,1.07.7-.49-.67-1.23-1.33-1.24-2.76-1.23-.2,0-.39,0-.57,0,.13-.35-.06-.85-.55-1.65-1.23-1.99-3.15-6.32-4.54-7.38-.4-.31-.69-.5-.9-.64,0,0,.02-.01.02-.02-.37-.25-.49-.33-.51-.61-.02-.28,0-.66.06-1.11.27-1.8,1.1-4.77,1.92-6.77.04-.08.07-.16.11-.23,0,0,.45-1.08,1.23-2.09.77-.99.8-.41.5.26-.11.25-.27.6-.65,1.45-1.11,2.45-2.25,6.88-2.15,8.23,0,.1.03.17.06.23,1.18-1.35,2.24-2.84,3.2-4.45,1.72-2.88,5.1-3.45,11.61-4.1,4.97-.5,9.67-4.44,11.2-7.09,1.69-2.93-3.35-6.48-12.52-5.58Zm2.48,7.04c-1.06,0-1.92-.86-1.92-1.92s.86-1.92,1.92-1.92,1.92.86,1.92,1.92-.86,1.92-1.92,1.92Z" />
			<path d="m21.05,27.16c0,6.62,1.06,7.91,3.08,10.75,2.12-1.35,2.36-1.67,4.92-3.33,3.77-2.45,7.59-5.49,12.41-8.2-.78-.93-1.68-1.88-2.69-2.82-5.71-5.31-6.48-9.66-7.8-15.84C29.63,1.53,23.35.21,18.06,0c-5.29-.2-7.08,3.25-2.92,7.71,4.16,4.46,5.91,11.36,5.91,19.45Zm2.51-23.08c1.06,0,1.92.86,1.92,1.92s-.86,1.92-1.92,1.92-1.92-.86-1.92-1.92.86-1.92,1.92-1.92Z" />
			<path d="m39.89,22.65c1.07,1,2.02,2,2.83,2.99,2.76-1.46,5.84-2.8,9.4-3.86.72-.21,1.4-.4,2.08-.59.38-3.83,2.14-6.64,4.95-8.04,5.81-2.87,6.52-6.49,5.55-8.14-.93-1.59-3.7-1.9-8.01-1.77-5.46.16-11.21,3.32-14.5,10.27-1.19,2.51-3,4.75-4.7,6.64.69.81,1.47,1.64,2.39,2.5Zm13.96-16.21c1.06,0,1.92.86,1.92,1.92s-.86,1.92-1.92,1.92-1.92-.86-1.92-1.92.86-1.92,1.92-1.92Z" />
			<path d="m7.45,43.27c.1.03.19.06.29.09,2.87-1.28,7.72-3.16,12-3.93,1.64-.31,1.51-.31,2.05-.46.47-.13,1.01-.43,1.01-.43,0,0-1.31-1.96-1.47-2.32,0,0-.73.8-2.17,1.18-1.47.47-3.3.65-5.51.9-4.73.53-11.64-.34-11.77-5.88-.04-1.57-.31-2.34-.87-.34-1.21,4.28.64,9.3,6.44,11.19Z" />
		</g>
	</g>
</svg>
