<?xml version="1.0" encoding="UTF-8"?>
<svg width="512pt" height="512pt" version="1.1" viewBox="0 0 512 512" xmlns="http://www.w3.org/2000/svg">
 <path d="m96.203 20.48c5.7344 5.1211 4.6602 11.109 6.5547 15.922 2.0977 5.375 3.7383 10.957 5.8359 16.281 2.0469 5.0703 4.3008 10.086 6.7578 15 2.457 4.8633 5.2227 9.5234 7.9375 14.438 3.3789-0.76953 6.1445-1.332 8.9102-2.0469 10.238-2.6641 19.508-0.41016 27.957 5.582 14.746 10.496 28.109 22.426 37.684 37.887 7.832 12.645 7.3711 26.367 2.4062 40.09-0.87109 2.4062-2.2031 4.7109-3.2773 6.9648 5.4766 16.23 9.625 32.461 9.7266 49.766 0.15234 20.531-4.4531 39.32-14.746 57.141-18.637 32.258-20.582 66.203-8.9609 101.22 1.3828 4.0977 3.0195 8.1406 5.1719 11.879 6.6055 11.672 15.668 15.309 28.52 11.672 11.672-3.3281 21.504-9.8828 30.156-18.176 10.238-9.7773 17.973-21.402 21.555-35.07 5.1719-19.812 9.1641-39.988 13.977-59.902 4.4531-18.535 8.1914-37.324 14.285-55.348 11.98-35.379 39.32-53.352 74.906-56.781 26.727-2.5586 41.883 7.6289 53.094 29.441 5.7344 11.16 4.5586 23.039 2.9688 34.867-2.1523 15.871-7.0156 31.027-13.621 45.516-8.0898 17.766-13.16 36.504-16.488 55.551-3.5312 20.172-1.4844 40.449 4.8125 60.008 3.0703 9.4727 9.9844 16.742 17.355 23.449 2.457 2.2539 4.6602 4.8125 7.0156 7.2188-0.20312 0.61328-0.46094 1.2305-0.66406 1.8438-1.6367 0-3.6367 0.61328-4.8633-0.10156-23.809-14.027-40.859-33.637-48.895-60.414-3.7891-12.492-2.7148-25.395-0.46094-37.836 2.7656-15.309 6.9648-30.363 10.598-45.516 2.1523-8.9609 5.2227-17.816 6.5039-26.93 0.92188-6.3984 0.30859-13.312-0.97266-19.711-1.8438-9.2656-8.7031-13.211-18.074-11.828-10.805 1.6367-19.301 7.3711-26.676 15.055-9.0117 9.4727-14.898 20.891-17.254 33.535-3.5859 19.301-5.9922 38.809-8.9609 58.215-2.8672 19.148-5.1719 38.398-8.8594 57.344-7.832 40.652-49.715 76.031-78.645 83.457-15.82 4.043-30.824 3.3789-45.672-3.3281-15.105-6.8086-27.441-17-37.273-30.309-20.582-27.801-29.234-59.137-28.824-93.543 0.35938-32 10.547-61.285 22.938-90.113 4.9141-11.418 10.137-22.68 14.645-34.305 2.2539-5.8867 3.8906-12.188 4.5039-18.434 1.0234-9.832-4.3516-15.055-14.078-15-3.1758 0-6.3477 0-9.5234-0.050781-13.312-0.25781-22.223-7.2188-27.852-18.738-4.6602-9.5234-6.5547-19.918-6.2969-30.309 0.41016-13.824 1.793-27.648 3.3281-41.422 0.92187-8.0391 5.3242-14.539 12.902-19.762-4.1992-6.1953-8.0898-12.188-12.289-17.922-5.2734-7.2188-10.957-14.184-16.281-21.402-1.7422-2.3555-4.6094-4.6094-2.0469-9.625 4.0977 4.6602 7.6797 8.7031 12.133 13.723-0.60938-10.098-5.4219-18.496-3.582-29.145z" fill="#fff"/>
</svg>
