<?xml version="1.0" encoding="UTF-8"?>
<svg id="intimidate-species" data-name="intimidate-species" xmlns="http://www.w3.org/2000/svg" viewBox="0 0 57.53 78.88">
	<defs>
		<style>
			.opacity-1 {
			opacity: 1;
			}

			.letter-spacing--04 {
			letter-spacing: -.04em;
			}


			.letter-spacing--03 {
			letter-spacing: -.03em;
			}

			.letter-spacing-01 {
			letter-spacing: .01em;
			}

			.species-title {
			font-family: Grandstander-Bold, Grandstander;
			font-size: 9.83px;
			font-weight: 700;
			display: var(--species-title-display)
			}
		</style>
	</defs>
	<g id="intimidate-species-icon" data-name="intimidate-species-icon">
		<text class="species-title" transform="translate(1.46 76.13)">
			<tspan class="letter-spacing--04" x="0" y="0">
				S
			</tspan>
			<tspan x="5.24" y="0">
				t
			</tspan>
			<tspan class="letter-spacing-01" x="9.98" y="0">
				r
			</tspan>
			<tspan class="letter-spacing-01" x="14.3" y="0">
				i
			</tspan>
			<tspan x="17.42" y="0">
				dula
			</tspan>
			<tspan class="letter-spacing--04" x="38.62" y="0">
				n
			</tspan>
			<tspan class="letter-spacing--03" x="44.74" y="0">
				t
			</tspan>
			<tspan x="49.13" y="0">
				e
			</tspan>
		</text>
		<g>
			<path d="m21,31.88c.16.06,3.14.55,4.36.55s4.5-.46,4.71-.55c.93-.42-3.23-.65-4.68-.65s-5.44.23-4.39.65Z" />
			<path d="m48.23,37.84c1.76-4.29,4.97-8.7,4.97-8.97,0-.29-3.18-4.51-4.99-9.01-1.8-4.48-2.23-9.23-2.8-9.8-.57-.57-5.31-.97-9.74-2.78-4.43-1.8-8.55-5.01-9.07-5.01-.35,0-4.79,3.26-9.33,5.13-4.54,1.87-9.17,2.36-9.48,2.66-.31.31-.86,5.12-2.75,9.68C3.19,24.22,0,28.45,0,28.87s3.14,4.53,4.96,8.94c1.92,4.64,2.53,9.57,2.83,9.87.29.29,4.85.74,9.44,2.65,4.45,1.85,8.93,5.14,9.37,5.14s4.51-3.12,9.06-5.01c4.49-1.87,9.47-2.51,9.75-2.78.29-.29.85-5.03,2.82-9.84Zm1.53-8.55c1.57-.25-3.43,1.43-7.42,2.09-3.13.52-6.03.36-7.01,0-.3-.11,2.7-.01,6.83-.69,3.69-.6,6.6-1.25,7.6-1.41Zm-9.52-10.87c2.14-3.05,2.95-5.37,3.46-6.24,1.1-1.88-.34,3.13-2.94,6.68-1.88,2.56-4.26,4.54-5.7,4.98-.58.17,3.21-2.6,5.18-5.41Zm-8.04,5.33c1.06,0,1.91.85,1.91,1.91s-.85,1.91-1.91,1.91-1.91-.85-1.91-1.91.85-1.91,1.91-1.91Zm-6.03-11.29c.1-3.74.2-6.52.3-7.53.22-2.17.56,3.35.47,7.39-.08,3.17-.28,5.2-.82,6.1-.16.27-.06-1.78.05-5.96Zm-8.42,12.95c.22-1.03,1-1.74,1.75-1.58.74.16,1.16,1.12.94,2.15-.22,1.03-1,1.74-1.75,1.58-.74-.16-1.17-1.12-.94-2.15Zm-8.33-13.24c.51.88,1.33,3.2,3.46,6.24,1.97,2.81,5.19,5.16,4.61,4.99-1.44-.44-3.25-2-5.13-4.55-2.6-3.54-4.04-8.56-2.94-6.68ZM3.55,29.29c1,.16,3.91.81,7.6,1.41,4.13.67,7.12.58,6.83.69-.98.36-3.87.51-7.01,0-3.99-.66-8.99-2.34-7.42-2.09Zm17.57,8.16c-.44,1.44-2.42,3.82-4.97,5.7-3.54,2.6-8.56,4.04-6.68,2.94.88-.51,3.19-1.33,6.24-3.46,2.81-1.97,5.58-5.76,5.41-5.18Zm5.26,16.15c-.54-.9-.57-2.9-.65-6.07-.1-4.04.25-6.41.47-4.24.1,1.01.23,2.35.27,3.51.12,4.18.07,7.07-.09,6.8Zm-2.25-12.38c-2.1,0-4.43-8.25-4.43-9.53,0-1.17,2.98-12.37,5.14-12.37,2.71,0,6.25,10.97,6.25,12.37s-3.92,9.53-6.95,9.53Zm12.54,1.93c-2.56-1.88-4.54-4.26-4.98-5.7-.17-.58,2.59,3.21,5.41,5.18,3.05,2.14,5.36,2.95,6.25,3.46,1.88,1.1-3.14-.34-6.68-2.94Z" />
			<path d="m46.13,2.86c3.3,2.38,5.09,6.95,4.06,11.75-.23,1.06-.58,2-1.02,2.82.18.53.37,1.07.59,1.6.92,2.28,2.19,4.49,3.21,6.15,1.1-2.07,1.97-4.46,2.45-7.18,1.63-9.25-1.89-14.89-7.46-17.36-3.6-1.6-4.89.01-1.83,2.22Z" />
			<path d="m55.55,49.08c-.69-.08-1.72-.22-1.69-.32,2.52-7.2-.27-9.38-4.08-10.18-.05.1-.09.2-.14.31-.94,2.22-1.6,4.62-2.05,6.51,1.55.61,2.47,1.77,2.44,2.82-.01.46-.67.54-1.2.44-1.43-.27-1.75,1.05-1.36,1.65.56.85,1.43-.12,1.78-.34.36-.22,1.26-.61,1.93-.24.33.19.63.84.72,1.42.23,1.52.32,2.27,1.41,1.99.96-.25.42-1.28.07-2.05-.31-.69-.69-1.12-.8-1.21-.09-.08.41-.05,1.2.98,1.22,1.61,1.86,1.71,2.27,1.04.33-.53-.18-.96-1.13-1.65-.67-.49-1.23-.66-1.25-.7-.06-.09.67-.01,1.64.54,1.34.76,1.92.91,2.15.29.27-.72-.34-1.11-1.92-1.3Z" />
			<path d="m15.65,51.46c-1.94-.76-3.95-1.31-5.6-1.7-.98,1.85-1.57,4.29-1.55,7.52,0,.12-1.47.33-2.25.43-1.79.22-2.5.67-2.18,1.49.27.7.92.54,2.46-.33,1.11-.63,1.94-.71,1.87-.61-.03.04-.66.24-1.43.8-1.09.79-1.67,1.28-1.3,1.88.47.77,1.19.66,2.59-1.18.89-1.17,1.47-1.21,1.36-1.12-.12.1-.56.6-.91,1.38-.39.88-1.02,2.05.08,2.34,1.25.33,1.34-.54,1.61-2.27.1-.65.43-1.4.82-1.62.77-.43,1.79.02,2.21.27.4.25,1.4,1.36,2.03.39.45-.69.08-2.19-1.55-1.89-.61.11-2.09-.21-1.97-.72.58-2.56,2.02-4.17,3.72-5.06Z" />
			<path d="m46.9,57.7c-.79-.1-2.25-.31-2.25-.43.01-3.1-.52-5.48-1.43-7.3-1.51.34-3.56.78-5.68,1.49,1.68.89,3.11,2.5,3.68,5.04.11.51-1.37.83-1.97.72-1.63-.3-2,1.2-1.56,1.89.64.97,1.63-.14,2.03-.39.41-.26,1.44-.7,2.21-.27.38.22.72.96.82,1.62.26,1.74.36,2.6,1.61,2.27,1.09-.29.48-1.46.08-2.34-.35-.78-.79-1.28-.91-1.38-.11-.09.47-.05,1.36,1.12,1.4,1.84,2.12,1.95,2.59,1.18.37-.61-.21-1.1-1.3-1.88-.77-.56-1.4-.76-1.43-.8-.07-.1.77-.02,1.88.61,1.54.87,2.19,1.03,2.46.33.32-.82-.39-1.26-2.19-1.49Z" />
		</g>
	</g>
</svg>
