<?xml version="1.0" encoding="UTF-8"?>
<svg width="512pt" height="512pt" version="1.1" viewBox="0 0 512 512" xmlns="http://www.w3.org/2000/svg">
 <g fill="#fff">
  <path d="m234.5 147.97c0 4.2422-3.4375 7.6797-7.6797 7.6797-4.2422 0-7.6797-3.4375-7.6797-7.6797s3.4375-7.6797 7.6797-7.6797c4.2422 0 7.6797 3.4375 7.6797 7.6797"/>
  <path d="m325.12 322.56c17.406-15.359 28.16-39.934 28.16-67.582 0-32.77-15.359-60.93-38.398-75.777 14.336-15.871 23.039-37.887 23.039-62.977 0-47.617-32.258-86.016-72.703-86.016-39.938 0-72.703 38.398-72.703 86.016v3.0703c-14.336 15.871-23.551 38.398-23.551 63.488 0 25.602 9.7266 48.641 24.574 64.512-21.504 14.848-35.328 42.496-35.328 73.727 0 33.281 16.383 62.465 39.938 76.289-8.1914 43.52 13.312 79.871 50.688 82.434 39.426 3.0703 81.922-32.258 94.719-79.359 9.2148-31.742 1.0195-61.949-18.434-77.824zm-98.305-155.65c-9.7266 0-17.922-8.1914-17.922-18.434 0-10.238 8.1914-18.434 17.922-18.434 9.7266 0 17.922 8.1914 17.922 18.434-0.003906 10.242-8.1953 18.434-17.922 18.434zm53.246 0c-9.7266 0-17.922-8.1914-17.922-18.434 0-10.238 8.1914-18.434 17.922-18.434 9.7266 0 17.922 8.1914 17.922 18.434 0.51172 10.242-7.6797 18.434-17.922 18.434z"/>
  <path d="m287.23 147.97c0 4.2422-3.4375 7.6797-7.6797 7.6797-4.2422 0-7.6797-3.4375-7.6797-7.6797s3.4375-7.6797 7.6797-7.6797c4.2422 0 7.6797 3.4375 7.6797 7.6797"/>
 </g>
</svg>
