<?xml version="1.0" encoding="UTF-8"?>
<svg width="512pt" height="512pt" version="1.1" viewBox="0 0 512 512" xmlns="http://www.w3.org/2000/svg">
 <path d="m473.61 189.83c-4.6094-4.6094-10.059-8.0273-15.895-10.812 7.9883-12.414 12.758-26.77 13.293-42.066 0.89844-25.559-9.5039-46.902-30.086-61.707l-1.6602-1.0859c-3.1953-1.8828-72.742-41.102-155.73-12.371-0.73438-1.3906-1.2695-2.8672-2.3516-4.0938-10.242-11.715-41.352-47.371-117.31-47.371-11.324 0-20.48 9.1758-20.48 20.48 0 11.305 9.1562 20.48 20.48 20.48 48.23 0 70.699 17.059 81.41 27.934-11.203 6.2461-30.125 17.633-53.004 34.633-58.57-40.898-107.58-14.562-125.62 5.7344-7.5156 8.457-6.7578 21.402 1.7031 28.918 8.4375 7.5156 21.379 6.7578 28.895-1.7031 1.0664-1.1875 23.531-25.559 61.316-5.7109-16.422 14.336-33.566 31.168-50.461 50.422-7.8633-6.8008-19.68-14.277-35.574-16.281-21.832-2.7031-43.828 5.5078-65.496 24.473-8.5195 7.4531-9.3789 20.398-1.9453 28.918 7.4766 8.4766 20.398 9.3398 28.898 1.9023 8.5-7.4336 21.094-15.973 33.074-14.684 6.9219 0.75781 12.043 4.5664 15.219 7.5391-16.387 22.035-31.91 46.527-45.363 73.848-17.266 35.004-21.035 73.301-10.59 107.89 10.895 36.086 34.324 61.871 67.707 74.527l2.8281 0.83984c1.3086 0.30469 6.8203 1.4102 14.746 1.4102 12.285 0 30.371-2.6406 47.922-14.93 19.395-13.555 32.461-35.449 39.445-63.484 23.078 7.207 60.148 24.391 67.707 61.5 1.9648 9.6875 10.504 16.383 20.047 16.383 1.3516 0 2.7266-0.12109 4.0977-0.41016 11.102-2.2734 18.246-13.066 15.973-24.164-11.855-58.309-65.246-83.027-96.93-92.754 4.7695-11.492 12.574-27.035 24.492-43.953 22.734 6.0625 69.324 23.043 72.973 60.848 1.0234 10.59 9.9102 18.516 20.355 18.516 0.65625 0 1.3125-0.042968 1.9883-0.10547 11.242-1.082 19.496-11.078 18.41-22.344-5.0391-52.488-51.324-78.559-84.848-90.703 13.578-13.109 30.168-25.723 49.992-36.781 2.4141 2.5586 5.2617 4.7305 8.8672 5.7734 2.3125 0.67578 56.77 17.43 67.297 85.832 1.5547 10.117 10.281 17.367 20.215 17.367 1.0234 0 2.0859-0.082031 3.1328-0.24609 11.18-1.7188 18.84-12.164 17.121-23.348-9.1562-59.555-43.398-90.809-68.547-106.09 11.02-3.5625 22.508-6.7773 35.043-9.2148 5.7539-1.1289 11.262-2.8086 16.566-4.8359 0.14453-0.019531 0.30859 0.042969 0.47266 0.023438 10.383-1.9453 24.289-2.8477 31.188 3.9727 8.5 8.3945 7.3945 27.566 6.3516 33.668-2.0273 11.078 5.2812 21.73 16.363 23.797 1.2891 0.22656 2.5391 0.34766 3.7891 0.34766 9.6875 0 18.289-6.8789 20.109-16.73 0.83984-4.5273 7.5156-44.891-17.59-70" fill="#fff" fill-rule="evenodd"/>
</svg>
