<?xml version="1.0" encoding="UTF-8"?>
<svg width="512pt" height="512pt" version="1.1" viewBox="0 0 512 512" xmlns="http://www.w3.org/2000/svg">
 <path d="m418.47 308.55c-0.91797-2.2461-3.1016-3.7188-5.5312-3.7305-2.4258-0.011718-4.6211 1.4453-5.5586 3.6836-0.0625 0.15234-5.6836 13.266-19.02 29.246v-0.13281h-0.003906c0.023437-1.6055-0.59766-3.1484-1.7188-4.2969-1.1211-1.1445-2.6523-1.7969-4.2539-1.8125-1.0859 0-3.9375-0.027344-8.3828 0.03125 1.4609-3.2969 2.1641-5.4102 2.2461-5.668h0.003906c0.99609-3.1367-0.71875-6.4922-3.8477-7.5195s-6.5 0.65625-7.5547 3.7773c-1.2305 3.3477-2.7031 6.5977-4.4102 9.7266-6.1445 0.20313-12.543 0.51172-19 0.85547v-0.11328c0.56641-3.2656-1.625-6.3711-4.8906-6.9375-3.2656-0.5625-6.3711 1.625-6.9375 4.8906-0.21094 1.0039-0.47656 2-0.79297 2.9766-4.1328 0.29297-8.3203 0.61328-12.488 0.96094 0.16797-0.76172 0.31641-1.5352 0.44922-2.293 27.422-14.496 44.375-26.312 44.543-26.434h0.003907c2.5352-1.9609 3.0859-5.5664 1.2461-8.1914-1.8359-2.6289-5.4141-3.3438-8.1211-1.6289-0.13672 0.097656-13.758 9.6211-36.809 22.191-0.40625-5.75-1.6641-9.0977-1.8164-9.4922l-0.003907-0.003907c-1.207-3.0859-4.6875-4.6133-7.7773-3.4023-3.0859 1.207-4.6094 4.6875-3.4023 7.7773 0 0.039063 1.4727 4.1719 1.0234 11.457-5.2031 2.6719-10.527 5.3086-15.871 7.8398l-0.22656-0.082032c-1.6641-22.926-1.9492-39-0.82422-46.5 1.6211-10.832 0.76172-11.977-1.3398-13.523-0.68359-0.46484-1.2656-1.0625-1.707-1.7617-2.6523-4.1211-12.496-21.668-14.055-25.199-1.3203-3-3.7891-8.9414-5.0703-12.473 11.289 4.4688 20.316 7.7422 26.848 9.7266 25.602 7.7656 56.074 15.156 77.688 18.82 1.6094 0.26953 2.8008-0.039062 3.5312-0.92578 0.97266-1.1836 0.92188-3.168-0.16406-6.0742-7.8789-21.102-75.652-98.383-121.92-106.09-23.871-3.9766-36.812-9.543-40.738-17.5-3.875-7.8633 1.3555-17.684 7.418-29.055 2.6211-4.8945 5.3281-10.016 7.582-15.418 0.24219-0.66406 5.8008-16.383 0.48828-26.332-1.9727-3.6914-5.1797-6.1445-9.5469-7.2148-5.9023-1.4805-10.969-0.67578-15.062 2.3711-8.9609 6.6562-10.238 21.766-10.363 23.941-3.2617 6.0469-5.8945 10.523-8.2188 14.473-1.0508 1.7852-2.0469 3.4961-3.0703 5.2383-12.164 21.203-14.051 28.922-14.336 30.348l-0.67969 3.4297 2.4492-2.4922c0.13672-0.13672 13.512-13.793 22.527-26.082 4.6094-6.3086 8.3398-10.367 11.469-13.266l-1.7109 2.2188c-5.582 7.2852-18.293 29.531-19.707 48.18-0.14453 2.0469-3.2188 50.305 25.672 66.195 0.066407 0.03125 6.6562 3.0156 16.262 7.2188 9.3633 10.531 15.469 18.703 17.199 23.039 1.0234 2.6094 2.0469 4.7266 2.9062 6.5938 2.1758 4.6406 3.7422 7.9922 4.2461 14.766 0.82031 11.039 1.3672 28.984 0.03125 34.34h-0.007813c-0.59766 2.3086-0.77344 4.7031-0.51172 7.0703 0.21875 2.4961 0.14063 5.0078-0.23828 7.4805-0.25781 1.8242-0.70703 6.2578-1.2695 11.875-0.40625 3.9844-0.87109 8.6055-1.3828 13.418-5.7656-0.30859-11.508-0.41797-17.082-0.32813h0.003906c-5.1602-4.0352-10.109-8.3438-14.824-12.895-1.1055-1.1484-2.625-1.8047-4.2188-1.8242h-0.09375 0.003906c-2.4102 0-4.5898 1.4453-5.5273 3.6641-0.94141 2.2227-0.46094 4.7891 1.2148 6.5195 0 0 2.0742 2.0977 5.8281 5.4492-1.6211 0.13672-3.1992 0.28516-4.7109 0.44922-14.676 1.5273-29.195 4.2852-43.406 8.2422-22.125-5.2109-37.223-10.418-37.375-10.477l-0.003907 0.003906c-3.1289-1.082-6.543 0.57422-7.6367 3.6992-0.19922 0.56641-0.3125 1.1602-0.33203 1.7617-8.2539-11.172-11.391-20.117-11.449-20.273-1.0547-3.1445-4.4531-4.8398-7.5977-3.7891-3.1406 1.0547-4.8359 4.4531-3.7852 7.5977 0.26172 0.79688 6.4219 18.848 24.301 36.719-20.945-5.7383-32.938-10.469-33.059-10.523l-0.003907 0.003907c-1.4766-0.58984-3.1289-0.56641-4.5938 0.0625-1.4609 0.62891-2.6133 1.8125-3.2031 3.2891-1.2227 3.0781 0.27734 6.5664 3.3477 7.8008 0.73047 0.28516 17.652 6.9922 45.941 14.086-3.207 1.5352-6.3281 3.1797-9.3242 4.875l0.003906-0.003907c-8.5078-0.92969-16.961-2.3125-25.32-4.1523-3.2227-0.77734-6.4648 1.2031-7.2422 4.4258s1.2031 6.4648 4.4258 7.2422c0.21484 0.054687 4.9766 1.1992 12.852 2.5039-2.8984 2.1562-5.6367 4.5195-8.1914 7.0781-2.2891 2.4023-2.1953 6.207 0.20703 8.4961 2.4023 2.2891 6.207 2.1953 8.4961-0.20703 0.054687-0.0625 5.8281-5.9453 17.48-12.973 4.5117 0.46094 9.0508 0.82031 13.496 1.0664 6.2422 0.34375 12.348 0.47656 18.223 0.39453-17.922 1.1758-28.574 0.875-28.758 0.87109h-0.21484v-0.003906c-3.3164-0.058594-6.0469 2.582-6.1055 5.8984-0.054687 3.3125 2.5859 6.0469 5.8984 6.1016 0.46484 0 2.2305 0.066406 5.2227 0.066406 10.426 0 31.816-0.59375 60.723-4.4531-1.0469 1.2773-1.5156 2.9336-1.293 4.5703-38.895 7.3594-73.59 2.9492-73.934 2.9492-1.5742-0.22266-3.1719 0.19531-4.4297 1.1641-1.9492 1.4648-2.8164 3.9688-2.1953 6.3242 0.62109 2.3594 2.6094 4.1094 5.0273 4.4258 1.207 0.16406 12.246 1.5781 28.605 1.5781 20.234 0 50.41-2.2188 79.594-12.734 1.2422 1.1367 2.9062 1.6953 4.582 1.5352 15.922-1.5781 30.824-4.6094 44.32-8.9414v0.003906c0.36328 3.0117 2.9219 5.2773 5.9531 5.2734h0.29688c23.957-1.1758 46.422-6.6133 66.781-16.152 3.4648-0.078125 6.8828-0.28516 10.164-0.625 3.293-0.35156 5.6836-3.2969 5.3516-6.5898-0.035156-0.33203-0.10156-0.66016-0.19531-0.98047 6.7148-4.0625 13.129-8.6016 19.199-13.582 11.457 2.5586 18.684 5.7148 18.754 5.7461 3.0078 1.2305 6.4492-0.15625 7.7656-3.125 1.3164-2.9727 0.03125-6.4531-2.9023-7.8516-4.168-1.7617-8.4414-3.2578-12.797-4.4805l0.39844-0.39453 0.55859-0.55859c6.9727-0.37891 11.391-0.45703 12.172-0.46094h-0.003906c3.168 0.3125 6.0273-1.9023 6.5195-5.0508 0.49219-3.1445-1.5547-6.125-4.6641-6.7969-0.91406-0.11328-1.8359-0.15625-2.7539-0.13281 13.879-16.926 19.77-30.812 20.02-31.418h-0.003906c0.64062-1.4883 0.64062-3.1758 0.007812-4.668zm-69.852 63.164c-3.4297 2.0469-6.9883 3.9609-10.617 5.7461h-2.5c3.0469-2.043 5.9844-4.2422 8.8008-6.5938 1.4883 0.28125 2.9336 0.56641 4.3164 0.84766zm17.238-25.277c0.60938-0.9375 1.1992-1.875 1.7656-2.8008 8.0703-0.1875 13.168-0.16016 14.562-0.14453h0.17969v0.003907c0.33984 0 0.68359-0.03125 1.0234-0.09375-0.54688 0.59375-1.1016 1.1914-1.668 1.793-5.0664 0.33594-10.391 0.75781-15.863 1.2617zm-49.441 26.773c1.7578-1.6289 3.457-3.3164 5.0742-5.043 1.8789 0.10938 3.7266 0.23438 5.5312 0.39063-2.3672 1.5352-4.7969 2.9375-7.25 4.2188-1.1055 0.14844-2.2227 0.29687-3.3555 0.43359zm-19.801 17.766c-2.8477 0.51172-5.75 0.96094-8.7031 1.3398 2.4219-1.1719 4.7617-2.3906 7.0156-3.6562v0.003906c0.37109 0.89844 0.95703 1.6914 1.707 2.3125zm-42.531-2.207h0.16797c3.3438 0.03125 6.6797 0.03125 10.426-0.027344-4.8281 1.5781-9.8828 2.9766-15.109 4.1836 0.78906-0.51172 1.5664-1.0234 2.3242-1.5039h0.003906c0.98047-0.64453 1.75-1.5664 2.207-2.6523zm3.918-101.64c-0.29297-2.6914-0.75781-5.3711-1.25-8.1914-1.1406-6.6562-2.4414-14.152-1.9922-24.613h0.003907c0.35547-6.1406 1.3633-12.223 3-18.148 0.76172 2.0469 2.6562 5.3008 5.7227 10.523 5.2695 8.9531 12.477 21.223 13.875 29.594 1.1016 6.625 1.8594 8.418 2.4102 9.7266 0.55469 1.3125 0.83984 1.9961 1.0664 8.3555 0.11328 3.1367 0.42969 8.7812 0.79687 15.312 0.35156 6.2227 0.74219 13.211 1.0742 20.043-5.4922-2.0469-9.0078-3.4961-9.4219-3.6641h0.003906c-2.2422-0.92969-4.8242-0.41406-6.5391 1.3047s-2.2266 4.3008-1.293 6.543c0.20703 0.5 0.47656 0.96875 0.80859 1.3984-5.043-0.75391-10.211-1.3477-15.426-1.7773 2.1797-17.168 4.0977-27.863 5.8945-32.672 0.28906-0.61328 2.2266-5.0352 1.2812-13.734zm20.938 63.312 1.7617-0.21875 0.54688 0.12891c-1.9141 0.55078-3.832 1.0781-5.75 1.582 1.1641-0.49219 2.3164-0.98828 3.457-1.4922zm-30.617 19.738 1.9727-0.33984-1.832 0.625zm-58.164-22.016c5.3281-0.90234 10.684-1.6328 15.98-2.1797 5.4844-0.57422 11.102-0.95703 16.695-1.1484l2.3281 1.7656c-6.4648 1.1875-12.973 2.4609-19.391 3.8008-5.0664-0.61719-10.297-1.3672-15.613-2.2383zm-17.461 21.074h0.003907c1.1523 0.45703 2.418 0.53906 3.6172 0.23438 3.1953-0.80469 6.4375-1.5977 9.875-2.418l0.003906 0.003907c-0.046874 1.3789 0.38281 2.7305 1.2227 3.8281 0.31641 0.42188 0.69141 0.79688 1.1055 1.1211-5.6328-0.76172-11.266-1.6133-16.895-2.5586zm48.258 4.8828c0.082031-0.22266 0.15234-0.44922 0.21094-0.67969 4.8945-0.33203 10.02-0.83984 15.289-1.5039-2.8438 1.2188-8.4297 2.0156-15.5 2.1797zm-80.188-24.574c-2.2344 1.918-2.7461 5.1719-1.2109 7.6836 1.5352 2.5078 4.6641 3.5352 7.3906 2.4219 0.21875-0.09375 5.4219-2.2383 14.48-4.9062 2.1836 0.5 4.4258 1 6.7227 1.4883 1.2969 0.27734 2.6055 0.55078 3.9258 0.82031v0.003907c-9.1055 1.7969-18.078 4.207-26.859 7.2109-9.1836-5.6172-17.438-12.625-24.469-20.773 2.4883 0.83203 9.7031 3.1992 20.02 6.0391zm3.3477 27.977c0.9375 0.51172 1.8633 1 2.7891 1.4648-2.0898 0-4.1953-0.027344-6.3164-0.085937 1.168-0.48438 2.3438-0.94141 3.5273-1.3906zm52.445 7.6797 2.9219 0.32812c-4.0156 0.64062-7.9141 1.2188-11.699 1.7344 2.9961-0.62891 5.9219-1.3242 8.7773-2.0859z" fill="#fff"/>
</svg>
