<?xml version="1.0" encoding="UTF-8"?>
<svg width="512pt" height="512pt" version="1.1" viewBox="0 0 512 512" xmlns="http://www.w3.org/2000/svg">
 <g fill="#fff">
  <path d="m256 17.922c-101.89 0-184.83 82.434-184.83 184.83v205.82c0 20.48 16.383 36.863 36.863 36.863h0.51172c20.48 0 36.863-16.383 36.863-36.863v-41.984c0-20.48 16.383-36.863 36.863-36.863h0.51172c20.48 0 36.863 16.383 36.863 36.863v91.137c0 20.48 16.383 36.863 36.863 36.863h0.51172c20.48 0 36.863-16.383 36.863-36.863l0.003907-91.652c0-20.48 16.383-36.863 36.863-36.863s36.863 16.383 36.863 36.863v38.91c0 20.48 16.383 36.863 36.863 36.863h0.51172c20.48 0 36.863-16.383 36.863-36.863v-112.13l0.003907-90.105c-1.0234-101.89-83.969-184.83-185.86-184.83zm0 252.93c-46.078 0-83.457-37.375-83.457-83.457 0-46.078 37.379-83.965 83.457-83.965s83.457 37.375 83.457 83.457c0 46.078-37.379 83.965-83.457 83.965z"/>
  <path d="m287.74 167.43c-6.6562-10.754-18.434-17.922-31.742-17.922-20.48 0-37.375 16.895-37.375 37.375 0 20.48 16.895 37.375 37.375 37.375 13.312 0 25.09-7.168 31.742-17.922-8.7031-2.5586-14.848-10.238-14.848-19.457 0-9.2109 6.6562-16.891 14.848-19.449z"/>
 </g>
</svg>
