<?xml version="1.0" encoding="UTF-8"?>
<svg id="predator-species" data-name="predator-species" xmlns="http://www.w3.org/2000/svg" viewBox="0 0 71.84 78.99">
	<defs>
		<style>
			.letter-spacing--02 {
			letter-spacing: -.02em;
			}

			.letter-spacing-01 {
			letter-spacing: .01em;
			}

			.species-title {
			font-family: Grandstander-Bold, Grandstander;
			font-size: 9.83px;
			font-weight: 700;
			display: var(--species-title-display)
			}
		</style>
	</defs>
	<g id="predator-species-icon" data-name="predator-species-icon">
		<text class="species-title" transform="translate(11.02 76.24)">
			<tspan class="letter-spacing--02" x="0" y="0">
				V
			</tspan>
			<tspan x="5.62" y="0">
				en
			</tspan>
			<tspan class="letter-spacing-01" x="17.64" y="0">
				i
			</tspan>
			<tspan class="letter-spacing-01" x="20.76" y="0">
				m
			</tspan>
			<tspan x="30.02" y="0">
				euse
			</tspan>
		</text>
		<g>
			<path d="m57.63,49.88c-.74-.19-1.89-.03-2.38-.19-1.25-.4-1.34-.74-1.33-.93.19-4.82-1.17-12.93-2.82-14.86-1.54-1.8-7.02,1.84-9.08,3.34,1.38,2.79,1.38,4.47,1.72,5.81,1.35-1.66,3.27-3.86,3.93-3.52,1.08.57,1.91,4.89,2.26,7.43,1.25.55,2.47,1.41,3.46,2.63.49.6.95,1.36,1.37,2.16.1.2.2.4.29.61.71.57,1.57,2.37,2.58,1.98,1.12-.43.26-1.05-.73-2.31-.41-.52-1.73-.9-1.88-1.14-.15-.24.99.06,2.03.42.58.21,1.72,1.81,2.64.53.41-.57-1.31-1.79-2.05-1.99Z" />
			<path d="m33.74,29.04c2.27,1.2,4.62,2.48,6.6,5.41.45.67.84,1.3,1.17,1.88.3-.19.76-.49,1.18-.74-.46-3.6-1.34-7.14-2.33-8.31-1.08-1.28-4.24.29-6.61,1.77Z" />
			<path d="m70.97,21.26c-.85-2.43-1.44-3.48-2.48-4.68-1.52-1.76,0,0-1.38-4.72-1.37-4.69-3.68-6.23-7.29-7.7-3.52-1.43-3.86-1.7-5.55-2.23,0,0-1.17-.39-1.44-.46-15.75-4.42-30.98,1.44-35.85,13.59-1.61,4.01-3.01,9.23-2.59,15,2.43,1.22,4.72,2.98,5.14,3.94v.55s-1.26-1.02-2.91-2.07c-2.61-1.69-6.36-3.67-7.61-2.21-1.72,2.01-3.14,10.47-2.94,15.5,0,.2-.08.55-1.39.97-.51.16-1.71,0-2.49.2-.78.2-2.57,1.48-2.14,2.07.96,1.33,2.14-.34,2.75-.56,1.08-.38,2.27-.69,2.12-.44-.15.25-1.53.64-1.96,1.18-1.03,1.31-1.93,1.96-.76,2.41,1.05.4,2.28-1.65,2.47-1.87.18-.22.66-.5,1.22-.74.31-.13.59-.3.7-.26.08.03-.72.89-.84,1.56-.3,1.64-1.39,2.42.13,2.67,1.51.25,1.93-2.7,2.21-3.76.18-.68.86-1.28,1.59-1.45.77-.18,1.44.04,1.85.33.77.55,1.53,1.47,2,1.35.73-.2,1.32-1.2.73-2.03-.39-.55-1.15-.87-1.99-.87s-2.17-.54-2.22-.73c-.09-.34.98-8.84,2.55-9.66.61-.32,2.26,1.45,3.6,3.06.06-.21.12-.42.18-.62h0c.09-.29.18-.56.27-.82.02-.05.04-.1.05-.16.04-.09.07-.18.11-.27.03-.06.05-.13.07-.19.03-.08.07-.15.1-.23.03-.07.06-.13.09-.2.03-.06.06-.13.09-.19.04-.07.07-.13.1-.2.03-.05.06-.1.08-.15.04-.07.08-.14.12-.2.02-.04.04-.07.07-.11.07-.09.13-.18.19-.26.06-.07.13-.13.19-.19.03-.02.05-.04.08-.06.05-.03.09-.06.14-.09.04-.02.08-.04.11-.06.04-.02.08-.04.13-.06.05-.02.09-.04.14-.05.03,0,.06-.02.1-.03.32-.08.67-.11,1.06-.08,3.27.2,8.8,3.82,9.49,5.39v.54c-.31-.3-5.82-4.49-8.99-4.81-.75-.08-1.37.06-1.76.51-.53.62-1.04,1.84-1.48,3.38,0,0,0,.02.01.03-1.04,3.65-1.73,9.09-1.58,12.77,0,.21-.08.57-1.45,1.01-.53.17-1.78,0-2.59.21-.81.21-2.68,1.54-2.23,2.16,1,1.39,2.24-.36,2.88-.58,1.13-.4,2.37-.72,2.21-.46-.16.26-1.6.67-2.05,1.24-1.08,1.37-2.01,2.04-.79,2.51,1.1.42,2.38-1.73,2.58-1.95.19-.23.69-.52,1.28-.77.32-.14.61-.31.73-.27.09.03-.75.93-.88,1.63-.32,1.71-1.45,2.52.13,2.79,1.57.26,2.01-2.82,2.3-3.93.19-.71.89-1.34,1.66-1.51.81-.18,1.51.05,1.93.35.8.57,1.6,1.54,2.08,1.41.76-.21,1.38-1.25.76-2.12-.4-.57-1.21-.9-2.08-.9s-2.27-.56-2.32-.76c-.07-.25.49-4.9,1.41-7.82,0-.01,0-.02,0-.04.04-.11.07-.22.11-.33,0-.02.02-.04.02-.06.03-.08.06-.16.08-.24.02-.05.04-.1.06-.15.01-.03.02-.06.04-.1.28-.68.59-1.18.92-1.35,1.12-.59,5.62,5.61,5.81,5.75l-.24.12c-1.32-.15-4.47-5.09-5.23-4.49-.36.28-.69,1.19-.97,2.35.68.69,1.46,1.41,2.35,2.17,4.44,3.8,8.93,3.35,11.42,4.25,2.35.85,1.69,3.03,4.26,5.18,6.23,5.23,13.32,3.77,14.98,2.15,2.03-1.98.92-5.46-1.52-8.81-.04.16-.11.3-.23.41-.46.44-1.4.2-2.11-.54-.7-.74-.89-1.7-.43-2.14.1-.1.24-.16.38-.19-1.54-1.1-3.27-1.64-4.82-1.69-.52-.02-.64-.15-.75-.22-4.13-2.79-1.56-5.48-5.71-11.64-3.5-5.19-8.15-5.19-11.52-8.77-1.68-1.78-3.92-5.24-1.2-11.81,2.75-6.64,13.17-12.62,24.1-9.95,3.06.88,2.41,2.5,2.91,5.65.51,3.19,3.44,5.94,7.39,6.34,4.46.45,6.94.49,8.98,4.48,1.92,3.74,2.39,4.03.92-.16Zm-26.9,31.1c1.13,0,2.05.92,2.05,2.05s-.92,2.05-2.05,2.05-2.05-.92-2.05-2.05.92-2.05,2.05-2.05ZM63.03,14.67c-2.34-.72-4.65-2.24-5.95-4.46-1.3-2.22-1.11-2.67-.69-2.08.93,1.31,2.92,3.83,5.57,5.38,3.17,1.86,3.73,1.99,1.06,1.17Z" />
		</g>
	</g>
</svg>
