<?xml version="1.0" encoding="UTF-8"?>
<svg width="512pt" height="512pt" version="1.1" viewBox="0 0 512 512" xmlns="http://www.w3.org/2000/svg">
 <g fill="currentColor">
  <path d="m38.91 113.15v-36.352h9.7305l34.305 25.598h11.262l27.137 28.672 34.816 14.852v13.82l40.449 33.793 241.15 63.488 48.637 123.39-48.637-38.91 48.637 56.32v54.785l-10.75 33.789h-38.402l6.6562-20.477h9.2188v-52.738l-110.59-70.145-145.92 16.898v92.672l-11.266 33.789h-64.512l6.6562-20.477h28.672v-88.066l-95.746-138.24-21.504-99.84-13.309-17.41v-9.2148z"/>
  <path d="m342.53 369.66 89.09 54.273v28.672l-10.754 33.789h-34.816l6.6562-20.477h10.242v-41.984z"/>
 </g>
</svg>
