<?xml version="1.0" encoding="UTF-8"?>
<svg width="512pt" height="512pt" version="1.1" viewBox="0 0 512 512" xmlns="http://www.w3.org/2000/svg">
	<g fill="currentColor">
		<path d="m416 96c-0.45703 0-0.91406-0.011719-1.3672-0.039062-0.68359 1.9258-1.6055 3.7617-2.75 5.457 4.3242 7.043 5.2969 15.641 2.6562 23.473 3.7734 2.8555 6.6094 6.7656 8.1484 11.238 5.8047 0.55859 11.289 2.9258 15.68 6.7656 7.9609-0.90625 11.934-4.5078 11.973-4.5508h0.003906c1.5-1.5 3.5352-2.3438 5.6562-2.3438h16c1.1211 0 4.1016-3.3164 6.1562-13.57 0.875-4.582 1.4375-9.2188 1.6836-13.879l-43.039-24.598c-2.1055 3.6602-5.1328 6.6992-8.7852 8.8164-3.6523 2.1133-7.7969 3.2266-12.016 3.2305zm32 16c0 3.2344-1.9492 6.1523-4.9375 7.3906-2.9922 1.2383-6.4297 0.55469-8.7188-1.7344s-2.9727-5.7266-1.7344-8.7188c1.2383-2.9883 4.1562-4.9375 7.3906-4.9375 2.1211 0 4.1562 0.84375 5.6562 2.3438s2.3438 3.5352 2.3438 5.6562z" />
		<path d="m427.16 173.6c4.1562-3.082 5.8594-8.4844 4.2344-13.391-1.6289-4.9102-6.2227-8.2188-11.395-8.2109-0.82422 0-1.6445 0.082031-2.4531 0.24609-2.3477 0.46875-4.7852-0.14062-6.6406-1.6602-1.8516-1.5195-2.9258-3.7891-2.9258-6.1875 0-0.19141 0.007812-0.38281 0.019531-0.57422h-0.003906c-0.070313-3.6523-2.6172-6.7852-6.1758-7.6055-2.668-0.62891-4.832-2.5781-5.7305-5.1719-0.89844-2.5898-0.40234-5.4609 1.3047-7.6055 3.9766-4.9883 3.332-12.215-1.457-16.422-1.8242-1.6172-2.8086-3.9805-2.6758-6.4141 0.13281-2.4336 1.3672-4.6719 3.3516-6.0859 2.1328-1.4844 3.3984-3.9219 3.3867-6.5195-0.007812-0.375-0.039062-0.74609-0.10156-1.1172-0.44531-3.0508 0.90625-6.0898 3.4727-7.8047s5.8906-1.8008 8.5391-0.22266c1.2344 0.75 2.6484 1.1445 4.0898 1.1445 4.418 0 8-3.582 8-8s-3.582-8-8-8h-8c-4.418 0-8-3.582-8-8v-16l-19.199 14.398c-0.15234 0.11328-0.30469 0.21875-0.46484 0.32422-6.3359 4.1172-12.336 10.578-12.336 13.277-0.003906 2.5938 0.84766 5.1172 2.4141 7.1797 1.8281 2.4219 2.1289 5.6719 0.77734 8.3867-1.3555 2.7188-4.125 4.4336-7.1602 4.4336-3.957-0.019531-7.6641 1.9141-9.9102 5.168-2.25 3.2539-2.7422 7.4102-1.3203 11.102 1.3477 3.5508 0.011719 7.5664-3.1992 9.5977-3.3477 2.1016-5.4414 5.7148-5.5938 9.6641-0.15234 3.9453 1.6562 7.7148 4.8281 10.066 2.0156 1.5117 3.1992 3.8828 3.1992 6.3984 0 2.5195-1.1836 4.8906-3.1992 6.4023-3.043 2.25-4.8398 5.8125-4.8398 9.5977 0 3.7891 1.7969 7.3477 4.8398 9.6016 2.0156 1.5117 3.1992 3.8828 3.1992 6.3984 0 2.5195-1.1836 4.8906-3.1992 6.4023-2.5625 1.8906-4.2578 4.7305-4.7148 7.8828-0.45312 3.1523 0.37109 6.3555 2.293 8.8945 1.832 2.4219 2.1328 5.6719 0.78125 8.3906-1.3555 2.7188-4.1289 4.4336-7.1641 4.4336-6.6367-0.003906-12.02 5.3672-12.031 12 0.003906 3.0352-1.7109 5.8125-4.4258 7.1719-2.7148 1.3594-5.9648 1.0664-8.3906-0.75781-2.543-1.9219-5.7461-2.7461-8.8984-2.293-3.1523 0.45703-5.9922 2.1562-7.8828 4.7188-1.5117 2.0117-3.8828 3.1992-6.4023 3.1992-2.5156 0-4.8867-1.1875-6.3984-3.1992-1.9961-2.6992-5.0352-4.4336-8.375-4.7773-3.3359-0.34375-6.6641 0.73828-9.168 2.9766-1.9727 1.7539-4.6875 2.4219-7.25 1.7852-2.5625-0.64062-4.6445-2.5-5.5664-4.9766-1.3594-3.7227-4.4766-6.5234-8.3164-7.4883-3.8438-0.96484-7.9102 0.039063-10.867 2.6797-1.9727 1.7539-4.6875 2.4219-7.25 1.7852-2.5625-0.64062-4.6445-2.5-5.5664-4.9766-1.3594-3.7227-4.4766-6.5234-8.3164-7.4883-3.8438-0.96484-7.9102 0.039063-10.867 2.6797-1.9727 1.7539-4.6875 2.4219-7.25 1.7852-2.5625-0.64062-4.6445-2.5-5.5664-4.9766-1.75-4.6992-6.2266-7.8242-11.242-7.8477-3.7891-0.003906-7.3516 1.7891-9.6016 4.8398-1.5078 2.0117-3.8789 3.1992-6.3984 3.1992s-4.8906-1.1875-6.3984-3.1992c-2.25-3.0508-5.8125-4.8438-9.6016-4.8398-5.0117 0.023438-9.4883 3.1484-11.242 7.8438-0.91797 2.4766-3 4.3398-5.5664 4.9805-2.5625 0.63672-5.2773-0.03125-7.25-1.7891-2.9531-2.6367-7.0234-3.6406-10.863-2.6758-3.8438 0.96094-6.957 3.7656-8.3203 7.4844-0.91797 2.4766-3 4.3398-5.5664 4.9805-2.5625 0.63672-5.2773-0.03125-7.25-1.7891-3.2344-2.8867-7.7773-3.7969-11.875-2.375-4.0977 1.418-7.1055 4.9453-7.8594 9.2188-0.37891 2.1445-1.6211 4.043-3.4336 5.2539-1.8164 1.2109-4.043 1.6289-6.1719 1.1562-0.85547-0.19141-1.7266-0.28906-2.6016-0.28906-6.625 0.007812-11.992 5.375-12 12-0.003906 2.5938 0.84375 5.1172 2.4141 7.1797 1.8281 2.4219 2.1289 5.6719 0.77734 8.3867-1.3555 2.7188-4.125 4.4336-7.1602 4.4336-5.1797-0.023438-9.7852 3.2812-11.422 8.1953-1.6328 4.9141 0.070313 10.32 4.2305 13.406 2.0117 1.5078 3.1992 3.8789 3.1992 6.3984s-1.1875 4.8906-3.1992 6.3984c-4.1562 3.082-5.8594 8.4844-4.2344 13.391 1.6289 4.9102 6.2227 8.2188 11.395 8.2109 3.0352-0.003906 5.8125 1.7109 7.1719 4.4258 1.3594 2.7148 1.0664 5.9648-0.75781 8.3945-2.0195 2.668-2.8242 6.0625-2.2188 9.3555 0.60547 3.293 2.5664 6.1797 5.4062 7.957 3.2109 2.0312 4.5469 6.043 3.1992 9.5977-1.1523 2.9883-1.0547 6.3164 0.26953 9.2305 1.3281 2.918 3.7695 5.1797 6.7773 6.2773 2.4766 0.92188 4.3398 3.0039 4.9766 5.5664 0.64062 2.5625-0.027344 5.2773-1.7852 7.25-2.2383 2.5039-3.3164 5.832-2.9766 9.168 0.34375 3.3398 2.0781 6.3789 4.7773 8.375 2.0156 1.5117 3.1992 3.8828 3.1992 6.3984 0 2.5195-1.1836 4.8906-3.1992 6.4023-2.6211 1.9531-4.3281 4.8906-4.7305 8.1328-0.39844 3.2422 0.53906 6.5078 2.6016 9.043 2.0664 2.5352 5.0742 4.1133 8.332 4.3789 3.2539 0.26172 6.4805-0.81641 8.9219-2.9844 2.8789-2.5625 7.1797-2.707 10.223-0.34375 4.3359 3.375 10.102 4.2891 15.266 2.4219 5.168-1.8711 9.0117-6.2578 10.184-11.629 1.1758-5.3672-0.49219-10.961-4.4062-14.812-2.6328-2.5938-3.1484-6.6523-1.2461-9.8203 1.9023-3.168 5.7305-4.6211 9.2578-3.5117 1.5391 0.48437 3.1445 0.72656 4.7578 0.72656 4.0312-0.015625 7.9062-1.543 10.863-4.2812 2.9531-2.7383 4.7695-6.4883 5.0898-10.508 0.22656-3.0469 2.1719-5.6953 5.0117-6.8281 2.8359-1.1367 6.0703-0.55469 8.3359 1.5 3.457 3.1172 8.0977 4.5742 12.719 3.9922 4.6172-0.58594 8.75-3.1602 11.316-7.043 1.4844-2.2305 3.9844-3.5742 6.6641-3.5742s5.1797 1.3438 6.6641 3.5742c2.9609 4.4766 7.9688 7.168 13.336 7.168s10.375-2.6914 13.336-7.168c1.4844-2.2305 3.9844-3.5742 6.6641-3.5742s5.1797 1.3438 6.6641 3.5742c2.9609 4.4766 7.9688 7.168 13.336 7.168s10.375-2.6914 13.336-7.168c1.4844-2.2305 3.9844-3.5742 6.6641-3.5742s5.1797 1.3438 6.6641 3.5742c2.5703 3.8867 6.707 6.457 11.332 7.0391 4.6211 0.58594 9.2695-0.87109 12.727-3.9922 2.2695-2.0469 5.5078-2.6211 8.3398-1.4805 2.8359 1.1367 4.7734 3.793 4.9961 6.8398 0.17188 2.3789 0.88281 4.6914 2.0859 6.7539 1.4336 2.4766 1.4336 5.5312 0 8.0117-1.8828 3.2578-2.5547 7.0742-1.9023 10.777 0.65234 3.707 2.5898 7.0625 5.4688 9.4805 2.8828 2.418 6.5234 3.7461 10.285 3.7461 3.7656 0 7.4062-1.3281 10.289-3.7461 2.8789-2.418 4.8164-5.7734 5.4688-9.4805 0.65234-3.7031-0.019531-7.5195-1.9023-10.777-1.4297-2.4766-1.4297-5.5312 0-8.0078 2.4414-4.2266 2.8203-9.3398 1.0273-13.883-1.125-2.8438-0.52734-6.082 1.5352-8.3398 2.0625-2.2578 5.2305-3.1406 8.1641-2.2773 1.1133 0.32812 2.2656 0.5 3.4219 0.50391 5.7773 0 10.734-4.125 11.785-9.8047 0.60156-3.2617 3.1523-5.8086 6.4102-6.4141 5.6797-1.0469 9.8047-6.0039 9.8047-11.781 0-0.875-0.097656-1.7461-0.28906-2.6016-0.47266-2.1289-0.054688-4.3555 1.1523-6.1719 1.2109-1.8125 3.1094-3.0547 5.2578-3.4375 5.7188-1.0078 9.8867-5.9805 9.8789-11.789 0-0.875-0.097656-1.7461-0.28906-2.6016-0.47266-2.1289-0.054688-4.3555 1.1523-6.1719 1.2109-1.8125 3.1094-3.0547 5.2578-3.4375 4.2695-0.75391 7.8008-3.7578 9.2188-7.8555 1.4219-4.0977 0.51172-8.6445-2.375-11.879-1.7578-1.9727-2.4258-4.6875-1.7852-7.25 0.63672-2.5625 2.5-4.6484 4.9766-5.5664 3.7188-1.3594 6.5234-4.4766 7.4844-8.3203 0.96484-3.8398-0.039063-7.9102-2.6758-10.863-1.7578-1.9727-2.4258-4.6875-1.7852-7.25 0.63672-2.5625 2.5-4.6484 4.9766-5.5664 4.6953-1.75 7.8203-6.2266 7.8438-11.238 0.003906-3.7891-1.7891-7.3516-4.8398-9.6016-2.0117-1.5078-3.1992-3.8789-3.1992-6.3984s1.1875-4.8906 3.1992-6.3984c3.0469-2.2539 4.8438-5.8164 4.8438-9.6016s-1.7969-7.3477-4.8438-9.6016c-2.0117-1.5078-3.1992-3.8789-3.1992-6.3984s1.1875-4.8906 3.1992-6.3984z" />
		<path d="m96 456v-1.0156c-2.25-0.57422-4.4297-1.3984-6.5-2.4531-2.8984 1.5938-6.0586 2.6562-9.332 3.1445l4.5664 18.262c0.88281 3.5625 4.0859 6.0664 7.7539 6.0625h27.512v-3.7188l-20.438-13.625c-2.2266-1.4844-3.5625-3.9805-3.5625-6.6562z" />
		<path d="m336 456v-17.012c-5.2461 1.3477-10.754 1.3477-16 0v16.027l4.7305 18.926v-0.003906c0.88672 3.5664 4.0859 6.0664 7.7578 6.0625h27.512v-3.7188l-20.438-13.625c-2.2266-1.4844-3.5625-3.9805-3.5625-6.6562z" />
		<path d="m89.934 200.64c1.5234 0.33203 3.0156 0.78906 4.4648 1.3711 3.3984-10.328 1.3164-21.676-5.5234-30.129s-17.504-12.855-28.312-11.688c-10.812 1.168-20.289 7.7461-25.164 17.465 10.352-2.7969 21.34-2.0547 31.223 2.1094 9.8789 4.1641 18.086 11.512 23.316 20.871z" />
	</g>
</svg>
