<?xml version="1.0" encoding="UTF-8"?>
<svg id="Calque_2" data-name="Calque 2" xmlns="http://www.w3.org/2000/svg" viewBox="0 0 64.41 80.39">
	<defs>
		<style>
			.letter-spacing--03 {
			letter-spacing: -.03em;
			}

			.letter-spacing-0 {
			letter-spacing: 0em;
			}

			.letter-spacing-01 {
			letter-spacing: .01em;
			}

			.species-title {
			font-family: Grandstander-Bold, Grandstander;
			font-size: 9.83px;
			font-weight: 700;
			display: var(--species-title-display)
			}
		</style>
	</defs>
	<g id="Calque_2-2" data-name="Calque 2">
		<text class="species-title" transform="translate(.8 77.64)">
			<tspan x="0" y="0">
				Bom
			</tspan>
			<tspan class="letter-spacing-0" x="20.66" y="0">
				b
			</tspan>
			<tspan x="26.49" y="0">
				a
			</tspan>
			<tspan class="letter-spacing--03" x="32.85" y="0">
				r
			</tspan>
			<tspan x="36.7" y="0">
				d
			</tspan>
			<tspan class="letter-spacing-01" x="42.57" y="0">
				i
			</tspan>
			<tspan class="letter-spacing-0" x="45.69" y="0">
				è
			</tspan>
			<tspan class="letter-spacing-0" x="51.17" y="0">
				r
			</tspan>
			<tspan x="55.3" y="0">
				e
			</tspan>
		</text>
		<g>
			<path d="m63.27,1.82c-1.83-2.4-6.14-2.46-8.56.04-.31.32-.58.63-.81.92-2.21,2.5-2.5,2.59-3.91,3.64-1.8,1.34-1.37,2.51-.1,1.88.68-.33.89-.87,2.25-1.56,1.36-.68-1.29,2.5-2.61,2.83-1.52.38-2.18,1.35-1.74,1.96.41.57,1.65.55,2.41-.43.63-.81,1.14-1.2,1.98-1.5,1.1-.4,1.04.18.65.67-.57.71-1.27,1.65-3.18,2.14-1.62.41-2.08,1.41-1.69,2.02.64,1.01,2.08-.03,2.75-.78,1.41-1.59,2.36-1.84,4.05-2.68.97-.48,1.42-.39.94.1-.63.66-1.36,1.1-1.8,1.43-1.04.77-.06,1.63,1.21,1.05,1.12-.51,1.13-1.11,5.67-3.29h0c.32-.15.65-.33,1-.54,3.05-1.89,3.35-5.51,1.51-7.91Z" />
			<path d="m5.5,43.8c2-.96,4.86-2.05,7.13-2.78.23-.25.56-.59.94-.95-.82-.4-1.6-.93-2.29-1.64-8.06-8.26-5.76-24.04,1-29.16.29-.22.61-.44.9-.65.08.91,1.21,2.14,3.02,1.96.76-.07,3.08-1.35,2.43-3.79-.72-2.68-3.63-2.44-3.89-2.38C6.47,6.05-4.31,24.19,3.91,41.1c.49,1.01,1.02,1.91,1.59,2.71Z" />
			<path d="m46.92,59.31c-.26-.06-.5-.1-.73-.13.15-.27.28-.68.42-1.29.34-1.54.59-5.12-.12-7.5-.78-2.65-.61-2.55-.97-3.62-.34-.99-3.47-2.64-6.33-3.64.21.64.32,1.33.44,2.03.05.28.09.6.12.94,1.14.39,2.31.95,2.65,1.45.64.96.53.48-.96,1.84-1.48,1.37-.69,5.36-1.11,7.85-.21,1.22-.15,1.84.22,2.15-.47.11-.81.45-1.27.93-1.03,1.1-1.18,1.39,1.29.58.57-.19,1.24-.05,1.9.1,1.03.24,1.58.29,2.63,1.68,1.32,1.74,1.96,2.03,1.52.32-.18-.69-.28-1.12-.62-1.54.46.25.94.57,1.28.97,1.33,1.52,1.43.82.73-.77-.22-.49-.46-.79-.74-1.01.32.06.65.19.97.5,1.21,1.15,1.6.98.66-.63-.48-.82-.92-.95-1.97-1.21Z" />
			<path d="m38.17,60.91c-.07-.21-.16-.45-.28-.72-.2-.44-.42-.72-.67-.91.29.06.59.17.88.45.25.23.45.4.62.51.03-.03.06-.07.09-.1.09-.09.17-.18.25-.26-.08-.19-.2-.43-.37-.72-.43-.73-.83-.86-1.78-1.08-.23-.05-.44-.09-.66-.11.14-.25.25-.61.38-1.17.1-.45.34-1.9.48-2.59-1.3,1.49-3.46,2.95-6.07,3.49.03.05.24.39.29.42-.5.06-.84.37-1.29.86-.93.98-1.07,1.25,1.16.52.51-.17,1.12-.05,1.71.09.92.21,1.42.26,2.37,1.51,1.18,1.56,1.76,1.83,1.37.29-.16-.62-.25-1-.56-1.38.41.23.85.52,1.15.87.86.99,1.15.93,1.01.29-.02-.12-.02-.06-.07-.27Z" />
			<path d="m13.62,46.96c-.34.14-.71.3-1.17.53-.94.47-.7.41.43,1.5.06.06.25.33.33.66.03.12.13.73.21,1.2.01.1.03.19.05.28.03.15.05.26.06.31.04.13.09.24.15.33.06.14.14.26.23.36,4.08,4.73,10.3,6.11,16.23,4.97,5.2-1.01,9.31-4.95,8.72-10.99-.61-6.37-4.4-6.8-3.29-14.01.7-4.57-.12-5.56,5.43-7.7,2.6-1,4.67-1.95,6.12-3.19,1.92-1.64,1.89-2.8,1.1-2.45-1.54.69-4.41,1.14-6.05.99-.56-.05-.93-.37-1.14-.76-1.19-2.09,3.19-8.42.47-8.41-3.79,0-6.58,1.7-9.69,5.15-2.92,3.23-2.06,7.62-5.65,14.5-4.38,8.43-9.21,6.76-12.27,11.32-1.73.47-9.25,3.26-9.79,4.86-.42,1.26-.26,1.22-1.03,3.83-.74,2.52-.48,6.3-.12,7.93.14.65.28,1.08.44,1.37-.25.03-.5.07-.77.14-1.11.26-1.58.41-2.08,1.27-1,1.7-.59,1.88.7.66.34-.33.69-.47,1.03-.53-.3.23-.56.55-.79,1.07-.75,1.69-.63,2.42.77.82.36-.42.87-.76,1.35-1.02-.36.45-.47.9-.66,1.62-.46,1.81.21,1.5,1.6-.34,1.11-1.47,1.69-1.52,2.78-1.78.7-.16,1.4-.3,2-.1,2.62.86,2.45.55,1.36-.61-.48-.51-.85-.87-1.34-.99.38-.33.45-.98.23-2.28-.44-2.63.39-6.85-1.17-8.29-1.57-1.44-1.56-1.2-1.01-1.95.63-.86,3.28-1.75,5.06-2.13,0,0,0,0,.02,0,.11-.02.22-.04.32-.06.05,0,.09-.02.13-.02.05,0,.09-.02.14-.02.58-.08,1.36.14.78.31-.58.16-1.15.32-1.7.48-.02,0-.04.01-.06.02-.11.03-.21.06-.32.09-.04.01-.08.02-.12.03-.08.02-.17.05-.25.07-.05.02-.1.03-.15.05-.07.02-.13.04-.2.06-.06.02-.12.04-.18.05-.04.01-.08.03-.13.04-.16.05-.32.1-.47.15-.02,0-.04.01-.06.02-.07.03-.14.05-.22.07-.03.01-.07.02-.1.03-.07.02-.13.05-.2.07-.03.01-.06.02-.1.04-.06.02-.12.05-.18.07-.03.01-.06.02-.09.03-.06.02-.11.05-.17.07-.02,0-.05.02-.07.03-.05.02-.11.05-.16.07-.02,0-.04.02-.06.03-.05.02-.1.05-.14.07,0,0,0,0,0,0-.12.07-.23.13-.31.2-.95.77-.82.58.74,2.02,1.56,1.45.73,5.66,1.17,8.29.22,1.29.15,1.95-.23,2.28.12.03.23.07.34.13.2-.05.4-.1.63-.15.61-.14,1.24-.26,1.77-.09,2.3.76,2.16.48,1.2-.54-.43-.45-.75-.77-1.18-.87.34-.29.39-.86.2-2.01-.39-2.32.34-6.04-1.04-7.31-.05-.05-.1-.09-.15-.14,0,0,.01,0,.02,0-1.2-1.12-.94-1.05-.04-1.5.54-.27,1.03-.4,1.44-.49.18-.04.32-.06.42-.05-.01.06-.03.12-.04.19-.03.01-.04.03-.08.04Zm24.31-27.79c.21-1.75,1.75-6.45,3.41-7.57.41-.28.71-.26.48.39-.23.65-2.69,6.78-1.46,7.62,1.24.83,2.12.71,3.57.56,1.08-.11,2.44-.46,3.17-.64.53-.13.6.33-.79.88-1.21.49-2.53,1.09-5.56,1.14-2.04.03-2.99-.88-2.81-2.38Zm-3.1-.5c.93.04,1.65.83,1.61,1.75-.04.93-.82,1.65-1.75,1.61-.93-.04-1.65-.82-1.61-1.75.04-.93.82-1.65,1.75-1.61Z" />
		</g>
	</g>
</svg>
