<?xml version="1.0" encoding="UTF-8"?>
<svg width="512pt" height="512pt" version="1.1" viewBox="0 0 512 512" xmlns="http://www.w3.org/2000/svg">
 <path d="m335.36 37.375c-25.09 16.895-10.238 88.574-1.5352 116.73 9.2148 31.23 60.414 209.92-91.137 209.92 0 0-90.113-3.0703-90.113-78.848 0-66.047 47.105-60.93 59.391-60.93 32.77 0 55.297 14.336 72.191 14.336 35.84 0 50.688-13.312 50.688-44.031s-36.352-88.574-133.12-88.574c-96.77 0-166.91 87.039-166.91 174.08s67.07 202.24 199.68 202.24c132.61 0.003907 241.67-101.37 241.67-229.89 0-128.51-78.336-257.02-140.8-215.04zm22.527 82.434c-8.1914 0-14.848-7.168-14.848-15.359 0-8.7031 6.6562-15.359 14.848-15.359 8.1914 0 14.848 7.168 14.848 15.359 0.51172 8.1914-6.6562 15.359-14.848 15.359zm44.547 0c-8.1914 0-14.848-7.168-14.848-15.359 0-8.7031 6.6562-15.359 14.848-15.359s14.848 7.168 14.848 15.359c0.51172 8.1914-6.1445 15.359-14.848 15.359zm7.168-15.871c0 3.5859-3.0703 6.6562-6.6562 6.6562-3.5859 0-6.6562-3.0703-6.6562-6.6562s3.0703-6.6562 6.6562-6.6562c3.582 0 6.6562 3.0703 6.6562 6.6562zm-44.547 0c0 3.5859-3.0703 6.6562-6.6562 6.6562-3.5859 0-6.6562-3.0703-6.6562-6.6562s2.5625-6.6562 6.6562-6.6562c3.5859 0 6.6562 3.0703 6.6562 6.6562z" fill="#fff"/>
</svg>
