<?xml version="1.0" encoding="UTF-8"?>
<svg id="spontaneousGeneration-species" data-name="spontaneousGeneration-species" xmlns="http://www.w3.org/2000/svg" viewBox="0 0 86.3 80.65">
	<defs>
		<style>
			.letter-spacing--03 {
			letter-spacing: -.03em;
			}

			.letter-spacing-0 {
			letter-spacing: 0em;
			}

			.letter-spacing-01 {
			letter-spacing: .01em;
			}

			.species-title {
			font-family: Grandstander-Bold, Grandstander;
			font-size: 9.83px;
			font-weight: 700;
			display: var(--species-title-display)
			}
		</style>
	</defs>
	<g id="spontaneousGeneration-species-icon" data-name="spontaneousGeneration-species-icon">
		<text class="species-title" transform="translate(22.9 77.9)">
			<tspan x="0" y="0">
				Spo
			</tspan>
			<tspan class="letter-spacing-01" x="17.42" y="0">
				r
			</tspan>
			<tspan class="letter-spacing-0" x="21.74" y="0">
				i
			</tspan>
			<tspan class="letter-spacing--03" x="24.74" y="0">
				f
			</tspan>
			<tspan x="28.81" y="0">
				è
			</tspan>
			<tspan class="letter-spacing-0" x="34.29" y="0">
				r
			</tspan>
			<tspan x="38.42" y="0">
				e
			</tspan>
		</text>
		<g>
			<path d="m56,57.67c.21-.51.24-1.3.38-2.61.12-1.06.13-1.93.07-2.68-2.48.44-4.78.64-6.86.55-.39,1.33-.39,2.36-.01,3.7.22.77.2,1.34.51,1.7-.42.14-.7.48-1.07.97-.81,1.08-.91,1.35,1.21.39.49-.22,1.1-.17,1.7-.1.94.11,1.43.1,2.51,1.24,1.35,1.42,1.95,1.62,1.38.14-.22-.59-.36-.96-.71-1.31.43.18.89.42,1.24.73,1.33,1.22,1.36.59.57-.76-.24-.42-.49-.66-.76-.83.29.02.6.11.92.35,1.19.91,1.52.71.52-.62-.45-.61-.83-.74-1.59-.84Z" />
			<path d="m22.92,19.19c.62.51,1.28.91,1.92,1.21h0s.01,0,.02,0c.58.27,1.14.44,1.66.52,2.86.62,5.62,2.66,9.76,5.94,1.99,1.57,3.26,2.78,4.11,3.75.66-.25,1.35-.48,2.06-.69.11-.03.03-.32-.14-.43-1.31-.94-2.88-2.19-4.91-3.75-3.9-3.01-7.75-6.38-8.5-7.93-.11-.27-.25-.55-.42-.82,0,0,0,0,0,0h0c-.46-.76-1.13-1.52-1.96-2.21-2.27-1.84-4.91-2.35-5.9-1.13-.99,1.22.04,3.7,2.3,5.54Zm-1.65-5.17c.17-.2.61-.09.99.23.37.33.54.75.37.94-.17.2-.61.09-.99-.23-.37-.33-.54-.75-.37-.94Z" />
			<path d="m45.1,17.67s.18.12.21.14c1.31,1.08,1.99,1.62,3.26,5.19.84,2.34,1.15,4.42,1.14,5.79.22,0,.43,0,.65,0,.6-1,.86-2.34.99-3.47-.39-1-.79-2.12-1.22-3.21-1.47-3.76-.85-5.95-.72-6.34.28-.86.28-1.89,0-2.92-.66-2.34-2.65-3.82-4.45-3.31,0,0,0,0,0,0,.01.03.03.05.04.08.1.28,0,.58-.23.66-.23.08-.49-.08-.59-.36-1.25.87-1.82,2.81-1.26,4.76.38,1.35,1.21,2.41,2.19,2.97Z" />
			<path d="m78.9,42.55c-3.27-1.27-2.85-1.26-6-3.5-.82-.59-6.7-6.2-15.34-8.45-.27.94-.42,1.92-.21,2.75.27,1.07-.4,2.06-1.93,2.15-.13-.02-.09-.12.1-.23.03-.01.06-.02.08-.04.02,0,.04-.02.06-.03,0,0,.01,0,.02-.01.61-.31,1-.87.9-1.45-.19-1.11-.02-2.55,1.07-5.21,1.57-3.81,2.57-4.12,3.65-5.1h0c.72-.59,1.38-1.47,1.82-2.55.98-2.39.57-4.82-.93-5.44-1.5-.62-3.51.81-4.49,3.2-.5,1.2-.63,2.41-.46,3.4,0,.06.03.37.04.5.08,1.38.06,2.31-1.38,5.56-1.32,2.96-2.16,3.6-3.14,4.29-.56.39-.7,1.14-.37,1.81,0,0,0,0,0,.01.27.58-.15.49-.42.32-1.12-.82-.93-1.85-.03-2.45.17-.12.36-.27.55-.44,0,0,.02,0,.02,0,.66-.6,1.39-1.47,1.98-2.38-.54-1.73-.5-4.59-.33-7.85.27-5.15,1.44-7.46,2.17-8.63h0c.66-1.15,1.1-2.76,1.17-4.55.14-3.57-1.25-6.52-3.09-6.59-1.84-.07-3.45,2.76-3.59,6.34-.07,1.77.24,3.38.79,4.57h0s0,0,0,0c.1.21.21.41.32.59.61,1.31.93,3.38.47,8.27-.42,4.57-.65,6.85-1.85,8.13-.04.04-.06.08-.07.13-.54,0-1.08.01-1.62.04.28.28.54.5.78.66.82.52.72,1.71-.15,2.59-.19.18-.3-.13-.19-.37,0,0,0,0,0-.01.25-.66.1-1.36-.3-1.66-1.82-1.38-5.62-6.96-8.66-11.67-4.35-6.75-4.48-7.46-4.39-9.88h0c.31-1.54-.1-3.59-1.24-5.5-1.84-3.06-4.86-4.63-6.76-3.49-1.9,1.14-1.95,4.54-.11,7.61,1,1.67,2.36,2.89,3.69,3.48l-.03.02c3.02,1.48,3.06,1.93,7.01,8.28,3.3,5.31,5.33,10.36,5.06,12.07-.11.72.59,1.51,1.61,1.93,0,0,0,0,0,0,.51.26.14.35-.21.33-1.34-.16-2.35-.74-2.31-1.81.02-.45,0-.94-.07-1.46-2.52.73-4.77,1.75-6.79,2.94.22.31.32.8.2,1.43,0,0,0,0,0,.01,0,.02,0,.04-.01.05-.04.14-.13.08-.18-.21,0,0,0,0,0,0-.1-.66-.53-1.16-1.19-1.12-1.12.06-3.19-.75-5.71-2.14-3.61-1.99-3.62-2.99-4.57-4.11h0c-.38-.48-.92-.92-1.56-1.23-1.75-.84-3.66-.5-4.27.77-.62,1.27.3,2.99,2.05,3.83.57.28,1.16.42,1.72.45h0c1.63.1,2.67,0,6.01,1.97,2.79,1.65,4.02,2.28,4.6,3.33.4.74,1.26.94,1.97.48h0c.17-.09.24-.08.23,0-.89,1.22-1.92,1.29-2.63.35-.33-.43-.52-.74-.74-1.01-5.02,4.11-8.02,8.9-9.64,11.04-2.85,3.76-5.25,6.14-10.68,6.15-3.49,0-6.79-1.64-9.29-3.93-1.91-1.76-2.78-1.74-1.41,1.45,1.77,4.13,6.57,7.73,12.96,7.81,5.06.06,10.12-1.3,15.96-6.76.84-.78,1.57-.96,1.96-1.16.08-1.06,0-1.95-.17-2.85-.2-1.1.62-.58.82.15.17.64.32,1.37.33,2.12,0,.07.01.48,0,.62-.08,1.45-.54,2.94-1.62,4.08-1.05,1.1.07,4.58.66,5,.27.19,1.05.36,1.72.42.12.02.26.04.39.07.93.19,1.38.09,2.5.86,1.45,1,2.07,1.36,1.4,0-.19-.4-.26-.63-.35-.8.29.13.6.29.9.49,1.71,1.13,2.29,1.41,1.37-.02-.34-.53-.62-.99-1-1.33.39.08.8.22,1.13.5,1.33,1.11,1.61,1.05.7-.52-.56-.96-1.1-1.17-1.99-1.19-.26,0-.63-.12-1.05-.31,5.28-2.59,7.15-4.94,7.57-6.89.03-.15.12-.57.12-.93-.01-1.26-.41-2.36-.86-3.09-.63-1.02-1.88-1.56-2.86-1.89-.49-.17-.33-.62.08-.55,1.54.28,3.12,1.09,3.9,2.46.51.9,1.1,2.22.83,3.82.03,0,.06.01.09.02,3.17.78,7.12.54,11.57-.38.04-.07.07-.13.11-.2.57-1.06.97-4.57,1.02-5.14.09-1.09.9.17.92.64h-.02c.01.16-.02.58-.09,1.1-.13,1.01-.37,2.41-.66,3.33,0,0,0,0,0,0-.09.29-.18.54-.27.71-.57,1.06-.98,1.82-.38,3.6,1.1,3.23,2.01,4.51,2.98,5.5.07.07.14.13.21.19.4.69,2.6.99,3.22,1.08,1.14.16,1.17-.04,2.66,1.12,1.58,1.22,2.3,1.61,1.59.04-.21-.46-.28-.72-.37-.92.33.16.67.35,1.01.59,1.91,1.35,2.55,1.67,1.55.02-.37-.62-.67-1.15-1.09-1.54.45.1.9.27,1.27.6,1.47,1.31,1.8,1.24.81-.57-.7-1.29-1.39-1.42-2.73-1.43.17-.34-.09-.89-.72-1.94-1.51-2.54-2.71-4.21-4.21-4.93-1.47-.7-2.41-1.14-2.35-1.65.1-.93.07-1.44,1.42-4.38h-.01c.21-.42,1.52-1.06,1.14-.23-.7,1.54-1.03,2.41-1.2,3.02,6.95-1.53,4.36,1.3,10.9,3.5,4.23,1.42,8.97,0,11.15-1.88,2.59-2.22-2.23-7.01-6.67-8.73Zm-17.98-25.4c.19-.47.55-.77.79-.67.24.1.28.56.08,1.03-.19.47-.55.77-.79.67-.24-.1-.28-.56-.08-1.03Zm-7.04-14.43c.03-.49.27-.88.53-.86.26.02.44.43.41.93-.03.49-.27.88-.53.86-.26-.02-.44-.43-.41-.93Zm-24,.79c-.24.16-.71-.13-1.05-.64-.34-.51-.42-1.05-.18-1.21.24-.16.71.13,1.05.64.34.51.42,1.05.18,1.21Zm-9.08,24.7c-.11.23-.46.3-.77.15-.31-.15-.47-.46-.36-.7.11-.23.46-.3.77-.15.31.15.47.46.36.7Zm55.28,21.58c-.98,0-1.78-.8-1.78-1.78s.8-1.78,1.78-1.78,1.78.8,1.78,1.78-.8,1.78-1.78,1.78Z" />
		</g>
	</g>
</svg>
