<?xml version="1.0" encoding="UTF-8"?>
<svg width="512pt" height="512pt" version="1.1" viewBox="0 0 512 512" xmlns="http://www.w3.org/2000/svg">
 <path d="m467.92 432.99c-3.0781-3.0664-8.5859-7.3633-10.633-10.629-2.0391-3.2656-8.9922-6.7383-12.883-8.375-3.8828-1.6328-11.234-4.707-14.512-7.3633-3.2734-2.6641-8.9922-8.582-10.625-11.441-1.6328-2.8633-10.625-8.793-10.625-8.793 0.60938-1.4219 0.60938-5.7227 0.60938-5.7227s5.3203 2.8672 6.9531 5.5195c1.6289 2.6562 7.5625 5.3164 7.5625 5.3164-0.62109-3.6758-6.9492-16.348-6.9492-16.348 8.375-3.2734 23.707 1.6328 23.707 1.6328-2.8672-8.5859-21.047-15.328-21.047-15.328 0.40625-2.2461 17.168-3.2734 17.168-3.2734-4.9062-7.3633-24.93-5.5156-24.93-5.5156 1.0195-2.2461 4.8984-4.9102 4.8984-4.9102s-6.5312 0-11.438 2.8633c-4.9102 2.8672-8.1836-1.2227-11.449-6.1289s-17.578-26.574-24.125-33.52c-6.5312-6.9492-14.703-6.1328-19.207-2.8633-4.4922 3.2734-7.3594 26.98-7.3594 26.98-24.934-33.52-39.246-39.656-43.336-42.105-4.0898-2.4531-11.449-12.266-11.449-12.266 6.543-0.8125 11.449 4.9102 11.449 4.9102-0.82031-8.5859-8.582-13.906-11.449-14.719-2.8633-0.82031-13.484-4.4961-7.7617-6.1289 5.7188-1.6328 12.262 4.0859 12.262 4.0859-5.7188-11.035-17.172-11.441-22.891-11.852-5.7227-0.40625-35.562-11.441-44.965-12.672-9.3984-1.2305-14.715 4.0859-14.715 4.0859-14.309-4.4961-21.254 0.41016-22.488 0.41016-104.24-83.395-71.129-144.71-31.062-185.18 40.059-40.469 102.6-30.25 175.36-24.934 72.762 5.3164 118.54-22.891 118.54-22.891s-11.438-9.3984-38.43-4.4961c-81.914 14.895-239.13-58.863-312.71 46.598-81.699 117.11 1.332 219.89 18.043 238.57 0.83594 6.7891 0.14844 11.613 0.14844 11.613-9.6055-16.145-19.414-17.172-24.734-17.172-5.3203 0-15.945 6.7422-15.328 15.738 0.61328 8.9961-1.0234 29.227-1.6328 39.035-0.61328 9.8164 2.2461 21.055 3.0664 27.797 0.82031 6.7422 1.0234 17.785 1.0234 17.785 5.1094-6.7422 5.9297-17.578 9.3984-15.328 6.7422 6.5391 4.2891 23.914 4.2891 23.914 6.543-6.7422 8.5859-22.277 8.5859-22.277 3.8867 2.2422 8.582 16.145 8.582 16.145 2.4531-5.7227 1.4336-19.422 1.4336-19.422 3.6758 0.61328 6.5391 6.7422 6.5391 6.7422 1.2305-4.9062-2.2461-16.148-2.2461-16.148 21.047 23.102 26.98 13.906 32.906 5.9297 5.9297-7.9727 10.016-27.391 10.016-27.391 1.8398 14.105 21.457 31.684 33.109 41.082 11.648 9.3984 40.266 25.141 40.266 25.141-12.672 12.883-3.2656 21.664 6.1328 33.316 9.3945 11.648 19.414 16.145 23.09 17.992 3.6797 1.8398 2.2461 6.7383 2.2461 6.7383-3.4727 2.2461-7.7656 9.6055-7.7656 9.6055 1.6328-1.832 7.9727-2.4531 7.9727-2.4531s-4.9062 13.082-4.9062 16.762c0 3.6758 2.043 6.9414 2.043 6.9414 0-3.2734 3.4766-10.016 6.125-12.676 2.6641-2.6523 3.8906 6.3398 4.5 13.293 0.62109 6.9414 7.1523 13.695 7.1523 13.695s1.0234-9.1992 0.8125-16.145c-0.19922-6.9531 4.2969-8.9961 7.7734-9.207 3.4727-0.19922 2.2461 3.6875 6.3398 6.332 4.082 2.6641 4.6992 7.5664 4.6992 7.5664 2.2422-3.6797 0.60938-11.648-0.62109-15.535-1.2188-3.875-1.6289-12.871-1.6289-12.871 2.0391-1.0234 11.648-2.2461 11.648-2.2461-0.8125-2.0469-5.1094-5.1094-13.492-7.3633s-12.875-14.715-14.918-17.988c-2.0469-3.2734-12.473-13.902-12.473-13.902 8.1836-0.20312 20.031-6.5391 20.031-6.5391s8.5898 8.3828 17.992 8.1836c6.3398 0.19922 12.473 4.2852 16.758 8.375s25.754 19.824 42.305 18.602c16.559-1.2227 37.613 6.332 44.355 8.5859 6.7422 2.2539 20.438 3.2734 28 2.8633 5.5234-0.30078 26.574 0.82031 32.508-13.484 6.1406-17.164 1.4375-22.062-1.6211-25.137z" fill="currentColor"/>
</svg>
