<?xml version="1.0" encoding="UTF-8"?>
<svg width="512pt" height="512pt" version="1.1" viewBox="0 0 512 512" xmlns="http://www.w3.org/2000/svg">
	<g fill="currentColor">
		<path d="m343.28 182.74c-4.3086 0.12891-8.3203 2.2148-10.898 5.668 0.24219 1.9883-0.46875 3.9727-1.918 5.3516-1.4492 1.3828-3.4688 1.9922-5.4414 1.6523-0.82031-0.14453-1.6328-0.35156-2.4219-0.61719-3.918 16.898-15.855 30.812-31.961 37.25-2.0312 0.80859-4.2109 1.1602-6.3906 1.0352-8.168-0.47266-16.312 1.2383-23.598 4.957-1.8203 0.92969-3.8164 1.4727-5.8555 1.5977-18.664 1.1758-37.332-2.2852-54.332-10.07-10.059-2.9023-20.789-2.4336-30.551 1.3438-9.7656 3.7734-18.023 10.641-23.508 19.555-0.66016 1.082-0.95312 2.3516-0.83203 3.6094 1.0312 11.5 4.9453 22.555 11.375 32.141 2.5312 3.7617 3.8281 8.2188 3.7109 12.754-0.12109 4.5312-1.6445 8.918-4.3672 12.543-3.1562 4.2031-7.0039 7.8359-11.375 10.75-4.5781 3.0547-6.6953 8.6914-5.2578 14.008 4.6836 17.332 7.6562 35.082 8.8672 52.996 0.050781 0.80078 0.64844 1.4609 1.4453 1.5938 2.5898 0.4375 4.8945 1.8945 6.4023 4.0469 1.6016 2.2227 2.6875 4.7695 3.1875 7.4648 0.14844 0.81641 0.85938 1.4102 1.6914 1.418h8.5156-0.003906c0.68359 0 1.3008-0.39844 1.582-1.0195 0.27734-0.62109 0.16797-1.3477-0.28516-1.8555-4.082-4.625-8.7852-8.6602-13.98-11.992-0.97266-0.61719-1.6133-1.6445-1.7422-2.793l-4.4297-40.391c-0.44922-4.125 0.28125-8.293 2.1094-12.016s4.6797-6.8477 8.2188-9.0078c10.07-6.1562 18.926-14.109 26.133-23.461 4.4531-3.2188 7.6992-7.8398 9.2148-13.125 1.5117-5.2852 1.207-10.926-0.86719-16.016-0.12109-0.25781-0.12891-0.55859-0.027344-0.82422 0.10547-0.26953 0.31641-0.48047 0.58203-0.58984 0.26562-0.10547 0.5625-0.10156 0.82422 0.015626 0.26172 0.11719 0.46484 0.33984 0.55859 0.60937 2.9258 7.1797 2.5781 15.277-0.95703 22.18 23.227 8.8242 47.977 12.938 72.809 12.098-1.0078-3.3047-2.375-6.4883-4.0742-9.4961-1.6289-2.875-2.8008-5.9883-3.4766-9.2227-0.11719-0.56641 0.25-1.125 0.81641-1.2422 0.57031-0.11719 1.125 0.24609 1.2422 0.81641 0.63672 3.0195 1.7344 5.9258 3.2578 8.6094 4.625 8.1836 6.8242 17.516 6.3477 26.906-0.45703 9.0586 0.88281 18.121 3.9375 26.664 0.35547 0.98047 0.60547 2 0.75 3.0352 1.6758 12.469 1.7891 25.094 0.33984 37.59-0.097657 0.82813 0.41406 1.6094 1.2148 1.8516 2.1289 0.62891 3.9844 1.9648 5.2578 3.7891 1.6016 2.2227 2.6875 4.7695 3.1875 7.4648 0.15234 0.82812 0.875 1.4258 1.7188 1.418h8.5c0.67969 0 1.2969-0.39844 1.5781-1.0195 0.27734-0.62109 0.16797-1.3477-0.28516-1.8555-3.2383-3.6719-6.8672-6.9766-10.832-9.8516-0.98828-0.71875-1.5781-1.8672-1.5781-3.0938v-90.926 0.003906c-0.09375-4.4609 2.207-8.625 6.0352-10.914 0.49609-0.28516 1.125-0.12109 1.4219 0.36719 0.29687 0.48828 0.14844 1.1211-0.33203 1.4297-3.1836 1.9062-5.0977 5.3789-5.0156 9.0859v6.6758c2.8594-6.8711 7.3555-12.941 13.094-17.684 0.77344-0.73828 1.6211-1.3906 2.5352-1.9453 9.793-5.9844 16.805-15.621 19.48-26.785 3.1914-13.297 8.9727-25.832 17.016-36.895-5.1523 0.41797-10.191-1.6875-13.516-5.6523h-0.082031c-0.31641-0.44531-0.23438-1.0625 0.18359-1.4141 0.42188-0.34766 1.043-0.31641 1.4258 0.078125 3.1758 3.7852 8.1289 5.5898 12.996 4.7422 2.5664-0.44141 5.1836 0.39844 7.0156 2.2461 1.6719 1.6797 3.5703 3.1211 5.6406 4.2773 3.1914 1.7734 7.1953 1.0195 9.5234-1.793s2.3242-6.8867-0.015625-9.6914l-9.2109-11.023 0.003906 0.003907c-0.66797-0.80469-0.88672-1.8906-0.58594-2.8906 1.25-4.2109 0.70703-8.75-1.5-12.547-2.7383-2.6562-6.4336-4.0898-10.246-3.9766zm-5.4922 12.656c0.79688-0.070312 1.5859 0.20703 2.1641 0.76172 0.57422 0.55469 0.88672 1.3281 0.84766 2.1289 0 1.5312-1.2422 2.7695-2.7734 2.7695s-2.7695-1.2383-2.7695-2.7695c-0.070312-1.4883 1.0508-2.7656 2.5312-2.8906z" />
		<path d="m357.8 193.44c-0.20703-2.8398-1.082-5.5898-2.5586-8.0234-0.22266-0.21875-0.44922-0.43359-0.68359-0.64062 5.0586-3.6172 10.902-5.9883 17.051-6.9258 0.35156-0.050781 0.69922 0.082032 0.92969 0.35156 0.23047 0.26562 0.30859 0.63281 0.20312 0.97266-2.1641 7.0352-7.832 12.441-14.965 14.266z" />
		<path d="m297.59 145.12c0.039062 3.8672 1.2461 7.6289 3.4648 10.793 2.2227 3.1641 5.3516 5.582 8.9766 6.9297 4.9219 1.4609 9.9219 2.625 14.984 3.4961 2.2461 0.72656 4.293 1.9648 5.9766 3.6133 4.2852 2.5078 7.5742 6.4062 9.3242 11.051 3.3594-0.73047 6.8594-0.37109 10 1.0195-0.62109-2.6406-0.71094-5.375-0.26172-8.0508 0.375-2.0898-0.17578-4.2383-1.5078-5.8906-1.3281-1.6562-3.3086-2.6523-5.4297-2.7344-4.3008-0.16797-8.4336-1.6953-11.812-4.3594-3.375-2.668-5.8164-6.3359-6.9766-10.477-0.92188-3.8125-0.82812-7.7969 0.26172-11.562 0.41797-1.4609 0.125-3.0352-0.79297-4.2461s-2.3555-1.918-3.875-1.9102c-4.1094 0.019531-8.1133-1.2695-11.438-3.6836-3.3203-2.418-5.7852-5.8281-7.0352-9.7383-0.007813 4.875 2.5508 9.3945 6.7344 11.898 2.5625 1.8555 5.4375 3.2266 8.4883 4.0586 1.9766 0.53125 3.1797 2.5234 2.7344 4.5195-1.0898 4.8711-0.76172 9.9492 0.94922 14.637 0.47266 1.2969 0.20703 2.75-0.69141 3.7969-0.89844 1.0469-2.293 1.5273-3.6484 1.2578-3.9688-0.79297-7.6016-2.7812-10.406-5.7031-1.7539-1.8164-2.7031-4.2617-2.6406-6.7891 0.17188-6.3281-2.1172-12.477-6.3789-17.156s-10.172-7.5273-16.488-7.9453c-8.2188-1.0039-15.324-6.2031-18.77-13.727 0.070312 3.125 1.0312 6.1719 2.7656 8.7773 1.7344 2.6016 4.1758 4.6602 7.0352 5.9297 0.90625 0.40234 1.8867 0.61719 2.8789 0.62891 5.8867 0.082031 11.539 2.3242 15.883 6.3008 4.3398 3.9727 7.0703 9.4062 7.668 15.266z" />
		<path d="m329.3 186.34c-3.9023-4.3477-8.918-7.5469-14.508-9.2539-0.29688-0.085938-0.61719-0.035156-0.875 0.14453-0.25391 0.17578-0.41797 0.45703-0.44141 0.76562-0.26562 3.5898 0.8125 7.1484 3.0273 9.9844s5.4023 4.7422 8.9492 5.3555c1.7734 0.30078 3.543-0.55469 4.4141-2.1289 0.86719-1.5781 0.64453-3.5312-0.55859-4.8711z" />
	</g>
</svg>
