<?xml version="1.0" encoding="UTF-8"?>
<svg width="512pt" height="512pt" version="1.1" viewBox="0 0 512 512" xmlns="http://www.w3.org/2000/svg">
 <g fill="#fff">
  <path d="m223.23 316.93c0 9.0469-7.332 16.383-16.383 16.383-9.0469 0-16.383-7.3359-16.383-16.383 0-9.0508 7.3359-16.387 16.383-16.387 9.0508 0 16.383 7.3359 16.383 16.387"/>
  <path d="m320 316.93c0 9.0469-7.3359 16.383-16.383 16.383-9.0508 0-16.387-7.3359-16.387-16.383 0-9.0508 7.3359-16.387 16.387-16.387 9.0469 0 16.383 7.3359 16.383 16.387"/>
  <path d="m419.33 318.98c0-0.51172-1.5352-1.5352-1.5352-1.5352 0-30.719-20.48-54.785-47.617-61.953v-2.0469c0-26.113-15.871-48.641-38.398-58.879 28.16-75.777-90.625-130.05-90.625-130.05s27.137 81.922-27.137 81.922c-31.23 0-33.793 24.574-30.719 45.566-26.113 8.1914-44.543 32.258-44.543 60.93v1.5352c-26.113 7.168-46.078 32.258-47.617 57.855 0 0 0.51172 2.0469 0.51172 3.5859 0 0 0.51172 0.51172 0.51172 1.0234h-0.51172c0 0.51172-1.0234 1.0234-1.0234 2.0469-30.723 4.6055-54.785 31.227-54.785 62.973 0 35.328 29.184 63.488 64.512 63.488h308.22c35.328 0 67.586-28.16 67.586-63.488 0-32.258-25.602-58.367-56.832-62.977zm-212.48 32.254c-18.434 0-32.77-15.359-32.77-33.793 0-18.945 14.848-33.793 32.77-33.793 18.434 0 32.77 15.359 32.77 33.793 0 18.945-14.336 33.793-32.77 33.793zm97.281 0c-18.434 0-32.77-15.359-32.77-33.793 0-18.945 14.848-33.793 32.77-33.793 18.434 0 32.77 15.359 32.77 33.793 0.50781 18.945-14.34 33.793-32.77 33.793z"/>
 </g>
</svg>
