<?xml version="1.0" encoding="UTF-8"?>
<svg width="512pt" height="512pt" version="1.1" viewBox="0 0 512 512" xmlns="http://www.w3.org/2000/svg">
 <path d="m418.3 161.79c17.406-14.848 14.336-48.641 5.6328-66.559-6.1445-13.312-22.016-22.016-36.863-22.016-6.6562-2.0469-13.312-2.0469-18.945 1.5352-3.0703 2.0469-2.5586 6.1445 0 7.6797-12.289-4.0977-28.672-3.0703-39.426 4.6094-7.6797-7.6797-20.48-11.266-30.719-14.336-14.336-5.1211-29.184-7.6797-44.543-8.1914-31.742-1.5352-63.488 7.168-91.137 22.527-57.344 31.742-89.09 94.203-94.207 158.72-1.5352 18.434-1.0234 37.375 2.5586 55.809 3.0703 16.383 7.6797 35.84 20.48 47.105-18.945 23.039-12.801 68.098 8.1914 87.551 9.7266 9.2148 22.527 12.801 35.84 11.266 9.2148-1.0234 28.16-6.6562 25.09-18.945-0.51172-1.5352-2.0469-2.5586-3.5859-3.0703-2.0469 0-3.5859 0.51172-5.1211 1.0234-6.6562-1.0234-13.312-2.0469-18.945-6.6562-8.7031-7.6797-10.754-20.48-8.7031-31.23 3.0703-19.457 17.406-38.91 36.352-45.055 8.7031-2.5586 18.945-3.0703 27.137 2.0469 6.6562 4.0977 10.238 10.754 12.801 17.922-3.5859-5.1211-8.1914-9.7266-11.777-11.777-18.945-10.238-38.398 0.51172-49.152 16.895-10.754 16.383-12.801 37.375 4.0977 50.688 13.824 10.238 40.449 13.312 53.246-1.0234 27.648 17.922 67.07 15.359 98.305 10.238 38.398-6.1445 72.191-23.551 96.258-54.273 24.574-31.742 46.078-70.145 52.223-110.59 4.6094-32.77 0.51172-78.336-25.086-101.89zm-34.305-75.266c10.754 3.0703 15.359 10.754 15.359 21.504 0 16.895-8.7031 34.816-18.945 47.617-10.75 13.312-27.133 24.574-45.055 23.551-14.848-1.0234-22.527-9.7266-30.207-20.48-0.51172-2.0469-1.5352-3.5859-2.5586-5.1211-0.51172-1.0234-2.0469-0.51172-2.5586 0.51172-4.0977 7.168-1.5352 19.969 1.0234 27.137 4.0977 11.777 12.801 20.48 23.551 26.113 19.457 10.238 53.246 10.238 66.559-9.7266 32.77 49.152-2.5586 111.62-37.887 150.02-18.945 20.48-41.984 37.375-68.609 45.055-27.137 7.6797-54.273 5.1211-80.895-2.5586 0.51172-0.51172 1.0234-1.5352 1.5352-2.5586 2.5586 2.0469 7.168 0 8.7031-3.5859 19.457-17.406 6.6562-52.223-12.801-65.023-12.801-8.7031-29.184-9.2148-44.031-7.168-10.754 1.5352-28.16 4.0977-35.84 13.824-12.289-27.648-14.336-61.441-11.777-91.137 2.5586-29.184 15.359-55.809 35.84-76.801 19.969-20.48 46.078-32.77 74.238-36.863 15.359-2.0469 31.742-2.0469 47.105 1.0234 6.6562 1.5352 13.824 3.0703 20.48 5.6328 5.1211 1.5352 9.2148 4.0977 13.824 4.0977-4.0977 15.871 10.754 37.887 26.113 40.449 23.551 4.6094 48.641-5.6328 58.879-28.16 8.1914-18.945 8.1914-45.055-10.238-57.855-1.0234-0.51172-1.5352-1.0234-2.5586-1.5352 3.582 1.0195 7.1641 1.0195 10.75 2.043zm-194.56 244.23c-16.895-7.168-36.352-2.5586-50.688 7.6797-20.992 15.359-35.328 43.008-29.695 69.633 2.5586 12.289 9.7266 22.527 21.504 27.137-10.754 1.0234-20.992-3.5859-27.648-12.289-8.1914-10.238-10.754-23.039-11.266-35.84-0.51172-13.312 4.0977-25.09 4.6094-38.398 0-0.51172 0-1.0234-0.51172-1.0234-2.5586-9.7266-6.6562-18.434-8.7031-28.16-2.5586-10.238-3.5859-20.992-4.0977-31.742-1.0234-17.922-1.0234-36.352 2.0469-54.273 6.1445-37.375 21.504-73.727 47.105-101.38 24.062-25.602 56.32-43.008 90.625-49.152 17.406-3.0703 35.84-3.0703 52.734 1.0234 16.895 4.0977 31.23 12.801 47.105 19.457 4.0977 2.0469 8.7031 0.51172 10.754-3.0703 9.2148-2.0469 18.945-4.0977 28.16-1.0234 15.359 4.6094 16.383 22.016 11.777 35.328-5.1211 16.383-20.48 24.574-37.375 23.551-18.438 0.50391-22.535-14.855-28.168-28.168 1.0234-1.0234 1.5352-2.5586 1.0234-4.0977-4.6094-12.801-25.602-15.871-37.375-18.434-16.895-3.5859-34.816-4.6094-52.223-2.5586-32.77 4.0977-62.977 18.945-86.016 43.008-22.527 23.039-35.84 52.734-38.91 84.992-3.0703 31.742-2.5586 77.312 24.062 99.84 1.5352 1.5352 4.0977 0.51172 4.6094-1.0234 7.6797 1.0234 14.848-2.5586 22.016-4.6094 11.777-2.5586 26.625-4.0977 38.398-1.0234 9.7266 2.5586 18.434 9.2148 22.527 18.434-4.0977-6.1406-9.2148-10.75-16.383-13.82zm237.05-67.586c-5.6328 35.328-24.062 68.609-45.055 97.793-20.992 29.695-51.199 46.594-86.527 53.246-31.742 6.1445-65.535 7.6797-96.77-2.5586 0-4.0977-3.0703-7.6797-7.6797-5.6328-10.754 4.6094-18.945 9.7266-30.719 6.1445-16.383-5.1211-18.945-20.48-11.266-34.305 6.6562-11.777 18.434-22.016 32.258-16.895 7.6797 3.0703 12.801 10.238 14.848 17.922 1.0234 3.5859 0.51172 6.6562 1.5352 10.238-1.5352 1.5352-2.0469 4.0977 0 5.6328 57.344 32.77 128.51 2.0469 168.96-43.008 21.504-24.062 40.961-54.273 47.617-86.016 5.6328-26.625 4.0977-62.977-18.945-81.406-3.5859-3.0703-8.1914-1.0234-9.2148 2.5586-8.1914 5.1211-14.848 11.266-24.574 13.824-13.312 3.5859-25.602-0.51172-36.863-7.6797-4.6094-3.0703-8.1914-6.6562-11.266-11.266 5.6328 3.5859 11.777 6.1445 17.406 7.168 23.551 3.5859 46.078-10.754 59.902-28.16 12.801-16.383 24.062-40.961 19.969-62.465 0-1.0234-0.51172-2.0469-1.0234-3.0703 2.0469 3.0703 3.5859 6.6562 4.6094 10.754 3.0703 11.777 3.0703 23.551-0.51172 34.816-2.0469 6.1445-5.1211 11.266-6.6562 16.895-1.5352 1.0234-2.5586 2.5586-1.5352 5.1211 5.1211 15.871 14.336 30.207 18.434 46.594 5.1133 17.914 5.625 36.348 3.0664 53.754z" fill="#fff"/>
</svg>
