<?xml version="1.0" encoding="UTF-8"?>
<svg id="tunnel-species" data-name="tunnel-species" xmlns="http://www.w3.org/2000/svg" viewBox="0 0 59.03 80.28">
	<defs>
		<style>
			.letter-spacing--05 {
			letter-spacing: -.05em;
			}

			.species-title {
			font-family: Grandstander-Bold, Grandstander;
			font-size: 9.83px;
			font-weight: 700;
			display: var(--species-title-display)
			}
		</style>
	</defs>
	<g id="tunnel-species-icon" data-name="tunnel-species-icon">
		<text class="species-title" transform="translate(4.47 77.52)">
			<tspan class="letter-spacing--05" x="0" y="0">
				F
			</tspan>
			<tspan x="4.2" y="0">
				ouisseuse
			</tspan>
		</text>
		<g>
			<path d="m34.36,2.29c2.06.64,3.69,1.32,4.51,2.27,2.85,3.29.61,5.48-1.96,7.88,2.85.44,5.66,1.62,8.22,3.75.9-2.26,2.43-7.72-.23-11.48-2.06-2.91-6.27-3.82-8.54-4.32-5.44-1.19-6.21.59-2,1.9Z" />
			<path d="m54.15,44.64c.01.46.16,1.3,1.07,2.93.65,1.14,1.21,2,1.91,2.84.48.33,1.04.67,1.75,1.02.13.06-2.1-3.01-2.61-4.62-.48-1.53-.68-2.5-.71-3.31-.04-1.51.04-1.91,1.73-3.81,2.53-2.84,3.51-7.11-5.71-11.36-.27-.13-.58-.25-.9-.39h0c-.66-.27-1.41-.54-2.19-.81-3.11-1.06-1.39-1.35.33-.83.59.18,1.15.38,1.67.58-.35-1.48-1.08-3.12-2.3-4.93-8.61-12.77-22.8-9.37-30.42-1.66-2.16,2.19-3.5,4.18-4.24,6.07h0s0,.03-.01.04c-.09.23-.17.45-.24.68-.02.07-.04.14-.06.21-.05.17-.09.35-.13.52-.04.19-.08.37-.12.55,0,.04-.01.08-.02.12-.25,1.48-.15,2.9.19,4.32,0,0,.01,0,.02,0h0c.12,0,.23,0,.36,0,.2,0,.39,0,.59,0,.06,0,.12,0,.18,0,.14,0,.29.01.43.02.06,0,.12,0,.18.01.16.01.32.03.49.04.03,0,.06,0,.1,0,.2.02.39.04.58.07.04,0,.08.01.13.02.15.02.3.04.45.07.05,0,.1.02.16.02.15.03.31.05.46.08.04,0,.07.01.11.02.19.04.38.08.57.12,0,0,.02,0,.03,0,.18.04.35.08.53.13.04.01.08.02.11.03.15.04.31.09.46.13.03,0,.06.02.09.03.37.11.73.23,1.08.36.02,0,.04.02.06.02.16.06.31.12.47.18.02,0,.05.02.07.03.35.14.69.3,1.01.46,0,0,0,0,0,0,.16.08.31.16.46.24.02.01.04.02.06.03.14.08.29.16.43.24,5.23,3.09,7.03,8.66-.08,13.61.21.28.48.71.87,1.11.73.74,1.61,1.06,1.33,1.34-.28.28-1.1-.1-1.84-.84-.44-.44-.74-.91-.85-1.28-.11.07-.22.15-.34.22-.21.13-.43.26-.65.4,1.37,3.61,1.99,4.51,2.55,5.82,1.1,2.55,1.8,3.66,1.95,5.46.12,1.49,4.14,1.49,4.48.41.41-1.34,1.23-2.8,2.38-5.23,1.25-2.64,2.57-3.63,4.35-6.21-.12-.07-.24-.14-.35-.22-8.29-5.2-6.52-11.23-.96-14.53.32-.19.65-.37,1-.54,0,0,0,0,0,0,.16-.08.33-.16.5-.24.02,0,.03-.02.05-.02.17-.08.34-.15.52-.22h0c.36-.15.73-.29,1.11-.41.02,0,.05-.02.08-.02.16-.05.32-.1.48-.15.03,0,.07-.02.1-.03.17-.05.35-.1.53-.15.01,0,.02,0,.03,0,.2-.05.39-.1.6-.15.02,0,.04,0,.05-.01.17-.04.34-.08.52-.11.05,0,.1-.02.15-.03.15-.03.3-.06.45-.08.05,0,.1-.02.16-.03.18-.03.35-.06.54-.08.02,0,.04,0,.06,0,.2-.03.4-.05.6-.07.05,0,.1,0,.16-.01.15-.01.3-.03.45-.04.07,0,.13,0,.2-.01.14,0,.29-.02.43-.02.06,0,.12,0,.19,0,.2,0,.41-.01.61-.01.24,0,.48,0,.71,0,.09,0,.18,0,.27,0,.13,0,.27,0,.4.01.12,0,.24.01.35.02.09,0,.18,0,.27.01.14,0,.28.02.41.03.05,0,.11,0,.17.01.15.01.29.03.43.04.03,0,.07,0,.11,0,.14.02.28.03.42.05.02,0,.05,0,.08,0,.13.02.26.04.39.05.03,0,.05,0,.08.01.12.02.24.04.35.06,1.16.2,1.94.46,2.47.68.76.31.23.38-.7.29-.67-.07-1.58-.18-2.37-.25,0,0-.01,0-.02,0-.07,0-.14-.01-.21-.02-.02,0-.04,0-.05,0-.06,0-.12,0-.18-.01-.03,0-.05,0-.07,0-.05,0-.1,0-.15-.01-.03,0-.06,0-.09,0-.04,0-.08,0-.12,0-.03,0-.07,0-.1,0-.03,0-.06,0-.09,0-.04,0-.08,0-.12,0-.02,0-.04,0-.06,0-.06,0-.11,0-.16,0-.3,0-.6,0-.9,0-.03,0-.06,0-.09,0-.29,0-.57.02-.85.04-.04,0-.08,0-.12,0-.28.02-.55.05-.82.08-.04,0-.09.01-.13.02-.27.03-.54.07-.81.11-.04,0-.08.01-.11.02-.27.04-.55.09-.81.15-.02,0-.05.01-.07.01-.57.12-1.13.26-1.67.42-.01,0-.02,0-.03,0-.27.08-.53.16-.78.25-.02,0-.04.02-.06.02-.25.09-.5.18-.74.28-.03,0-.04.02-.07.03-.24.1-.48.2-.72.31-.02,0-.04.02-.05.02-.24.11-.48.22-.7.34,0,0,0,0-.01,0-.71.37-1.37.78-1.96,1.22,0,0-.01,0-.02.01-.19.14-.37.29-.55.44,0,.01-.02.02-.03.03-.17.15-.34.3-.5.46,0,0,0,0-.02.01,0,0,0,0,0,0-3.15,3.1-3.35,7.45,2.29,11.54,0,0,0,0,0,0,.39.28.8.56,1.24.84.46.29.92.57,1.39.85.08.05.17.1.26.15.14.08.28.16.42.25.22.13.44.25.66.38.09.05.19.1.28.15.23.13.47.25.7.38.04.02.09.05.13.07.29.15.59.31.89.45.04.02.08.04.12.06.31.15.62.3.94.44.02,0,.04.02.05.02.67.3,1.34.59,2.02.84-.01,0-.02,0-.03-.01,3.57,1.36,7.33,2,11.1,1.19.19-.04-2.53-1.48-5.14-3.53-.14-.1-.27-.2-.42-.31-2.34-1.7-5.64-4.66-6.1-7.19-.13-.7.64-1.01.84-.6.25.53.08,1.01,1.24,2.84,1.74,2.74,4.03,4.7,5.9,5.91,1.69.71,3.38,1.14,4.54,1.27.04,0-1.26-1.06-2.7-2.45-.42-.36-.98-.99-1.73-1.79-1.96-2.12-3.28-4.09-3.28-5.54,0-.71.72-.81.83-.37.15.57-.46.97.88,3.09,1.56,2.45,2.72,3.76,3.96,4.8.87.53,1.71.93,2.41,1.15.09.03-.54-.81-1.46-2.01-.22-.24-.48-.58-.79-1.02-.02-.02-.03-.04-.05-.06,0,0,0,0,0,0-.2-.3-.43-.63-.68-1-1.1-1.61-2.11-3.04-2.11-4.26,0-.49.57-.82.6.08Zm-21.42,5.26c.91-.71,1.38-1.64,1.65-1.29.27.35-.25,1.2-1.16,1.92-.91.71-1.87,1.01-2.14.67-.27-.35.74-.58,1.65-1.29Z" />
			<path d="m23.48,37.93s0,0,0,0c0,0-.01-.02-.02-.02-.15-.15-.31-.29-.47-.43-.02-.01-.03-.03-.05-.04-.16-.14-.33-.28-.51-.41-.02-.01-.04-.03-.05-.04-.18-.13-.36-.26-.55-.39-.02-.01-.04-.03-.06-.04-.19-.12-.38-.24-.58-.36-.03-.01-.05-.03-.07-.04-.2-.11-.4-.23-.6-.33-.03-.02-.06-.03-.09-.04-.2-.11-.41-.21-.63-.31-.03-.02-.07-.03-.1-.04-.21-.1-.43-.19-.65-.28-.04-.01-.08-.03-.11-.04-.22-.09-.44-.17-.67-.25-.04-.01-.08-.03-.12-.04-.22-.08-.44-.15-.67-.21-.05-.02-.1-.03-.15-.04-.22-.06-.43-.12-.65-.18-.06-.02-.12-.03-.19-.05-.21-.05-.43-.1-.65-.15-.07-.02-.14-.03-.21-.04-.21-.04-.43-.08-.65-.12-.07-.01-.15-.02-.22-.04-.22-.03-.44-.06-.67-.09-.07,0-.14-.02-.22-.03-.14-.02-.28-.03-.42-.04,0,0,0,0,0,0-.75-.07-1.5-.1-2.27-.09-.79-.01-2.57.21-3.7.33-.9.09-1.43.02-.69-.28.89-.36,2.49-.85,5.5-.95-.5-2.01-.54-4.03.22-6.18-1.91.52-3.9,1.21-5.25,1.83C-1.72,32.63-.77,36.78,1.69,39.55c1.64,1.85,1.72,2.23,1.69,3.71-.02.78-.22,1.73-.69,3.22-.5,1.57-2.67,4.56-2.54,4.5.69-.35,1.23-.67,1.7-1,.68-.82,1.23-1.66,1.86-2.77.89-1.59,1.04-2.41,1.05-2.85.03-.87.58-.56.58-.08,0,1.19-.98,2.58-2.05,4.15-.25.36-.47.68-.67.97,0,0,0,0,.01,0-.02.02-.03.04-.05.06-.3.43-.55.76-.76.99-.9,1.17-1.51,1.98-1.43,1.95.68-.21,1.5-.6,2.35-1.12,1.21-1.01,2.34-2.29,3.86-4.67,1.31-2.06.72-2.45.86-3.01.11-.43.81-.33.81.36,0,1.41-1.28,3.34-3.19,5.4-.73.78-1.27,1.39-1.69,1.74-1.4,1.36-2.67,2.39-2.63,2.39,1.13-.13,2.78-.54,4.42-1.23,1.82-1.17,4.05-3.08,5.75-5.75,1.13-1.78.96-2.25,1.21-2.76.19-.4.94-.1.81.59-.44,2.46-3.66,5.34-5.94,7-.15.11-.28.21-.41.3-2.53,2-5.19,3.4-5,3.44,3.67.79,7.32.16,10.81-1.16-.01,0-.02,0-.03.01.66-.25,1.32-.53,1.97-.82.02,0,.03-.02.05-.02.31-.14.61-.29.92-.44.03-.02.07-.03.11-.05.29-.14.59-.29.88-.44.04-.02.08-.04.12-.06.23-.12.46-.25.7-.38.09-.05.17-.1.26-.14.22-.12.43-.25.65-.37.13-.08.26-.15.4-.23.1-.06.21-.12.31-.18.26-.16.52-.31.77-.47,0,0,.02-.01.03-.02.17-.1.33-.21.5-.31.36-.23.7-.45,1.02-.68,0,0,0,0,0,0,5.7-4.03,5.54-8.32,2.43-11.38Z" />
		</g>
	</g>
</svg>
