<?xml version="1.0" encoding="UTF-8"?>
<svg width="512pt" height="512pt" version="1.1" viewBox="0 0 512 512" xmlns="http://www.w3.org/2000/svg">
	<g fill="currentColor">
		<path d="m256.41 191.52c-3.6523 0-7.2148-0.72656-10.594-2.1523-6.6953-2.832-11.895-8.1016-14.629-14.836-2.7344-6.7383-2.6836-14.141 0.14844-20.84 4.2695-10.105 14.121-16.637 25.09-16.637 3.6523 0 7.207 0.72266 10.59 2.1523 13.828 5.8477 20.328 21.852 14.484 35.68-4.2695 10.105-14.113 16.633-25.09 16.633zm0.011719-39.102c-4.7891 0-9.0781 2.8477-10.941 7.2539-1.2344 2.918-1.2578 6.1445-0.066406 9.082s3.457 5.2344 6.375 6.4648c5.9531 2.5156 13.082-0.44141 15.555-6.3086 2.543-6.0312-0.28516-13.012-6.3086-15.555-1.4727-0.625-3.0234-0.9375-4.6133-0.9375z" />
		<path d="m361.36 366.2-12.789 2.6406s15.172 31.309 14.66 29.559z" />
		<path d="m376.68 355.48-10.312 7.9922s27.484 21.41 26.262 20.059z" />
		<path d="m391.25 348.5-10.254 8.0898s27.582 21.211 26.336 19.859z" />
		<path d="m308.64 149.84c0.13672 5.1914-4.1367 9.4961-9.5625 9.6367-5.4258 0.13672-9.9219-3.9531-10.066-9.1445-0.13672-5.1797 4.1328-9.4922 9.5547-9.625 5.4336-0.13672 9.9297 3.9453 10.074 9.1328z" />
		<path d="m385.07 306.15c-8.2695-9.3555-71.184-81.324-72.613-91.828-2.5391-18.734-5.0781-37.465-7.6172-56.195-2.1406-15.805-25.57-3.0703-34.426 0.17578-12.496 4.5859-26.07 6.6602-39.312 9.2969-2.9648-3.3633-6.6797-6.1484-11.078-8.0078-3.8398-1.6172-7.8867-2.4414-12.023-2.4414-12.453 0-23.633 7.4102-28.484 18.883-2.3047 5.457-2.8828 11.207-2.043 16.676-13.73 13.133-22.918 30.602-22.398 50.207-0.42578 11.531 5.8164 28.965-3.4766 36.977-30.324 26.148-87.047 63.918-47.973 108.94 39.359 45.359 85.504-6.1172 116.09-32.5 16.773-14.469 70.098-35.219 84.469-18.969 14.926 16.871 29.402 38.391 54.234 39.52 39.293 1.7656 49.34-45.07 26.652-70.73zm-162.14-111.78c-3.4883 8.25-12.996 12.105-21.242 8.6211-8.2422-3.4883-12.105-12.996-8.6211-21.242 3.4805-8.25 12.996-12.105 21.238-8.6211 8.2461 3.4883 12.105 12.996 8.625 21.242z" />
		<path d="m91.547 361.93-14.07 30.406 20.941-23.461z" />
		<path d="m101.12 374.32s-17.117 30.301-15.969 28.883c1.1562-1.4297 25.438-19.922 25.438-19.922z" />
		<path d="m117.57 386.62-14.066 30.387 20.938-23.469z" />
	</g>
</svg>
