<?xml version="1.0" encoding="UTF-8"?>
<svg id="anima_empty" data-name="anima_empty" xmlns="http://www.w3.org/2000/svg" viewBox="0 0 25.16 36.99">
	<g>
		<path fill="#f59c27" d="m12.63,36.99c5.04.01,13.01-4.37,12.51-13.6-.44-8.04-5.65-14.41-8.01-16.15-.62-.45.82,2.46.01,6.35-.06.27-1.02-8.98-8.3-13.58-.28-.18,1.39,2.56.22,7.31-1.4,5.65-2.85,7.79-2.89,7.64-.65-2.1,1.12-5.82.79-5.55-.57.47-6.07,5.43-6.86,12.25-.78,6.82,2.45,15.31,12.52,15.34Z" />
		<path fill="#f4bb3a" d="m12.62,36.07c4.79.02,12.36-4.15,11.89-12.92-.42-7.63-5.26-13.82-7.24-15.64-.54-.49,1.26,3.32-.3,6.98-.11.24-.9-9.68-7.96-14.22-.27-.17,1.33,3.09.22,7.6-1.33,5.36-2.95,7.4-3.04,7.3-1.11-1.17.75-5.49.43-5.23-.55.45-5.15,5.08-5.89,11.56C0,27.98,3.06,36.04,12.62,36.07Z" />
		<path fill="#f7dc85" d="m12.62,35.19c4.55.01,11.75-3.94,11.3-12.27-.4-7.26-4.48-13.09-6.36-14.82-.51-.47,1.42,3.43-.66,6.84-.13.21-1.14-10.18-7.71-14.34-.25-.16,1.5,3.05.17,7.76-1.28,4.53-2.86,7.25-3.15,7.04-1.37-1.02.58-5.44.28-5.19-.52.43-4.46,4.99-5.17,11.15-.71,6.15,2.21,13.81,11.29,13.84Z" />
		<path fill="#fffefb" d="m12.62,34.35c4.33.01,11.16-3.74,10.73-11.66-.37-6.89-3.79-12.52-5.57-14.17-.48-.45,1.52,2.89-.96,7.16-.25.43-.97-10.31-7.36-14.72-.23-.16,1.44,2.54,0,7.97-1.27,4.82-2.97,6.76-3.24,6.6-1.64-.98.39-5.25.11-5.02-.49.4-3.87,4.89-4.67,10.75-.8,5.83,2.34,13.05,10.96,13.07Z" />
	</g>
</svg>
