<svg width="32" height="47" viewBox="0 0 32 47" fill="none" xmlns="http://www.w3.org/2000/svg">
	<path d="M16.0213 46.9307C22.4113 46.9507 32.5313 41.3907 31.8913 29.6807C31.3413 19.4807 24.7313 11.4007 21.7313 9.19073C20.9413 8.61073 22.7713 12.3107 21.7513 17.2407C21.6813 17.5907 20.4513 5.85073 11.2213 0.0107292C10.8613 -0.219271 12.9813 3.26073 11.5013 9.28073C9.73129 16.4407 7.89129 19.1607 7.83129 18.9707C7.00129 16.3007 9.26129 11.5807 8.84129 11.9307C8.11129 12.5307 1.13129 18.8207 0.141289 27.4707C-0.848711 36.1207 3.25129 46.8907 16.0113 46.9307H16.0213Z" fill="#F7DC85" />
	<path d="M16.0111 45.7607C22.0911 45.7807 31.6911 40.5007 31.0911 29.3707C30.5711 19.6807 24.4211 11.8407 21.9111 9.53067C21.2311 8.90067 23.5111 13.7507 21.5311 18.3907C21.3911 18.7007 20.3911 6.11067 11.4311 0.360666C11.0911 0.140666 13.1211 4.28067 11.7111 10.0007C10.0311 16.8107 7.97109 19.3907 7.85109 19.2607C6.44109 17.7707 8.80109 12.2907 8.40109 12.6207C7.70109 13.1907 1.87109 19.0607 0.93109 27.2807C-0.00891039 35.5007 3.88109 45.7207 16.0111 45.7607Z" fill="#FDCB51" />
	<path d="M16.0111 44.6507C21.7811 44.6707 30.9111 39.6507 30.3311 29.0807C29.8311 19.8807 24.6511 12.4707 22.2711 10.2807C21.6211 9.69069 24.0711 14.6307 21.4311 18.9607C21.2711 19.2307 19.9811 6.04068 11.6511 0.770685C11.3311 0.560685 13.5611 4.64069 11.8711 10.6107C10.2411 16.3607 8.24106 19.8107 7.87106 19.5407C6.13106 18.2407 8.61106 12.6407 8.23106 12.9507C7.57106 13.4907 2.56106 19.2807 1.67106 27.0907C0.781059 34.9007 4.48106 44.6107 16.0011 44.6507H16.0111Z" fill="#F4BB3A" />
	<path d="M16.0115 43.5907C21.4915 43.6107 30.1615 38.8407 29.6215 28.8007C29.1515 20.0607 24.8115 12.9107 22.5515 10.8307C21.9415 10.2607 24.4815 14.4907 21.3315 19.9107C21.0115 20.4607 20.1015 6.83071 12.0015 1.24071C11.7115 1.04071 13.8215 4.46071 12.0015 11.3507C10.3815 17.4707 8.23153 19.9307 7.89153 19.7307C5.81153 18.4807 8.39153 13.0707 8.03153 13.3607C7.41153 13.8707 3.12153 19.5607 2.10153 27.0007C1.09153 34.4007 5.07153 43.5507 16.0115 43.5907Z" fill="#F4B026" />
</svg>
