<?xml version="1.0" encoding="UTF-8"?>
<svg id="baby" data-name="baby" xmlns="http://www.w3.org/2000/svg" viewBox="0 0 31.95 31.95">
	<g>
		<g>
			<g>
				<path fill="#fff" d="m20.1.55c8.52,2.28,13.58,11.04,11.29,19.56-2.28,8.52-11.04,13.58-19.55,11.3C3.32,29.12-1.73,20.36.55,11.84,2.83,3.32,11.59-1.73,20.1.55Z" />
				<path fill="#2984a0" d="m19.51,2.77c7.3,1.95,11.62,9.45,9.67,16.74-1.95,7.29-9.45,11.62-16.74,9.67C5.14,27.23.81,19.73,2.77,12.44,4.72,5.14,12.22.81,19.51,2.77Z" />
			</g>
			<path fill="#3ca4b5" d="m27.79,9.09C23.99,2.57,15.62.36,9.09,4.16,2.57,7.96.36,16.33,4.16,22.86h0l23.63-13.76h0Z" />
		</g>
		<path fill="#fff" d="m19.74,15.9c-.83-.04-2.11.42-2.09,1.68.02,1.21,1.77,1.17,1.16.87-1.17-.58-.12-1.93.72-1.75,1.64.35,1.49,3.88-.21,5.72-2.18,2.36-3.54,1.32-4,.48-.21-.38-.3-.75-.32-1.1-.02-.33.02-.63.08-.88.11-.41.25-.73.28-.67.08.13.15.24.2.54.13.82.46,1,.73.97.27-.03.37-.3.66-.68.09-.13.38-.33.69-.39.28-.05.52-.56.09-.81-.62-.35-1.06.19-1.02.07.04-.13.11-.36.08-.95-.05-.77-.52-.83-.85-.71-.13.05-.32.32-.29.26.08-.21.31-2.85-.08-3.75-.04-.1.74.44.81.77.05.25-.18.62.02.78.09.08.6-.08.88-.63.76-1.49-.69-2.24-1.31-2.66-.05-.03-.39-.19-.47-.71-.29-1.87.78-.29,1.51.57.83.98,2.05.93,2.5.65.64-.4,2.3-3.28.43-5.76-1.68-2.23-5.12-2.98-8.44,1.05-2.84,3.45-1.55,10.54-.84,12.23,2.68,6.39,7.72,5.65,9.81,2.52,2.66-3.98.98-7.63-.73-7.71Zm-2.22-5.59c.36,0,.65.29.65.65s-.29.65-.65.65-.65-.29-.65-.65.29-.65.65-.65Zm-3.96,3.44c.58,0,1.15.06,1.51.92.39.92-.13,2.5-.4,2.5s-.81-1.14-.83-1.2c-.16-.43-.06-.31.09-.03.16.28.47.73.63.74.16,0,.31-.86.17-1.54-.15-.71-.72-1.08-1.13-1.19-.52-.15-.59-.21-.05-.21Zm.31,8.33c-.61.05-1.25-.54-.91-1.52.1-.28.23-.46.15-.17-.17.59.04,1.27.61,1.31.58.04,1-.65,1.07-1.31.08-.73-.62-.5-.61-.53.02-.07.38-.73.22-1.27-.27-.91-1.12-.28-1.2-.23-.08.05-.26.13-.05-.05.76-.63,1.32-.44,1.53.09.18.45-.03.93-.18,1.23-.01.02.12-.05.27.03.32.16.36.56.31.83-.12.74-.68,1.54-1.21,1.58Z" />
	</g>
</svg>
