<?xml version="1.0" encoding="utf-8"?>
<!-- Generator: Adobe Illustrator 16.0.0, SVG Export Plug-In . SVG Version: 6.00 Build 0)  -->
<!DOCTYPE svg PUBLIC "-//W3C//DTD SVG 1.1//EN" "http://www.w3.org/Graphics/SVG/1.1/DTD/svg11.dtd">
<svg version="1.1" xmlns="http://www.w3.org/2000/svg" xmlns:xlink="http://www.w3.org/1999/xlink" x="0px" y="0px" width="128px"
	 height="128px" viewBox="0 0 128 128" enable-background="new 0 0 128 128" xml:space="preserve">
<g id="Calque_1">
	<g>
		<path fill="#D87220" d="M64.089,94.598c9.956,0.028,25.698-8.621,24.709-26.857c-0.856-15.872-11.151-28.453-15.814-31.893
			c-1.225-0.898,1.614,4.864,0.027,12.536c-0.109,0.538-2.018-17.73-16.388-26.824c-0.556-0.352,2.745,5.062,0.431,14.436
			c-2.757,11.15-5.615,15.377-5.708,15.079c-1.289-4.15,2.231-11.496,1.573-10.961c-1.136,0.934-11.996,10.726-13.542,24.197
			C37.834,77.78,44.22,94.538,64.089,94.598z"/>
		<path fill="#E27D22" d="M64.083,92.771c9.46,0.03,24.416-8.19,23.478-25.512C86.745,52.18,77.169,39.97,73.271,36.37
			c-1.061-0.975,2.486,6.563-0.587,13.792c-0.21,0.484-1.772-19.113-15.719-28.078c-0.528-0.338,2.636,6.107,0.435,15.015
			c-2.616,10.595-5.822,14.613-6.01,14.415c-2.188-2.315,1.482-10.847,0.858-10.339c-1.083,0.883-10.172,10.026-11.638,22.824
			C39.141,76.793,45.208,92.713,64.083,92.771z"/>
		<path fill="#EA8B24" d="M64.08,91.038c8.986,0.025,23.193-7.783,22.3-24.237c-0.774-14.329-8.838-25.854-12.542-29.274
			c-1.006-0.927,2.805,6.775-1.3,13.515c-0.255,0.423-2.254-20.105-15.227-28.312c-0.496-0.323,2.974,6.032,0.344,15.313
			c-2.534,8.945-5.653,14.328-6.222,13.902c-2.703-2.016,1.147-10.74,0.558-10.254c-1.031,0.839-8.817,9.853-10.213,22.013
			C40.386,75.859,46.153,90.983,64.08,91.038z"/>
		<path fill="#F59C27" d="M64.073,89.391c8.54,0.023,22.034-7.396,21.187-23.029c-0.73-13.609-7.486-24.731-11.003-27.977
			c-0.954-0.883,3.003,5.706-1.896,14.14c-0.496,0.851-1.924-20.358-14.537-29.068c-0.456-0.317,2.834,5.018,0,15.744
			c-2.516,9.524-5.862,13.358-6.391,13.042c-3.238-1.939,0.779-10.37,0.214-9.911c-0.975,0.793-7.636,9.656-9.223,21.236
			C40.846,75.085,47.044,89.336,64.073,89.391z"/>
		<path fill="#F5A63B" d="M61.259,31.308c-1.552-3.623,0.451,12.22-8.039,24.29c-5.067,7.204,3.518,13.273,8.763,7.796
			c2.687-2.803,4.677-8.727,4.089-15.51C65.653,43.02,62.6,34.44,61.259,31.308z"/>
		<path fill="#F4B056" d="M61.591,33.523c-1.261-2.937,0.533,11.133-6.493,21.296c-4.863,7.041,3.487,10.312,7.495,5.65
			c2.045-2.383,3.228-7.805,2.751-13.304C65.007,43.223,62.68,36.062,61.591,33.523z"/>
		<path fill="#F7BC6D" d="M61.796,35.26c-1.034-2.673,0.601,9.726-5.248,18.888c-4.171,6.532,1.186,9.012,5.166,5.074
			c2.033-2.014,3.142-6.423,2.96-11.335C64.551,44.364,62.689,37.574,61.796,35.26z"/>
	</g>
</g>
<g id="Calque_2">
</g>
</svg>
