<?xml version="1.0" encoding="utf-8"?>
<!-- Generator: Adobe Illustrator 16.0.0, SVG Export Plug-In . SVG Version: 6.00 Build 0)  -->
<!DOCTYPE svg PUBLIC "-//W3C//DTD SVG 1.1//EN" "http://www.w3.org/Graphics/SVG/1.1/DTD/svg11.dtd">
<svg version="1.1" xmlns="http://www.w3.org/2000/svg" xmlns:xlink="http://www.w3.org/1999/xlink" x="0px" y="0px" width="128px"
	 height="128px" viewBox="0 0 128 128" enable-background="new 0 0 128 128" xml:space="preserve">
<g id="Calque_1">
	<g>
		<path fill="#F59C27" d="M64.09,94.6c9.956,0.029,25.698-8.621,24.709-26.856C87.943,51.871,77.647,39.291,72.985,35.85
			c-1.225-0.898,1.614,4.865,0.027,12.536c-0.109,0.537-2.018-17.73-16.388-26.825c-0.556-0.352,2.745,5.063,0.431,14.436
			c-2.757,11.15-5.615,15.378-5.708,15.078c-1.289-4.15,2.231-11.496,1.573-10.961c-1.136,0.933-11.996,10.726-13.542,24.197
			C37.834,77.783,44.221,94.54,64.09,94.6z"/>
		<path fill="#F4BB3A" d="M64.083,92.772c9.46,0.031,24.416-8.19,23.478-25.512c-0.815-15.078-10.391-27.287-14.289-30.888
			c-1.061-0.976,2.486,6.563-0.587,13.792c-0.21,0.484-1.772-19.113-15.719-28.078c-0.528-0.339,2.636,6.105,0.435,15.015
			c-2.616,10.594-5.822,14.613-6.01,14.415c-2.188-2.315,1.482-10.847,0.858-10.338c-1.083,0.881-10.172,10.025-11.638,22.824
			C39.142,76.795,45.209,92.716,64.083,92.772z"/>
		<path fill="#F7DC85" d="M64.081,91.04c8.986,0.025,23.193-7.783,22.3-24.237c-0.774-14.328-8.838-25.854-12.542-29.274
			c-1.006-0.926,2.805,6.776-1.3,13.515c-0.255,0.423-2.254-20.105-15.227-28.312c-0.496-0.323,2.974,6.031,0.344,15.313
			c-2.534,8.946-5.653,14.328-6.222,13.901c-2.703-2.016,1.147-10.738,0.558-10.254c-1.031,0.84-8.817,9.854-10.213,22.014
			C40.387,75.861,46.154,90.985,64.081,91.04z"/>
		<path fill="#FFFFFF" d="M64.074,89.394c8.54,0.022,22.034-7.396,21.187-23.029c-0.73-13.609-7.486-24.73-11.003-27.977
			c-0.954-0.882,3.003,5.707-1.896,14.14c-0.496,0.851-1.924-20.358-14.537-29.068c-0.456-0.317,2.834,5.018,0,15.744
			c-2.516,9.525-5.862,13.359-6.391,13.042c-3.238-1.939,0.779-10.371,0.214-9.91c-0.975,0.793-7.636,9.655-9.223,21.235
			C40.846,75.088,47.044,89.338,64.074,89.394z"/>
	</g>
</g>
<g id="Calque_2">
</g>
</svg>
