<?xml version="1.0" encoding="utf-8"?>
<!-- Generator: Adobe Illustrator 16.0.0, SVG Export Plug-In . SVG Version: 6.00 Build 0)  -->
<!DOCTYPE svg PUBLIC "-//W3C//DTD SVG 1.1//EN" "http://www.w3.org/Graphics/SVG/1.1/DTD/svg11.dtd">
<svg version="1.1" xmlns="http://www.w3.org/2000/svg" xmlns:xlink="http://www.w3.org/1999/xlink" x="0px" y="0px" width="128px"
	 height="128px" viewBox="0 0 128 128" enable-background="new 0 0 128 128" xml:space="preserve">
<g id="Calque_1">
	<g>
		<path fill="#D87220" d="M36.106,75.321c0.682,16.076,22.549,23.725,40.909,16.607c8.567-3.325,15.405-13.965,14.899-27.074
			c-4.793-0.15-6.835-3.781-6.967-7.802c-7.202-0.441-8.25-6.86-5.487-11.229c-2.99-1.274-4.478-4.222-3.789-7.412
			C51.468,21.572,35.051,50.561,36.106,75.321z"/>
		<path fill="#E27D22" d="M38.23,72.987c0.633,14.886,20.882,21.968,37.879,15.377c7.93-3.079,13.894-11.14,14.737-22.558
			c-4.353-0.741-6.756-4.021-6.879-7.748c-4.077-0.489-8.344-2.909-7.233-8.76c0.25-1.307,1.011-2.41,1.81-3.38
			c-2.765-1.179-4.316-4.154-3.677-7.106C52.453,23.219,37.252,50.06,38.23,72.987z"/>
		<path fill="#EA8B24" d="M40.054,70.959c0.584,13.785,19.333,20.344,35.075,14.239c7.347-2.852,12.331-9.308,14.06-18.604
			c-3.997-1.332-5.787-4.164-5.9-7.611c-0.718-0.037-1.454-0.24-2.176-0.463c-4.072-1.254-6.84-4.711-5.404-9.495
			c0.357-1.181,0.935-2.232,1.678-3.129c-2.568-1.092-4-3.847-3.412-6.581C53.226,24.878,39.15,49.732,40.054,70.959z"/>
		<path fill="#F59C27" d="M41.877,69.181c0.541,12.764,17.9,18.835,32.475,13.182c6.801-2.638,11.778-8.314,13.108-15.241
			c-2.976-1.364-4.858-4.299-4.962-7.492c-0.663-0.034-1.334-0.119-2.003-0.319c-4.429-1.334-6.938-6.01-5.605-10.438
			c0.332-1.093,0.869-2.067,1.551-2.897c-2.375-1.012-3.705-3.56-3.154-6.094C54.071,26.513,41.041,49.526,41.877,69.181z"/>
		<path fill="#F5A63B" d="M46.215,57.279c1.344-11.767,11.23-26.107,21.407-15.038c10.176,11.063,5.266,19.413-3.657,21.354
			C55.033,65.529,45.368,64.697,46.215,57.279z"/>
		<path fill="#F4B056" d="M47.931,55.549c1.158-10.15,9.695-22.526,18.474-12.974c8.782,9.547,4.545,16.745-3.159,18.424
			C55.547,62.672,47.204,61.952,47.931,55.549z"/>
		<path fill="#F7BC6D" d="M51.592,51.521c0.783-6.899,6.584-15.308,12.553-8.816c5.965,6.493,3.086,11.38-2.147,12.519
			C56.766,56.365,51.096,55.875,51.592,51.521z"/>
	</g>
</g>
<g id="Calque_2">
</g>
</svg>
