<svg width="397" height="506" viewBox="0 0 397 506" fill="none" xmlns="http://www.w3.org/2000/svg">
<path d="M59.1927 256.91C77.6311 263.847 90.3007 288.306 103.713 299.18C117.904 310.725 140.323 328.608 142.832 345.633C146.077 367.316 138.246 415.118 81.7702 416.271C31.4739 417.303 4.83669 343.874 0.94999 322.883C-4.25631 294.868 13.7278 239.755 59.1927 256.91Z" fill="#F59C27"/>
<path d="M145.76 62.2361C187.151 54.5204 188.492 89.3204 189.956 174.777C191.513 264.964 176.039 286.518 139.566 285.638C81.7918 284.268 56.842 231.109 70.5644 173.263C86.7962 104.831 104.708 69.8725 145.76 62.2361Z" fill="#F59C27"/>
<path d="M145.515 67.745C183.841 60.5918 185.088 92.8102 186.466 171.957C187.901 255.438 173.58 275.42 139.796 274.591C86.3345 273.329 63.209 224.121 75.9363 170.53C90.9566 107.167 107.52 74.8189 145.515 67.745Z" fill="#F4BB3A"/>
<path d="M144.875 73.0384C180.36 66.4259 181.535 96.2504 182.79 169.535C184.131 246.822 170.856 265.318 139.582 264.575C90.0642 263.4 68.6694 217.841 80.4304 168.23C94.3619 109.562 109.707 79.5859 144.875 73.0384Z" fill="#F7DC85"/>
<path d="M143.797 78.6486C176.441 72.5698 177.523 100.015 178.67 167.437C179.888 238.53 167.694 255.547 138.901 254.862C93.3713 253.781 73.6711 211.856 84.5019 166.233C97.3229 112.244 111.435 84.677 143.797 78.6486Z" fill="white"/>
<path d="M121.287 492.405C96.7911 474.68 100.988 436.909 129.781 412.89C165.346 383.246 160.507 348.77 170.061 338.365C180.957 326.51 210.335 325.198 222.204 338.379C234.102 351.575 241.313 385.229 254.624 403.011C268.145 421.038 299.851 438.301 292.907 467.318C286.223 495.332 264.51 502.976 246.058 504.937C227.547 506.928 214.661 494.337 198.285 493.732C180.705 493.061 152.315 514.838 121.287 492.405Z" fill="#F59C27"/>
<path d="M127.544 484.047C105.01 467.721 108.883 432.979 135.376 410.885C168.099 383.613 163.635 351.885 172.425 342.323C182.456 331.406 209.461 330.202 220.407 342.323C231.353 354.488 237.987 385.459 250.21 401.785C262.67 418.377 291.817 434.256 285.442 460.95C279.284 486.751 259.31 493.746 242.314 495.577C225.325 497.387 213.463 485.799 198.399 485.244C182.196 484.653 156.093 504.67 127.544 484.047Z" fill="#F4BB3A"/>
<path d="M133.3 476.526C112.583 461.52 116.138 429.539 140.511 409.241C170.624 384.118 166.528 354.957 174.605 346.152C183.827 336.086 208.698 334.99 218.743 346.167C228.802 357.322 234.917 385.805 246.159 400.84C257.603 416.12 284.449 430.736 278.572 455.297C272.904 479.021 254.545 485.46 238.912 487.126C223.25 488.806 212.361 478.163 198.502 477.629C183.589 477.096 159.577 495.534 133.3 476.526Z" fill="#F7DC85"/>
<path d="M138.593 470.577C119.52 456.797 122.794 427.37 145.212 408.672C172.902 385.589 169.131 358.75 176.58 350.638C185.06 341.422 207.94 340.37 217.185 350.667C226.422 360.914 232.068 387.147 242.416 400.963C252.944 415.032 277.627 428.473 272.219 451.079C267.005 472.885 250.103 478.812 235.724 480.348C221.331 481.92 211.315 472.099 198.566 471.638C184.858 471.111 162.75 488.057 138.593 470.577Z" fill="white"/>
<path d="M58.7175 259.96C75.8002 266.399 87.518 289.035 99.9352 299.108C113.081 309.795 133.841 326.351 136.17 342.136C139.17 362.233 131.923 406.472 79.6292 407.525C33.0682 408.484 8.41396 340.506 4.77965 321.08C-0.0300455 295.121 16.6272 244.103 58.7175 259.96Z" fill="#F4BB3A"/>
<path d="M58.1967 263.228C73.8877 269.141 84.6824 289.959 96.0901 299.254C108.197 309.053 127.306 324.275 129.448 338.791C132.181 357.28 125.525 398 77.4354 398.988C34.5881 399.861 11.8736 337.313 8.54937 319.444C4.1507 295.554 19.4739 248.611 58.1967 263.228Z" fill="#F7DC85"/>
<path d="M58.1328 266.4C72.5835 271.837 82.5058 291.011 92.9977 299.527C104.139 308.591 121.697 322.573 123.695 335.935C126.218 352.931 120.082 390.399 75.8284 391.308C36.4207 392.115 15.545 334.558 12.4804 318.124C8.42061 296.159 22.518 252.959 58.1328 266.4Z" fill="white"/>
<path d="M22.337 239.453C19.8853 231.578 27.2909 193.793 33.8529 193.872C40.797 193.944 42.6791 210.825 44.1645 219.197C45.7654 228.175 47.0633 236.647 43.5804 241.731C38.6698 248.913 24.7455 247.255 22.337 239.453Z" fill="#F59C27"/>
<path d="M23.8432 236.453C21.7088 229.639 28.1265 196.793 33.852 196.844C39.8803 196.887 41.5244 211.569 42.808 218.844C44.1925 226.661 45.3462 234.031 42.3176 238.429C38.0199 244.688 25.9416 243.246 23.8432 236.453Z" fill="#F4BB3A"/>
<path d="M25.4822 232.464C23.6794 226.717 29.0948 199.035 33.8973 199.085C39.0027 199.121 40.3727 211.488 41.4688 217.624C42.6442 224.201 43.5816 230.431 41.0434 234.13C37.4451 239.401 27.2488 238.19 25.4822 232.464Z" fill="#F7DC85"/>
<path d="M374 239.453C376.444 231.578 369.046 193.793 362.498 193.872C355.532 193.944 353.665 210.825 352.186 219.197C350.6 228.175 349.273 236.647 352.756 241.731C357.674 248.913 371.584 247.255 374 239.453Z" fill="#F59C27"/>
<path d="M372.515 236.453C374.621 229.639 368.203 196.793 362.499 196.844C356.442 196.887 354.812 211.569 353.521 218.844C352.137 226.661 350.997 234.031 354.04 238.429C358.324 244.688 370.395 243.246 372.515 236.453Z" fill="#F4BB3A"/>
<path d="M370.864 232.464C372.666 226.717 367.251 199.035 362.441 199.085C357.336 199.121 355.966 211.488 354.87 217.624C353.709 224.201 352.764 230.431 355.31 234.13C358.901 239.401 369.09 238.19 370.864 232.464Z" fill="#F7DC85"/>
<path d="M140.764 44.3246C139.509 36.1834 152.438 -0.094795 158.906 0.958002C165.778 2.04685 165.122 19.0286 165.36 27.5447C165.634 36.6521 165.663 45.2187 161.445 49.7184C155.503 56.0856 142.011 52.4153 140.764 44.3246Z" fill="#F59C27"/>
<path d="M142.681 41.5986C141.599 34.5391 152.834 2.99843 158.466 3.8998C164.436 4.84443 163.874 19.598 164.076 26.9748C164.285 34.914 164.314 42.3629 160.665 46.2641C155.502 51.8309 143.748 48.6148 142.681 41.5986Z" fill="#F4BB3A"/>
<path d="M144.895 37.8773C143.979 31.9283 153.44 5.35596 158.192 6.1059C163.218 6.92073 162.764 19.3524 162.93 25.5971C163.096 32.26 163.124 38.5335 160.06 41.8433C155.69 46.5016 145.818 43.8119 144.895 37.8773Z" fill="#F7DC85"/>
<path d="M252.785 44.3246C254.018 36.1834 241.117 -0.094795 234.649 0.958002C227.77 2.04685 228.426 19.0286 228.195 27.5447C227.943 36.6521 227.893 45.2187 232.097 49.7184C238.053 56.0856 251.537 52.4153 252.785 44.3246Z" fill="#F59C27"/>
<path d="M250.875 41.5986C251.942 34.5391 240.714 2.99843 235.097 3.8998C229.119 4.84443 229.674 19.598 229.487 26.9748C229.278 34.914 229.242 42.3629 232.905 46.2641C238.054 51.8309 249.778 48.6148 250.875 41.5986Z" fill="#F4BB3A"/>
<path d="M248.659 37.8773C249.568 31.9283 240.092 5.35596 235.355 6.1059C230.314 6.92073 230.783 19.3524 230.639 25.5971C230.451 32.26 230.423 38.5335 233.509 41.8433C237.843 46.5016 247.729 43.8119 248.659 37.8773Z" fill="#F7DC85"/>
<path d="M251.833 62.1507C210.478 54.2259 208.942 89.0115 206.995 174.468C204.954 264.627 220.314 286.274 256.816 285.596C314.568 284.529 339.799 231.521 326.387 173.596C310.523 105.056 292.813 70.0035 251.833 62.1507Z" fill="#F59C27"/>
<path d="M252.021 67.6524C213.717 60.2973 212.31 92.5301 210.501 171.649C208.626 255.137 222.831 275.176 256.629 274.541C310.098 273.539 333.483 224.476 321.066 170.827C306.384 107.385 289.951 74.9211 252.021 67.6524Z" fill="#F4BB3A"/>
<path d="M252.646 72.9444C217.176 66.1589 215.849 95.9761 214.198 169.246C212.453 246.548 225.613 265.094 256.886 264.525C306.418 263.609 328.073 218.158 316.564 168.482C302.964 109.749 287.778 79.6866 252.646 72.9444Z" fill="#F7DC85"/>
<path d="M253.679 78.5474C221.064 72.3172 219.817 99.7476 218.331 167.17C216.716 238.248 228.816 255.338 257.602 254.819C303.161 253.975 323.099 212.166 312.492 166.463C299.981 112.424 286.006 84.7488 253.679 78.5474Z" fill="white"/>
<path d="M337.801 260.862C319.355 267.828 306.7 292.259 293.295 303.147C279.104 314.678 256.685 332.546 254.147 349.593C250.938 371.284 258.754 419.078 315.216 420.253C365.505 421.262 392.164 347.841 396.051 326.857C401.257 298.828 383.266 243.729 337.801 260.862Z" fill="#F59C27"/>
<path d="M338.269 263.934C321.208 270.359 309.469 293.008 297.073 303.082C283.935 313.754 263.146 330.296 260.817 346.095C257.831 366.178 265.071 410.438 317.357 411.491C363.933 412.443 388.609 344.473 392.2 325.039C397.017 299.073 380.367 248.048 338.269 263.934Z" fill="#F4BB3A"/>
<path d="M338.819 267.172C323.1 273.085 312.312 293.917 300.904 303.191C288.812 313.019 269.71 328.234 267.546 342.757C264.806 361.232 271.462 401.952 319.559 402.925C362.414 403.798 385.092 341.264 388.438 323.388C392.873 299.506 377.513 252.563 338.819 267.172Z" fill="#F7DC85"/>
<path d="M338.848 270.345C324.411 275.796 314.482 294.963 303.983 303.501C292.842 312.543 275.283 326.547 273.3 339.895C270.777 356.891 276.913 394.366 321.152 395.267C360.582 396.082 381.45 338.524 384.507 322.098C388.589 300.112 374.477 256.933 338.848 270.345Z" fill="white"/>
</svg>
