<?xml version="1.0" encoding="utf-8"?>
<!-- Generator: Adobe Illustrator 16.0.0, SVG Export Plug-In . SVG Version: 6.00 Build 0)  -->
<!DOCTYPE svg PUBLIC "-//W3C//DTD SVG 1.1//EN" "http://www.w3.org/Graphics/SVG/1.1/DTD/svg11.dtd">
<svg version="1.1" xmlns="http://www.w3.org/2000/svg" xmlns:xlink="http://www.w3.org/1999/xlink" x="0px" y="0px" width="128px"
	 height="128px" viewBox="0 0 128 128" enable-background="new 0 0 128 128" xml:space="preserve">
<g id="Calque_1">
	<g>
		<path fill="#D87220" d="M44.681,60.173c2.557,0.962,4.314,4.354,6.174,5.862c1.968,1.6,5.077,4.08,5.425,6.442
			c0.45,3.006-0.636,9.636-8.468,9.795c-6.975,0.144-10.669-10.039-11.208-12.952C35.882,65.436,38.376,57.794,44.681,60.173z"/>
		<path fill="#D87220" d="M56.686,33.175c5.74-1.07,5.926,3.756,6.129,15.607c0.216,12.508-1.93,15.496-6.988,15.374
			c-8.012-0.19-11.472-7.562-9.569-15.584C48.509,39.083,50.993,34.234,56.686,33.175z"/>
		<path fill="#E27D22" d="M56.652,33.939c5.315-0.991,5.488,3.476,5.679,14.452c0.199,11.578-1.787,14.348-6.472,14.233
			c-7.414-0.176-10.621-6.999-8.856-14.432C49.086,39.406,51.383,34.921,56.652,33.939z"/>
		<path fill="#EA8B24" d="M56.563,34.674c4.921-0.917,5.084,3.219,5.258,13.381c0.186,10.719-1.655,13.284-5.992,13.18
			c-6.867-0.163-9.834-6.48-8.203-13.361C49.558,39.738,51.686,35.581,56.563,34.674z"/>
		<path fill="#F59C27" d="M56.414,35.451c4.527-0.843,4.677,2.963,4.836,12.314c0.169,9.859-1.522,12.219-5.515,12.124
			c-6.314-0.151-9.046-5.964-7.544-12.292C49.969,40.11,51.926,36.287,56.414,35.451z"/>
		<path fill="#D87220" d="M53.292,92.83c-3.397-2.458-2.815-7.696,1.178-11.027c4.932-4.111,4.261-8.891,5.586-10.334
			c1.511-1.644,5.585-1.827,7.231,0.001c1.65,1.83,2.65,6.497,4.496,8.964c1.875,2.501,6.272,4.894,5.309,8.917
			c-0.927,3.886-3.938,4.946-6.497,5.217c-2.567,0.275-4.354-1.471-6.625-1.553C61.532,92.921,57.595,95.941,53.292,92.83z"/>
		<path fill="#E27D22" d="M54.16,91.671c-3.125-2.263-2.588-7.082,1.086-10.145c4.538-3.783,3.919-8.183,5.138-9.509
			c1.391-1.514,5.136-1.681,6.654,0c1.518,1.688,2.438,5.982,4.133,8.247c1.728,2.3,5.77,4.503,4.886,8.206
			c-0.854,3.576-3.624,4.548-5.981,4.801c-2.356,0.252-4.001-1.356-6.09-1.433C61.739,91.756,58.119,94.531,54.16,91.671z"/>
		<path fill="#EA8B24" d="M54.958,90.629c-2.873-2.082-2.38-6.517,1-9.332c4.176-3.485,3.608-7.528,4.728-8.748
			c1.279-1.396,4.728-1.55,6.121,0.002c1.395,1.546,2.243,5.496,3.802,7.582c1.587,2.12,5.31,4.146,4.495,7.551
			c-0.786,3.29-3.332,4.184-5.5,4.416c-2.172,0.233-3.682-1.244-5.604-1.317C61.932,90.709,58.602,93.264,54.958,90.629z"/>
		<path fill="#F59C27" d="M55.692,89.804c-2.645-1.912-2.191-5.993,0.918-8.586c3.84-3.201,3.317-6.924,4.35-8.048
			c1.176-1.279,4.349-1.424,5.631,0.003c1.281,1.422,2.064,5.059,3.499,6.975c1.46,1.951,4.883,3.816,4.133,6.949
			c-0.723,3.025-3.067,3.847-5.061,4.06c-1.996,0.217-3.385-1.145-5.153-1.208C62.108,89.878,59.042,92.228,55.692,89.804z"/>
		<path fill="#E27D22" d="M44.615,60.595c2.369,0.893,3.994,4.032,5.716,5.429c1.823,1.482,4.702,3.779,5.025,5.968
			c0.416,2.786-0.589,8.922-7.841,9.068c-6.457,0.133-9.876-9.295-10.38-11.989C36.468,65.473,38.778,58.396,44.615,60.595z"/>
		<path fill="#EA8B24" d="M44.543,61.049c2.176,0.819,3.673,3.706,5.255,4.995c1.679,1.359,4.329,3.471,4.626,5.483
			c0.379,2.565-0.544,8.211-7.213,8.348c-5.942,0.12-9.092-8.553-9.553-11.032C37.048,65.531,39.173,59.022,44.543,61.049z"/>
		<path fill="#F59C27" d="M44.534,61.488c2.004,0.755,3.38,3.415,4.835,4.595c1.545,1.257,3.98,3.195,4.257,5.049
			c0.35,2.357-0.501,7.553-6.638,7.678c-5.465,0.113-8.36-7.87-8.785-10.148C37.64,65.615,39.595,59.625,44.534,61.488z"/>
		<path fill="#F59C27" d="M53.796,61.53"/>
		<path fill="#D87220" d="M39.57,57.751c-0.34-1.091,0.687-6.331,1.597-6.321c0.963,0.01,1.224,2.351,1.43,3.511
			c0.222,1.246,0.402,2.42-0.081,3.125C41.835,59.063,39.904,58.834,39.57,57.751z"/>
		<path fill="#E27D22" d="M39.779,57.336c-0.296-0.945,0.594-5.501,1.388-5.493c0.836,0.006,1.064,2.042,1.242,3.051
			c0.192,1.083,0.352,2.106-0.068,2.716C41.745,58.478,40.07,58.277,39.779,57.336z"/>
		<path fill="#EA8B24" d="M40.006,56.782c-0.25-0.796,0.501-4.635,1.167-4.628c0.708,0.005,0.898,1.719,1.05,2.571
			c0.163,0.912,0.293,1.776-0.059,2.289C41.665,57.745,40.251,57.577,40.006,56.782z"/>
		<path fill="#D87220" d="M88.338,57.751c0.339-1.091-0.687-6.331-1.595-6.321c-0.966,0.01-1.225,2.351-1.43,3.511
			c-0.22,1.246-0.404,2.42,0.079,3.125C86.074,59.063,88.003,58.834,88.338,57.751z"/>
		<path fill="#E27D22" d="M88.132,57.336c0.292-0.945-0.598-5.501-1.389-5.493c-0.84,0.006-1.066,2.042-1.245,3.051
			c-0.192,1.083-0.35,2.106,0.072,2.716C86.164,58.478,87.838,58.277,88.132,57.336z"/>
		<path fill="#EA8B24" d="M87.903,56.782c0.25-0.796-0.501-4.635-1.168-4.628c-0.708,0.005-0.898,1.719-1.05,2.571
			c-0.161,0.912-0.292,1.776,0.061,2.289C86.244,57.745,87.657,57.577,87.903,56.782z"/>
		<path fill="#D87220" d="M55.993,30.692c-0.174-1.129,1.619-6.16,2.516-6.014c0.953,0.151,0.862,2.505,0.895,3.686
			c0.038,1.264,0.042,2.452-0.543,3.076C58.037,32.323,56.166,31.814,55.993,30.692z"/>
		<path fill="#E27D22" d="M56.259,30.313c-0.15-0.978,1.408-5.352,2.189-5.227c0.828,0.131,0.75,2.177,0.778,3.2
			c0.029,1.101,0.033,2.133-0.473,2.675C58.037,31.732,56.407,31.286,56.259,30.313z"/>
		<path fill="#EA8B24" d="M56.566,29.798c-0.127-0.825,1.185-4.51,1.844-4.405c0.697,0.112,0.634,1.837,0.657,2.703
			c0.023,0.923,0.027,1.793-0.398,2.252C58.063,30.993,56.694,30.62,56.566,29.798z"/>
		<path fill="#D87220" d="M71.528,30.692c0.171-1.129-1.618-6.16-2.515-6.014c-0.954,0.151-0.863,2.505-0.895,3.686
			c-0.035,1.264-0.042,2.452,0.541,3.076C69.485,32.323,71.355,31.814,71.528,30.692z"/>
		<path fill="#E27D22" d="M71.263,30.313c0.148-0.978-1.409-5.352-2.188-5.227c-0.829,0.131-0.752,2.177-0.778,3.2
			c-0.029,1.101-0.034,2.133,0.474,2.675C69.485,31.732,71.111,31.286,71.263,30.313z"/>
		<path fill="#EA8B24" d="M70.956,29.798c0.126-0.825-1.188-4.51-1.845-4.405c-0.699,0.112-0.634,1.837-0.654,2.703
			c-0.026,0.923-0.03,1.793,0.398,2.252C69.456,30.993,70.827,30.62,70.956,29.798z"/>
		<path fill="#F5A63B" d="M58.237,37.427c1.143,1.54,1.931,5.406,0.743,9.545c-1.152,4.005-7.633,5.213-8.975,2.905
			c-1.259-2.159,0.934-8.546,2.231-10.662C53.53,37.098,56.499,35.074,58.237,37.427z"/>
		<path fill="#F4B056" d="M57.786,37.877c0.967,1.304,1.634,4.581,0.626,8.083c-0.976,3.396-6.461,4.416-7.599,2.462
			c-1.068-1.83,0.792-7.237,1.888-9.028C53.799,37.601,56.315,35.885,57.786,37.877z"/>
		<path fill="#F7BC6D" d="M57.116,38.305c0.726,0.984,1.226,3.452,0.469,6.091c-0.732,2.559-4.868,3.33-5.727,1.856
			c-0.803-1.38,0.595-5.455,1.425-6.804C54.108,38.096,56.002,36.8,57.116,38.305z"/>
		<path fill="#D87220" d="M71.396,33.163c-5.735-1.1-5.948,3.725-6.218,15.577c-0.283,12.502,1.847,15.504,6.909,15.41
			c8.009-0.147,11.508-7.499,9.648-15.532C79.535,39.113,77.079,34.253,71.396,33.163z"/>
		<path fill="#E27D22" d="M71.422,33.927c-5.312-1.02-5.507,3.451-5.758,14.422c-0.26,11.579,1.71,14.357,6.397,14.27
			c7.415-0.139,10.658-6.945,8.936-14.385C78.961,39.437,76.682,34.935,71.422,33.927z"/>
		<path fill="#EA8B24" d="M71.509,34.66c-4.919-0.94-5.103,3.194-5.332,13.355c-0.242,10.72,1.583,13.292,5.92,13.214
			c6.869-0.128,9.872-6.432,8.276-13.319C78.487,39.765,76.381,35.596,71.509,34.66z"/>
		<path fill="#F59C27" d="M71.652,35.438c-4.523-0.865-4.696,2.94-4.902,12.29c-0.224,9.857,1.454,12.228,5.446,12.156
			c6.318-0.118,9.083-5.917,7.612-12.254C78.073,40.136,76.135,36.298,71.652,35.438z"/>
		<path fill="#F5A63B" d="M68.778,37.286c-1.038,1.614-1.566,5.522-0.106,9.572c1.414,3.924,7.96,4.699,9.148,2.307
			c1.113-2.239-1.5-8.465-2.933-10.491C73.453,36.646,70.358,34.822,68.778,37.286z"/>
		<path fill="#F4B056" d="M69.26,37.707c-0.879,1.368-1.325,4.678-0.088,8.107c1.198,3.322,6.741,3.978,7.746,1.954
			c0.942-1.896-1.27-7.171-2.485-8.884C73.22,37.167,70.598,35.622,69.26,37.707z"/>
		<path fill="#F7BC6D" d="M69.958,38.089c-0.659,1.032-1,3.526-0.069,6.108c0.907,2.504,5.083,3,5.84,1.475
			c0.709-1.431-0.956-5.403-1.873-6.696C72.942,37.683,70.968,36.517,69.958,38.089z"/>
		<path fill="#F5A63B" d="M39.709,64.955c-0.185,1.324,1.098,8.041,5.581,8.185c4.483,0.145,5.468-4.21,4.045-5.931
			c-1.944-2.349-3.812-5.476-6.042-5.451C40.983,61.783,39.878,63.72,39.709,64.955z"/>
		<path fill="#F4B056" d="M40.256,64.819c-0.158,1.127,0.937,6.859,4.765,6.982c3.828,0.124,4.671-3.591,3.453-5.061
			c-1.66-2.007-3.253-4.675-5.158-4.655C41.343,62.11,40.398,63.76,40.256,64.819z"/>
		<path fill="#F7BC6D" d="M41.225,64.39c-0.113,0.811,0.666,4.904,3.403,4.991c2.734,0.09,3.334-2.566,2.466-3.614
			c-1.184-1.435-2.324-3.341-3.685-3.327C42.001,62.455,41.324,63.641,41.225,64.39z"/>
		<path fill="#D87220" d="M83.318,60.72c-2.558,0.967-4.313,4.354-6.172,5.866c-1.968,1.598-5.077,4.076-5.429,6.44
			c-0.445,3.008,0.639,9.636,8.469,9.799c6.974,0.14,10.671-10.042,11.21-12.953C92.118,65.986,89.623,58.345,83.318,60.72z"/>
		<path fill="#E27D22" d="M83.383,61.146c-2.366,0.892-3.994,4.032-5.713,5.428c-1.822,1.482-4.705,3.774-5.028,5.965
			c-0.414,2.786,0.59,8.924,7.841,9.069c6.459,0.133,9.881-9.294,10.379-11.989C91.53,66.02,89.221,58.944,83.383,61.146z"/>
		<path fill="#EA8B24" d="M83.459,61.596c-2.18,0.82-3.676,3.709-5.258,4.996c-1.677,1.362-4.326,3.473-4.626,5.487
			c-0.38,2.561,0.543,8.208,7.213,8.344c5.943,0.12,9.088-8.552,9.552-11.031C90.955,66.079,88.825,59.569,83.459,61.596z"/>
		<path fill="#F59C27" d="M83.463,62.036c-2.002,0.755-3.379,3.414-4.835,4.598c-1.545,1.253-3.98,3.195-4.255,5.046
			c-0.35,2.358,0.501,7.554,6.636,7.68c5.468,0.112,8.362-7.87,8.786-10.147C90.361,66.163,88.404,60.176,83.463,62.036z"/>
		<path fill="#F5A63B" d="M88.292,65.505c0.184,1.324-1.098,8.038-5.583,8.184c-4.482,0.146-5.469-4.208-4.043-5.929
			c1.942-2.351,3.811-5.479,6.04-5.453C87.015,62.332,88.122,64.269,88.292,65.505z"/>
		<path fill="#F4B056" d="M87.744,65.367c0.158,1.127-0.938,6.86-4.764,6.984c-3.829,0.123-4.667-3.593-3.455-5.063
			c1.66-2.005,3.252-4.676,5.158-4.652C86.657,62.657,87.6,64.309,87.744,65.367z"/>
		<path fill="#F7BC6D" d="M86.777,64.943c0.111,0.806-0.667,4.899-3.405,4.989c-2.733,0.086-3.333-2.567-2.468-3.616
			c1.186-1.433,2.327-3.34,3.687-3.325C85.998,63.006,86.672,64.188,86.777,64.943z"/>
		<path fill="#F5A63B" d="M59.127,81.209c0.513-2.157,1.327-4.822,1.869-6.489c0.663-2.05,5.128-2.242,5.824,0.161
			c0.803,2.774,1.017,3.274,1.579,6.706C69.294,87.063,57.821,86.695,59.127,81.209z"/>
		<path fill="#F4B056" d="M59.868,80.511c0.437-1.84,1.131-4.117,1.595-5.545c0.57-1.749,4.382-1.917,4.979,0.139
			c0.683,2.368,0.865,2.794,1.347,5.729C68.556,85.512,58.751,85.197,59.868,80.511z"/>
		<path fill="#F7BC6D" d="M61.443,78.274c0.263-1.106,0.677-2.47,0.954-3.325c0.346-1.049,2.632-1.149,2.989,0.082
			c0.409,1.42,0.519,1.68,0.808,3.438C66.653,81.274,60.773,81.086,61.443,78.274z"/>
	</g>
</g>
<g id="Calque_2">
</g>
</svg>
