<?xml version="1.0" encoding="utf-8"?>
<!-- Generator: Adobe Illustrator 16.0.0, SVG Export Plug-In . SVG Version: 6.00 Build 0)  -->
<!DOCTYPE svg PUBLIC "-//W3C//DTD SVG 1.1//EN" "http://www.w3.org/Graphics/SVG/1.1/DTD/svg11.dtd">
<svg version="1.1" xmlns="http://www.w3.org/2000/svg" xmlns:xlink="http://www.w3.org/1999/xlink" x="0px" y="0px" width="128px"
	 height="128px" viewBox="0 0 128 128" enable-background="new 0 0 128 128" xml:space="preserve">
<g id="Calque_1">
	<g>
		<path fill="#F59C27" d="M44.681,60.174c2.557,0.962,4.314,4.354,6.174,5.862c1.968,1.601,5.077,4.081,5.425,6.442
			c0.45,3.007-0.636,9.636-8.468,9.796c-6.975,0.143-10.669-10.04-11.208-12.951C35.882,65.438,38.376,57.795,44.681,60.174z"/>
		<path fill="#F59C27" d="M56.686,33.177c5.74-1.07,5.926,3.756,6.129,15.607c0.216,12.507-1.93,15.496-6.988,15.374
			c-8.012-0.19-11.472-7.562-9.569-15.584C48.509,39.084,50.993,34.236,56.686,33.177z"/>
		<path fill="#F4BB3A" d="M56.652,33.941c5.315-0.992,5.488,3.476,5.679,14.452c0.199,11.577-1.787,14.348-6.472,14.233
			c-7.414-0.175-10.621-6.999-8.856-14.431C49.086,39.408,51.383,34.922,56.652,33.941z"/>
		<path fill="#F7DC85" d="M56.563,34.675c4.921-0.917,5.084,3.219,5.258,13.382c0.186,10.718-1.655,13.283-5.992,13.18
			c-6.867-0.163-9.834-6.481-8.203-13.361C49.558,39.74,51.686,35.583,56.563,34.675z"/>
		<path fill="#FFFFFF" d="M56.414,35.453c4.527-0.843,4.677,2.963,4.836,12.313c0.169,9.859-1.522,12.219-5.515,12.124
			c-6.314-0.15-9.046-5.964-7.544-12.291C49.969,40.112,51.926,36.289,56.414,35.453z"/>
		<path fill="#F59C27" d="M53.292,92.832c-3.397-2.458-2.815-7.696,1.178-11.027c4.932-4.111,4.261-8.892,5.586-10.335
			c1.511-1.644,5.585-1.826,7.231,0.002c1.65,1.83,2.65,6.497,4.496,8.963c1.875,2.5,6.272,4.894,5.309,8.918
			c-0.927,3.885-3.938,4.945-6.497,5.217c-2.567,0.276-4.354-1.47-6.625-1.554C61.532,92.923,57.595,95.943,53.292,92.832z"/>
		<path fill="#F4BB3A" d="M54.16,91.673c-3.125-2.264-2.588-7.082,1.086-10.146c4.538-3.782,3.919-8.182,5.138-9.508
			c1.391-1.514,5.136-1.681,6.654,0c1.518,1.687,2.438,5.982,4.133,8.246c1.728,2.301,5.77,4.503,4.886,8.205
			c-0.854,3.578-3.624,4.548-5.981,4.802c-2.356,0.251-4.001-1.356-6.09-1.433C61.739,91.757,58.119,94.533,54.16,91.673z"/>
		<path fill="#F7DC85" d="M54.958,90.63c-2.873-2.081-2.38-6.516,1-9.331c4.176-3.484,3.608-7.528,4.728-8.749
			c1.279-1.396,4.728-1.548,6.121,0.002c1.395,1.547,2.243,5.497,3.802,7.582c1.587,2.119,5.31,4.146,4.495,7.552
			c-0.786,3.29-3.332,4.183-5.5,4.414c-2.172,0.233-3.682-1.243-5.604-1.317C61.932,90.709,58.602,93.266,54.958,90.63z"/>
		<path fill="#FFFFFF" d="M55.692,89.805c-2.645-1.911-2.191-5.992,0.918-8.585c3.84-3.201,3.317-6.923,4.35-8.048
			c1.176-1.278,4.349-1.424,5.631,0.004c1.281,1.421,2.064,5.059,3.499,6.975c1.46,1.951,4.883,3.815,4.133,6.95
			c-0.723,3.024-3.067,3.846-5.061,4.059c-1.996,0.218-3.385-1.144-5.153-1.208C62.108,89.879,59.042,92.229,55.692,89.805z"/>
		<path fill="#F4BB3A" d="M44.615,60.597c2.369,0.893,3.994,4.032,5.716,5.429c1.823,1.482,4.702,3.778,5.025,5.967
			c0.416,2.787-0.589,8.922-7.841,9.068c-6.457,0.133-9.876-9.294-10.38-11.988C36.468,65.473,38.778,58.398,44.615,60.597z"/>
		<path fill="#F7DC85" d="M44.543,61.05c2.176,0.82,3.673,3.707,5.255,4.996c1.679,1.359,4.329,3.47,4.626,5.483
			c0.379,2.564-0.544,8.211-7.213,8.348c-5.942,0.121-9.092-8.553-9.553-11.031C37.048,65.533,39.173,59.023,44.543,61.05z"/>
		<path fill="#FFFFFF" d="M44.534,61.49c2.004,0.754,3.38,3.413,4.835,4.594c1.545,1.257,3.98,3.196,4.257,5.049
			c0.35,2.357-0.501,7.553-6.638,7.679c-5.465,0.112-8.36-7.87-8.785-10.149C37.64,65.617,39.595,59.626,44.534,61.49z"/>
		<path fill="#F59C27" d="M53.796,61.532"/>
		<path fill="#F59C27" d="M39.57,57.753c-0.34-1.092,0.687-6.332,1.597-6.321c0.963,0.01,1.224,2.351,1.43,3.512
			c0.222,1.245,0.402,2.42-0.081,3.125C41.835,59.065,39.904,58.835,39.57,57.753z"/>
		<path fill="#F4BB3A" d="M39.779,57.337c-0.296-0.945,0.594-5.5,1.388-5.493c0.836,0.006,1.064,2.042,1.242,3.051
			c0.192,1.084,0.352,2.106-0.068,2.716C41.745,58.479,40.07,58.279,39.779,57.337z"/>
		<path fill="#F7DC85" d="M40.006,56.784c-0.25-0.797,0.501-4.636,1.167-4.629c0.708,0.005,0.898,1.72,1.05,2.571
			c0.163,0.912,0.293,1.776-0.059,2.289C41.665,57.746,40.251,57.578,40.006,56.784z"/>
		<path fill="#F59C27" d="M88.338,57.753c0.339-1.092-0.687-6.332-1.595-6.321c-0.966,0.01-1.225,2.351-1.43,3.512
			c-0.22,1.245-0.404,2.42,0.079,3.125C86.074,59.065,88.003,58.835,88.338,57.753z"/>
		<path fill="#F4BB3A" d="M88.132,57.337c0.292-0.945-0.598-5.5-1.389-5.493c-0.84,0.006-1.066,2.042-1.245,3.051
			c-0.192,1.084-0.35,2.106,0.072,2.716C86.164,58.479,87.838,58.279,88.132,57.337z"/>
		<path fill="#F7DC85" d="M87.903,56.784c0.25-0.797-0.501-4.636-1.168-4.629c-0.708,0.005-0.898,1.72-1.05,2.571
			c-0.161,0.912-0.292,1.776,0.061,2.289C86.244,57.746,87.657,57.578,87.903,56.784z"/>
		<path fill="#F59C27" d="M55.993,30.693c-0.174-1.129,1.619-6.16,2.516-6.014c0.953,0.151,0.862,2.506,0.895,3.687
			c0.038,1.263,0.042,2.451-0.543,3.075C58.037,32.324,56.166,31.815,55.993,30.693z"/>
		<path fill="#F4BB3A" d="M56.259,30.315c-0.15-0.979,1.408-5.353,2.189-5.228c0.828,0.131,0.75,2.177,0.778,3.2
			c0.029,1.101,0.033,2.134-0.473,2.675C58.037,31.734,56.407,31.288,56.259,30.315z"/>
		<path fill="#F7DC85" d="M56.566,29.799c-0.127-0.825,1.185-4.51,1.844-4.406c0.697,0.113,0.634,1.837,0.657,2.703
			c0.023,0.924,0.027,1.794-0.398,2.253C58.063,30.995,56.694,30.622,56.566,29.799z"/>
		<path fill="#F59C27" d="M71.528,30.693c0.171-1.129-1.618-6.16-2.515-6.014c-0.954,0.151-0.863,2.506-0.895,3.687
			c-0.035,1.263-0.042,2.451,0.541,3.075C69.485,32.324,71.355,31.815,71.528,30.693z"/>
		<path fill="#F4BB3A" d="M71.263,30.315c0.148-0.979-1.409-5.353-2.188-5.228c-0.829,0.131-0.752,2.177-0.778,3.2
			c-0.029,1.101-0.034,2.134,0.474,2.675C69.485,31.734,71.111,31.288,71.263,30.315z"/>
		<path fill="#F7DC85" d="M70.956,29.799c0.126-0.825-1.188-4.51-1.845-4.406c-0.699,0.113-0.634,1.837-0.654,2.703
			c-0.026,0.924-0.03,1.794,0.398,2.253C69.456,30.995,70.827,30.622,70.956,29.799z"/>
		<path fill="#F59C27" d="M71.396,33.165c-5.735-1.099-5.948,3.725-6.218,15.576c-0.283,12.503,1.847,15.505,6.909,15.411
			c8.009-0.148,11.508-7.499,9.648-15.532C79.535,39.115,77.079,34.254,71.396,33.165z"/>
		<path fill="#F4BB3A" d="M71.422,33.928c-5.312-1.02-5.507,3.45-5.758,14.422c-0.26,11.578,1.71,14.357,6.397,14.269
			c7.415-0.139,10.658-6.943,8.936-14.383C78.961,39.438,76.682,34.936,71.422,33.928z"/>
		<path fill="#F7DC85" d="M71.509,34.662c-4.919-0.941-5.103,3.194-5.332,13.355c-0.242,10.72,1.583,13.292,5.92,13.213
			c6.869-0.127,9.872-6.43,8.276-13.319C78.487,39.766,76.381,35.597,71.509,34.662z"/>
		<path fill="#FFFFFF" d="M71.652,35.439c-4.523-0.864-4.696,2.94-4.902,12.29c-0.224,9.857,1.454,12.227,5.446,12.155
			c6.318-0.117,9.083-5.915,7.612-12.253C78.073,40.137,76.135,36.299,71.652,35.439z"/>
		<path fill="#F59C27" d="M83.318,60.722c-2.558,0.966-4.313,4.354-6.172,5.864c-1.968,1.599-5.077,4.077-5.429,6.441
			c-0.445,3.008,0.639,9.636,8.469,9.799c6.974,0.14,10.671-10.042,11.21-12.952C92.118,65.987,89.623,58.346,83.318,60.722z"/>
		<path fill="#F4BB3A" d="M83.383,61.148c-2.366,0.891-3.994,4.032-5.713,5.429c-1.822,1.48-4.705,3.774-5.028,5.965
			c-0.414,2.785,0.59,8.923,7.841,9.069c6.459,0.132,9.881-9.294,10.379-11.989C91.53,66.021,89.221,58.945,83.383,61.148z"/>
		<path fill="#F7DC85" d="M83.459,61.597c-2.18,0.82-3.676,3.709-5.258,4.995c-1.677,1.363-4.326,3.473-4.626,5.487
			c-0.38,2.562,0.543,8.209,7.213,8.344c5.943,0.121,9.088-8.551,9.552-11.03C90.955,66.081,88.825,59.571,83.459,61.597z"/>
		<path fill="#FFFFFF" d="M83.463,62.037c-2.002,0.756-3.379,3.414-4.835,4.598c-1.545,1.254-3.98,3.196-4.255,5.047
			c-0.35,2.357,0.501,7.554,6.636,7.679c5.468,0.113,8.362-7.869,8.786-10.147C90.361,66.165,88.404,60.177,83.463,62.037z"/>
	</g>
</g>
<g id="Calque_2">
</g>
</svg>
