<?xml version="1.0" encoding="utf-8"?>
<!-- Generator: Adobe Illustrator 16.0.0, SVG Export Plug-In . SVG Version: 6.00 Build 0)  -->
<!DOCTYPE svg PUBLIC "-//W3C//DTD SVG 1.1//EN" "http://www.w3.org/Graphics/SVG/1.1/DTD/svg11.dtd">
<svg version="1.1" xmlns="http://www.w3.org/2000/svg" xmlns:xlink="http://www.w3.org/1999/xlink" x="0px" y="0px" width="128px"
	 height="128px" viewBox="0 0 128 128" enable-background="new 0 0 128 128" xml:space="preserve">
<g id="Calque_1">
	<g>
		<path fill="#D87220" d="M93.725,69.304c-0.002-0.005-0.004-0.011-0.009-0.017c-0.055-0.085-0.114-0.16-0.168-0.241
			c-0.123-0.177-0.241-0.355-0.373-0.526c-2.084-2.786-4.899-4.185-7.299-4.972c-0.03-0.011-0.06-0.026-0.094-0.035
			c-0.006-0.003-0.016-0.004-0.025-0.007c-1.587-0.512-2.976-0.76-3.829-0.979c-0.794-0.204-1.004-3.212-2.768-6.853
			c-0.089-0.269-0.138-0.495-0.069-0.61c0.535-0.891,1.78-0.606,3.957-3.272c0-0.004,0-0.009,0-0.012
			c1.89-2.375,2.649-5.512,2.012-8.361c-2.007-9.011-14.289-14.06-20.463-5.944c-0.023,0.021-0.045,0.026-0.06,0.05
			c-2.309,2.972-2.344,5.676-2.994,6.189c-0.121,0.094-0.41,0.084-0.811,0.035c-0.551-0.095-1.099-0.181-1.637-0.25
			c-1.699-0.268-4.171-0.565-7.304-0.145c-0.004,0-0.004,0.003-0.009,0.003C36.554,44.931,29.535,58.46,32.804,71.185
			c2.68,10.445,10.177,17.451,18.879,19.377c0.469,0.136,1.052,0.244,1.707,0.334c0.073,0.01,0.148,0.023,0.223,0.033
			c0.072,0.009,0.132,0.022,0.214,0.032c0.783,0.094,1.517,0.136,2.227,0.156c0.046,0,0.086,0.002,0.13,0.003
			c3.371,0.084,5.924-0.554,7.802-1.241c0.082-0.03,0.166-0.061,0.25-0.093c0.551-0.206,1.049-0.417,1.482-0.609
			c0.33-0.14,0.663-0.248,0.985-0.404c0.073-0.039,0.144-0.081,0.219-0.118c0.405-0.164,0.728-0.267,0.967-0.258
			c1.418,0.058,5.116,7.503,14.264,6.005c0.116-0.015,0.232-0.042,0.348-0.061c0.248-0.046,0.48-0.07,0.74-0.13
			c0.027-0.007,0.05-0.038,0.082-0.047c0.756-0.178,1.498-0.394,2.206-0.706C94.786,89.402,98.895,77.165,93.725,69.304z"/>
		<path fill="#E27D22" d="M90.599,66.856c-0.018-0.016-0.025-0.033-0.043-0.048c-0.05-0.04-0.101-0.073-0.148-0.113
			c-0.125-0.097-0.257-0.196-0.389-0.29c-4.672-3.45-9.412-2.669-9.934-2.902c-0.339-0.153-0.476-2.359-1.564-5.447
			c-0.013-0.044-0.029-0.091-0.045-0.137c-0.009-0.029-0.023-0.057-0.032-0.083c-0.062-0.174-0.116-0.339-0.184-0.519
			c-0.012-0.022-0.025-0.029-0.034-0.049c-0.26-0.685-0.548-1.357-0.883-2.011c-0.119-0.275-0.178-0.469-0.137-0.57
			c0.157-0.427,1.821-0.497,4.066-2.784c0.031-0.031,0.063-0.059,0.093-0.089c0.009-0.01,0.016-0.019,0.025-0.025l0.002-0.007
			c2.279-2.254,3.268-5.577,2.603-8.555c-1.919-8.6-13.92-13.28-19.443-4.762c-0.066,0.055-0.137,0.105-0.191,0.194
			c-1.827,2.962-1.931,5.411-2.41,5.81c-0.114,0.097-0.526,0.081-1.133,0.011c-1.494-0.274-2.933-0.441-4.312-0.513
			c-1.307-0.103-2.691-0.128-3.957,0.047c-0.013,0.001-0.022,0.01-0.036,0.012c-14.346,1.28-20.987,13.911-17.936,25.793
			c2.422,9.426,9.07,15.851,16.865,17.824c0.615,0.219,1.443,0.393,2.516,0.519c8.858,1.031,13.134-2.934,14.177-2.879
			c0.783,0.042,1.84,3.751,6.22,6.062c1.571,0.871,3.297,1.404,5.043,1.573c0.134,0.021,0.253,0.049,0.387,0.067
			c0.319,0.04,0.605,0.026,0.872-0.013c1.678-0.004,3.335-0.322,4.854-0.989C95.268,87.701,98.852,73.606,90.599,66.856z"/>
		<path fill="#EA8B24" d="M87.06,65.621c-0.248-0.153-0.56-0.307-0.99-0.466c-0.56-0.208-1.125-0.347-1.689-0.451
			c-0.128-0.026-0.257-0.044-0.387-0.064c-0.31-0.049-0.615-0.092-0.915-0.117c-0.114-0.012-0.228-0.018-0.342-0.022
			c-2.313-0.145-4.208,0.276-4.362,0.193c-0.324-0.175,0.3-2.105-1.494-6.962c-0.027-0.075-0.047-0.154-0.077-0.228
			c-0.082-0.233-0.182-0.458-0.275-0.688c-0.066-0.158-0.104-0.293-0.175-0.458c-0.009-0.017-0.014-0.024-0.021-0.039
			c-0.203-0.467-0.424-0.93-0.667-1.381c-0.146-0.361-0.221-0.637-0.144-0.765c0.271-0.432,2.725-0.642,4.852-2.861
			c0.007-0.007,0-0.016,0.004-0.021c2.292-2.088,3.314-5.294,2.673-8.16c-1.763-7.899-12.709-12.225-17.877-4.602
			c-0.041,0.042-0.082,0.06-0.118,0.113c-1.983,2.857-2.291,6.386-2.618,6.671c-0.369,0.323-3.058-0.564-5.706-0.542
			c-0.009,0-0.014,0.009-0.027,0.009c-15.946-0.945-23.573,11.903-20.486,23.926c2.508,9.782,9.945,16.053,18.272,16.963
			c0.116,0.016,0.214,0.047,0.333,0.055c0.309,0.024,0.596,0.027,0.892,0.04c0.237,0.01,0.465,0.027,0.696,0.03
			c8.099,0.115,11.721-3.795,12.29-3.623c0.815,0.243,1.143,5.708,7.327,8.461c0.146,0.068,0.293,0.105,0.437,0.135
			c2.898,1.141,6.166,1.141,8.925-0.069C95.446,86.284,98.39,70.637,87.06,65.621z"/>
		<path fill="#F59C27" d="M85.209,65.627c-0.801-0.26-1.535-0.423-2.286-0.49c-3.183-0.365-5.938,0.667-6.138,0.558
			c-0.351-0.188,0.797-3.167-1.705-8.843c-0.035-0.071-0.07-0.118-0.105-0.171c-0.125-0.307-0.235-0.639-0.362-0.91
			c-0.214-0.447-0.437-0.892-0.683-1.319c-0.269-0.519-0.44-0.896-0.344-1.094c0.189-0.4,2.889-0.388,5.136-2.028
			c0.084-0.058,0.166-0.112,0.248-0.176c0.027-0.021,0.059-0.037,0.086-0.061c0.005-0.005,0.002-0.012,0.007-0.017
			c2.42-1.893,3.526-5.063,2.898-7.877c-1.681-7.523-12.436-11.562-16.951-3.479c-0.154,0.276-0.289,0.562-0.403,0.852
			c0,0-0.004,0-0.004,0.002c-1.437,3.03-1.353,5.194-1.635,5.495c-0.155,0.167-1.599-0.107-3.226-0.201
			c-16.728-2.799-24.914,9.865-21.884,21.663c2.388,9.297,9.607,15.139,17.574,15.663c0.191,0.022,0.391,0.037,0.601,0.046
			c0.116,0.005,0.235,0.011,0.353,0.014c0.076,0,0.139,0.008,0.219,0.007c0.53-0.009,1.05-0.039,1.556-0.079
			c0.132-0.011,0.268-0.026,0.405-0.041c6.68-0.662,10.633-3.939,10.921-3.685c0.191,0.168,0.359,2.854,2.083,5.508
			c0.009,0.012,0.019,0.026,0.027,0.04c0.109,0.164,0.201,0.329,0.324,0.496c0.05,0.064,0.1,0.107,0.145,0.161
			c3.056,4.201,8.656,5.474,12.941,3.592C94.647,85.027,97.224,69.549,85.209,65.627z"/>
		<path fill="#F5A63B" d="M66.495,39.624c1.044-3.176,7.522-5.535,10.286-1.438c2.468,3.664-0.355,7.749-4.681,7.95
			C67.71,46.334,65.502,42.646,66.495,39.624z"/>
		<path fill="#F4B056" d="M67.504,39.602c0.872-2.643,6.265-4.611,8.567-1.195c2.053,3.05-0.299,6.452-3.898,6.617
			C68.512,45.191,66.677,42.123,67.504,39.602z"/>
		<path fill="#F7BC6D" d="M69.008,39.378c0.619-1.887,4.472-3.293,6.116-0.853c1.466,2.177-0.212,4.608-2.782,4.726
			C69.724,43.37,68.412,41.18,69.008,39.378z"/>
		<path fill="#F5A63B" d="M71.975,74.6c-0.662-4.376,5.575-11.035,11.292-7.847c5.102,2.855,4.207,9.365-0.786,12.191
			C77.417,81.799,72.605,78.766,71.975,74.6z"/>
		<path fill="#F4B056" d="M73.152,73.97c-0.551-3.641,4.646-9.188,9.407-6.529c4.249,2.375,3.502,7.799-0.65,10.147
			C77.683,79.968,73.68,77.442,73.152,73.97z"/>
		<path fill="#F7BC6D" d="M74.577,72.822c-0.396-2.598,3.315-6.563,6.717-4.664c3.033,1.699,2.507,5.572-0.465,7.248
			C77.812,77.11,74.951,75.306,74.577,72.822z"/>
		<path fill="#F5A63B" d="M65.689,66.94c-7.522,7.21-19.371,3.134-20.44-6.607c-1.316-12.035,13.193-16.798,19.808-11.336
			C71.654,54.439,71.021,61.824,65.689,66.94z"/>
		<path fill="#F4B056" d="M64.829,64.155c-6.12,5.86-15.755,2.549-16.625-5.375c-1.07-9.785,10.728-13.659,16.107-9.222
			C69.673,53.988,69.163,59.994,64.829,64.155z"/>
		<path fill="#F7BC6D" d="M63.398,60.399c-4.367,4.188-11.249,1.818-11.871-3.836c-0.762-6.991,7.664-9.76,11.506-6.591
			C66.864,53.136,66.5,57.43,63.398,60.399z"/>
	</g>
</g>
<g id="Calque_2">
</g>
</svg>
