<?xml version="1.0" encoding="utf-8"?>
<!-- Generator: Adobe Illustrator 16.0.0, SVG Export Plug-In . SVG Version: 6.00 Build 0)  -->
<!DOCTYPE svg PUBLIC "-//W3C//DTD SVG 1.1//EN" "http://www.w3.org/Graphics/SVG/1.1/DTD/svg11.dtd">
<svg version="1.1" xmlns="http://www.w3.org/2000/svg" xmlns:xlink="http://www.w3.org/1999/xlink" x="0px" y="0px" width="128px"
	 height="128px" viewBox="0 0 128 128" enable-background="new 0 0 128 128" xml:space="preserve">
<g id="Calque_1">
	<g>
		<path fill="#F59C27" d="M93.725,69.304c-0.002-0.005-0.004-0.012-0.009-0.017c-0.055-0.085-0.114-0.161-0.168-0.241
			c-0.123-0.176-0.241-0.355-0.373-0.526c-2.084-2.786-4.899-4.185-7.299-4.971c-0.03-0.012-0.06-0.027-0.094-0.035
			c-0.006-0.004-0.016-0.005-0.025-0.007c-1.587-0.513-2.976-0.761-3.829-0.979c-0.794-0.204-1.004-3.211-2.768-6.852
			c-0.089-0.27-0.138-0.496-0.069-0.61c0.535-0.891,1.78-0.607,3.957-3.273c0-0.003,0-0.008,0-0.012
			c1.89-2.375,2.649-5.512,2.012-8.36c-2.007-9.011-14.289-14.06-20.463-5.945c-0.023,0.021-0.045,0.026-0.06,0.051
			c-2.309,2.972-2.344,5.677-2.994,6.189c-0.121,0.093-0.41,0.084-0.811,0.033c-0.551-0.094-1.099-0.181-1.637-0.25
			c-1.699-0.267-4.171-0.564-7.304-0.144c-0.004,0-0.004,0.004-0.009,0.004C36.554,44.931,29.535,58.46,32.804,71.185
			c2.68,10.446,10.177,17.451,18.879,19.377c0.469,0.135,1.052,0.244,1.707,0.335c0.073,0.01,0.148,0.022,0.223,0.033
			c0.072,0.009,0.132,0.022,0.214,0.032c0.783,0.093,1.517,0.135,2.227,0.156c0.046,0,0.086,0.002,0.13,0.003
			c3.371,0.084,5.924-0.555,7.802-1.242c0.082-0.03,0.166-0.06,0.25-0.092c0.551-0.206,1.049-0.417,1.482-0.609
			c0.33-0.14,0.663-0.248,0.985-0.404c0.073-0.039,0.144-0.081,0.219-0.117c0.405-0.164,0.728-0.268,0.967-0.258
			c1.418,0.058,5.116,7.503,14.264,6.005c0.116-0.016,0.232-0.042,0.348-0.061c0.248-0.047,0.48-0.07,0.74-0.131
			c0.027-0.006,0.05-0.038,0.082-0.047c0.756-0.177,1.498-0.394,2.206-0.706C94.786,89.402,98.895,77.165,93.725,69.304z"/>
		<path fill="#F4BB3A" d="M90.599,66.856c-0.018-0.016-0.025-0.033-0.043-0.049c-0.05-0.04-0.101-0.073-0.148-0.112
			c-0.125-0.099-0.257-0.196-0.389-0.291c-4.672-3.451-9.412-2.67-9.934-2.903c-0.339-0.152-0.476-2.359-1.564-5.447
			c-0.013-0.043-0.029-0.091-0.045-0.137c-0.009-0.028-0.023-0.057-0.032-0.083c-0.062-0.174-0.116-0.339-0.184-0.519
			c-0.012-0.022-0.025-0.029-0.034-0.049c-0.26-0.686-0.548-1.356-0.883-2.011c-0.119-0.275-0.178-0.47-0.137-0.569
			c0.157-0.427,1.821-0.498,4.066-2.785c0.031-0.03,0.063-0.06,0.093-0.089c0.009-0.01,0.016-0.018,0.025-0.025l0.002-0.006
			c2.279-2.256,3.268-5.577,2.603-8.555c-1.919-8.601-13.92-13.28-19.443-4.762c-0.066,0.055-0.137,0.106-0.191,0.195
			c-1.827,2.961-1.931,5.411-2.41,5.809c-0.114,0.097-0.526,0.081-1.133,0.011c-1.494-0.275-2.933-0.442-4.312-0.514
			c-1.307-0.102-2.691-0.128-3.957,0.047c-0.013,0.001-0.022,0.01-0.036,0.013c-14.346,1.279-20.987,13.911-17.936,25.793
			c2.422,9.426,9.07,15.851,16.865,17.825c0.615,0.218,1.443,0.393,2.516,0.519c8.858,1.03,13.134-2.934,14.177-2.879
			c0.783,0.041,1.84,3.75,6.22,6.062c1.571,0.872,3.297,1.405,5.043,1.574c0.134,0.02,0.253,0.049,0.387,0.067
			c0.319,0.04,0.605,0.026,0.872-0.014c1.678-0.003,3.335-0.321,4.854-0.988C95.268,87.701,98.852,73.606,90.599,66.856z"/>
		<path fill="#F7DC85" d="M87.06,65.62c-0.248-0.152-0.56-0.306-0.99-0.467c-0.56-0.208-1.125-0.346-1.689-0.451
			c-0.128-0.026-0.257-0.044-0.387-0.063c-0.31-0.049-0.615-0.092-0.915-0.118c-0.114-0.011-0.228-0.018-0.342-0.022
			c-2.313-0.145-4.208,0.277-4.362,0.193c-0.324-0.174,0.3-2.104-1.494-6.962c-0.027-0.076-0.047-0.153-0.077-0.228
			c-0.082-0.233-0.182-0.459-0.275-0.689c-0.066-0.157-0.104-0.292-0.175-0.459c-0.009-0.016-0.014-0.024-0.021-0.037
			c-0.203-0.468-0.424-0.93-0.667-1.382c-0.146-0.361-0.221-0.637-0.144-0.766c0.271-0.431,2.725-0.64,4.852-2.861
			c0.007-0.006,0-0.016,0.004-0.021c2.292-2.088,3.314-5.294,2.673-8.16c-1.763-7.899-12.709-12.225-17.877-4.601
			c-0.041,0.041-0.082,0.06-0.118,0.112c-1.983,2.857-2.291,6.386-2.618,6.67c-0.369,0.324-3.058-0.563-5.706-0.542
			c-0.009,0-0.014,0.009-0.027,0.009c-15.946-0.945-23.573,11.904-20.486,23.926c2.508,9.782,9.945,16.053,18.272,16.963
			c0.116,0.016,0.214,0.046,0.333,0.055c0.309,0.023,0.596,0.027,0.892,0.04c0.237,0.01,0.465,0.027,0.696,0.03
			c8.099,0.114,11.721-3.796,12.29-3.623c0.815,0.243,1.143,5.706,7.327,8.461c0.146,0.067,0.293,0.104,0.437,0.134
			c2.898,1.141,6.166,1.141,8.925-0.069C95.446,86.284,98.39,70.638,87.06,65.62z"/>
		<path fill="#FFFFFF" d="M85.209,65.627c-0.801-0.259-1.535-0.422-2.286-0.489c-3.183-0.366-5.938,0.667-6.138,0.558
			c-0.351-0.188,0.797-3.168-1.705-8.844c-0.035-0.07-0.07-0.117-0.105-0.171c-0.125-0.306-0.235-0.638-0.362-0.909
			c-0.214-0.448-0.437-0.892-0.683-1.318c-0.269-0.519-0.44-0.897-0.344-1.094c0.189-0.401,2.889-0.389,5.136-2.029
			c0.084-0.059,0.166-0.113,0.248-0.175c0.027-0.022,0.059-0.038,0.086-0.062c0.005-0.005,0.002-0.011,0.007-0.016
			c2.42-1.894,3.526-5.063,2.898-7.878c-1.681-7.523-12.436-11.562-16.951-3.479c-0.154,0.275-0.289,0.562-0.403,0.852
			c0,0-0.004,0-0.004,0.002c-1.437,3.03-1.353,5.194-1.635,5.494c-0.155,0.166-1.599-0.107-3.226-0.201
			c-16.728-2.799-24.914,9.865-21.884,21.663c2.388,9.296,9.607,15.139,17.574,15.664c0.191,0.023,0.391,0.037,0.601,0.045
			c0.116,0.005,0.235,0.012,0.353,0.014c0.076,0,0.139,0.008,0.219,0.007c0.53-0.009,1.05-0.039,1.556-0.079
			c0.132-0.012,0.268-0.026,0.405-0.042c6.68-0.661,10.633-3.938,10.921-3.683c0.191,0.167,0.359,2.853,2.083,5.507
			c0.009,0.013,0.019,0.026,0.027,0.04c0.109,0.164,0.201,0.329,0.324,0.495c0.05,0.063,0.1,0.107,0.145,0.16
			c3.056,4.202,8.656,5.475,12.941,3.593C94.647,85.027,97.224,69.549,85.209,65.627z"/>
	</g>
</g>
<g id="Calque_2">
</g>
</svg>
