<svg xmlns="http://www.w3.org/2000/svg" viewBox="0 0 13.43 8.43">
	<defs>
		<style>
			.cls-1{fill:#fff;}.cls-2{fill:#f59c27;}
		</style>
	</defs>
	<g id="ability-2" data-name="Calque 2">
		<g id="PopUp">
			<path class="cls-1" d="M8.18,0A2,2,0,1,1,5.87,1.65,2,2,0,0,1,8.18,0Z" />
			<path class="cls-2" d="M8.13.31a1.71,1.71,0,1,1-2,1.39A1.72,1.72,0,0,1,8.13.31Z" />
			<path class="cls-1" d="M11.32.77a2.55,2.55,0,1,1-3,2.07A2.54,2.54,0,0,1,11.32.77Z" />
			<path class="cls-2" d="M11.25,1.13A2.18,2.18,0,1,1,8.73,2.9,2.19,2.19,0,0,1,11.25,1.13Z" />
			<path class="cls-1" d="M3.73.85A3.18,3.18,0,1,1,.05,3.43,3.17,3.17,0,0,1,3.73.85Z" />
			<path class="cls-2" d="M3.65,1.3A2.72,2.72,0,1,1,.5,3.51,2.72,2.72,0,0,1,3.65,1.3Z" />
			<path class="cls-1" d="M7.7,1.55a3.47,3.47,0,1,1-4,2.82A3.47,3.47,0,0,1,7.7,1.55Z" />
			<path class="cls-2" d="M7.62,2A3,3,0,1,1,4.18,4.45,3,3,0,0,1,7.62,2Z" />
		</g>
	</g>
</svg>
