<svg xmlns="http://www.w3.org/2000/svg" viewBox="0 0 10.65 8.78">
	<defs>
		<style>
			.cls-1{fill:#f59c27;}.cls-2{fill:#fff;}
		</style>
	</defs>
	<g id="ability-4" data-name="Calque 2">
		<g id="PopUp">
			<path class="cls-1" d="M9.66,7.49a4.83,4.83,0,0,0,.95-3.7C10.44,2.51,9.58.88,6.84.21l-.09,0-.07,0h-.1A5.79,5.79,0,0,0,3.52.27h0C1.05,1,.24,2.47.06,3.67A4.87,4.87,0,0,0,.92,7.4,1.7,1.7,0,0,0,.13,8a4.25,4.25,0,0,0,.6-.09c-.28.19-.39.37-.37.39a5.6,5.6,0,0,0,.9-.19l-.05.06c-.09.13-.29.51-.25.55a8.06,8.06,0,0,0,1-.43,1.56,1.56,0,0,1,.84-.15.82.82,0,0,1,.7.46c.08.07.1-.34.1-.45a4.12,4.12,0,0,0,0-.77,2.09,2.09,0,0,0,.5-1A17.64,17.64,0,0,0,4.15,3c-.07-.22.6-.57,1.12-1a.6.6,0,0,0,.08-.13A.6.6,0,0,0,5.43,2c.51.44,1.17.81,1.1,1a17.36,17.36,0,0,0,0,3.32A2,2,0,0,0,7,7.38a4.15,4.15,0,0,0,0,.76c0,.12,0,.52.1.46a.78.78,0,0,1,.69-.45,1.57,1.57,0,0,1,.85.17,9,9,0,0,0,1,.45s-.15-.42-.25-.55,0,0,0-.06a5.54,5.54,0,0,0,.9.21s-.09-.21-.36-.4a5,5,0,0,0,.59.1A1.68,1.68,0,0,0,9.66,7.49Z" />
			<path class="cls-2" d="M6,1.23A3.5,3.5,0,1,1,1.89,4,3.51,3.51,0,0,1,6,1.23Z" />
			<path class="cls-1" d="M5.88,1.73a3,3,0,1,1-3.5,2.39A3,3,0,0,1,5.88,1.73Z" />
		</g>
	</g>
</svg>
