<svg xmlns="http://www.w3.org/2000/svg" viewBox="0 0 11.18 8.82">
	<defs>
		<style>
			.cls-1{fill:#f59c27;}.cls-2{fill:#fff;}
		</style>
	</defs>
	<g id="ability-3" data-name="Calque 2">
		<g id="PopUp">
			<path class="cls-1" d="M7.5,4.06a2.47,2.47,0,0,0,2.64-2.23A2.88,2.88,0,0,0,9.86,0a2.7,2.7,0,0,1,1.29,2.88A3.71,3.71,0,0,1,7.3,6.21C6.1,6.21,6.8,4.07,7.5,4.06Z" />
			<path class="cls-1" d="M3.68,4.06A2.48,2.48,0,0,1,1,1.83,2.88,2.88,0,0,1,1.32,0,2.7,2.7,0,0,0,0,2.88,3.72,3.72,0,0,0,3.88,6.21C5.08,6.21,4.38,4.07,3.68,4.06Z" />
			<path class="cls-2" d="M6.2,1.83A3.52,3.52,0,1,1,2.12,4.69,3.53,3.53,0,0,1,6.2,1.83Z" />
			<path class="cls-1" d="M6.11,2.33A3,3,0,1,1,2.62,4.78,3,3,0,0,1,6.11,2.33Z" />
		</g>
	</g>
</svg>
