<svg xmlns="http://www.w3.org/2000/svg" viewBox="0 0 14.6 9.22">
	<defs>
		<style>
			.cls-1{fill:#f59c27;}.cls-2{fill:#fff;}
		</style>
	</defs>
	<g id="ability_1" data-name="ability_1">
		<g id="ability_1">
			<path class="cls-1" d="M8.57,3.41c.11.12.26.31.69.13A19.24,19.24,0,0,0,13.6.12c.33-.3,1-.06,1,.92s-.86,3.5-4.72,4.48a3.93,3.93,0,0,1-1.33.19C7.88,5.63,8.57,3.41,8.57,3.41Z" />
			<path class="cls-1" d="M9.32,5.17c0,.11.08.34.43.31a22.27,22.27,0,0,0,3.65-.84c.42-.11.8,0,.49.46-.47.74-2.24,1.53-4.23,1.66-.53,0-.75.11-.9,0C8.3,6.58,9.32,5.17,9.32,5.17Z" />
			<path class="cls-1" d="M6,3.41c-.11.12-.25.31-.68.13A19.24,19.24,0,0,1,1,.12C.67-.18,0,.06,0,1s.85,3.5,4.71,4.48A4,4,0,0,0,6,5.71C6.71,5.63,6,3.41,6,3.41Z" />
			<path class="cls-1" d="M5.28,5.17c-.06.11-.09.34-.44.31a22.27,22.27,0,0,1-3.65-.84c-.42-.11-.8,0-.49.46C1.18,5.84,3,6.63,4.93,6.76c.54,0,.75.11.91,0C6.29,6.58,5.28,5.17,5.28,5.17Z" />
			<path class="cls-2" d="M7.9,2.29a3.49,3.49,0,1,1-4,2.83A3.49,3.49,0,0,1,7.9,2.29Z" />
			<path class="cls-1" d="M7.81,2.78A3,3,0,1,1,4.36,5.21,3,3,0,0,1,7.81,2.78Z" />
		</g>
	</g>
</svg>
