<?xml version="1.0" encoding="UTF-8"?>
<svg width="512pt" height="512pt" version="1.1" viewBox="0 0 512 512" xmlns="http://www.w3.org/2000/svg">
 <path d="m455.53 395.96c0.24219-13.121-24.652-17.316-33.895-22.555-9.6172-5.4492-15.602-12.652-22.82-20.586-3.9922-4.3867-24.59-13.781-25.438-15.594-7.957-16.988-0.59375-37.648-0.74609-55.551-0.10937-13.148-1.4805-30.219-9.5234-41.164-3.457-4.707-17.02-13.754-16.395-18.977 1.4492-12.094 23.824-26.395 31.59-36.133 17.141-21.516 27.562-46.34 29.285-73.852 3.125-49.988-35.309-94.078-87.121-85.176-47.109 8.1016-69.98 56.344-80.383 98.129-5.0469 20.281-4.9297 41.555-6.3281 62.32-0.94141 13.938 4.3633 37.305-9.8867 40.652-19.812 4.6523-40.172 5.3398-59.465 12.574-21.953 8.2344-22.59-1.2227-34.805-16.168-21.062-25.77-74.68 4.9609-67.676 29.133-6.3398 6.5547-8.3867 15.816-5.2695 24.266 4.3203 11.695 27.852 4.957 37.465 7.4805 9.9219 2.6094 6.668 20.895 9.5742 29.547 3.7617 11.211 20.52 28.539 15.848 41.617 2.8984 24.043-0.85547 53.188-4.9648 76.848-1.2305 7.0859-2.8789 20.355-10.199 24.488-2.2305 1.2578-36.48 3.0156-29.977 11.895 2.9453 4.0195 28.805 2.1094 31.887 1.7852 13.016-1.3867 21.227-10.738 25.855-22.836 10.566-27.629 21.887-65.762 19.512-95.254 11.219 8.668 28.047 12.246 32.352 26.039 4.7266 15.141 12.484 28.66 16.473 44.266 3.2266 12.625 12.062 26.828 12.062 39.613 0 15.418-25.211 6.0859-23.344 15.574 0.76172 3.8906 24.887 5.0078 26.605 5.0078 16.461 0 19.672-26.945 15.883-39.906-2.8633-32.707-5.4414-69.652-22.859-97.629 12.852 0.11328 25.789-2.625 37.68-7.4375 10.195-4.1328 19.676-9.9531 27.867-17.301 4.2656-3.8242 17.324-25.75 22.344-25.027 2 0.29297-19.984 39.707-22.477 44.363-8.5508 15.988 5.3398 43.254 11.105 58.605 4.6172 10.754 27.168 32.68 27.168 43.648-0.003906 8.0938-17.957 4.4688-20.895 3.1289-8.1602-3.7109-9.7422 6.0664-15.387 4.8789-20.91-4.3984-24.34 9.0117-7.5664 12.473 14.91 3.0703 43.203 2.5547 57.852-2.6094 48.07-16.957-37.773-88.547 0.17578-119.13 10.906 26.254 38.168 39.297 61.449 53.324 16.66 10.047 72.59 15.281 39.152 49.273-5.4883 5.582-21.961-3.6875-23.527 9.707-0.83594 7.1562 23.777 6.5586 25.832 5.5586 8.2188-4.1172 21.926 6.168 20.891-7.8945-1.3828-18.555 7.2266-36.836 5.0391-55.418zm-393.09-141.38 0.019531 0.054688zm273.46-62.684c-29.316 13.91-57.176 22.668-88.82 30.348 2.6562-16.066-1.9727-33.613 0-50.137 5.8047-15.543 6.6211-37.422 9.9531-53.895 7.6562-37.785 28.273-68.004 66.688-78.418 43.621-11.828 64.328 32.648 66.648 66.871 2.2734 33.746-28.633 67.766-54.469 85.23z" fill="#fff"/>
</svg>
