<?xml version="1.0" encoding="UTF-8"?>
<svg id="close_button" data-name="Calque 2" xmlns="http://www.w3.org/2000/svg" viewBox="0 0 19.75 19.75">
	<g id="filtre_popup" data-name="filtre popup">
		<g>
			<path fill="#f4bb3a" d="m11.58.15c5.37.94,8.96,6.06,8.02,11.43-.94,5.37-6.06,8.96-11.43,8.02C2.8,18.66-.79,13.54.15,8.17,1.09,2.8,6.21-.79,11.58.15Z" />
			<path fill="#f4bb3a" d="m11.34,1.55c4.6.81,7.67,5.19,6.87,9.79-.81,4.6-5.19,7.67-9.79,6.86-4.6-.81-7.67-5.19-6.87-9.79C2.36,3.81,6.74.74,11.34,1.55Z" />
			<polygon fill="#f2f2f2" points="15.12 6.98 12.77 4.63 9.87 7.53 6.98 4.63 4.63 6.98 7.53 9.87 4.63 12.77 6.98 15.12 9.87 12.22 12.77 15.12 15.12 12.77 12.22 9.87 15.12 6.98" />
		</g>
	</g>
</svg>
