<?xml version="1.0" encoding="UTF-8"?>
<svg id="Calque_2" data-name="Calque 2" xmlns="http://www.w3.org/2000/svg" viewBox="0 0 43.44 43.44">
	<defs>
		<style>
			.cls-1 {
			fill: #f4bb3a;
			}

			.cls-2 {
			fill: #ffffff;
			}
		</style>
	</defs>
	<g id="Pop_up" data-name="Pop up">
		<g>
			<g>
				<path class="cls-2" d="m15.37,11.09c.75-.65,11.69-.64,12.69,0,.03.02,1.18-.12,1.35-.86.02-.09.03-.37-.09-.44-1.2-.76-14.36-.81-15.23,0-.05.05-.07.32-.05.44.12.68,1.21.95,1.32.86Z" />
				<path class="cls-2" d="m17.74,23.45c-.72.51-2.24,1.41-2.24,3.08v4.43c0,.08-.02.3.07.36.97.7,11.65.74,12.36,0,.04-.04.04-.29.04-.4v-4.39c0-1.67-1.32-2.48-2.19-3.08-.78-.54-2.3-1.31-2.3-1.71,0-.43,1.53-1.23,2.24-1.74.72-.51,2.24-1.41,2.24-3.08v-4.43c0-.08.02-.3-.07-.36-.97-.7-11.65-.74-12.36,0-.04.04-.04.29-.04.4v4.39c0,1.67,1.32,2.48,2.19,3.08.87.6,2.3,1.31,2.3,1.74s-1.56,1.23-2.24,1.71Z" />
				<path class="cls-2" d="m29.41,33.21c-.12-.69-1.21-.96-1.32-.86-.75.65-11.67.64-12.67,0-.03-.02-1.18.12-1.35.86-.02.09-.03.37.09.44,1.2.76,14.34.81,15.21,0,.05-.05.07-.32.05-.44Z" />
			</g>
			<path class="cls-1" d="m21.74,20.94c.1,0,1.9-1.13,3.06-2.02.61-.46,1.31-.97,1.31-1.81,0-.54-1.72.56-4.38.52-3.22-.05-4.41-1.08-4.41-.62,0,.95.6,1.25,1.25,1.8,1.24,1.06,3.01,2.13,3.16,2.13Z" />
			<path class="cls-1" d="m21.73,24.29c-.29,0-.78.98-3.57,2.5-1.26.69-1.49,1.37-1.49,2.21,0,.2-.05,1.08.19,1.18.51.22,3.21.22,4.88.24,2.47.04,4.54-.06,4.95-.27.21-.1.13-.66.13-.77,0-.95-.17-1.79-1.5-2.56-3.19-1.84-3.3-2.54-3.59-2.54Z" />
		</g>
	</g>
</svg>
