<?xml version="1.0" encoding="UTF-8"?>
<svg id="Calque_2" data-name="Calque 2" xmlns="http://www.w3.org/2000/svg" viewBox="0 0 14.52 14.52">
	<defs>
		<style>
			.cls-1 {
			fill: #f2f2f2;
			}

			.cls-2 {
			fill: #f59c27;
			}

			.cls-3 {
			fill: #fff;
			}
		</style>
	</defs>
	<g id="boutons">
		<g>
			<g>
				<path class="cls-3" d="m8.51.11c3.95.69,6.59,4.46,5.89,8.4-.69,3.95-4.46,6.59-8.41,5.89C2.06,13.71-.58,9.95.11,6,.8,2.06,4.57-.58,8.51.11Z" />
				<path class="cls-2" d="m8.33,1.14c3.38.59,5.64,3.81,5.05,7.19-.6,3.38-3.81,5.64-7.2,5.05-3.38-.59-5.64-3.81-5.05-7.19C1.73,2.8,4.95.54,8.33,1.14Z" />
			</g>
			<path class="cls-1" d="m10.73,4.93c0,.3-.11.54-.25.54h-6.45c-.14,0-.25-.24-.25-.54h0c0-.3.11-.54.25-.54h6.45c.14,0,.25.24.25.54h0Z" />
			<path class="cls-1" d="m10.73,7.26c0,.3-.11.54-.25.54h-6.45c-.14,0-.25-.24-.25-.54h0c0-.3.11-.54.25-.54h6.45c.14,0,.25.24.25.54h0Z" />
			<path class="cls-1" d="m10.73,9.59c0,.3-.11.54-.25.54h-6.45c-.14,0-.25-.24-.25-.54h0c0-.3.11-.54.25-.54h6.45c.14,0,.25.24.25.54h0Z" />
		</g>
	</g>
</svg>
