<?xml version="1.0" encoding="UTF-8"?>
<svg width="512pt" height="512pt" version="1.1" viewBox="0 0 512 512" xmlns="http://www.w3.org/2000/svg">
 <g fill="#fff">
  <path d="m245.25 378.37c-15.359 0-28.16-12.801-28.16-28.16v-11.266c-2.0469-61.438 39.426-88.062 69.633-107.52 32.77-20.992 51.199-34.816 51.199-72.191 0-47.617-34.816-78.336-88.574-78.336-12.801 0.51172-72.703 7.168-72.703 77.824 0 15.359-12.801 28.16-28.16 28.16s-28.16-12.801-28.16-28.16c0-103.94 83.969-133.12 128-134.14h0.51172c85.504 0 145.41 55.297 145.41 134.66 0 70.145-44.543 98.816-76.801 119.81-30.207 19.457-44.543 30.207-43.52 58.367v1.0234 11.777c-0.51172 15.867-13.309 28.156-28.672 28.156z"/>
  <path d="m280.06 454.14c0 17.812-14.441 32.254-32.254 32.254-17.816 0-32.258-14.441-32.258-32.254 0-17.816 14.441-32.258 32.258-32.258 17.812 0 32.254 14.441 32.254 32.258"/>
 </g>
</svg>
