<svg width="22" height="22" viewBox="0 0 22 22" fill="none" xmlns="http://www.w3.org/2000/svg">
<path d="M18.44 18.8799C14.28 23.0099 7.56 22.9899 3.43 18.8299C-0.700005 14.6699 -0.680001 7.9499 3.48 3.8199C7.64 -0.310096 14.36 -0.290096 18.49 3.8599C22.62 8.0199 22.6 14.7399 18.44 18.8799Z" fill="#F59C27"/>
<path d="M17.8899 18.3298C14.0299 22.1598 7.79991 22.1398 3.96991 18.2898C0.139907 14.4298 0.159908 8.19981 4.00991 4.36981C7.86991 0.53981 14.0999 0.55981 17.9299 4.40981C21.7699 8.25981 21.7499 14.4898 17.8899 18.3298Z" fill="white"/>
<path d="M16.77 17.2C13.54 20.41 8.30996 20.4 5.09996 17.16C1.88996 13.93 1.89996 8.69997 5.13996 5.48997C8.36996 2.26997 13.6 2.28997 16.81 5.51997C20.02 8.75997 20.01 13.98 16.77 17.2Z" fill="#F59C27"/>
<path d="M16.1301 16.5499C13.2501 19.4099 8.60007 19.3899 5.74007 16.5199C2.88007 13.6399 2.89006 8.98988 5.77006 6.12988C8.65006 3.26988 13.3001 3.28989 16.1501 6.15988C19.0301 9.03989 19.0101 13.6899 16.1301 16.5499Z" fill="white"/>
<path d="M15.1702 15.5798C12.8302 17.9098 9.05019 17.8898 6.72019 15.5498C4.39019 13.2098 4.41019 9.41983 6.75019 7.09983C9.09019 4.76983 12.8702 4.78982 15.2002 7.12982C17.5202 9.46982 17.5102 13.2498 15.1702 15.5798Z" fill="#F59C27"/>
<path d="M14.5202 14.9298C12.5402 16.8998 9.3402 16.8898 7.3702 14.9098C5.4002 12.9298 5.4102 9.72985 7.3902 7.75985C9.3702 5.78985 12.5702 5.79985 14.5402 7.77985C16.5102 9.75985 16.5002 12.9598 14.5202 14.9298Z" fill="white"/>
<path d="M13.74 14.1499C12.19 15.6899 9.69001 15.6799 8.16001 14.1299C6.62001 12.5799 6.63001 10.0799 8.18001 8.5499C9.73001 7.0099 12.23 7.0199 13.76 8.5699C15.29 10.1099 15.29 12.6099 13.74 14.1499Z" fill="#F59C27"/>
</svg>
