<?xml version="1.0" encoding="UTF-8"?>
<svg width="512pt" height="512pt" version="1.1" viewBox="0 0 512 512" xmlns="http://www.w3.org/2000/svg">
 <defs>
  <clipPath id="a">
   <path d="m94.781 185h322.44v162h-322.44z"/>
  </clipPath>
 </defs>
 <path d="m256 0c-33.617 0-66.906 6.6211-97.965 19.488-31.062 12.863-59.281 31.719-83.055 55.492-23.773 23.773-42.629 51.992-55.492 83.055-12.867 31.059-19.488 64.348-19.488 97.965 0 67.895 26.973 133.01 74.98 181.02 48.012 48.008 113.12 74.98 181.02 74.98s133.01-26.973 181.02-74.98c48.008-48.008 74.98-113.12 74.98-181.02s-26.973-133.01-74.98-181.02c-48.008-48.008-113.12-74.98-181.02-74.98zm0 28.91c29.492 0 58.695 5.875 85.941 17.289 27.246 11.41 52.004 28.137 72.855 49.227 20.855 21.086 37.395 46.121 48.684 73.672 11.285 27.551 17.094 57.082 17.094 86.902 0 60.227-23.66 117.99-65.777 160.57-42.113 42.59-99.234 66.512-158.8 66.516-29.488 0-58.691-5.875-85.941-17.289-27.246-11.41-52-28.137-72.855-49.227-20.852-21.086-37.395-46.121-48.68-73.672-11.289-27.551-17.098-57.078-17.098-86.902 0-29.82 5.8086-59.352 17.094-86.902 11.289-27.551 27.828-52.586 48.684-73.672 20.852-21.09 45.609-37.816 72.855-49.23 27.25-11.41 56.453-17.285 85.941-17.285z"/>
 <path d="m399.83 226.21-0.58203 5.1289-11.793 2.2461-18.27 7.4219-19.367 10.16-13.598 7.5547-13.047 4.5352-24.922 1.5039 8.1016 10.844 5.6328 16.621h25.27l14.973 12.355 16.477 10.035 0.14062 4.8008-0.30859 3.4688-4.8398-0.62109-4.6367-3.1953-18.996-12.934-39.816 1.4062-16.898-13.398-8.9336-4.1172-14.137-14.73-9.4727-3.6016-10.34 0.65234-11.809 4.1875-32.047-1.125-10.156-7-2.1914-7.3828v11.695l-3.293 4.8398-33.312-11.895-3.9141-1.5586-9.9922 2.168-10.504 4.1172-5.7305 2.8438-5.3516-3.0859 3.0898-5.7695 25.375-10.301 19.531 1.8516 2.9883-0.82422-9.0625-13.492-1.2383-2.4727-4.7344-3.1914-1.4453 3.5-6.1797 0.20703-6.6953-2.4219-1.4414 1.4258-3.2969 0.54688-5.7656-5.9844-1.3711-3.3555 6.0391-7.1367 0.27344-3.5742 4.3945-4.3906 11.258-2.1992 5.2266-4.1172h3.0156l0.55078 3.0195 8.5156 0.27344 7.9609 4.9453 23.418 2.5039 21.215 11.746 19.645 6.0742 12.363 4.668 19.5 4.125 20.527 0.44531 20.051 4.5039 16.555 1.0938 12.637-3.3008 28.215-14 16.828-6.0508 12.012-2.6016z"/>
 <g clip-path="url(#a)">
  <path transform="matrix(3.2244 0 0 3.2244 94.781 94.781)" d="m94.608 40.762-0.18051 1.5907-3.6574 0.6966-5.6661 2.3018-6.0065 3.151-4.2171 2.343-4.0463 1.4065-7.7292 0.46642 2.5126 3.363 1.7469 5.1548h7.837l4.6436 3.8319 5.11 3.1123 0.043613 1.4889-0.095706 1.0758-1.501-0.19262-1.438-0.99098-5.8914-4.0112-12.349 0.43613-5.2408-4.1554-2.7706-1.2769-4.3843-4.5685-2.9378-1.117-3.2068 0.20232-3.6623 1.2987-9.9389-0.3489-3.1498-2.171-0.67964-2.2897v3.6271l-1.0213 1.501-10.331-3.6889-1.2139-0.48338-3.0989 0.67237-3.2577 1.2769-1.7772 0.88195-1.6597-0.95706 0.95828-1.7893 7.8697-3.1947 6.0574 0.57424 0.92678-0.25562-2.8106-4.1844-0.38404-0.76686-1.4683-0.98977-0.44824 1.0855-1.9166 0.064208-2.0765-0.75111-0.44703 0.44219-1.0225 0.16961-1.7881-1.856-0.42523-1.0407 1.8729-2.2134 0.084804-1.1085 1.3629-1.3617 3.4915-0.68206 1.621-1.2769h0.93526l0.17082 0.93647 2.641 0.084803 2.469 1.5337 7.2628 0.77655 6.5795 3.6429 6.0925 1.8838 3.8343 1.4477 6.0477 1.2793 6.3663 0.13811 6.2185 1.3968 5.1342 0.33921 3.9191-1.0237 8.7505-4.3419 5.219-1.8766 3.7253-0.80684z" fill="none" stroke="#010202" stroke-miterlimit="10" stroke-width=".5111"/>
 </g>
</svg>
