<?xml version="1.0" encoding="UTF-8"?>
<svg width="512pt" height="512pt" version="1.1" viewBox="0 0 512 512" xmlns="http://www.w3.org/2000/svg">
 <g>
  <path d="m256 0c-33.617 0-66.906 6.6211-97.965 19.488-31.062 12.863-59.281 31.719-83.055 55.492-23.773 23.773-42.629 51.992-55.492 83.055-12.867 31.059-19.488 64.348-19.488 97.965 0 67.895 26.973 133.01 74.98 181.02 48.012 48.008 113.12 74.98 181.02 74.98s133.01-26.973 181.02-74.98c48.008-48.008 74.98-113.12 74.98-181.02s-26.973-133.01-74.98-181.02c-48.008-48.008-113.12-74.98-181.02-74.98zm0 28.91c29.492 0 58.695 5.875 85.941 17.289 27.246 11.41 52.004 28.137 72.855 49.227 20.855 21.086 37.395 46.121 48.684 73.672 11.285 27.551 17.094 57.082 17.094 86.902 0 60.227-23.66 117.99-65.777 160.57-42.113 42.59-99.234 66.512-158.8 66.516-29.488 0-58.691-5.875-85.941-17.289-27.246-11.41-52-28.137-72.855-49.227-20.852-21.086-37.395-46.121-48.68-73.672-11.289-27.551-17.098-57.078-17.098-86.902 0-29.82 5.8086-59.352 17.094-86.902 11.289-27.551 27.828-52.586 48.684-73.672 20.852-21.09 45.609-37.816 72.855-49.23 27.25-11.41 56.453-17.285 85.941-17.285z"/>
  <path d="m219.46 252.2c-0.039062 0.11328-0.027343 0.082031 0 0z"/>
  <path d="m380.53 208.43c-29.504 10.125-35.203 37.953-38.023 38.762-2.8203 0.80469-13.102-1.0078-16.121-2.6211-3.0195-1.6133 1.4141-4.8359-2.2188-3.6289-3.6289 1.2109-7.6562 1.6133-7.6562 1.6133s-34.258-8.4648-43.566-10.684c-9.3164-2.2188-7.8789-29.969-7.8789-29.969s3.9805-3.1719 1.8633-3.2773c-14.891-0.71094-27.406 27.609-29.219 29.422s-29.422 1.2109-54.613 3.2227c-25.191 2.0156-57.633 19.953-57.633 19.953-0.375 7.3203 15.273 7.3555 20.719 13.711 0.097656 0.12109 0.5625-0.046875 1.1953-0.33594 0.12109 0.28906 0.28906 0.57422 0.54297 0.80078 0.95703 0.87109-0.125 0.16797 0.042969-1.0898 0.43359-0.21875 0.89844-0.47266 1.3945-0.75 0.11719 0.22266 0.23047 0.45312 0.42969 0.62891 0.90234 0.82031-0.007812 0.23438 0.023438-0.88281 0.39844-0.22656 0.78125-0.45312 1.1602-0.67969 0.12109 0.25391 0.25781 0.50781 0.48047 0.71094 0.9375 0.85156-0.085938 0.19922 0.023437-1.0078 0.36719-0.22266 0.71484-0.43359 1.0078-0.61328 0.12109 0.39844 0.28906 0.78516 0.63281 1.0977 1.0664 0.96875-0.41406-0.007812 0.13672-1.5391 0.007812-0.023438 0.007812-0.027344 0.011719-0.046875 0.17188-0.10547 0.28516-0.17578 0.28516-0.17578s0.22656-0.046876 0.55078-0.10547c0.10547 0.45312 0.28125 0.91797 0.67578 1.2734 1.0391 0.94141-0.32031 0.039063 0.11328-1.4141 1.293-0.22266 3.125-0.49219 3.5977-0.30469 0.67188 0.26953-0.48438 1.8281-1.7031 2.6406-0.91016-0.91797-0.43359-2.1641-0.70703-0.88281-0.089844 0.42969-0.011719 0.82812 0.10938 1.2031-0.24219 0.097656-0.57812 0.1875-0.97266 0.27344-0.027344-0.019531-0.027344-0.027343-0.058594-0.046875-1.3438-0.90625-0.72266-2.5703-1.0156-1.1562-0.10547 0.50391 0.015625 0.96875 0.19141 1.3945-0.36719 0.070312-0.75 0.15625-1.1484 0.25-0.91406-0.91797-0.4375-2.168-0.71094-0.88281-0.074219 0.35938-0.042969 0.71875 0.046875 1.043-0.44531 0.12109-0.875 0.26953-1.2852 0.43359-0.89844-0.91797-0.42969-2.1523-0.69531-0.875-0.082031 0.40625-0.023437 0.79297 0.089844 1.1523-0.23828 0.125-0.44141 0.27344-0.64062 0.42578-1.0391-0.92578-0.53125-2.2969-0.80469-0.97266-0.11719 0.55859 0.039062 1.0742 0.24609 1.5234-0.13672 0.17578-0.28125 0.33594-0.35938 0.53906 0.375 0.21094 0.73438 0.41406 1.1055 0.62891 0.003906 0.003907 0.027344 0.027344 0.027344 0.027344l0.007812-0.007812c0.074219 0.039062 0.15234 0.082031 0.24219 0.13281 21.969 12.898 69.527 11.688 69.527 11.688s6.3281 11.328 12.023 17.598c5.3086 5.8477 54.68 25.93 37.75 11.824s-29.621-28.418-11.488-28.418c18.137 0 86.926-25.191 86.926-25.191s-3.2227 4.5664 9.4023 17.332c13.969 14.117 31.117 11.582 26.199 10.684-9.3711-1.7109-16.656-26.781-16.59-32.754 0.066406-5.7305 18.402-38.316 18.402-38.316s10.121-7.543-2.0742-3.3594zm-243.15 48.773c-0.95703 0.45312-0.082031-3.6367 1.5117-4.5352-0.23828 1.8711-0.55469 4.0781-1.5117 4.5352zm6.5508-6.3516c-0.80469 0-1.1094-0.5-1.1094-1.3086s0.30078-1.6133 1.1094-1.6133c0.80859 0 1.4609 0.65234 1.4609 1.4609-0.003907 0.8125-0.65234 1.4609-1.4609 1.4609zm59.59 4.8711-0.0625 0.60156c-0.18359 1.8555-0.37891 3.7734-1.3477 5.4453-0.25781 0.44922-0.61328 0.87891-0.98828 1.3438-0.79297 0.96875-1.6133 1.9727-1.4766 3.0391 0.027344 0.21875-0.12891 0.42188-0.35156 0.45312-0.015624 0.003906-0.03125 0.003906-0.046874 0.003906-0.20313 0-0.375-0.14844-0.39844-0.35156-0.17578-1.4102 0.79688-2.5977 1.6523-3.6484 0.35547-0.4375 0.69141-0.84766 0.91797-1.2383 0.88281-1.5234 1.0664-3.3516 1.2422-5.125l0.0625-0.60156c0.14844-1.457 0.30078-2.9648 0.16016-4.4219-0.082031-0.87891-0.45312-1.7891-0.80469-2.668-0.18359-0.45312-0.36328-0.90234-0.50781-1.3477-0.39062-1.1797-0.68359-2.3906-0.96875-3.5625-0.38281-1.582-0.78125-3.2188-1.4141-4.793-0.082032-0.20703 0.015625-0.44141 0.22266-0.52734s0.4375 0.015625 0.52734 0.22266c0.66016 1.6328 1.0625 3.2969 1.4531 4.9062 0.35156 1.457 0.65625 2.6055 0.95312 3.5 0.14062 0.42969 0.31641 0.85938 0.49219 1.2969 0.37891 0.93359 0.76562 1.9023 0.86328 2.8945 0.13281 1.5391-0.027343 3.0859-0.17969 4.5781zm5.207-4.2969c-0.57812 4.9883-0.17188 11.457-2.8438 15.734-0.59375 0.94922-0.99609 0.074219-0.39062-0.15234 0.46875-0.69141 0.41016-1.2656 0.6875-2.0703 1.1055-3.1055 1.3203-7.4375 1.5234-10.723 0.19531-3.1016 0.39844-5.7031-0.28516-8.7578-0.26562-1.1719-0.23047-2.2891-0.25391-3.4727-0.007812-0.69141-1.0898-3.3203-0.58984-3.8477 0.91797-0.96484 1.4023 4.5703 1.4023 4.8711 0.17578 2.9023 1.0859 5.457 0.75 8.418 0.027344-0.25391 0.089844-0.76563 0 0zm2.7344 10.16c-0.17578 0.82812-0.19141 1.625-0.29688 2.4609-0.13281 1.0234-1.2109 2.9961-1.1367 4.0195 0.042968 0.52734-0.45313-0.17578-0.49219-0.69531-0.082031-1.1328 0.6875-2.3086 0.83203-3.4297 0.32812-2.5938 0.76562-5.1914 1.4609-7.7188 0.84766-3.125 1.082-6.7031 1.082-9.9414 0-1.2734-0.066406-2.7188-0.25-3.9805-0.058594-0.41406-2.4141-3.0273-1.418-2.9023 1.2227 0.0625 2.3203 4.8008 2.3984 5.6328 0.26562 2.75-0.15625 5.8008-0.42969 8.543-0.26953 2.6719-1.1953 5.3867-1.75 8.0117zm9.6055-12.59c-0.039062 0.12891-0.09375 0.30469-0.125 0.40234-0.59766 1.9219-1.3203 4.1055-1.9492 6.0195-0.68359 2.082-1.8828 3.4297-2.4492 5.5469-0.22656 0.82812-2.9453 6.8789-3.6602 6.8789-1.043 0 1.6523-3.5742 1.8398-4.0547 1.7305-4.4688 3.7422-8.5234 5.0117-13.168 0.61719-2.2812 1.5625-4.5 1.25-6.918-0.082031-0.62891-2.5195-5.0547-1.2266-5.0117 0.34766 0.050782 1.4961 3.0039 1.707 3.5742 0.85937 2.332 0.17578 4.8672-0.52734 7.1367 0.0625-0.19141 0.10156-0.32031 0.12891-0.40625z"/>
 </g>
</svg>
