<?xml version="1.0" encoding="UTF-8"?>
<svg id="carnivore" data-name="ability" xmlns="http://www.w3.org/2000/svg" viewBox="0 0 124.42 124.42">
	<defs>
		<style>
			.cls-1 {
			fill: currentColor !important;
			}

			.cls-2 {
			fill: none;
			opacity: .1;
			}
		</style>
	</defs>
	<g id="disques">
		<path class="cls-2" d="m124.42,62.21c0,34.36-27.85,62.21-62.21,62.21S0,96.57,0,62.21,27.85,0,62.21,0s62.21,27.85,62.21,62.21Z" />
	</g>
	<g id="trait">
		<path class="cls-1" d="m62.21,37.9c13.43,0,24.3,10.9,24.29,24.32,0,13.43-10.9,24.3-24.32,24.29-13.42,0-24.3-10.9-24.29-24.32,0-13.42,10.9-24.3,24.32-24.29Z" />
		<path class="cls-1" d="m80.66,112.67h0c-.55-2.87-3.01-7.9-3.68-9.18-.85-1.64-1.49-3.14-2.09-1.61-.53,1.34-4.39,9.14-6.71,11.17-.75-2.92-3.74-8.16-4.47-9.56-.57-1.09-1.03-2.11-1.46-2.23,0,0,0,0-.02,0-.02,0-.05,0-.07,0-.02,0-.05,0-.07,0,0,0-.01,0-.02,0-.43.12-.9,1.15-1.46,2.23-.72,1.37-3.33,6.64-4.18,9.39-2.33-2.26-6.01-9.69-6.53-11-.61-1.53-1.24-.02-2.09,1.61-.84,1.6-4.47,9.06-3.67,10.82.87,3.89,7.9,6.88,18.08,6.88,15.14,0,19.61-4.44,18.45-8.53Z" />
		<path class="cls-1" d="m62.08,24.15c-20.11-.02-33.81,16.31-33.83,36.41,0,5.94,1.76,20.27,4.51,28.18.24.69,2.71,8.24,3.15,9.45,1.07,2.96,1.8,5.66,3.17,3.2.84-1.51,5.16-8,9.19-12.75.03,0,.06-.02.09-.03.52,3.45,3.74,10.03,4.59,11.66,1.05,2.01,1.83,3.87,2.58,1.99.53-1.34,3.76-7.91,6.48-11.68-15.58-.12-28.16-12.79-28.16-28.39.01-15.68,12.73-28.38,28.4-28.37,15.68.01,28.37,12.73,28.37,28.4-.01,15.57-12.56,28.2-28.1,28.36,2.73,3.77,5.96,10.34,6.49,11.68.75,1.89,1.53.03,2.58-1.99.85-1.63,4.08-8.23,4.59-11.67,0,0,0,0,.01,0,4.03,4.76,8.37,11.28,9.22,12.79,1.37,2.46,2.1-.24,3.17-3.2.68-1.88,2.81-8.24,3.73-13.22,1.47-6.53,3.89-18.7,3.89-24.33,0-20.11-14.02-36.49-34.13-36.5Z" />
	</g>
</svg>
