<?xml version="1.0" encoding="UTF-8"?>
<svg width="512pt" height="512pt" version="1.1" viewBox="0 0 512 512" xmlns="http://www.w3.org/2000/svg">
 <g>
  <path d="m256 0c-33.617 0-66.906 6.6211-97.965 19.488-31.062 12.863-59.281 31.719-83.055 55.492-23.773 23.773-42.629 51.992-55.492 83.055-12.867 31.059-19.488 64.348-19.488 97.965 0 67.895 26.973 133.01 74.98 181.02 48.012 48.008 113.12 74.98 181.02 74.98s133.01-26.973 181.02-74.98c48.008-48.008 74.98-113.12 74.98-181.02s-26.973-133.01-74.98-181.02c-48.008-48.008-113.12-74.98-181.02-74.98zm0 28.91c29.492 0 58.695 5.875 85.941 17.289 27.246 11.41 52.004 28.137 72.855 49.227 20.855 21.086 37.395 46.121 48.684 73.672 11.285 27.551 17.094 57.082 17.094 86.902 0 60.227-23.66 117.99-65.777 160.57-42.113 42.59-99.234 66.512-158.8 66.516-29.488 0-58.691-5.875-85.941-17.289-27.246-11.41-52-28.137-72.855-49.227-20.852-21.086-37.395-46.121-48.68-73.672-11.289-27.551-17.098-57.078-17.098-86.902 0-29.82 5.8086-59.352 17.094-86.902 11.289-27.551 27.828-52.586 48.684-73.672 20.852-21.09 45.609-37.816 72.855-49.23 27.25-11.41 56.453-17.285 85.941-17.285z"/>
  <path d="m146.37 351.77c-14.508 1.6133-36.113 2.2578-36.113 2.2578 0-0.003907 106.41-30.312 105.44-33.535-0.64453-1.6133-3.5469-3.5469-23.859-3.5469-16.121 0-54.168 0.96875-54.168 0.96875 0.64453 0 74.484-12.574 84.48-15.801 42.562-13.543 48.367-37.402 49.012-47.074 0.64453-11.285-4.5156-19.668-9.6719-21.926-6.4492-2.9023-16.445-6.4492-33.535-6.4492-25.797 0-59.652 7.418-100.92 22.25l-16.445 5.8047 13.863-10.641c0.32422-0.32422 34.18-26.117 62.23-40.305 27.73-14.188 61.906-28.051 80.934-33.535 8.0625-2.2578 23.859-6.125 37.727-6.125 6.7695 0 12.254 0.96875 16.445 2.9023 13.543 6.125 14.832 14.832 14.508 20.637-0.32422 4.8359-2.5781 14.832-4.1914 22.895-0.64453 2.9023-1.2891 5.8047-1.6133 7.7383-0.96875 4.1914-0.96875 8.0625-0.96875 10.316 3.5469-4.1914 6.4492-9.6719 9.0273-15.156 3.2227-6.125 6.125-11.609 9.6719-15.477 8.707-9.3516 20.312-11.609 31.277-5.8047 1.2891 0.64453 2.2578 1.2891 3.2227 1.6133 2.9023 1.6133 4.8359 2.9023 7.0938 2.2578l12.254-2.9023-0.96875 4.1914c0 0.64453-3.8711 14.832-8.0625 23.539-5.1602 11.285-20.637 39.66-36.434 56.105-17.414 18.371-42.562 34.172-70.613 45.137-58.684 22.891-134.46 29.02-139.62 29.664z"/>
 </g>
</svg>
