<?xml version="1.0" encoding="UTF-8"?>
<svg id="Calque_2" data-name="Calque 2" xmlns="http://www.w3.org/2000/svg" viewBox="0 0 124.42 124.42">
  <defs>
    <style>
      .cls-1 {
        fill: #3ca4b5;
      }

      .cls-2 {
        fill: none;
        opacity: .1;
      }
    </style>
  </defs>
  <g id="disques">
    <circle class="cls-2" cx="62.21" cy="62.21" r="62.21" transform="translate(-3.68 120.51) rotate(-86.51)"/>
  </g>
  <g id="trait">
    <g>
      <path class="cls-1" d="m33.9,62.19c0-9.48,4.68-17.85,11.83-22.98-3.37-2.1-5.85-4.15-9.54-7.32-4.73-4.06-15.39-12.49-20.86-8.56-2.53,1.82-3.13,3.9-2.9,11.53.29,9.55,3.1,21.4,15.83,26.02,1.94.7,3.83,1.25,5.65,1.67,0-.12,0-.23,0-.35Z"/>
      <path class="cls-1" d="m33.93,63.21c-2.66.55-5.14,1.97-8.97,5.88-6.84,7-7.19,11.94-9.61,13.41-1.58.96-1.95,2.84-1.52,3.74.42.9,2.22,1.38,3.89-1,1.49-2.12,2.76-3.44,3.7-2.28,1.32,1.63,1.2,8.76,9.15,11.62,3.34,1.2,7.89.63,11.64-3.04,2.04-1.99,3.17-4.07,3.73-6.19-7.02-4.94-11.7-12.99-12.02-22.14Z"/>
      <path class="cls-1" d="m109.02,82.5c-2.42-1.47-2.77-6.42-9.61-13.41-3.83-3.91-6.31-5.33-8.97-5.88-.32,9.16-4.99,17.21-12.01,22.14.56,2.12,1.69,4.2,3.73,6.19,3.76,3.67,8.3,4.24,11.64,3.04,7.95-2.86,7.83-9.99,9.15-11.62.94-1.16,2.21.16,3.7,2.28,1.67,2.38,3.46,1.89,3.89,1,.43-.9.06-2.78-1.52-3.74Z"/>
      <path class="cls-1" d="m109.04,23.33c-5.47-3.94-16.14,4.5-20.86,8.56-3.7,3.18-6.17,5.22-9.54,7.32,7.16,5.14,11.83,13.53,11.83,23.01,0,.11,0,.22,0,.32,1.81-.42,3.7-.96,5.65-1.67,12.73-4.62,15.55-16.48,15.83-26.02.23-7.62-.37-9.71-2.9-11.53Z"/>
      <path class="cls-1" d="m62.2,37.99c13.37,0,24.21,10.85,24.2,24.22,0,13.37-10.85,24.21-24.23,24.2-13.37,0-24.2-10.85-24.2-24.23,0-13.37,10.85-24.2,24.22-24.19Z"/>
    </g>
  </g>
</svg>