<?xml version="1.0" encoding="UTF-8"?>
<svg id="Calque_2" data-name="Calque 2" xmlns="http://www.w3.org/2000/svg" viewBox="0 0 124.42 124.42">
  <defs>
    <style>
      .cls-1 {
        fill: #3ca4b5;
      }

      .cls-2 {
        fill: none;
        opacity: .1;
      }
    </style>
  </defs>
  <g id="disques">
    <circle class="cls-2" cx="62.21" cy="62.21" r="62.21"/>
  </g>
  <g id="trait">
    <g>
      <path class="cls-1" d="m99.05,95.8c5.38-5.97,9.93-19.37,8.2-34.09-1.34-11.42-6.48-24.12-20.38-32.99-6.25-3.99-14.16-6.67-24.41-6.67-.08,0-.17.02-.25.03-.08,0-.17-.03-.25-.03-10.25,0-18.16,2.68-24.41,6.67-13.9,8.87-19.04,21.57-20.38,32.99-1.73,14.72,2.82,28.12,8.2,34.09-4.3,1.63-7.3,4.9-7.16,5.19.06.13,2.58-.31,5.33-.82-2.46,1.73-3.45,3.36-3.32,3.59.13.23,4.48-.88,8.19-1.83-.15.19-.29.37-.41.53-.84,1.15-2.58,4.64-2.26,5,.27.31,7.13-3,9.45-4.02,1.82-.8,4.37-1.8,7.68-1.42,5.19.6,5.69,3.65,6.26,4.07.83.62.94-3.02.97-4.07.05-2.14-.17-5.23-.93-6.22.86-1.04,1.73-2.24,2.49-3.51,1.63.57,3.33,1.02,5.09,1.33,5.58.98,11.07.46,16.06-1.26.76,1.24,1.61,2.42,2.45,3.44-.76.99-.98,4.07-.93,6.22.03,1.06.14,4.7.97,4.07.57-.42,1.07-3.47,6.26-4.07,3.31-.38,5.86.62,7.68,1.42,2.32,1.01,9.17,4.33,9.45,4.02.32-.36-1.42-3.85-2.26-5-.12-.17-.26-.35-.41-.53,3.71.95,8.06,2.06,8.19,1.83.14-.24-.86-1.87-3.32-3.59,2.75.51,5.27.96,5.33.82.14-.29-2.86-3.56-7.16-5.19Zm-36.87-5.35c-15.6,0-28.23-12.66-28.22-28.24.01-15.59,12.66-28.22,28.25-28.22,15.59.01,28.22,12.66,28.22,28.25-.01,15.59-12.66,28.22-28.25,28.21Z"/>
      <path class="cls-1" d="m62.2,38.05c13.35,0,24.16,10.83,24.16,24.18,0,13.35-10.83,24.16-24.18,24.15-13.35,0-24.16-10.83-24.16-24.18,0-13.35,10.83-24.16,24.18-24.15Z"/>
    </g>
  </g>
</svg>