<?xml version="1.0" encoding="UTF-8"?>
<svg width="512pt" height="512pt" version="1.1" viewBox="0 0 512 512" xmlns="http://www.w3.org/2000/svg">
 <g>
  <path d="m256 0c-33.617 0-66.906 6.6211-97.965 19.488-31.062 12.863-59.281 31.719-83.055 55.492-23.773 23.773-42.629 51.992-55.492 83.055-12.867 31.059-19.488 64.348-19.488 97.965 0 67.895 26.973 133.01 74.98 181.02 48.012 48.008 113.12 74.98 181.02 74.98s133.01-26.973 181.02-74.98c48.008-48.008 74.98-113.12 74.98-181.02s-26.973-133.01-74.98-181.02c-48.008-48.008-113.12-74.98-181.02-74.98zm0 28.91c29.492 0 58.695 5.875 85.941 17.289 27.246 11.41 52.004 28.137 72.855 49.227 20.855 21.086 37.395 46.121 48.684 73.672 11.285 27.551 17.094 57.082 17.094 86.902 0 60.227-23.66 117.99-65.777 160.57-42.113 42.59-99.234 66.512-158.8 66.516-29.488 0-58.691-5.875-85.941-17.289-27.246-11.41-52-28.137-72.855-49.227-20.852-21.086-37.395-46.121-48.68-73.672-11.289-27.551-17.098-57.078-17.098-86.902 0-29.82 5.8086-59.352 17.094-86.902 11.289-27.551 27.828-52.586 48.684-73.672 20.852-21.09 45.609-37.816 72.855-49.23 27.25-11.41 56.453-17.285 85.941-17.285z"/>
  <path d="m371.95 312.54 3.2227 1.0742 9.4258-29.535-3.9258-27.273-10.676-20.164-21.871-11.066-37.844 2.1094-50.848-73.82-17.996 1.7539-29.508-16.809-22.57-20.359-0.039062-0.035156-22.18-5.9102-21.508 15.051-11.734 27.973-9.1289 10.039-0.94531 8.8516 5.0586 1.6719 10.469-6.0625 11.078-3.0859-1.5156 4.8359-6.3672 9.0391-12.285-2.4531-7.0469 5.3281 1.1719 6.7617-4.3906 4.8789-0.91406 7.9727 8.6328-1.5 5.7227 9.5156 1.9531-10.504 7.5312 5.4883 4.8438 7.582-15.266 1.1953-6.0352-8.1914-1.6133 8.2344-6.6797-1.2266 7.7461 26.055 18.367 3.125 0.027344 0.007812 14.402-1.1055 26.484-61.867 46.82-19.449-41.09 22.02-78.297 189.42 4.7461 27.406h66.672l-3.4258-18.977-13.172-7.9062 14.551-1.8477 36.203-56.656 1.4219-21.121 7.9062 21.914 10.672 14.23 17.262 11.859 32.543 6.3242 27.277-5.1406 0.79297-23.324 6.3281-20.027v25.301l2.6289 17.918 22.141 40.582-8.4375 16.871h51.129l9.4883-33.734z"/>
 </g>
</svg>
