<?xml version="1.0" encoding="UTF-8"?>
<svg id="Calque_2" data-name="Calque 2" xmlns="http://www.w3.org/2000/svg" viewBox="0 0 124.42 124.42">
  <defs>
    <style>
      .cls-1 {
        fill: #3ca4b5;
      }

      .cls-2 {
        fill: none;
        opacity: .1;
      }
    </style>
  </defs>
  <g id="disques">
    <circle class="cls-2" cx="62.21" cy="62.21" r="62.21" transform="translate(-.35 124.07) rotate(-89.68)"/>
  </g>
  <g id="trait">
    <g>
      <g>
        <path class="cls-1" d="m111.87,41.16c-1.38-3.53-4.74-12.02-15.04-18.86-17.78-11.8-31.42-6.96-35.31-5.33-5.62,2.36-7.29,5.16-.82,3.76,3.23-.7,10.84-2.02,20.93,2.81,10.1,4.83,16.54,16.04,13.49,22.12-1.46,2.92-3.92,4.59-6.8,5.42,1.46,3.42,2.26,7.18,2.26,11.13,0,4.4-1,8.56-2.79,12.27,4.23-.56,8.59-1.87,12.98-4.45,9.67-5.68,15.56-17.5,11.1-28.89Z"/>
        <path class="cls-1" d="m74.07,90.22c-4.09,2.68-13.08,4.54-26.13,1.9-7.19-1.45-20.32-5.19-17.72-15.71.6-2.44,2.42-3.98,5.22-4.68-1.06-2.98-1.65-6.2-1.64-9.54,0-5.51,1.58-10.65,4.3-15-11.05.76-20.44,6.68-25.54,17.53-8.8,18.71,1.92,31.96,10.02,38.2,11.34,8.74,33.82,15.43,39.48,16.29,12.31,1.86,13.67-1.63,12.05-2.47-.95-.49-4.95-.23-13.51-3.04-6.48-2.13-18.03-9.52-17.22-11.34.8-1.81,32.77-4.75,33.74-3.79.97.96,2.15,2.78,3.05-2.12.77-4.23-2.92-8.33-6.09-6.25Z"/>
      </g>
      <path class="cls-1" d="m62.21,37.9c13.43,0,24.3,10.9,24.29,24.32,0,13.43-10.9,24.3-24.32,24.29-13.42,0-24.3-10.9-24.29-24.32,0-13.42,10.9-24.3,24.32-24.29Z"/>
    </g>
  </g>
</svg>