<?xml version="1.0" encoding="UTF-8"?>
<svg width="512pt" height="512pt" version="1.1" viewBox="0 0 512 512" xmlns="http://www.w3.org/2000/svg">
 <g>
  <path d="m256 0c-33.617 0-66.906 6.6211-97.965 19.488-31.062 12.863-59.281 31.719-83.055 55.492-23.773 23.773-42.629 51.992-55.492 83.055-12.867 31.059-19.488 64.348-19.488 97.965 0 67.895 26.973 133.01 74.98 181.02 48.012 48.008 113.12 74.98 181.02 74.98s133.01-26.973 181.02-74.98c48.008-48.008 74.98-113.12 74.98-181.02s-26.973-133.01-74.98-181.02c-48.008-48.008-113.12-74.98-181.02-74.98zm0 28.91c29.492 0 58.695 5.875 85.941 17.289 27.246 11.41 52.004 28.137 72.855 49.227 20.855 21.086 37.395 46.121 48.684 73.672 11.285 27.551 17.094 57.082 17.094 86.902 0 60.227-23.66 117.99-65.777 160.57-42.113 42.59-99.234 66.512-158.8 66.516-29.488 0-58.691-5.875-85.941-17.289-27.246-11.41-52-28.137-72.855-49.227-20.852-21.086-37.395-46.121-48.68-73.672-11.289-27.551-17.098-57.078-17.098-86.902 0-29.82 5.8086-59.352 17.094-86.902 11.289-27.551 27.828-52.586 48.684-73.672 20.852-21.09 45.609-37.816 72.855-49.23 27.25-11.41 56.453-17.285 85.941-17.285z"/>
  <path d="m319.61 198.16c-76.5-33.562-130.38 0.035157-138.3 5.4688-0.43359-2.3984-1.3086-4.582-3.0586-4.5586-3.8711 0.054687-3.6016 1.1133-2.4688 2.8438 0 0 1.293 1.8242 2.3906 3.918-15.676 7.5938-58.875 44.848-67.18 91.016-2.4062 13.352-4.3359 23.395-4.3359 28.332 0 0.87891-0.17578 2.332 1.0586 2.332h8.3398c1.0977 0 1.0352-1.8125 1.0352-1.8125s3.2617-33.387 32.922-50.285c29.664-16.902 56.809-1.7109 56.809-1.7109s32.773 14.871 36.359 52.645c0.066407 0.72266 0.35547 2.1992 1.6523 2.1992h19.34c1.2852 0 1.2852-1.6328 1.2852-2.9297 0-1.293 2.5938-1.4688 2.5938 0s-0.066406 2.9297 0.90234 2.9297h16.43c1.0352 0 0.95312-1.4648 0.95312-2.9297 0-1.4688 3.1055-1.8945 3.1055 0 0 1.8984 0.33984 2.9297 1.1875 2.9297h16.578c2.4102 0 4.1289-5.1523 4.1289-5.1523-0.003906 0 7.5586 5.1523 19.312 5.1523h70.055c4.6562 0 4.6562-4.2266 4.6562-4.2266 0-0.003907-2.7891-89.77-85.746-126.16zm-172.03 57.836c-1.3828 0-2.5-1.1211-2.5-2.5039 0-1.3789 1.1172-2.5039 2.5-2.5039 1.3789 0 2.5039 1.1211 2.5039 2.5039-0.003906 1.3828-1.1289 2.5039-2.5039 2.5039zm46.391-41.625s-5.1758 1.0352-2.7578 0c2.4141-1.0352 2.0703-9.832 2.0703-9.832-0.007812-2.0703 0.34375-3.1055 3.625-1.0312 3.2734 2.0703-2.9375 10.863-2.9375 10.863z"/>
 </g>
</svg>
