<?xml version="1.0" encoding="UTF-8"?>
<svg width="512pt" height="512pt" version="1.1" viewBox="0 0 512 512" xmlns="http://www.w3.org/2000/svg">
 <g>
  <path d="m256 0c-33.617 0-66.906 6.6211-97.965 19.488-31.062 12.863-59.281 31.719-83.055 55.492-23.773 23.773-42.629 51.992-55.492 83.055-12.867 31.059-19.488 64.348-19.488 97.965 0 67.895 26.973 133.01 74.98 181.02 48.012 48.008 113.12 74.98 181.02 74.98s133.01-26.973 181.02-74.98c48.008-48.008 74.98-113.12 74.98-181.02s-26.973-133.01-74.98-181.02c-48.008-48.008-113.12-74.98-181.02-74.98zm0 28.91c29.492 0 58.695 5.875 85.941 17.289 27.246 11.41 52.004 28.137 72.855 49.227 20.855 21.086 37.395 46.121 48.684 73.672 11.285 27.551 17.094 57.082 17.094 86.902 0 60.227-23.66 117.99-65.777 160.57-42.113 42.59-99.234 66.512-158.8 66.516-29.488 0-58.691-5.875-85.941-17.289-27.246-11.41-52-28.137-72.855-49.227-20.852-21.086-37.395-46.121-48.68-73.672-11.289-27.551-17.098-57.078-17.098-86.902 0-29.82 5.8086-59.352 17.094-86.902 11.289-27.551 27.828-52.586 48.684-73.672 20.852-21.09 45.609-37.816 72.855-49.23 27.25-11.41 56.453-17.285 85.941-17.285z"/>
  <path d="m381.66 344.14c0.15234-8.2656-15.527-10.906-21.344-14.203-6.0547-3.4297-9.8242-7.9688-14.371-12.965-2.5156-2.7617-15.488-8.6797-16.02-9.8203-5.0117-10.699-0.375-23.707-0.47266-34.984-0.066407-8.2812-0.93359-19.031-5.9961-25.926-2.1758-2.9648-10.719-8.6602-10.324-11.949 0.91406-7.6172 15.004-16.621 19.895-22.754 10.797-13.551 17.355-29.184 18.445-46.508 1.9688-31.48-22.234-59.246-54.867-53.641-29.668 5.1016-44.07 35.484-50.621 61.797-3.1797 12.773-3.1055 26.168-3.9844 39.246-0.59375 8.7773 2.7461 23.492-6.2266 25.602-12.477 2.9297-25.297 3.3633-37.449 7.918-13.824 5.1836-14.227-0.76953-21.918-10.184-13.266-16.227-47.031 3.125-42.621 18.348-3.9922 4.1289-5.2812 9.9609-3.3164 15.281 2.7227 7.3633 17.539 3.1211 23.594 4.7109 6.25 1.6445 4.1992 13.16 6.0312 18.609 2.3711 7.0625 12.922 17.973 9.9805 26.207 1.8242 15.141-0.53906 33.496-3.1289 48.395-0.77344 4.4609-1.8125 12.82-6.4219 15.422-1.4062 0.79297-22.973 1.8984-18.879 7.4922 1.8555 2.5312 18.141 1.3281 20.082 1.125 8.1953-0.875 13.367-6.7617 16.281-14.379 6.6562-17.398 13.785-41.414 12.289-59.988 7.0664 5.457 17.664 7.7109 20.375 16.398 2.9766 9.5352 7.8594 18.051 10.371 27.879 2.0312 7.9531 7.5977 16.895 7.5977 24.945 0 9.707-15.875 3.832-14.699 9.8086 0.48047 2.4492 15.672 3.1523 16.754 3.1523 10.367 0 12.387-16.969 10.004-25.129-1.8008-20.598-3.4258-43.863-14.398-61.484 8.0938 0.070313 16.242-1.6523 23.727-4.6836 6.418-2.6016 12.391-6.2695 17.551-10.895 2.6875-2.4102 10.91-16.215 14.07-15.762 1.2617 0.18359-12.586 25.004-14.156 27.938-5.3828 10.07 3.3633 27.238 6.9922 36.906 2.9102 6.7695 17.109 20.582 17.109 27.488-0.003906 5.0977-11.309 2.8164-13.16 1.9688-5.1406-2.3359-6.1367 3.8203-9.6875 3.0742-13.168-2.7695-15.328 5.6758-4.7656 7.8555 9.3906 1.9336 27.207 1.6094 36.434-1.6445 30.273-10.68-23.789-55.762 0.10938-75.023 6.8672 16.535 24.039 24.746 38.699 33.582 10.492 6.3281 45.715 9.625 24.656 31.031-3.457 3.5156-13.828-2.3203-14.816 6.1133-0.52734 4.5078 14.973 4.1289 16.266 3.5 5.1758-2.5938 13.809 3.8867 13.156-4.9727-0.86719-11.684 4.5547-23.195 3.1758-34.898zm-247.55-89.039 0.011719 0.035156zm172.21-39.473c-18.461 8.7617-36.008 14.273-55.938 19.109 1.6719-10.117-1.2422-21.168 0-31.574 3.6562-9.7891 4.168-23.566 6.2695-33.941 4.8203-23.797 17.805-42.828 41.996-49.383 27.473-7.4492 40.512 20.562 41.973 42.113 1.4336 21.254-18.031 42.676-34.301 53.676z"/>
 </g>
</svg>
