<?xml version="1.0" encoding="UTF-8"?>
<svg width="512pt" height="512pt" version="1.1" viewBox="0 0 512 512" xmlns="http://www.w3.org/2000/svg">
 <defs>
  <clipPath id="a">
   <path d="m186 94.781h140v322.44h-140z"/>
  </clipPath>
 </defs>
 <path d="m256 0c-33.617 0-66.906 6.6211-97.965 19.488-31.062 12.863-59.281 31.719-83.055 55.492-23.773 23.773-42.629 51.992-55.492 83.055-12.867 31.059-19.488 64.348-19.488 97.965 0 67.895 26.973 133.01 74.98 181.02 48.012 48.008 113.12 74.98 181.02 74.98s133.01-26.973 181.02-74.98c48.008-48.008 74.98-113.12 74.98-181.02s-26.973-133.01-74.98-181.02c-48.008-48.008-113.12-74.98-181.02-74.98zm0 28.91c29.492 0 58.695 5.875 85.941 17.289 27.246 11.41 52.004 28.137 72.855 49.227 20.855 21.086 37.395 46.121 48.684 73.672 11.285 27.551 17.094 57.082 17.094 86.902 0 60.227-23.66 117.99-65.777 160.57-42.113 42.59-99.234 66.512-158.8 66.516-29.488 0-58.691-5.875-85.941-17.289-27.246-11.41-52-28.137-72.855-49.227-20.852-21.086-37.395-46.121-48.68-73.672-11.289-27.551-17.098-57.078-17.098-86.902 0-29.82 5.8086-59.352 17.094-86.902 11.289-27.551 27.828-52.586 48.684-73.672 20.852-21.09 45.609-37.816 72.855-49.23 27.25-11.41 56.453-17.285 85.941-17.285z"/>
 <g clip-path="url(#a)">
  <path d="m315.8 383.25c0.24219-1.6484 0.47656-3.6875 0.55078-5.1211 0.32422-6.3438-1.4336-11.227-4.0664-17.316-5.3086-12.293-11.32-20.691-20.219-30.496-10.57-11.656-20.168-23.102-23.77-38.977-0.5625-2.5039-1.6055-8.043-0.57031-10.582 1.0391-2.5391 4.5664-3.6992 6.1328-5.832 2.0312-2.7617 2.0312-5.7305 2.793-8.9102 0.73437-3.0938 2.6484-5.6289 3.5078-8.4492 0.91406-2.9766-0.34766-7.6289 1.4883-10.066 1.5547-2.0547 7.207-4.4414 9.5078-5.6953 11.848-6.418 9.6367 4.3906 6.293 12.277 7.2773 0.60156 20.496-13.012 23.598-18.973 4.9648-9.543 4.5586-24.941 4.0273-35.629-0.23437-4.6523-0.41406-11.336-4.9805-13.867-3.9883 4.5117-6.8125 12.703-12.844 14.855-7.2578 2.5938-5.7969-5.9492-3.8242-10.688 2.168-5.1641 6.2617-10.039 7.7617-15.629 1.3633-5.0703 0.23828-11.254 0.52734-16.703 0.36328-6.8203 1.3555-14.27 1.5938-20.812-0.96875 0.70703-2.8906 0.91406-3.8555 1.5586-0.75391-2.082-1.4258-7.25-3.4258-8.7266-2.3125-1.707-5.8828 0.10938-8.4375-1.3008-5-2.7695-6.0039-9.0078-1.0977-12.082-8.8047 1.2461-15.922 0.99219-24.27-3.0234-6.4688-3.1133-19.703-9.7266-18.484-18.145-5.8398-0.86328-8.3945 2.1758-11.77 6.4688-3.2891 4.1875-2.7656 5.9766-4.3047 10.762-1.7227 5.3789-3.3828 5.1055-7.957 7.5859-3.3164 1.8008-5.0508 4.0078-6.6641 7.9297-3.1758 7.7266-5.125 15.918-12.602 20.742-5.7969 3.7422-18.172 6.5547-22.156 12.113-2.3477 3.2773-2.7969 12.945 2.5117 13.527 2.7461 0.30078 7.9336-4.5312 10.668-5.7539 6.8711-3.0742 17.039-8.1094 24.492-7.1914 5.3398 0.65625 6.8516 3.832 12.234 1.1875 3.2422-1.5977 5.4219-6.8633 8.5-7.7773 4.8516-1.4336 5.2695 3.7383 10 1.1914 3.5117-1.8906 4.6992-6.9492 8.4688-8.9141 9.293-4.8477 14.371 6.5469 9.8633 13.738-5.0625 8.082-16.426 9.8672-23.973 14.25-8.3398 4.8398-12.969 10.527-14.477 19.727-0.74219 4.5039 1.7305 8.9375 0.71484 12.773-0.99219 3.7422-4.1641 5.4531-4.6133 10.016-0.96875 9.8203 1.8711 17.691 4.0586 26.738 1.7812 7.3594 4.7188 18.539 2.6211 25.609-2.625 8.8359-5.2305 15.73-2.8203 24.961 1.8906 7.25 6.4531 12.824 12.422 16.594 13.031 8.2305 21.172 21.449 32.262 32.344 6.1055 5.9961 9.4102 11.031 14.477 17.598 7.1875 9.3203 8.3828 17.797 4.9258 29.289-1.0977 3.6719-1.8398 7.8242-4.2773 10.941-1.8555-2.7578-0.24219-7.1953-4.6445-8.168-3.6484-0.80078-8.9688-0.14844-11.484 2.2188-4.4062 4.1406-4.043 15.902 1.5039 19.238 16.855 10.129 28.633-12.965 29.289-14.918 0.76953-2.2695 1.0977-2.5781 2.2539-6.2383 1.3125-4.1484 1.625-4.5938 1.8672-6.6641"/>
 </g>
</svg>
