<?xml version="1.0" encoding="UTF-8"?>
<svg id="Calque_2" data-name="Calque 2" xmlns="http://www.w3.org/2000/svg" viewBox="0 0 124.42 124.42">
  <defs>
    <style>
      .cls-1 {
        fill: #3ca4b5;
      }

      .cls-2 {
        fill: none;
        opacity: .1;
      }
    </style>
  </defs>
  <g id="disques">
    <circle class="cls-2" cx="62.21" cy="62.21" r="62.21"/>
  </g>
  <g id="trait">
    <g>
      <path class="cls-1" d="m33.98,62.21c0-11.07,6.37-20.63,15.63-25.27-3.57-4.24-8.6-7.3-14.49-8.33-13.32-2.34-26.02,6.57-28.36,19.89-2.34,13.33,6.57,26.02,19.89,28.36,3.81.67,7.57.41,11.06-.6-2.37-4.14-3.74-8.94-3.74-14.05Z"/>
      <path class="cls-1" d="m62.28,33.94c5.06,0,9.79,1.34,13.9,3.67,1.47-4.35,4.17-8.04,7.63-10.73-1.61-5.41-6.15-9.73-12.09-10.77-8.37-1.47-16.35,4.13-17.81,12.49-.39,2.25-.27,4.46.26,6.53,2.57-.77,5.29-1.19,8.11-1.19Z"/>
      <path class="cls-1" d="m101.31,25.62c-9.97-1.75-19.49,4.35-22.25,13.85,6.97,5.15,11.49,13.43,11.49,22.77,0,.32-.01.63-.02.94,1.27.51,2.6.91,4,1.15,10.69,1.88,20.88-5.27,22.75-15.96,1.87-10.69-5.27-20.88-15.96-22.75Z"/>
      <path class="cls-1" d="m62.27,38.01c13.37,0,24.2,10.85,24.2,24.22,0,13.37-10.85,24.2-24.22,24.19-13.37,0-24.2-10.85-24.2-24.22,0-13.37,10.85-24.2,24.22-24.19Z"/>
    </g>
  </g>
</svg>