<?xml version="1.0" encoding="UTF-8"?>
<svg width="512pt" height="512pt" version="1.1" viewBox="0 0 512 512" xmlns="http://www.w3.org/2000/svg">
 <g>
  <path d="m256 0c-33.617 0-66.906 6.6211-97.965 19.488-31.062 12.863-59.281 31.719-83.055 55.492-23.773 23.773-42.629 51.992-55.492 83.055-12.867 31.059-19.488 64.348-19.488 97.965 0 67.895 26.973 133.01 74.98 181.02 48.012 48.008 113.12 74.98 181.02 74.98s133.01-26.973 181.02-74.98c48.008-48.008 74.98-113.12 74.98-181.02s-26.973-133.01-74.98-181.02c-48.008-48.008-113.12-74.98-181.02-74.98zm0 28.91c29.492 0 58.695 5.875 85.941 17.289 27.246 11.41 52.004 28.137 72.855 49.227 20.855 21.086 37.395 46.121 48.684 73.672 11.285 27.551 17.094 57.082 17.094 86.902 0 60.227-23.66 117.99-65.777 160.57-42.113 42.59-99.234 66.512-158.8 66.516-29.488 0-58.691-5.875-85.941-17.289-27.246-11.41-52-28.137-72.855-49.227-20.852-21.086-37.395-46.121-48.68-73.672-11.289-27.551-17.098-57.078-17.098-86.902 0-29.82 5.8086-59.352 17.094-86.902 11.289-27.551 27.828-52.586 48.684-73.672 20.852-21.09 45.609-37.816 72.855-49.23 27.25-11.41 56.453-17.285 85.941-17.285z"/>
  <path d="m246.49 290.46c-2.4961 0.52344-5.1562 1.2852-8.0117 2.4023-17.984 7.0469-38.914 5.6523-53.582-15.492l0.98438-3.0078c1.2969-4.0391 2.4844-8.5 3.8867-14.457 0.050781-0.050781 0.10156-0.15234 0.10156-0.20703v-0.10156l-0.003907-0.050781c0.054688-0.10156 0.054688-0.20703 0.054688-0.30859 0-0.88281-0.62109-1.707-1.5039-1.918-1.0352-0.26172-2.0703 0.41406-2.332 1.4492-1.1914 5.0234-2.4375 9.8438-3.8906 14.453l-1.6055 4.9766c-1.4492 4.0469-3.0078 7.7773-4.7656 11.195-0.47266 0.87891-1.0352 1.6641-1.7656 2.3867-8.5 8.8047-11.352 20.312-8.5 34.609l2.125 11.297c0.21094 1.2461 0.98437 2.2812 1.9688 3.0586 2.6055 2.0781 4.4922 4.8672 5.8672 8.2109 0.14453 0.35938-0.12109 0.75391-0.51562 0.75391h-13.055c-0.23047 0-0.42969-0.14453-0.51172-0.35547-0.875-2.2266-2.5547-4.125-5.3125-5.5508-1.6055-0.77734-2.5391-2.4375-2.6445-4.1953-0.92969-13.16-4.1953-26.223-9.5352-39.227-0.77344-1.8633-0.87891-3.9883-0.35938-5.957 1.8164-6.7383 2.4844-13.113 1.0859-18.867-0.15234-0.72656-0.51562-1.3945-0.98438-2.0195-13.734-18.965-19.066-38.352-17.668-58.094l0.77344-5.6992c-4.4062 3.4727-5.3867 10.574-6.4219 21.039-0.66016 7.207-1.4922 15.234-4.2422 22.957-0.51562 1.4492-2.1719 2.1797-3.5742 1.6055-1.293-0.56641-1.9688-2.0703-1.5039-3.3633 2.5391-7.1523 3.3164-14.875 3.9922-21.766 1.1914-11.973 2.332-23.266 12.645-27.152 42.238-11.629 82.094-21.508 117.79-28.379-3.4766 9.043 1.3281 15.34 6.0781 21.422 2.1719 2.7695 4.4062 5.6406 6.4297 9.1641 1.4336 2.5039 0.78516 3.9844-2.8555 9.7969-0.78125 1.2422-1.6172 2.582-2.4805 4.0547-8.332 14.266-25.098 49.18-6.1523 71.336zm150.86-7.9062-1.4492 6.4766c-0.46484 1.8672-2.125 3.2109-4.043 3.2109h-3.3633c-0.57812 0-1.0938 0.058593-1.6133 0.26172l-6.8398 2.1758c-1.293 0.41406-2.1719 1.5039-2.4336 2.7969-1.4023 7.1016-4.6133 12.074-8.4961 13.781-0.51953 0.26172-1.0938-0.10156-1.3008-0.61719-3.832-11.457-13.477-19.691-20.469-28.398-2.75-3.3711-5.0273-6.7891-6.4219-10.52-0.20703-1.0352-1.2461-1.7656-2.2812-1.5547-0.93359 0.20312-1.6055 1.0352-1.6055 1.918 0 0.10547 0.054688 0.25781 0.054688 0.35937v0.050782c0.054687 0.20703 0.10156 0.41797 0.20312 0.57031 1.3477 3.5781 3.4258 7.1016 6.5312 10.984-13.477 6.7891-26.422 12.848-38.5 17.359-6.3242 4.7695-9.3789 11.555-10.414 19.539 2.1836 23.43 11.188 18.473 13.383 28.078 0.082031 0.34375-0.17969 0.67969-0.53516 0.67969h-17.402c-0.25 0-0.46484-0.16797-0.52734-0.40234-2.3164-8.1641-8.8359-10.391-11.965-19.91-5.9023-2.4844-9.1172-5.7539-8.4414-10.109-2.75-2.8516-4.2031-5.957-2.8008-9.5859-3.2109-2.4844-5.2305-5.5938-3.0039-10.934l2.2812-7.0977 10.004-31.098c0.3125-1.0352-0.25781-2.125-1.2461-2.4297-1.0352-0.35938-2.125 0.20312-2.4844 1.2461l-9.9492 31.039v0.050781c-2.9805-0.73828-6.75-1.1367-11.219-0.70312l-0.015625-0.015626c-20.559-21.027-1.293-57.887 5.0117-68.676 4.6289-7.9297 8.6758-11.926 5.3477-17.742-7.3672-12.859-17.676-17.762-11.266-29.555 3.1602-4.6133 7.2031-7.4102 13.523-5.6484 3.6836-2.0742 7.0508-2.7969 9.793 0 2.5391-2.1719 5.1328-3.2617 7.7734-1.293 3.5234-2.2266 7.1992-2.9023 10.883-2.4844 2.4336-2.4336 6.375-2.6406 11.609-0.82812 5.1797-2.0195 9.4844-1.5547 12.699 1.2969 4.25-0.87891 6.6328 0.72656 8.1328 3.4727 3.6836-0.054687 6.375 1.2969 7.9297 4.1484 2.8555 0.41406 4.7695 1.9141 5.6523 4.6133 3.0039 1.5508 4.6602 3.8867 5.5938 6.6328 1.9688 1.1406 3.3672 2.9023 3.4727 6.1133 1.7617 0.98438 2.8984 2.7461 3.4688 5.1289 2.5938 2.1758 3.9375 4.8164 3.9883 7.9258 3.1094-0.26172 4.8711 1.1406 5.2891 4.1445 2.5391-0.98437 4.8164-0.41406 6.7891 2.3359 3.1602-0.98438 5.4922-0.67578 6.9414 0.98828 3.0586-0.67578 6.0625-0.21094 8.9141 1.3438 3.9844-0.72656 6.4727 0.054688 7.6172 2.125 2.4844 1.5547 3.9375 3.4727 4.2969 5.8047 2.7969 1.0859 3.8867 3.1094 2.9023 6.2695 1.2461 3.0039 0.26172 4.8203-2.1758 5.957 6.9414 12.273 7.9258 28.957 2.1758 50.723zm-14.328-39.25c2.1055-3.3516 1.9062-14.711-4.3125-22.375-0.41406-0.51172-1.2461-0.17578-1.3008 0.48047-1.0039 11.289-8.8203 12.723-8.7461 18.469-7.3867-3.2695-15.469-3.2148-18.316 0.71094-2.1641 2.9766-2.1875 8.5117 9.9805 17.98 0.35156 0.27344 0.77344 0.41016 1.1953 0.41016 0.57422 0 1.1484-0.26172 1.5312-0.75 0.66016-0.85156 0.50781-2.0703-0.33984-2.7266-8.1172-6.3203-10.484-10.891-9.2188-12.629 1.7656-2.4258 10.277-2.2344 17.422 2.6133 0.027343 0.015625 0.0625 0.019531 0.089843 0.035157 6.2148 5.2891 10.5-0.14844 12.016-2.2188zm5.1094 18.277c0-2.3477-1.9023-4.2422-4.2422-4.2422-2.3477 0-4.2422 1.8984-4.2422 4.2422s1.8984 4.2383 4.2422 4.2383c2.3438 0.003907 4.2422-1.8906 4.2422-4.2383z"/>
 </g>
</svg>
