<?xml version="1.0" encoding="UTF-8"?>
<svg width="512pt" height="512pt" version="1.1" viewBox="0 0 512 512" xmlns="http://www.w3.org/2000/svg">
 <g>
  <path d="m256 0c-33.617 0-66.906 6.6211-97.965 19.488-31.062 12.863-59.281 31.719-83.055 55.492-23.773 23.773-42.629 51.992-55.492 83.055-12.867 31.059-19.488 64.348-19.488 97.965 0 67.895 26.973 133.01 74.98 181.02 48.012 48.008 113.12 74.98 181.02 74.98s133.01-26.973 181.02-74.98c48.008-48.008 74.98-113.12 74.98-181.02s-26.973-133.01-74.98-181.02c-48.008-48.008-113.12-74.98-181.02-74.98zm0 28.91c29.492 0 58.695 5.875 85.941 17.289 27.246 11.41 52.004 28.137 72.855 49.227 20.855 21.086 37.395 46.121 48.684 73.672 11.285 27.551 17.094 57.082 17.094 86.902 0 60.227-23.66 117.99-65.777 160.57-42.113 42.59-99.234 66.512-158.8 66.516-29.488 0-58.691-5.875-85.941-17.289-27.246-11.41-52-28.137-72.855-49.227-20.852-21.086-37.395-46.121-48.68-73.672-11.289-27.551-17.098-57.078-17.098-86.902 0-29.82 5.8086-59.352 17.094-86.902 11.289-27.551 27.828-52.586 48.684-73.672 20.852-21.09 45.609-37.816 72.855-49.23 27.25-11.41 56.453-17.285 85.941-17.285z"/>
  <path d="m155.37 107.68c3.6094 3.2227 2.9336 6.9961 4.1289 10.027 1.3203 3.3867 2.3555 6.8984 3.6758 10.254 1.2891 3.1914 2.707 6.3516 4.2578 9.4492 1.5469 3.0625 3.2891 5.9961 4.9961 9.0938 2.1289-0.48438 3.8711-0.83984 5.6094-1.2891 6.4492-1.6758 12.285-0.25781 17.605 3.5156 9.2852 6.6094 17.703 14.121 23.73 23.859 4.9336 7.9648 4.6445 16.605 1.5156 25.246-0.54688 1.5156-1.3867 2.9648-2.0625 4.3867 3.4492 10.223 6.0625 20.441 6.125 31.34 0.097656 12.93-2.8047 24.762-9.2852 35.984-11.738 20.312-12.961 41.691-5.6445 63.746 0.87109 2.5781 1.9023 5.125 3.2578 7.4805 4.1602 7.3516 9.8672 9.6406 17.961 7.3516 7.3516-2.0977 13.543-6.2227 18.992-11.445 6.4492-6.1602 11.316-13.477 13.574-22.086 3.2578-12.477 5.7734-25.184 8.8008-37.727 2.8047-11.672 5.1602-23.504 8.9961-34.855 7.5469-22.281 24.762-33.598 47.172-35.758 16.832-1.6133 26.375 4.8047 33.438 18.539 3.6094 7.0273 2.8711 14.508 1.8711 21.957-1.3555 9.9961-4.418 19.539-8.5781 28.664-5.0938 11.188-8.2852 22.988-10.383 34.984-2.2266 12.703-0.93359 25.473 3.0312 37.789 1.9336 5.9648 6.2891 10.543 10.93 14.77 1.5469 1.418 2.9336 3.0312 4.418 4.5469-0.12891 0.38672-0.28906 0.77344-0.41797 1.1602-1.0312 0-2.2891 0.38672-3.0625-0.066406-14.992-8.8359-25.73-21.184-30.793-38.047-2.3867-7.8672-1.707-15.992-0.28906-23.828 1.7422-9.6406 4.3867-19.121 6.6758-28.664 1.3555-5.6445 3.2891-11.223 4.0938-16.961 0.58203-4.0312 0.19531-8.3828-0.61328-12.414-1.1602-5.8359-5.4805-8.3203-11.383-7.4492-6.8047 1.0312-12.156 4.6445-16.801 9.4805-5.6758 5.9648-9.3828 13.156-10.867 21.121-2.2578 12.156-3.7734 24.441-5.6445 36.66-1.8047 12.059-3.2578 24.184-5.5781 36.113-4.9336 25.602-31.309 47.883-49.527 52.559-9.9648 2.5469-19.41 2.1289-28.762-2.0977-9.5117-4.2891-17.281-10.703-23.473-19.09-12.961-17.508-18.41-37.242-18.152-58.91 0.22656-20.152 6.6406-38.598 14.445-56.75 3.0938-7.1914 6.3828-14.285 9.2227-21.602 1.418-3.707 2.4492-7.6758 2.8359-11.609 0.64453-6.1914-2.7422-9.4805-8.8672-9.4492-2 0-4 0-5.9961-0.03125-8.3828-0.16016-13.992-4.5469-17.539-11.801-2.9336-5.9961-4.1289-12.543-3.9648-19.09 0.25781-8.707 1.1289-17.41 2.0977-26.086 0.58203-5.0625 3.3516-9.1562 8.125-12.445-2.6445-3.9023-5.0938-7.6758-7.7383-11.285-3.3203-4.5469-6.8984-8.9297-10.254-13.477-1.0977-1.4844-2.9023-2.9023-1.2891-6.0625 2.5781 2.9336 4.8359 5.4805 7.6406 8.6406-0.38672-6.3516-3.418-11.637-2.2578-18.344z"/>
 </g>
</svg>
