<?xml version="1.0" encoding="UTF-8"?>
<svg id="Calque_2" data-name="Calque 2" xmlns="http://www.w3.org/2000/svg" viewBox="0 0 124.42 124.42">
  <defs>
    <style>
      .cls-1 {
        fill: #3ca4b5;
      }

      .cls-2 {
        fill: none;
        opacity: .1;
      }
    </style>
  </defs>
  <g id="disques">
    <path class="cls-2" d="m124.42,62.21c0,34.36-27.85,62.21-62.21,62.21S0,96.57,0,62.21,27.85,0,62.21,0s62.21,27.85,62.21,62.21Z"/>
  </g>
  <g id="trait">
    <path class="cls-1" d="m62.2,37.9c13.43,0,24.3,10.9,24.3,24.32,0,13.43-10.9,24.3-24.32,24.29-13.42,0-24.3-10.9-24.29-24.32,0-13.42,10.9-24.3,24.32-24.29Z"/>
    <path class="cls-1" d="m99.21,46.72c-3.09-7.69-3.83-15.85-4.81-16.84-.99-.98-9.12-1.67-16.73-4.77-7.61-3.1-14.69-8.62-15.59-8.62-.61,0-8.24,5.59-16.04,8.81-7.79,3.22-15.76,4.05-16.28,4.58-.53.53-1.49,8.79-4.73,16.64-3.18,7.69-8.66,14.96-8.66,15.68s5.39,7.79,8.53,15.36c3.3,7.97,4.35,16.45,4.86,16.95.5.5,8.33,1.28,16.21,4.55,7.65,3.17,15.35,8.84,16.11,8.84s7.75-5.36,15.57-8.61c7.71-3.21,16.28-4.31,16.75-4.78.5-.5,1.46-8.65,4.84-16.91,3.03-7.37,8.55-14.95,8.55-15.41,0-.49-5.46-7.75-8.57-15.48Zm-37.03,43.96c-15.68,0-28.39-12.73-28.38-28.41.01-15.68,12.73-28.39,28.41-28.38,15.68.01,28.38,12.73,28.37,28.41-.01,15.68-12.73,28.39-28.41,28.38Z"/>
  </g>
</svg>