<?xml version="1.0" encoding="UTF-8"?>
<svg width="512pt" height="512pt" version="1.1" viewBox="0 0 512 512" xmlns="http://www.w3.org/2000/svg">
	<g>
		<path d="m256 0c-33.617 0-66.906 6.6211-97.965 19.488-31.062 12.863-59.281 31.719-83.055 55.492-23.773 23.773-42.629 51.992-55.492 83.055-12.867 31.059-19.488 64.348-19.488 97.965 0 67.895 26.973 133.01 74.98 181.02 48.012 48.008 113.12 74.98 181.02 74.98s133.01-26.973 181.02-74.98c48.008-48.008 74.98-113.12 74.98-181.02s-26.973-133.01-74.98-181.02c-48.008-48.008-113.12-74.98-181.02-74.98zm0 28.91c29.492 0 58.695 5.875 85.941 17.289 27.246 11.41 52.004 28.137 72.855 49.227 20.855 21.086 37.395 46.121 48.684 73.672 11.285 27.551 17.094 57.082 17.094 86.902 0 60.227-23.66 117.99-65.777 160.57-42.113 42.59-99.234 66.512-158.8 66.516-29.488 0-58.691-5.875-85.941-17.289-27.246-11.41-52-28.137-72.855-49.227-20.852-21.086-37.395-46.121-48.68-73.672-11.289-27.551-17.098-57.078-17.098-86.902 0-29.82 5.8086-59.352 17.094-86.902 11.289-27.551 27.828-52.586 48.684-73.672 20.852-21.09 45.609-37.816 72.855-49.23 27.25-11.41 56.453-17.285 85.941-17.285z" />
		<path d="m358.32 289.09c-0.57812-1.418-1.9531-2.3438-3.4805-2.3516-1.5312-0.003907-2.9141 0.91016-3.5039 2.3203-0.039062 0.097656-3.5781 8.3555-11.98 18.418v-0.082031h0.003907c0.011719-1.0117-0.37891-1.9844-1.0859-2.707-0.70312-0.72266-1.668-1.1328-2.6797-1.1406-0.68359 0-2.4805-0.015625-5.2773 0.019531 0.91797-2.0781 1.3633-3.4062 1.4141-3.5703 0.62891-1.9766-0.44922-4.0898-2.4219-4.7383-1.9688-0.64453-4.0938 0.41797-4.7578 2.3828-0.77344 2.1055-1.7031 4.1523-2.7773 6.125-3.8711 0.12891-7.8984 0.32422-11.965 0.53906v-0.070313c0.35547-2.0586-1.0234-4.0156-3.0781-4.3711-2.0586-0.35547-4.0117 1.0234-4.3711 3.082-0.13281 0.63281-0.29688 1.2578-0.49609 1.8711-2.6016 0.18359-5.2383 0.38672-7.8633 0.60547 0.10547-0.48047 0.19922-0.96875 0.28516-1.4453 17.27-9.1289 27.945-16.57 28.051-16.648l-0.003906 0.003907c1.5977-1.2344 1.9453-3.5078 0.78516-5.1602-1.1562-1.6523-3.4102-2.1055-5.1133-1.0234-0.085938 0.0625-8.6641 6.0586-23.18 13.973-0.25391-3.6211-1.0469-5.7305-1.1445-5.9766-0.76172-1.9453-2.9531-2.9062-4.8984-2.1445-1.9453 0.75781-2.9062 2.9531-2.1445 4.8984 0 0.027344 0.92969 2.6289 0.64453 7.2148-3.2773 1.6836-6.6289 3.3438-9.9961 4.9375l-0.14062-0.050782c-1.0469-14.438-1.2266-24.559-0.51953-29.285 1.0234-6.8242 0.48047-7.543-0.84375-8.5156-0.43359-0.29297-0.79688-0.67188-1.0742-1.1094-1.6719-2.5938-7.8711-13.645-8.8516-15.871-0.83203-1.8906-2.3867-5.6289-3.1914-7.8555 7.1094 2.8164 12.793 4.875 16.91 6.125 16.121 4.8906 35.312 9.543 48.922 11.852 1.0117 0.17188 1.7656-0.027344 2.2266-0.58203 0.61328-0.74609 0.58203-1.9961-0.10156-3.8242-4.9688-13.289-47.652-61.957-76.785-66.812-15.031-2.5039-23.184-6.0117-25.656-11.02-2.4414-4.9531 0.85547-11.137 4.6719-18.297 1.6484-3.0859 3.3555-6.3125 4.7734-9.7109 0.15234-0.41797 3.6523-10.316 0.30469-16.582-1.2422-2.3242-3.2617-3.8711-6.0117-4.543-3.7188-0.93359-6.9062-0.42578-9.4844 1.4922-5.6445 4.1914-6.4492 13.707-6.5273 15.078-2.0547 3.8086-3.7109 6.625-5.1758 9.1172-0.66016 1.125-1.2891 2.2031-1.9336 3.2969-7.6602 13.352-8.8477 18.215-9.0273 19.109l-0.42969 2.1602 1.543-1.5703c0.085938-0.085938 8.5078-8.6875 14.188-16.426 2.9023-3.9727 5.2539-6.5312 7.2227-8.3555l-1.0781 1.3945c-3.5156 4.5898-11.52 18.598-12.41 30.34-0.089843 1.2891-2.0273 31.68 16.168 41.688 0.042969 0.019531 4.1914 1.8984 10.242 4.5469 5.8984 6.6328 9.7422 11.777 10.832 14.508 0.64453 1.6445 1.2891 2.9766 1.832 4.1523 1.3711 2.9219 2.3555 5.0352 2.6719 9.3008 0.51562 6.9531 0.85938 18.254 0.019531 21.625l-0.003906 0.003906c-0.37891 1.4531-0.48828 2.9609-0.32422 4.4531 0.14062 1.5703 0.089844 3.1523-0.14844 4.7109-0.16016 1.1484-0.44531 3.9414-0.80078 7.4766-0.25391 2.5078-0.54687 5.4219-0.87109 8.4492-3.6289-0.19531-7.25-0.26563-10.758-0.20703l0.003906 0.003906c-3.25-2.543-6.3672-5.2539-9.3359-8.1211-0.69531-0.72266-1.6523-1.1367-2.6562-1.1484h-0.058594c-1.5195 0-2.8867 0.91016-3.4805 2.3086s-0.28906 3.0156 0.76563 4.1055c0 0 1.3047 1.3203 3.668 3.4297-1.0234 0.085938-2.0156 0.17969-2.9648 0.28516-9.2422 0.96094-18.387 2.6953-27.336 5.1914-13.934-3.2812-23.441-6.5625-23.539-6.5977-1.9727-0.67969-4.1211 0.36328-4.8086 2.332-0.12891 0.35547-0.19922 0.73047-0.21094 1.1094-5.1992-7.0352-7.1758-12.668-7.2109-12.77-0.66016-1.9805-2.8047-3.0469-4.7812-2.3867-1.9805 0.66406-3.0469 2.8047-2.3867 4.7852 0.16406 0.50391 4.043 11.867 15.305 23.125-13.191-3.6133-20.742-6.5938-20.82-6.625-0.92969-0.37109-1.9727-0.35938-2.8945 0.039062-0.91797 0.39453-1.6445 1.1406-2.0156 2.0703-0.76953 1.9414 0.17188 4.1367 2.1094 4.9141 0.46094 0.17969 11.117 4.4062 28.934 8.8711-2.0195 0.96875-3.9844 2.0039-5.8711 3.0703l-0.003907-0.003906c-5.3555-0.58594-10.68-1.457-15.945-2.6133-2.0273-0.49219-4.0703 0.75781-4.5586 2.7852-0.48828 2.0312 0.75781 4.0742 2.7852 4.5625 0.13672 0.035157 3.1328 0.75391 8.0938 1.5781-1.8242 1.3555-3.5508 2.8438-5.1562 4.4531-1.4414 1.5156-1.3828 3.9102 0.12891 5.3516 1.5156 1.4414 3.9102 1.3828 5.3516-0.12891 0.035157-0.039063 3.668-3.7422 11.008-8.1719 2.8398 0.28906 5.6992 0.51562 8.5 0.67188 3.9297 0.21484 7.7773 0.30078 11.477 0.25-11.285 0.74219-17.996 0.55078-18.113 0.54688h-0.13672c-2.0859-0.039063-3.8047 1.625-3.8438 3.7148-0.035156 2.0859 1.6289 3.8047 3.7148 3.8398 0.29297 0 1.4062 0.042969 3.2891 0.042969 6.5664 0 20.035-0.375 38.242-2.8047-0.66016 0.80469-0.95312 1.8477-0.81641 2.8789-24.492 4.6328-46.344 1.8594-46.559 1.8594-0.99219-0.14453-1.9961 0.12109-2.7891 0.73047-1.2266 0.92578-1.7734 2.5-1.3828 3.9844 0.39062 1.4844 1.6406 2.5859 3.1641 2.7852 0.76172 0.10156 7.7109 0.99219 18.016 0.99219 12.742 0 31.746-1.3945 50.125-8.0195v0.003906c0.78516 0.71484 1.832 1.0664 2.8867 0.96484 10.027-0.99219 19.41-2.9023 27.91-5.6289 0.23047 1.8984 1.8398 3.3242 3.75 3.3203h0.1875c15.086-0.74219 29.234-4.1641 42.055-10.172 2.1836-0.046875 4.332-0.17969 6.4023-0.39453 2.0742-0.21875 3.5781-2.0742 3.3672-4.1484-0.019531-0.20703-0.0625-0.41406-0.12109-0.61719 4.2305-2.5586 8.2695-5.418 12.09-8.5508 7.2148 1.6133 11.766 3.5977 11.812 3.6172 1.8945 0.77344 4.0625-0.097656 4.8906-1.9688 0.82812-1.8711 0.019531-4.0625-1.8281-4.9453-2.625-1.1094-5.3164-2.0508-8.0586-2.8203l0.60156-0.60156c4.3906-0.23828 7.1758-0.28516 7.6641-0.28906 1.9961 0.19531 3.7969-1.1992 4.1055-3.1797 0.30859-1.9805-0.98047-3.8594-2.9375-4.2812-0.57812-0.070313-1.1562-0.10156-1.7344-0.085938 8.7422-10.66 12.449-19.406 12.605-19.785 0.40234-0.9375 0.40234-2 0.003906-2.9375zm-43.992 39.777c-2.1602 1.2891-4.4023 2.4961-6.6875 3.6172h-1.5742 0.003906c1.918-1.2852 3.7695-2.6719 5.543-4.1523 0.9375 0.17578 1.8477 0.35937 2.7148 0.53516zm10.855-15.918c0.38281-0.58984 0.75391-1.1797 1.1133-1.7656 5.082-0.12109 8.293-0.10156 9.1719-0.089844h0.11328c0.21484 0 0.43359-0.019531 0.64453-0.058594-0.34375 0.375-0.69531 0.75-1.0508 1.1289-3.1875 0.21484-6.543 0.47656-9.9883 0.79688zm-31.133 16.859c1.1055-1.0234 2.1758-2.0898 3.1953-3.1758 1.1836 0.066406 2.3477 0.14844 3.4805 0.24609-1.4883 0.96875-3.0195 1.8516-4.5664 2.6562-0.69141 0.09375-1.3945 0.1875-2.1094 0.27344zm-12.469 11.188c-1.793 0.32422-3.6211 0.60547-5.4805 0.84375 1.5273-0.73828 3-1.5039 4.418-2.3008 0.23438 0.56641 0.60156 1.0664 1.0742 1.457zm-26.785-1.3906h0.10547c2.1055 0.019531 4.207 0.019531 6.5664-0.015625-3.0391 0.99219-6.2227 1.875-9.5156 2.6328 0.49609-0.32422 0.98828-0.64453 1.4648-0.94922v0.003906c0.61719-0.40625 1.1016-0.98828 1.3906-1.668zm2.4648-64.012c-0.18359-1.6953-0.47656-3.3828-0.78516-5.1602-0.71875-4.1914-1.5391-8.9141-1.2539-15.5v0.003906c0.22656-3.8633 0.85938-7.6953 1.8906-11.43 0.48047 1.2891 1.6719 3.3359 3.6055 6.625 3.3164 5.6406 7.8594 13.363 8.7383 18.637 0.69141 4.1719 1.1719 5.3008 1.5195 6.125 0.34766 0.82422 0.52734 1.2578 0.67188 5.2617 0.070313 1.9766 0.26953 5.5312 0.50391 9.6445 0.22266 3.918 0.46875 8.3203 0.67578 12.625-3.4609-1.2891-5.6719-2.2031-5.9336-2.3086-1.4141-0.58203-3.0391-0.25781-4.1211 0.82422-1.0781 1.082-1.4023 2.707-0.8125 4.1211 0.12891 0.3125 0.30078 0.60938 0.50781 0.87891-3.1758-0.47266-6.4297-0.84766-9.7148-1.1172 1.375-10.812 2.5781-17.547 3.7109-20.574 0.18359-0.38672 1.4023-3.1758 0.80859-8.6523zm13.184 39.871 1.1094-0.13672 0.34375 0.082031c-1.207 0.34766-2.4141 0.67969-3.6211 0.99609 0.73828-0.30859 1.4609-0.62109 2.1836-0.9375zm-19.277 12.434 1.2422-0.21094-1.1562 0.39453zm-36.629-13.863c3.3555-0.56641 6.7305-1.0273 10.062-1.375 3.4531-0.35937 6.9922-0.60156 10.516-0.72266l1.4688 1.1133c-4.0742 0.75-8.1719 1.5508-12.211 2.3906-3.1953-0.38281-6.4883-0.85937-9.8359-1.4062zm-10.996 13.273c0.72656 0.28516 1.5234 0.33594 2.2812 0.14844 2.0117-0.50781 4.0547-1.0078 6.2188-1.5234-0.03125 0.86719 0.24219 1.7227 0.76953 2.4102 0.20312 0.26562 0.4375 0.50391 0.69922 0.70703-3.5469-0.48047-7.0938-1.0156-10.641-1.6133zm30.391 3.0742c0.050781-0.14062 0.09375-0.28516 0.13281-0.42969 3.082-0.21094 6.3086-0.52734 9.6289-0.94922-1.793 0.76953-5.3086 1.2734-9.7617 1.375zm-50.5-15.477c-1.4062 1.207-1.7305 3.2578-0.76172 4.8359 0.96484 1.582 2.9375 2.2305 4.6523 1.5273 0.13672-0.058594 3.4141-1.4102 9.1172-3.0898 1.375 0.31641 2.7852 0.62891 4.2344 0.9375 0.81641 0.17578 1.6406 0.34766 2.4727 0.51562v0.003906c-5.7305 1.1328-11.383 2.6484-16.914 4.543-5.7812-3.5391-10.98-7.9531-15.41-13.086 1.5703 0.52734 6.1133 2.0156 12.609 3.8047zm2.1094 17.617c0.58984 0.32422 1.1719 0.62891 1.7578 0.92188-1.3164 0-2.6406-0.019531-3.9805-0.054688 0.73438-0.30078 1.4766-0.58984 2.2227-0.875zm33.027 4.8359 1.8398 0.20703c-2.5273 0.40234-4.9844 0.76953-7.3672 1.0938 1.8867-0.39453 3.7305-0.83203 5.5273-1.3125z" />
	</g>
</svg>
