<?xml version="1.0" encoding="UTF-8"?>
<svg width="512pt" height="512pt" version="1.1" viewBox="0 0 512 512" xmlns="http://www.w3.org/2000/svg">
 <g>
  <path d="m256 0c-33.617 0-66.906 6.6211-97.965 19.488-31.062 12.863-59.281 31.719-83.055 55.492-23.773 23.773-42.629 51.992-55.492 83.055-12.867 31.059-19.488 64.348-19.488 97.965 0 67.895 26.973 133.01 74.98 181.02 48.012 48.008 113.12 74.98 181.02 74.98s133.01-26.973 181.02-74.98c48.008-48.008 74.98-113.12 74.98-181.02s-26.973-133.01-74.98-181.02c-48.008-48.008-113.12-74.98-181.02-74.98zm0 28.91c29.492 0 58.695 5.875 85.941 17.289 27.246 11.41 52.004 28.137 72.855 49.227 20.855 21.086 37.395 46.121 48.684 73.672 11.285 27.551 17.094 57.082 17.094 86.902 0 60.227-23.66 117.99-65.777 160.57-42.113 42.59-99.234 66.512-158.8 66.516-29.488 0-58.691-5.875-85.941-17.289-27.246-11.41-52-28.137-72.855-49.227-20.852-21.086-37.395-46.121-48.68-73.672-11.289-27.551-17.098-57.078-17.098-86.902 0-29.82 5.8086-59.352 17.094-86.902 11.289-27.551 27.828-52.586 48.684-73.672 20.852-21.09 45.609-37.816 72.855-49.23 27.25-11.41 56.453-17.285 85.941-17.285z"/>
  <path d="m256 106.07c-64.164 0-116.4 51.914-116.4 116.4v129.62c0 12.898 10.316 23.215 23.215 23.215h0.32422c12.898 0 23.215-10.316 23.215-23.215v-26.441c0-12.898 10.316-23.215 23.215-23.215h0.32422c12.898 0 23.215 10.316 23.215 23.215v57.395c0 12.898 10.316 23.215 23.215 23.215h0.32422c12.898 0 23.215-10.316 23.215-23.215l-0.003906-57.715c0-12.898 10.316-23.215 23.215-23.215 12.898 0 23.215 10.316 23.215 23.215v24.504c0 12.898 10.316 23.215 23.215 23.215h0.32422c12.898 0 23.215-10.316 23.215-23.215v-70.617l0.003906-56.746c-0.64453-64.164-52.883-116.4-117.05-116.4zm0 159.29c-29.02 0-52.559-23.539-52.559-52.559s23.539-52.879 52.559-52.879 52.559 23.539 52.559 52.559c0 29.02-23.539 52.879-52.559 52.879z"/>
  <path d="m275.99 200.22c-4.1914-6.7695-11.609-11.285-19.992-11.285-12.898 0-23.539 10.641-23.539 23.539 0 12.898 10.641 23.539 23.539 23.539 8.3828 0 15.801-4.5156 19.992-11.285-5.4805-1.6133-9.3516-6.4492-9.3516-12.254 0-5.8047 4.1914-10.641 9.3516-12.254z"/>
 </g>
</svg>
