<?xml version="1.0" encoding="UTF-8"?>
<svg width="512pt" height="512pt" version="1.1" viewBox="0 0 512 512" xmlns="http://www.w3.org/2000/svg">
	<defs>
		<clipPath id="a">
			<path d="m135 94.781h258v322.44h-258z" />
		</clipPath>
	</defs>
	<path d="m256 0c-33.617 0-66.906 6.6211-97.965 19.488-31.062 12.863-59.281 31.719-83.055 55.492-23.773 23.773-42.629 51.992-55.492 83.055-12.867 31.059-19.488 64.348-19.488 97.965 0 67.895 26.973 133.01 74.98 181.02 48.012 48.008 113.12 74.98 181.02 74.98s133.01-26.973 181.02-74.98c48.008-48.008 74.98-113.12 74.98-181.02s-26.973-133.01-74.98-181.02c-48.008-48.008-113.12-74.98-181.02-74.98zm0 28.91c29.492 0 58.695 5.875 85.941 17.289 27.246 11.41 52.004 28.137 72.855 49.227 20.855 21.086 37.395 46.121 48.684 73.672 11.285 27.551 17.094 57.082 17.094 86.902 0 60.227-23.66 117.99-65.777 160.57-42.113 42.59-99.234 66.512-158.8 66.516-29.488 0-58.691-5.875-85.941-17.289-27.246-11.41-52-28.137-72.855-49.227-20.852-21.086-37.395-46.121-48.68-73.672-11.289-27.551-17.098-57.078-17.098-86.902 0-29.82 5.8086-59.352 17.094-86.902 11.289-27.551 27.828-52.586 48.684-73.672 20.852-21.09 45.609-37.816 72.855-49.23 27.25-11.41 56.453-17.285 85.941-17.285z" />
	<g clip-path="url(#a)">
		<path d="m389.46 367.46c-1.9375-1.9297-5.4062-4.6367-6.6953-6.6953-1.2852-2.0586-5.6602-4.2422-8.1133-5.2734-2.4453-1.0273-7.0742-2.9648-9.1367-4.6367-2.0586-1.6758-5.6602-5.4023-6.6914-7.207-1.0273-1.8008-6.6914-5.5352-6.6914-5.5352 0.38281-0.89453 0.38281-3.6055 0.38281-3.6055s3.3516 1.8047 4.3789 3.4766c1.0234 1.6719 4.7617 3.3477 4.7617 3.3477-0.39062-2.3164-4.375-10.297-4.375-10.297 5.2734-2.0586 14.93 1.0273 14.93 1.0273-1.8047-5.4062-13.254-9.6523-13.254-9.6523 0.25391-1.4141 10.812-2.0586 10.812-2.0586-3.0898-4.6367-15.699-3.4727-15.699-3.4727 0.64063-1.4141 3.0859-3.0938 3.0859-3.0938s-4.1133 0-7.2031 1.8008c-3.0938 1.8047-5.1523-0.76953-7.2109-3.8594-2.0586-3.0898-11.07-16.734-15.191-21.109-4.1133-4.375-9.2617-3.8633-12.094-1.8008-2.8281 2.0586-4.6328 16.992-4.6328 16.992-15.703-21.109-24.715-24.973-27.293-26.516s-7.2109-7.7266-7.2109-7.7266c4.1211-0.51172 7.2109 3.0938 7.2109 3.0938-0.51562-5.4062-5.4023-8.7578-7.2109-9.2695-1.8008-0.51562-8.4922-2.832-4.8867-3.8594 3.6016-1.0273 7.7227 2.5742 7.7227 2.5742-3.6016-6.9492-10.816-7.207-14.418-7.4648-3.6055-0.25391-22.398-7.207-28.316-7.9805-5.9219-0.77344-9.2656 2.5742-9.2656 2.5742-9.0117-2.832-13.383 0.25781-14.16 0.25781-65.656-52.523-44.805-91.137-19.574-116.62 25.227-25.484 64.613-19.051 110.44-15.703 45.82 3.3477 74.652-14.418 74.652-14.418s-7.2031-5.9219-24.203-2.832c-51.582 9.3828-150.59-37.07-196.93 29.348-51.453 73.746 0.83984 138.48 11.363 150.24 0.52734 4.2773 0.09375 7.3125 0.09375 7.3125-6.0508-10.168-12.227-10.816-15.578-10.816-3.3516 0-10.039 4.2461-9.6523 9.9102 0.38672 5.6641-0.64453 18.406-1.0273 24.582-0.38672 6.1797 1.4141 13.258 1.9297 17.504 0.51563 4.2461 0.64453 11.203 0.64453 11.203 3.2188-4.2461 3.7344-11.07 5.9219-9.6523 4.2461 4.1172 2.7031 15.062 2.7031 15.062 4.1211-4.2461 5.4062-14.027 5.4062-14.027 2.4492 1.4141 5.4023 10.168 5.4023 10.168 1.543-3.6055 0.90234-12.23 0.90234-12.23 2.3164 0.38672 4.1172 4.2461 4.1172 4.2461 0.77344-3.0898-1.4141-10.168-1.4141-10.168 13.254 14.547 16.992 8.7578 20.723 3.7344 3.7344-5.0195 6.3086-17.25 6.3086-17.25 1.1562 8.8828 13.512 19.953 20.852 25.871 7.3359 5.9219 25.355 15.832 25.355 15.832-7.9805 8.1133-2.0586 13.641 3.8633 20.98 5.918 7.3359 12.227 10.168 14.543 11.332 2.3164 1.1562 1.4141 4.2422 1.4141 4.2422-2.1875 1.4141-4.8906 6.0508-4.8906 6.0508 1.0273-1.1562 5.0195-1.543 5.0195-1.543s-3.0898 8.2383-3.0898 10.555 1.2852 4.3711 1.2852 4.3711c0-2.0586 2.1875-6.3086 3.8555-7.9844 1.6758-1.6719 2.4492 3.9922 2.8359 8.3711 0.39062 4.3711 4.5039 8.625 4.5039 8.625s0.64453-5.793 0.51172-10.168c-0.125-4.3789 2.707-5.6641 4.8945-5.7969 2.1875-0.125 1.4141 2.3203 3.9922 3.9883 2.5703 1.6758 2.9609 4.7656 2.9609 4.7656 1.4141-2.3164 0.38281-7.3359-0.39062-9.7812-0.76562-2.4414-1.0234-8.1055-1.0234-8.1055 1.2852-0.64453 7.3359-1.4141 7.3359-1.4141-0.51172-1.2891-3.2188-3.2188-8.4961-4.6367-5.2773-1.418-8.1094-9.2656-9.3945-11.328-1.2891-2.0586-7.8555-8.7539-7.8555-8.7539 5.1523-0.12891 12.613-4.1172 12.613-4.1172s5.4102 5.2773 11.332 5.1523c3.9922 0.125 7.8555 2.6992 10.555 5.2734 2.6992 2.5781 16.219 12.484 26.645 11.715s23.688 3.9883 27.934 5.4062c4.2461 1.418 12.871 2.0586 17.633 1.8008 3.4805-0.19141 16.734 0.51563 20.473-8.4922 3.8594-10.812 0.89844-13.898-1.0273-15.832z" />
	</g>
</svg>
