<?xml version="1.0" encoding="UTF-8"?>
<svg id="Calque_2" data-name="Calque 2" xmlns="http://www.w3.org/2000/svg" viewBox="0 0 124.42 124.42">
  <defs>
    <style>
      .cls-1 {
        fill: #3ca4b5;
      }

      .cls-2 {
        fill: none;
        opacity: .1;
      }
    </style>
  </defs>
  <g id="disques">
    <circle class="cls-2" cx="62.21" cy="62.21" r="62.21"/>
  </g>
  <g id="trait">
    <g>
      <path class="cls-1" d="m33.98,62.15c0-3.22.55-6.31,1.54-9.19-2.64-.48-5.11-1.84-7.26-4.5-6.18-7.64-.04-21.22,10.34-26.41,8.43-4.21,6.98-1.43,13.12,1.91,4.18,2.27,11.99,1.99,16.66-2.11,5.93-5.2,6.99-6.45,14.1-3.06,5.61,2.67,7,2.59,2.74-1.1-3.42-2.97-6.64-4.53-10.15-5.61-3.9-1.2-7.44-7.1-15.91-7.07-9.13.03-10.84,2.78-17.42,4.8C12.15,18.88,6.59,45.29,13.16,61.62c5.24,13.01,17.91,20.61,31,22.27-6.23-5.19-10.19-13.01-10.19-21.75Z"/>
      <path class="cls-1" d="m62.27,37.95c13.38,0,24.21,10.85,24.21,24.23,0,13.38-10.85,24.21-24.23,24.2-13.37,0-24.21-10.86-24.2-24.23,0-13.37,10.85-24.21,24.23-24.2Z"/>
    </g>
  </g>
</svg>