<?xml version="1.0" encoding="UTF-8"?>
<svg width="512pt" height="512pt" version="1.1" viewBox="0 0 512 512" xmlns="http://www.w3.org/2000/svg">
 <g>
  <path d="m256 0c-33.617 0-66.906 6.6211-97.965 19.488-31.062 12.863-59.281 31.719-83.055 55.492-23.773 23.773-42.629 51.992-55.492 83.055-12.867 31.059-19.488 64.348-19.488 97.965 0 67.895 26.973 133.01 74.98 181.02 48.012 48.008 113.12 74.98 181.02 74.98s133.01-26.973 181.02-74.98c48.008-48.008 74.98-113.12 74.98-181.02s-26.973-133.01-74.98-181.02c-48.008-48.008-113.12-74.98-181.02-74.98zm0 28.91c29.492 0 58.695 5.875 85.941 17.289 27.246 11.41 52.004 28.137 72.855 49.227 20.855 21.086 37.395 46.121 48.684 73.672 11.285 27.551 17.094 57.082 17.094 86.902 0 60.227-23.66 117.99-65.777 160.57-42.113 42.59-99.234 66.512-158.8 66.516-29.488 0-58.691-5.875-85.941-17.289-27.246-11.41-52-28.137-72.855-49.227-20.852-21.086-37.395-46.121-48.68-73.672-11.289-27.551-17.098-57.078-17.098-86.902 0-29.82 5.8086-59.352 17.094-86.902 11.289-27.551 27.828-52.586 48.684-73.672 20.852-21.09 45.609-37.816 72.855-49.23 27.25-11.41 56.453-17.285 85.941-17.285z"/>
  <path d="m119.29 166.04v-22.891h6.1289l21.602 16.121h7.0938l17.09 18.055 21.926 9.3516v8.707l25.473 21.281 151.87 39.98 30.633 77.707-30.633-24.504 30.633 35.469v34.5l-6.7695 21.281h-24.184l4.1914-12.898h5.8047v-33.211l-69.648-44.172-91.895 10.641v58.359l-7.0938 21.281h-40.629l4.1914-12.898h18.059v-55.457l-60.297-87.059-13.543-62.875-8.3828-10.965v-5.8047z"/>
  <path d="m310.49 327.58 56.105 34.18v18.055l-6.7734 21.281h-21.926l4.1914-12.898h6.4492v-26.438z"/>
 </g>
</svg>
