<?xml version="1.0" encoding="UTF-8"?>
<svg width="512pt" height="512pt" version="1.1" viewBox="0 0 512 512" xmlns="http://www.w3.org/2000/svg">
 <g>
  <path d="m256 0c-33.617 0-66.906 6.6211-97.965 19.488-31.062 12.863-59.281 31.719-83.055 55.492-23.773 23.773-42.629 51.992-55.492 83.055-12.867 31.059-19.488 64.348-19.488 97.965 0 67.895 26.973 133.01 74.98 181.02 48.012 48.008 113.12 74.98 181.02 74.98s133.01-26.973 181.02-74.98c48.008-48.008 74.98-113.12 74.98-181.02s-26.973-133.01-74.98-181.02c-48.008-48.008-113.12-74.98-181.02-74.98zm0 28.91c29.492 0 58.695 5.875 85.941 17.289 27.246 11.41 52.004 28.137 72.855 49.227 20.855 21.086 37.395 46.121 48.684 73.672 11.285 27.551 17.094 57.082 17.094 86.902 0 60.227-23.66 117.99-65.777 160.57-42.113 42.59-99.234 66.512-158.8 66.516-29.488 0-58.691-5.875-85.941-17.289-27.246-11.41-52-28.137-72.855-49.227-20.852-21.086-37.395-46.121-48.68-73.672-11.289-27.551-17.098-57.078-17.098-86.902 0-29.82 5.8086-59.352 17.094-86.902 11.289-27.551 27.828-52.586 48.684-73.672 20.852-21.09 45.609-37.816 72.855-49.23 27.25-11.41 56.453-17.285 85.941-17.285z"/>
  <path d="m356.76 155.24c-0.28906 0-0.57422-0.007812-0.86328-0.023437h0.003906c-0.42969 1.2109-1.0117 2.3672-1.7344 3.4336 2.7227 4.4375 3.3359 9.8516 1.6758 14.785 2.375 1.7969 4.1602 4.2617 5.1289 7.0742 3.6562 0.35547 7.1133 1.8438 9.875 4.2617 5.0117-0.57031 7.5156-2.8398 7.5391-2.8672l0.003906 0.003906c0.94531-0.94531 2.2266-1.4766 3.5625-1.4766h10.078c0.70703 0 2.582-2.0898 3.875-8.5469 0.55078-2.8867 0.90625-5.8047 1.0625-8.7383l-27.109-15.492c-1.3242 2.3047-3.2305 4.2188-5.5312 5.5508-2.2969 1.332-4.9102 2.0352-7.5664 2.0352zm20.152 10.078c0 2.0352-1.2266 3.8711-3.1094 4.6523-1.8828 0.78125-4.0508 0.34766-5.4922-1.0898-1.4375-1.4414-1.8711-3.6094-1.0898-5.4922 0.77734-1.8828 2.6172-3.1094 4.6523-3.1094 1.3359 0 2.6172 0.53125 3.5625 1.4766 0.94531 0.94141 1.4766 2.2227 1.4766 3.5625z"/>
  <path d="m363.79 204.11c2.6133-1.9414 3.6875-5.3438 2.6641-8.4336-1.0273-3.0938-3.918-5.1758-7.1758-5.1719-0.51953 0-1.0352 0.054688-1.543 0.15625-1.4805 0.29688-3.0156-0.089844-4.1836-1.0469-1.168-0.95703-1.8438-2.3867-1.8438-3.8945 0-0.12109 0.003906-0.24219 0.011718-0.36328-0.046875-2.3008-1.6484-4.2734-3.8906-4.7891-1.6797-0.39453-3.043-1.625-3.6094-3.2578-0.5625-1.6289-0.25391-3.4375 0.82422-4.7891 2.5-3.1406 2.0977-7.6914-0.92188-10.34-1.1445-1.0195-1.7656-2.5078-1.6836-4.0391 0.085938-1.5352 0.86328-2.9453 2.1133-3.8359 1.3398-0.93359 2.1367-2.4688 2.1328-4.1055-0.003906-0.23438-0.027344-0.46875-0.066406-0.70312-0.27734-1.9219 0.57031-3.8359 2.1875-4.9141 1.6172-1.082 3.7109-1.1328 5.3789-0.14062 0.77734 0.47266 1.668 0.72266 2.5742 0.72266 2.7812 0 5.0391-2.2578 5.0391-5.0391 0-2.7852-2.2578-5.0391-5.0391-5.0391h-5.0391c-2.7812 0-5.0352-2.2539-5.0352-5.0391v-10.074l-12.094 9.0664c-0.09375 0.070313-0.19141 0.14063-0.29297 0.20313-3.9883 2.5938-7.7656 6.6641-7.7656 8.3633-0.003906 1.6328 0.53125 3.2227 1.5195 4.5234 1.1523 1.5234 1.3398 3.5703 0.48828 5.2812-0.85156 1.7109-2.5977 2.7891-4.5078 2.7891-2.4922-0.011719-4.8281 1.207-6.2422 3.2578-1.4141 2.0469-1.7266 4.6641-0.83203 6.9883 0.85156 2.2383 0.007812 4.7656-2.0156 6.0469-2.1055 1.3203-3.4258 3.5977-3.5195 6.0859-0.097656 2.4844 1.0391 4.8555 3.0391 6.3359 1.2695 0.95313 2.0156 2.4453 2.0156 4.0312 0 1.5859-0.74609 3.0781-2.0156 4.0312-1.918 1.418-3.0469 3.6602-3.0469 6.0469 0 2.3828 1.1289 4.625 3.0469 6.043 1.2695 0.95312 2.0156 2.4453 2.0156 4.0312 0 1.5859-0.74609 3.0781-2.0156 4.0312-1.6133 1.1914-2.6836 2.9805-2.9688 4.9648s0.23438 4.0039 1.4453 5.6016c1.1523 1.5273 1.3438 3.5703 0.48828 5.2852-0.85156 1.7109-2.5977 2.793-4.5117 2.793-4.1758-0.003907-7.5664 3.3789-7.5742 7.5547 0 1.9141-1.0781 3.6602-2.7891 4.5156-1.707 0.85547-3.7539 0.67188-5.2852-0.47266-1.5977-1.2109-3.6172-1.7344-5.6016-1.4453-1.9844 0.28516-3.7734 1.3555-4.9648 2.9688-0.95312 1.2695-2.4453 2.0156-4.0312 2.0156s-3.0781-0.74609-4.0312-2.0156c-1.2539-1.6992-3.168-2.793-5.2734-3.0078-2.1016-0.21484-4.1953 0.46484-5.7734 1.875-1.2422 1.1055-2.9492 1.5273-4.5664 1.125-1.6133-0.40234-2.9258-1.5742-3.5039-3.1367-0.85547-2.3398-2.8203-4.1094-5.2383-4.7148-2.418-0.60547-4.9805 0.027344-6.8438 1.6875-1.2422 1.1055-2.9492 1.5273-4.5664 1.125-1.6133-0.40234-2.9258-1.5742-3.5039-3.1367-0.85547-2.3398-2.8203-4.1055-5.2383-4.7109-2.418-0.60938-4.9805 0.023438-6.8438 1.6836-1.2422 1.1055-2.9492 1.5273-4.5664 1.125-1.6133-0.40234-2.9258-1.5742-3.5039-3.1328-1.1016-2.9609-3.9219-4.9297-7.082-4.9414-2.3828-0.003906-4.6289 1.125-6.043 3.0469-0.95312 1.2695-2.4453 2.0156-4.0312 2.0156s-3.0781-0.74609-4.0312-2.0156c-1.4141-1.9219-3.6602-3.0508-6.0469-3.0469-3.1562 0.015625-5.9727 1.9805-7.0781 4.9414-0.57812 1.5586-1.8906 2.7305-3.5039 3.1328-1.6172 0.40234-3.3242-0.019532-4.5664-1.125-1.8594-1.6602-4.4258-2.293-6.8438-1.6875-2.418 0.60938-4.3828 2.375-5.2383 4.7148-0.57812 1.5625-1.8906 2.7344-3.5039 3.1367-1.6172 0.40234-3.3242-0.019531-4.5664-1.125-2.0391-1.8203-4.8984-2.3906-7.4805-1.4961-2.582 0.89453-4.4727 3.1133-4.9492 5.8047-0.23828 1.3516-1.0195 2.5469-2.1641 3.3086-1.1406 0.76172-2.543 1.0273-3.8867 0.73047-0.53516-0.12109-1.0859-0.18359-1.6367-0.18359-4.1719 0.003906-7.5508 3.3828-7.5547 7.5547-0.003907 1.6367 0.53125 3.2227 1.5195 4.5234 1.1523 1.5273 1.3398 3.5703 0.48828 5.2812-0.85156 1.7109-2.5977 2.793-4.5117 2.793-3.2578-0.015624-6.1602 2.0664-7.1875 5.1602-1.0312 3.0938 0.042969 6.5 2.6602 8.4414 1.2695 0.95312 2.0156 2.4453 2.0156 4.0312s-0.74609 3.0781-2.0156 4.0312c-2.6172 1.9414-3.6914 5.3398-2.6641 8.4336 1.0234 3.0898 3.918 5.1758 7.1758 5.168 1.9102 0 3.6602 1.0781 4.5156 2.7891 0.85547 1.707 0.67188 3.7539-0.47656 5.2852-1.2734 1.6797-1.7773 3.8203-1.3984 5.8906 0.38281 2.0742 1.6172 3.8906 3.4023 5.0117 2.0234 1.2812 2.8672 3.8086 2.0156 6.043-0.72266 1.8828-0.66406 3.9805 0.17188 5.8164 0.83594 1.8359 2.3711 3.2617 4.2656 3.9531 1.5625 0.57812 2.7344 1.8906 3.1367 3.5039 0.40234 1.6133-0.019531 3.3242-1.125 4.5664-1.4102 1.5742-2.0898 3.6719-1.875 5.7734 0.21875 2.1016 1.3086 4.0156 3.0078 5.2734 1.2695 0.95312 2.0156 2.4453 2.0156 4.0312 0 1.5859-0.74609 3.0781-2.0156 4.0312-1.6484 1.2305-2.7227 3.0781-2.9766 5.1211s0.33984 4.0977 1.6367 5.6953c1.3008 1.5938 3.1953 2.5898 5.2461 2.7578 2.0508 0.16406 4.082-0.51562 5.6211-1.8828 1.8125-1.6133 4.5195-1.7031 6.4375-0.21484 4.2109 3.2812 10.246 2.7031 13.766-1.3086 3.5156-4.0156 3.2891-10.074-0.51562-13.816-1.6562-1.6328-1.9805-4.1914-0.78125-6.1836 1.1953-1.9961 3.6055-2.9102 5.8281-2.2148 0.96875 0.30469 1.9805 0.46094 2.9961 0.46094 5.2617-0.019531 9.6289-4.0703 10.047-9.3125 0.14453-1.9219 1.3672-3.5898 3.1562-4.3047 1.7852-0.71094 3.8242-0.34766 5.25 0.94531 2.1758 1.9648 5.1016 2.8828 8.0078 2.5156 2.9102-0.37109 5.5117-1.9883 7.1289-4.4375 0.93359-1.4023 2.5078-2.2461 4.1953-2.2461s3.2617 0.84375 4.1953 2.2461c1.8672 2.8203 5.0195 4.5156 8.4023 4.5156 3.3789 0 6.5312-1.6953 8.3984-4.5156 0.93359-1.4023 2.5078-2.2461 4.1953-2.2461s3.2617 0.84375 4.1953 2.2461c1.8672 2.8203 5.0195 4.5156 8.3984 4.5156 3.3828 0 6.5352-1.6953 8.4023-4.5156 0.93359-1.4023 2.5078-2.2461 4.1953-2.2461s3.2617 0.84375 4.1953 2.2461c1.6211 2.4492 4.2266 4.0664 7.1367 4.4375 2.9102 0.36719 5.8359-0.55078 8.0156-2.5195 1.4297-1.2852 3.4688-1.6484 5.2539-0.92969 1.7852 0.71484 3.0039 2.3867 3.1445 4.3086 0.10547 1.4961 0.55469 2.9531 1.3125 4.2539 0.90234 1.5586 0.90234 3.4844 0 5.043-1.8008 3.1172-1.8008 6.9609-0.003907 10.078 1.8008 3.1172 5.1289 5.0391 8.7305 5.0391 3.5977 0 6.9258-1.9219 8.7266-5.0391 1.7969-3.1172 1.7969-6.9609-0.003906-10.078-0.90234-1.5586-0.90234-3.4805 0-5.043 1.5391-2.6602 1.7773-5.8828 0.64844-8.7422-0.71094-1.793-0.33594-3.8281 0.96484-5.25 1.3008-1.4219 3.2969-1.9805 5.1445-1.4375 0.69922 0.21094 1.4219 0.31641 2.1523 0.32031 3.6406-0.003906 6.7578-2.5977 7.4219-6.1758 0.37891-2.0547 1.9844-3.6602 4.0352-4.0391 3.5781-0.66016 6.1758-3.7812 6.1758-7.4219 0-0.55078-0.0625-1.0977-0.18359-1.6367-0.29688-1.3398-0.035156-2.7422 0.73047-3.8867 0.76172-1.1406 1.957-1.9219 3.3086-2.1641 3.6016-0.63672 6.2266-3.7656 6.2227-7.4258 0-0.55078-0.0625-1.0977-0.18359-1.6367-0.29688-1.3398-0.035156-2.7461 0.72656-3.8867 0.76172-1.1445 1.957-1.9258 3.3125-2.1641 2.6875-0.47656 4.9102-2.3711 5.8047-4.9492 0.89453-2.582 0.32031-5.4414-1.4961-7.4805-1.1094-1.2422-1.5273-2.9531-1.125-4.5664 0.40234-1.6133 1.5742-2.9258 3.1328-3.5039 2.3438-0.85938 4.1094-2.8203 4.7148-5.2383 0.60547-2.4219-0.023438-4.9844-1.6875-6.8438-1.1055-1.2422-1.5234-2.9531-1.125-4.5664 0.40234-1.6133 1.5781-2.9258 3.1367-3.5039 2.957-1.1016 4.9258-3.9219 4.9414-7.0781 0-2.3867-1.1289-4.6289-3.0469-6.0469-1.2695-0.94922-2.0156-2.4453-2.0156-4.0312 0-1.5859 0.74609-3.0781 2.0156-4.0273 1.9141-1.418 3.0469-3.6641 3.0469-6.0469 0-2.3867-1.1328-4.6289-3.0469-6.0469-1.2695-0.94922-2.0156-2.4453-2.0156-4.0312 0-1.5859 0.74609-3.0781 2.0156-4.0273z"/>
  <path d="m155.24 381.95v-0.64062c-1.418-0.35938-2.7891-0.87891-4.0938-1.543-1.8242 1.0039-3.8164 1.6719-5.8789 1.9805l2.875 11.5h0.003906c0.55469 2.2422 2.5703 3.8203 4.8828 3.8164h17.324v-2.3438l-12.871-8.5781c-1.3984-0.93359-2.2422-2.5078-2.2422-4.1914z"/>
  <path d="m306.38 381.95v-10.715c-3.3047 0.85156-6.7734 0.85156-10.078 0v10.094l2.9805 11.918c0.55859 2.2461 2.5742 3.8203 4.8867 3.8164h17.324v-2.3438l-12.871-8.582v0.003906c-1.4023-0.93359-2.2422-2.5078-2.2422-4.1914z"/>
  <path d="m151.42 221.14c0.96094 0.20703 1.8984 0.49609 2.8125 0.86328 2.1367-6.5078 0.82812-13.652-3.4805-18.977-4.3047-5.3242-11.023-8.0938-17.828-7.3594-6.8086 0.73828-12.777 4.8789-15.848 11 6.5195-1.7617 13.438-1.293 19.66 1.3281s11.395 7.25 14.684 13.145z"/>
 </g>
</svg>
