<?xml version="1.0" encoding="UTF-8"?>
<svg id="Calque_2" data-name="Calque 2" xmlns="http://www.w3.org/2000/svg" viewBox="0 0 124.42 124.42">
  <defs>
    <style>
      .cls-1 {
        fill: #3ca4b5;
      }

      .cls-2 {
        fill: none;
        opacity: .1;
      }
    </style>
  </defs>
  <g id="disques">
    <path class="cls-2" d="m124.42,62.21c0,34.36-27.85,62.21-62.21,62.21S0,96.57,0,62.21,27.85,0,62.21,0s62.21,27.85,62.21,62.21Z"/>
  </g>
  <g id="trait">
    <g>
      <path class="cls-1" d="m62.21,37.9c-13.42,0-24.31,10.87-24.32,24.29,0,13.43,10.87,24.31,24.29,24.32,13.43,0,24.32-10.87,24.32-24.29,0-13.42-10.87-24.31-24.29-24.32Z"/>
      <path class="cls-1" d="m33.67,62.25c0-4.61,1.11-8.96,3.06-12.81-3.85,3.32-8.46,7.63-14.37,13.4-2.69,2.63-7.96,7.78-9.8,10.9-3.14,5.32,1.65,6.8,9.12.96,6.24-4.88,8.1-5.21,8.49-3.66.81,3.2-4.24,8.86-9.86,11.13-8.7,3.51-9.18,9.2-6.46,11.88,2.84,2.8,7.96.16,10.81-2.92,2.68-2.9,4.7-4.63,7.46-5.32,6.42-1.62,5.61,2.93,3.7,5.5-1.71,2.3-2.89,3.68-8.54,6.15-5.68,2.48-7.01,7.27-4.26,9.72,4.48,4,9.79.03,11.76-4.21,2.51-5.39,6.26-7.13,9.72-9.36,4.92-3.18,10.16-3.75,3.76,4.25-6.54,8.18.15,9.43,7.35,5.11,4.5-2.7,6.54-4.65,10.98-8.48,2.09-1.8,3.88-3.78,5.9-5.72-3.21,1.25-6.7,1.95-10.35,1.94-15.72,0-28.46-12.76-28.45-28.48Z"/>
    </g>
  </g>
</svg>