<?xml version="1.0" encoding="UTF-8"?>
<svg width="512pt" height="512pt" version="1.1" viewBox="0 0 512 512" xmlns="http://www.w3.org/2000/svg">
 <g>
  <path d="m256 0c-33.617 0-66.906 6.6211-97.965 19.488-31.062 12.863-59.281 31.719-83.055 55.492-23.773 23.773-42.629 51.992-55.492 83.055-12.867 31.059-19.488 64.348-19.488 97.965 0 67.895 26.973 133.01 74.98 181.02 48.012 48.008 113.12 74.98 181.02 74.98s133.01-26.973 181.02-74.98c48.008-48.008 74.98-113.12 74.98-181.02s-26.973-133.01-74.98-181.02c-48.008-48.008-113.12-74.98-181.02-74.98zm0 28.91c29.492 0 58.695 5.875 85.941 17.289 27.246 11.41 52.004 28.137 72.855 49.227 20.855 21.086 37.395 46.121 48.684 73.672 11.285 27.551 17.094 57.082 17.094 86.902 0 60.227-23.66 117.99-65.777 160.57-42.113 42.59-99.234 66.512-158.8 66.516-29.488 0-58.691-5.875-85.941-17.289-27.246-11.41-52-28.137-72.855-49.227-20.852-21.086-37.395-46.121-48.68-73.672-11.289-27.551-17.098-57.078-17.098-86.902 0-29.82 5.8086-59.352 17.094-86.902 11.289-27.551 27.828-52.586 48.684-73.672 20.852-21.09 45.609-37.816 72.855-49.23 27.25-11.41 56.453-17.285 85.941-17.285z"/>
  <path d="m305.98 118.32c-15.801 10.641-6.4492 55.781-0.96875 73.516 5.8047 19.668 38.047 132.2-57.395 132.2 0 0-56.75-1.9336-56.75-49.656 0-41.594 29.664-38.371 37.402-38.371 20.637 0 34.824 9.0273 45.465 9.0273 22.57 0 31.922-8.3828 31.922-27.73 0-19.348-22.895-55.781-83.832-55.781-60.941 0-105.11 54.816-105.11 109.63 0 54.816 42.238 127.36 125.75 127.36 83.512 0.003906 152.19-63.84 152.19-144.77 0-80.93-49.332-161.86-88.672-135.42zm14.188 51.91c-5.1602 0-9.3516-4.5156-9.3516-9.6719 0-5.4805 4.1914-9.6719 9.3516-9.6719 5.1602 0 9.3516 4.5156 9.3516 9.6719 0.32422 5.1602-4.1914 9.6719-9.3516 9.6719zm28.055 0c-5.1602 0-9.3516-4.5156-9.3516-9.6719 0-5.4805 4.1914-9.6719 9.3516-9.6719s9.3516 4.5156 9.3516 9.6719c0.32031 5.1602-3.8711 9.6719-9.3516 9.6719zm4.5117-9.9961c0 2.2578-1.9336 4.1914-4.1914 4.1914-2.2578 0-4.1914-1.9336-4.1914-4.1914s1.9336-4.1914 4.1914-4.1914c2.2578 0 4.1914 1.9375 4.1914 4.1914zm-28.051 0c0 2.2578-1.9336 4.1914-4.1914 4.1914-2.2578 0-4.1914-1.9336-4.1914-4.1914 0-2.2539 1.6133-4.1914 4.1914-4.1914 2.2578 0 4.1914 1.9375 4.1914 4.1914z"/>
 </g>
</svg>
