<?xml version="1.0" encoding="UTF-8"?>
<svg id="Calque_2" data-name="Calque 2" xmlns="http://www.w3.org/2000/svg" viewBox="0 0 124.42 124.42">
  <defs>
    <style>
      .cls-1 {
        fill: #3ca4b5;
      }

      .cls-2 {
        fill: none;
        opacity: .1;
      }
    </style>
  </defs>
  <g id="disques">
    <path class="cls-2" d="m124.42,62.21c0,34.36-27.85,62.21-62.21,62.21S0,96.57,0,62.21,27.85,0,62.21,0s62.21,27.85,62.21,62.21Z"/>
  </g>
  <g id="trait">
    <path class="cls-1" d="m62.21,37.9c13.43,0,24.3,10.9,24.29,24.32,0,13.43-10.9,24.3-24.32,24.29-13.42,0-24.3-10.9-24.29-24.32,0-13.42,10.9-24.3,24.32-24.29Z"/>
    <g>
      <path class="cls-1" d="m29.97,63.66c1.41.23,2.73.95,3.98,1.93-.13-1.12-.21-2.25-.21-3.41,0-2.88.44-5.67,1.24-8.29-1.01.16-2.05.22-3.12.14-8.31-.59-7.58-1.64-10.23-3.32-1.83-1.15-4.6-2.29-7.14-2.62-6.38-.83-12.05,2.64-12.4,6.85-.35,4.21,4.07,9.17,10.45,10,3.06.4,6.25-.11,8.43-1.1,2.31-1.05,3.38-1.12,9-.19Z"/>
      <path class="cls-1" d="m37.22,75.86c-.91,2.31-1.89,4.15-2.87,5.03-3.8,3.41-4.94,3.97-7.12,4.64-2.08.64-4.71,1.3-6.95,2.93-3.19,2.33-4.26,7.63-1.55,10.92,2.31,2.8,6.74,3.7,10.29,1.07,1.85-1.36,3.08-4.06,3.97-5.73,1.29-2.44,2.24-4.05,7.72-8.84.74-.64,2.07-1.11,3.7-1.46-2.92-2.35-5.38-5.25-7.19-8.56Z"/>
      <path class="cls-1" d="m79.37,39.43c.12-1.73.45-3.37,1.09-4.73,3.3-6.95,3.81-7.89,5.45-9.17,1.54-1.2,4.05-3,5.15-5.1,2.76-5.3,1.5-10.48-2.9-12.35-4.37-1.85-8.76-.25-11.52,5.04-1.32,2.54-1.38,6.57-1.29,8.82.11,2.37-.68,4.71-3.38,9.56-.68,1.22-1.56,2.24-2.57,3.12,3.66.95,7.03,2.61,9.97,4.82Z"/>
      <path class="cls-1" d="m36.47,37.56c2.12.43,2.98,1.18,5.7,4.41,1.39-1.38,2.92-2.6,4.56-3.67-3.18-3.83-2.64-5.31-2.8-7.59-.14-2.04-.81-3.93-2.36-5.65-2.95-3.27-7.47-3.71-10.11-.97-2.63,2.73-2.38,7.59.57,10.86,1.27,1.41,2.84,2.29,4.42,2.62Z"/>
      <path class="cls-1" d="m62.03,95.38c.07-1.68.91-3.31,1.97-4.75-.59.04-1.18.06-1.78.06-2.86,0-5.62-.43-8.22-1.22,1.28,1.45,2.65,3.34,2.58,6.11-.13,5.01-1.47,5.67-2.82,7.38-1.17,1.49-1.9,3.22-1.9,5.37,0,4.1,2.85,7.22,6.37,6.98,3.52-.24,6.38-3.76,6.39-7.86,0-1.77-.53-3.35-1.42-4.56-1.28-1.74-1.34-2.82-1.15-7.52Z"/>
      <path class="cls-1" d="m111.74,65.9c-2.15-.8-5.08-.36-6.97-.19-2.75.25-4.62.34-11.63-1.63-.72-.2-1.55-.75-2.43-1.53-.04,3.35-.66,6.56-1.76,9.54,1.43-.18,2.64-.19,3.49.04,4.93,1.32,6.03,1.96,7.78,3.43,1.67,1.39,3.66,3.23,6.25,4.21,3.69,1.39,8.72-.6,9.99-4.68,1.08-3.47-.59-7.66-4.73-9.2Z"/>
      <path class="cls-1" d="m82.9,97.13c-2.1-1.42-2.73-2.3-4.87-7.57-.41-1.01-.56-2.14-.52-3.32-3.14,2-6.7,3.4-10.52,4.04.71.81,1.33,1.71,1.85,2.7,3.84,7.4,2.56,7.32,2.52,10.46-.03,2.16.46,5.12,1.5,7.45,2.63,5.87,8.55,8.89,12.33,6.99,3.78-1.9,5.68-8.27,3.05-14.14-1.26-2.81-3.36-5.27-5.35-6.61Z"/>
    </g>
  </g>
</svg>