<?xml version="1.0" encoding="UTF-8"?>
<svg width="512pt" height="512pt" version="1.1" viewBox="0 0 512 512" xmlns="http://www.w3.org/2000/svg">
 <g>
  <path d="m256 0c-33.617 0-66.906 6.6211-97.965 19.488-31.062 12.863-59.281 31.719-83.055 55.492-23.773 23.773-42.629 51.992-55.492 83.055-12.867 31.059-19.488 64.348-19.488 97.965 0 67.895 26.973 133.01 74.98 181.02 48.012 48.008 113.12 74.98 181.02 74.98s133.01-26.973 181.02-74.98c48.008-48.008 74.98-113.12 74.98-181.02s-26.973-133.01-74.98-181.02c-48.008-48.008-113.12-74.98-181.02-74.98zm0 28.91c29.492 0 58.695 5.875 85.941 17.289 27.246 11.41 52.004 28.137 72.855 49.227 20.855 21.086 37.395 46.121 48.684 73.672 11.285 27.551 17.094 57.082 17.094 86.902 0 60.227-23.66 117.99-65.777 160.57-42.113 42.59-99.234 66.512-158.8 66.516-29.488 0-58.691-5.875-85.941-17.289-27.246-11.41-52-28.137-72.855-49.227-20.852-21.086-37.395-46.121-48.68-73.672-11.289-27.551-17.098-57.078-17.098-86.902 0-29.82 5.8086-59.352 17.094-86.902 11.289-27.551 27.828-52.586 48.684-73.672 20.852-21.09 45.609-37.816 72.855-49.23 27.25-11.41 56.453-17.285 85.941-17.285z"/>
  <path d="m358.21 196.67c10.965-9.3516 9.0273-30.633 3.5469-41.918-3.8711-8.3828-13.863-13.863-23.215-13.863-4.1914-1.2891-8.3828-1.2891-11.93 0.96875-1.9336 1.2891-1.6133 3.8711 0 4.8359-7.7383-2.5781-18.055-1.9336-24.828 2.9023-4.8359-4.8359-12.898-7.0938-19.348-9.0273-9.0273-3.2227-18.379-4.8359-28.051-5.1602-19.992-0.96875-39.98 4.5156-57.395 14.188-36.113 19.988-56.105 59.328-59.332 99.953-0.96875 11.609-0.64453 23.539 1.6133 35.145 1.9336 10.316 4.8359 22.57 12.898 29.664-11.93 14.508-8.0625 42.883 5.1602 55.137 6.125 5.8047 14.188 8.0625 22.57 7.0938 5.8047-0.64453 17.734-4.1914 15.801-11.93-0.32422-0.96875-1.2891-1.6133-2.2578-1.9336-1.2891 0-2.2578 0.32422-3.2227 0.64453-4.1914-0.64453-8.3828-1.2891-11.93-4.1914-5.4805-4.8359-6.7695-12.898-5.4805-19.668 1.9336-12.254 10.965-24.504 22.895-28.375 5.4805-1.6133 11.93-1.9336 17.09 1.2891 4.1914 2.5781 6.4492 6.7695 8.0625 11.285-2.2578-3.2227-5.1602-6.125-7.418-7.418-11.93-6.4492-24.184 0.32422-30.953 10.641-6.7695 10.316-8.0625 23.539 2.5781 31.922 8.707 6.4492 25.473 8.3828 33.535-0.64453 17.41 11.285 42.238 9.6719 61.906 6.4492 24.184-3.8711 45.465-14.832 60.617-34.18 15.477-19.992 29.02-44.176 32.891-69.648 2.8945-20.633 0.31641-49.328-15.805-64.16zm-21.605-47.398c6.7695 1.9336 9.6719 6.7695 9.6719 13.543 0 10.641-5.4805 21.926-11.93 29.988-6.7695 8.3828-17.09 15.477-28.375 14.828-9.3516-0.64453-14.188-6.125-19.023-12.898-0.32422-1.2891-0.96875-2.2578-1.6133-3.2227-0.32422-0.64453-1.2891-0.32422-1.6133 0.32422-2.5781 4.5156-0.96875 12.574 0.64453 17.09 2.5781 7.418 8.0625 12.898 14.832 16.445 12.254 6.4492 33.535 6.4492 41.918-6.125 20.637 30.953-1.6133 70.293-23.859 94.473-11.93 12.898-26.441 23.539-43.207 28.375-17.09 4.8359-34.18 3.2227-50.945-1.6133 0.32422-0.32422 0.64453-0.96875 0.96875-1.6133 1.6133 1.2891 4.5156 0 5.4805-2.2578 12.254-10.965 4.1914-32.891-8.0625-40.949-8.0625-5.4805-18.379-5.8047-27.73-4.5156-6.7695 0.96875-17.734 2.5781-22.57 8.707-7.7383-17.41-9.0273-38.691-7.418-57.395 1.6133-18.379 9.6719-35.145 22.57-48.367 12.574-12.898 29.02-20.637 46.754-23.215 9.6719-1.2891 19.992-1.2891 29.664 0.64453 4.1914 0.96875 8.707 1.9336 12.898 3.5469 3.2227 0.96875 5.8047 2.5781 8.707 2.5781-2.5781 9.9961 6.7695 23.859 16.445 25.473 14.832 2.9023 30.633-3.5469 37.082-17.734 5.1602-11.93 5.1602-28.375-6.4492-36.434-0.64453-0.32422-0.96875-0.64453-1.6133-0.96875 2.2578 0.64844 4.5156 0.64844 6.7734 1.293zm-122.53 153.8c-10.641-4.5156-22.895-1.6133-31.922 4.8359-13.219 9.6719-22.25 27.086-18.703 43.852 1.6133 7.7383 6.125 14.188 13.543 17.09-6.7695 0.64453-13.219-2.2578-17.41-7.7383-5.1602-6.4492-6.7695-14.508-7.0938-22.57-0.32422-8.3828 2.5781-15.801 2.9023-24.184 0-0.32422 0-0.64453-0.32422-0.64453-1.6133-6.125-4.1914-11.609-5.4805-17.734-1.6133-6.4492-2.2578-13.219-2.5781-19.992-0.64453-11.285-0.64453-22.895 1.2891-34.18 3.8711-23.539 13.543-46.43 29.664-63.844 15.156-16.121 35.469-27.086 57.07-30.953 10.965-1.9336 22.57-1.9336 33.211 0.64453s19.668 8.0625 29.664 12.254c2.5781 1.2891 5.4805 0.32422 6.7695-1.9336 5.8047-1.2891 11.93-2.5781 17.734-0.64453 9.6719 2.9023 10.316 13.863 7.418 22.25-3.2227 10.316-12.898 15.477-23.539 14.832-11.605 0.32031-14.184-9.3555-17.73-17.738 0.64453-0.64453 0.96875-1.6133 0.64453-2.5781-2.9023-8.0625-16.121-9.9961-23.539-11.609-10.641-2.2578-21.926-2.9023-32.891-1.6133-20.637 2.5781-39.66 11.93-54.168 27.086-14.188 14.508-22.57 33.211-24.504 53.523-1.9336 19.992-1.6133 48.688 15.156 62.875 0.96875 0.96875 2.5781 0.32422 2.9023-0.64453 4.8359 0.64453 9.3516-1.6133 13.863-2.9023 7.418-1.6133 16.766-2.5781 24.184-0.64453 6.125 1.6133 11.609 5.8047 14.188 11.609-2.582-3.8672-5.8047-6.7695-10.32-8.7031zm149.29-42.562c-3.5469 22.25-15.156 43.207-28.375 61.586-13.219 18.703-32.242 29.344-54.492 33.535-19.992 3.8711-41.273 4.8359-60.941-1.6133 0-2.5781-1.9336-4.8359-4.8359-3.5469-6.7695 2.9023-11.93 6.125-19.348 3.8711-10.316-3.2227-11.93-12.898-7.0938-21.602 4.1914-7.418 11.609-13.863 20.312-10.641 4.8359 1.9336 8.0625 6.4492 9.3516 11.285 0.64453 2.2578 0.32422 4.1914 0.96875 6.4492-0.96875 0.96875-1.2891 2.5781 0 3.5469 36.113 20.637 80.934 1.2891 106.41-27.086 13.543-15.156 25.797-34.18 29.988-54.168 3.5469-16.766 2.5781-39.66-11.93-51.27-2.2578-1.9336-5.1602-0.64453-5.8047 1.6133-5.1602 3.2227-9.3516 7.0938-15.477 8.707-8.3828 2.2578-16.121-0.32422-23.215-4.8359-2.9023-1.9336-5.1602-4.1914-7.0938-7.0938 3.5469 2.2578 7.418 3.8711 10.965 4.5156 14.832 2.2578 29.02-6.7695 37.727-17.734 8.0625-10.316 15.156-25.797 12.574-39.336 0-0.64453-0.32422-1.2891-0.64453-1.9336 1.2891 1.9336 2.2578 4.1914 2.9023 6.7695 1.9336 7.418 1.9336 14.832-0.32422 21.926-1.2891 3.8711-3.2227 7.0938-4.1914 10.641-0.96875 0.64453-1.6133 1.6133-0.96875 3.2227 3.2227 9.9961 9.0273 19.023 11.609 29.344 3.2188 11.277 3.543 22.883 1.9297 33.848z"/>
 </g>
</svg>
