<?xml version="1.0" encoding="UTF-8"?>
<svg width="512pt" height="512pt" version="1.1" viewBox="0 0 512 512" xmlns="http://www.w3.org/2000/svg">
 <g>
  <path d="m256 0c-33.617 0-66.906 6.6211-97.965 19.488-31.062 12.863-59.281 31.719-83.055 55.492-23.773 23.773-42.629 51.992-55.492 83.055-12.867 31.059-19.488 64.348-19.488 97.965 0 67.895 26.973 133.01 74.98 181.02 48.012 48.008 113.12 74.98 181.02 74.98s133.01-26.973 181.02-74.98c48.008-48.008 74.98-113.12 74.98-181.02s-26.973-133.01-74.98-181.02c-48.008-48.008-113.12-74.98-181.02-74.98zm0 28.91c29.492 0 58.695 5.875 85.941 17.289 27.246 11.41 52.004 28.137 72.855 49.227 20.855 21.086 37.395 46.121 48.684 73.672 11.285 27.551 17.094 57.082 17.094 86.902 0 60.227-23.66 117.99-65.777 160.57-42.113 42.59-99.234 66.512-158.8 66.516-29.488 0-58.691-5.875-85.941-17.289-27.246-11.41-52-28.137-72.855-49.227-20.852-21.086-37.395-46.121-48.68-73.672-11.289-27.551-17.098-57.078-17.098-86.902 0-29.82 5.8086-59.352 17.094-86.902 11.289-27.551 27.828-52.586 48.684-73.672 20.852-21.09 45.609-37.816 72.855-49.23 27.25-11.41 56.453-17.285 85.941-17.285z"/>
  <path d="m256.25 215.39c-2.3008 0-4.543-0.45703-6.6719-1.3555-4.2188-1.7812-7.4922-5.1016-9.2109-9.3438-1.7227-4.2422-1.6914-8.9062 0.09375-13.125 2.6875-6.3633 8.8945-10.477 15.801-10.477 2.3008 0 4.5391 0.45312 6.668 1.3555 8.7109 3.6836 12.801 13.762 9.1211 22.473-2.6875 6.3633-8.8867 10.473-15.801 10.473zm0.011719-24.625c-3.0156 0-5.7188 1.793-6.8906 4.5703-0.77734 1.8398-0.79297 3.8711-0.042969 5.7188 0.75 1.8516 2.1758 3.2969 4.0156 4.0742 3.75 1.582 8.2383-0.27734 9.7969-3.9727 1.6016-3.7969-0.17969-8.1914-3.9727-9.7969-0.92969-0.39453-1.9062-0.59375-2.9062-0.59375z"/>
  <path d="m322.35 325.4-8.0547 1.6641s9.5547 19.719 9.2305 18.613z"/>
  <path d="m332 318.65-6.4922 5.0352s17.309 13.484 16.539 12.633z"/>
  <path d="m341.18 314.25-6.457 5.0938s17.371 13.359 16.586 12.508z"/>
  <path d="m289.15 189.14c0.085937 3.2695-2.6055 5.9805-6.0234 6.0664-3.418 0.085937-6.25-2.4883-6.3398-5.7578-0.085937-3.2617 2.6016-5.9766 6.0156-6.0625 3.4258-0.085937 6.2578 2.4844 6.3477 5.7539z"/>
  <path d="m337.29 287.58c-5.207-5.8906-44.828-51.215-45.727-57.828-1.5977-11.797-3.1992-23.594-4.7969-35.391-1.3477-9.9531-16.102-1.9336-21.68 0.10938-7.8711 2.8906-16.418 4.1953-24.758 5.8555-1.8672-2.1172-4.207-3.8711-6.9766-5.043-2.418-1.0195-4.9648-1.5391-7.5703-1.5391-7.8398 0-14.883 4.6641-17.938 11.891-1.4492 3.4375-1.8164 7.0586-1.2852 10.5-8.6484 8.2695-14.434 19.273-14.105 31.617-0.26953 7.2617 3.6641 18.242-2.1875 23.285-19.098 16.469-54.816 40.254-30.211 68.605 24.785 28.566 53.848-3.8516 73.109-20.469 10.562-9.1133 44.145-22.18 53.195-11.945 9.3984 10.625 18.52 24.176 34.156 24.891 24.734 1.1211 31.059-28.379 16.773-44.539zm-102.11-70.391c-2.1953 5.1953-8.1836 7.6211-13.379 5.4297-5.1914-2.1953-7.6211-8.1836-5.4297-13.379 2.1914-5.1953 8.1836-7.6211 13.375-5.4297 5.1953 2.1953 7.625 8.1836 5.4336 13.379z"/>
  <path d="m152.43 322.71-8.8594 19.145 13.188-14.773z"/>
  <path d="m158.46 330.51s-10.777 19.082-10.059 18.188c0.73047-0.89844 16.02-12.547 16.02-12.547z"/>
  <path d="m168.82 338.26-8.8594 19.137 13.188-14.781z"/>
 </g>
</svg>
