<?xml version="1.0" encoding="UTF-8"?>
<svg id="Calque_2" data-name="Calque 2" xmlns="http://www.w3.org/2000/svg" viewBox="0 0 124.42 124.42">
  <defs>
    <style>
      .cls-1 {
        fill: #3ca4b5;
      }

      .cls-2 {
        fill: none;
        opacity: .1;
      }
    </style>
  </defs>
  <g id="disques">
    <path class="cls-2" d="m124.42,62.21c0,34.36-27.85,62.21-62.21,62.21S0,96.57,0,62.21,27.85,0,62.21,0s62.21,27.85,62.21,62.21Z"/>
  </g>
  <g id="trait">
    <path class="cls-1" d="m62.21,37.9c13.43,0,24.3,10.9,24.29,24.32,0,13.43-10.9,24.3-24.32,24.29-13.42,0-24.3-10.9-24.29-24.32,0-13.42,10.9-24.3,24.32-24.29Z"/>
    <path class="cls-1" d="m104.85,82.46c-.69.04-1.28.07-1.79.12.71-.11,1.61-.27,2.71-.48,4.86-.93,11.98-5.62,14.02-7.97.44-.51-10.25,1.88-15.25,1.26-.44-.05-.8-.1-1.1-.13.35.01.75.02,1.17,0,3.95-.14,8.8-.86,13.32-4.19.32-.23-9.12.05-14.68-1.58-.08-.02-.14-.04-.21-.06.59.11,1.57.23,2.75.21,3.01-.06,4.99-.13,8.11-1.71.14-.07-8.41-1.17-17.95-5.63,0-.17,0-.34,0-.51,0-18.66-15.13-33.79-33.79-33.79s-33.79,15.13-33.79,33.79c0,.18,0,.35,0,.53-9.53,4.45-18.06,5.54-17.92,5.61,3.12,1.58,5.1,1.65,8.11,1.71,1.18.02,2.16-.1,2.75-.21-.07.02-.13.04-.21.06-5.55,1.62-14.99,1.34-14.67,1.58,4.51,3.33,9.37,4.05,13.32,4.19.42.01.82.01,1.17,0-.3.03-.66.07-1.09.13-5.01.62-15.69-1.77-15.25-1.26,2.04,2.35,9.16,7.04,14.02,7.97,1.11.21,2,.37,2.71.48-.5-.04-1.1-.08-1.78-.12-7.33-.37-16.44-5.3-16.08-4.49,2.27,5.08,16.04,18.54,29.75,18.54,5.51,0,11.02-2.39,15.58-5.73.79,1.64,1.52,3.27,2.15,4.81,1.76,4.31,6.42,13.44,6.9,16.43.4,2.47,6.95,2.5,7.51.69.69-2.24,6.68-12.56,8.53-17.37.52-1.35,1.18-2.86,1.92-4.43,4.53,3.27,9.95,5.59,15.38,5.59,13.71,0,27.48-13.46,29.75-18.54.36-.81-8.76,4.12-16.08,4.49Zm-42.51,8.1c-15.71,0-28.43-12.75-28.42-28.45.01-15.7,12.75-28.42,28.45-28.42,15.7.01,28.42,12.75,28.41,28.45-.01,15.7-12.75,28.43-28.45,28.42Z"/>
  </g>
</svg>