<?xml version="1.0" encoding="UTF-8"?>
<svg width="512pt" height="512pt" version="1.1" viewBox="0 0 512 512" xmlns="http://www.w3.org/2000/svg">
 <defs>
  <clipPath id="a">
   <path d="m94.781 108h322.44v296h-322.44z"/>
  </clipPath>
 </defs>
 <path d="m256 0c-33.617 0-66.906 6.6211-97.965 19.488-31.062 12.863-59.281 31.719-83.055 55.492-23.773 23.773-42.629 51.992-55.492 83.055-12.867 31.059-19.488 64.348-19.488 97.965 0 67.895 26.973 133.01 74.98 181.02 48.012 48.008 113.12 74.98 181.02 74.98s133.01-26.973 181.02-74.98c48.008-48.008 74.98-113.12 74.98-181.02s-26.973-133.01-74.98-181.02c-48.008-48.008-113.12-74.98-181.02-74.98zm0 28.91c29.492 0 58.695 5.875 85.941 17.289 27.246 11.41 52.004 28.137 72.855 49.227 20.855 21.086 37.395 46.121 48.684 73.672 11.285 27.551 17.094 57.082 17.094 86.902 0 60.227-23.66 117.99-65.777 160.57-42.113 42.59-99.234 66.512-158.8 66.516-29.488 0-58.691-5.875-85.941-17.289-27.246-11.41-52-28.137-72.855-49.227-20.852-21.086-37.395-46.121-48.68-73.672-11.289-27.551-17.098-57.078-17.098-86.902 0-29.82 5.8086-59.352 17.094-86.902 11.289-27.551 27.828-52.586 48.684-73.672 20.852-21.09 45.609-37.816 72.855-49.23 27.25-11.41 56.453-17.285 85.941-17.285z"/>
 <g clip-path="url(#a)">
  <path d="m261.21 153.82c6.5 0 13.02 1.4648 17.531 5.7109 12.816 12.051 19.883 23.43 19.938 30.875l-0.011719 0.14453c-0.39062 3.1992-2.0039 12.711-7.6875 21.496-0.078124 0.12109-0.16016 0.24219-0.24219 0.36328-1.3398 2.043-2.9414 4.0195-4.7812 5.8867-0.20312 0.19922-0.42969 0.40234-0.63281 0.60156-1.8516 1.7891-3.9492 3.4258-6.3242 4.8633-0.29688 0.17578-0.62109 0.32422-0.91406 0.48438-2.4727 1.3828-5.2148 2.5664-8.3164 3.3867-0.26953 0.082032-0.56641 0.10547-0.83594 0.17578-3.3047 0.80469-6.8906 1.3164-10.949 1.3164-3.8008 0-7.1445-0.47266-10.25-1.1719-0.42969-0.09375-0.89844-0.14453-1.3281-0.25391-2.6484-0.68359-4.9727-1.6797-7.1484-2.7812-0.69922-0.36328-1.4258-0.68359-2.0703-1.0742-1.8008-1.0742-3.3828-2.2969-4.8477-3.5859-0.71484-0.63281-1.4102-1.2656-2.0586-1.9219-1.2344-1.2891-2.3633-2.6484-3.3555-4.043-0.52734-0.71484-0.99609-1.4258-1.4375-2.1523-0.96875-1.5586-1.8672-3.1406-2.582-4.7266-0.1875-0.39062-0.34766-0.78125-0.52344-1.1719-2.5117-5.9766-3.4922-11.605-3.8438-14.91 0.13672-8.6133 7.1367-19.871 19.777-31.762 2.5-2.1484 12.695-5.75 22.895-5.75m154.18 162.56-23.242-39.617-36.828-9.2031c-0.96484-12.684-2.9258-23.809-5.5078-33.453l19.105-18.422h21.441c7.418 0 13.438-6.0039 13.438-13.434 0-7.418-6.0195-13.434-13.438-13.434h-32.297l-18.605 17.949c-4.7461-9.2188-9.6875-16.055-13.691-20.609-0.21484-0.24219-0.48438-0.44531-0.69922-0.67188-1.4766-10.629-6.7695-21.551-15.801-32.633l23.043-21.352c5.4531-5.0352 5.7773-13.539 0.72656-18.98-5.0391-5.457-13.559-5.7656-18.984-0.72656l-24.387 22.598c-19.359-11.688-45.273-7.6172-60.441-0.39062l-16.434-20.703c-4.6055-5.832-13.07-6.7852-18.875-2.1758-5.8047 4.6211-6.7852 13.059-2.1641 18.875l17.172 21.645c-9.4336 11.285-15.062 22.477-16.715 33.695-0.28125 0.28125-0.61719 0.52344-0.87109 0.83203-4.1797 4.7695-9.4062 11.902-14.336 21.777l-23.727-19.129h-31.613c-7.4141 0-13.434 6.0156-13.434 13.434 0 7.4297 6.0195 13.434 13.434 13.434h22.129l23.375 18.852c-2.4453 9.2539-4.3633 19.75-5.332 31.73l-41.957 10.496-23.242 39.617c-3.75 6.3945-1.6133 14.617 4.7969 18.379 2.1367 1.2656 4.4727 1.8398 6.7852 1.8398 4.6055 0 9.0938-2.3633 11.605-6.6367l17.52-29.879 24.332-6.0703c1.207 9.4453 4.7148 25.23 14.645 43.797l-27.973 11.984-12.09 36.312c-2.3516 7.0273 1.4609 14.633 8.5039 16.984 1.3945 0.46875 2.832 0.69922 4.2305 0.69922 5.6289 0 10.883-3.5625 12.75-9.2031l8.2773-24.844 21.145-9.0664c4.5664 5.9102 9.793 11.93 15.855 17.988l6.4062 6.4102c12.051 12.062 28.078 18.699 45.129 18.699 17.062 0 33.09-6.6367 45.152-18.699l6.3984-6.4102c5.8828-5.8828 10.988-11.742 15.477-17.504l16.27 8.1406 8.4219 25.285c1.8828 5.6406 7.1211 9.2031 12.75 9.2031 1.4102 0 2.8477-0.23047 4.2461-0.69922 7.0391-2.3516 10.855-9.957 8.5039-16.984l-11.945-35.855-23.402-11.703c9.793-18.098 13.488-33.613 14.859-43.312l19.398 4.8477 17.52 29.879c2.5156 4.2734 7 6.6367 11.609 6.6367 2.3125 0 4.6484-0.58984 6.7852-1.8398 6.3945-3.7617 8.543-11.984 4.7969-18.379" fill-rule="evenodd"/>
 </g>
</svg>
