<?xml version="1.0" encoding="UTF-8"?>
<svg width="512pt" height="512pt" version="1.1" viewBox="0 0 512 512" xmlns="http://www.w3.org/2000/svg">
 <g>
  <path d="m256 0c-33.617 0-66.906 6.6211-97.965 19.488-31.062 12.863-59.281 31.719-83.055 55.492-23.773 23.773-42.629 51.992-55.492 83.055-12.867 31.059-19.488 64.348-19.488 97.965 0 67.895 26.973 133.01 74.98 181.02 48.012 48.008 113.12 74.98 181.02 74.98s133.01-26.973 181.02-74.98c48.008-48.008 74.98-113.12 74.98-181.02s-26.973-133.01-74.98-181.02c-48.008-48.008-113.12-74.98-181.02-74.98zm0 28.91c29.492 0 58.695 5.875 85.941 17.289 27.246 11.41 52.004 28.137 72.855 49.227 20.855 21.086 37.395 46.121 48.684 73.672 11.285 27.551 17.094 57.082 17.094 86.902 0 60.227-23.66 117.99-65.777 160.57-42.113 42.59-99.234 66.512-158.8 66.516-29.488 0-58.691-5.875-85.941-17.289-27.246-11.41-52-28.137-72.855-49.227-20.852-21.086-37.395-46.121-48.68-73.672-11.289-27.551-17.098-57.078-17.098-86.902 0-29.82 5.8086-59.352 17.094-86.902 11.289-27.551 27.828-52.586 48.684-73.672 20.852-21.09 45.609-37.816 72.855-49.23 27.25-11.41 56.453-17.285 85.941-17.285z"/>
  <path d="m242.46 187.96c0 6.4492-9.6719 6.4492-9.6719 0 0-6.4492 9.6719-6.4492 9.6719 0"/>
  <path d="m299.53 297.92c10.961-9.6758 17.73-25.152 17.73-42.562 0-20.637-9.6719-38.371-24.184-47.723 9.0273-9.9961 14.508-23.859 14.508-39.66 0-29.988-20.312-54.168-45.785-54.168-25.148 0-45.785 24.184-45.785 54.168v1.9336c-9.0273 9.9961-14.832 24.184-14.832 39.98 0 16.121 6.125 30.633 15.477 40.629-13.543 9.3516-22.25 26.762-22.25 46.43 0 20.957 10.316 39.336 25.148 48.043-5.1602 27.406 8.3828 50.301 31.922 51.914 24.828 1.9336 51.59-20.312 59.652-49.977 5.8086-19.988 0.64844-39.012-11.602-49.008zm-61.91-98.023c-6.125 0-11.285-5.1602-11.285-11.609 0-6.4492 5.1602-11.609 11.285-11.609s11.285 5.1602 11.285 11.609c0 6.4531-5.1602 11.609-11.285 11.609zm33.535 0c-6.125 0-11.285-5.1602-11.285-11.609 0-6.4492 5.1602-11.609 11.285-11.609s11.285 5.1602 11.285 11.609c0.32031 6.4531-4.8359 11.609-11.285 11.609z"/>
  <path d="m275.67 187.96c0 6.4492-9.6719 6.4492-9.6719 0 0-6.4492 9.6719-6.4492 9.6719 0"/>
 </g>
</svg>
