<?xml version="1.0" encoding="UTF-8"?>
<svg width="512pt" height="512pt" version="1.1" viewBox="0 0 512 512" xmlns="http://www.w3.org/2000/svg">
 <defs>
  <clipPath id="a">
   <path d="m94.781 101h311.22v298h-311.22z"/>
  </clipPath>
 </defs>
 <path d="m256 0c-33.617 0-66.906 6.6211-97.965 19.488-31.062 12.863-59.281 31.719-83.055 55.492-23.773 23.773-42.629 51.992-55.492 83.055-12.867 31.059-19.488 64.348-19.488 97.965 0 67.895 26.973 133.01 74.98 181.02 48.012 48.008 113.12 74.98 181.02 74.98s133.01-26.973 181.02-74.98c48.008-48.008 74.98-113.12 74.98-181.02s-26.973-133.01-74.98-181.02c-48.008-48.008-113.12-74.98-181.02-74.98zm0 28.91c29.492 0 58.695 5.875 85.941 17.289 27.246 11.41 52.004 28.137 72.855 49.227 20.855 21.086 37.395 46.121 48.684 73.672 11.285 27.551 17.094 57.082 17.094 86.902 0 60.227-23.66 117.99-65.777 160.57-42.113 42.59-99.234 66.512-158.8 66.516-29.488 0-58.691-5.875-85.941-17.289-27.246-11.41-52-28.137-72.855-49.227-20.852-21.086-37.395-46.121-48.68-73.672-11.289-27.551-17.098-57.078-17.098-86.902 0-29.82 5.8086-59.352 17.094-86.902 11.289-27.551 27.828-52.586 48.684-73.672 20.852-21.09 45.609-37.816 72.855-49.23 27.25-11.41 56.453-17.285 85.941-17.285z"/>
 <g clip-path="url(#a)">
  <path d="m393.04 214.33c-2.9023-2.8984-6.332-5.0547-10.008-6.8086 5.0312-7.8164 8.0352-16.855 8.3711-26.492 0.56641-16.094-5.9844-29.535-18.949-38.859l-1.043-0.68359c-2.0117-1.1875-45.812-25.887-98.074-7.7891-0.46484-0.87891-0.79688-1.8047-1.4805-2.582-6.4492-7.375-26.043-29.832-73.879-29.832-7.1328 0-12.898 5.7812-12.898 12.898 0 7.1211 5.7656 12.898 12.898 12.898 30.375 0 44.523 10.742 51.27 17.594-7.0547 3.9336-18.973 11.102-33.379 21.809-36.887-25.758-67.754-9.1719-79.113 3.6094-4.7344 5.3281-4.2578 13.48 1.0703 18.211 5.3125 4.7344 13.465 4.2578 18.195-1.0703 0.67188-0.74609 14.82-16.094 38.617-3.5977-10.344 9.0273-21.141 19.629-31.781 31.754-4.9492-4.2812-12.395-8.9883-22.402-10.254-13.746-1.7031-27.602 3.4688-41.246 15.414-5.3633 4.6953-5.9062 12.844-1.2266 18.211 4.7109 5.3398 12.848 5.8828 18.199 1.1992 5.3555-4.6836 13.285-10.059 20.832-9.2461 4.3594 0.47656 7.582 2.875 9.582 4.7461-10.32 13.875-20.094 29.301-28.57 46.508-10.871 22.043-13.242 46.16-6.668 67.945 6.8633 22.723 21.617 38.961 42.641 46.934l1.7812 0.52734c0.82422 0.19531 4.293 0.89062 9.2852 0.89062 7.7383 0 19.129-1.6641 30.18-9.4023 12.215-8.5391 20.441-22.324 24.84-39.984 14.535 4.543 37.883 15.363 42.641 38.734 1.2383 6.0977 6.6172 10.316 12.625 10.316 0.85156 0 1.7188-0.078125 2.582-0.25781 6.9883-1.4297 11.492-8.2305 10.059-15.219-7.4688-36.719-41.09-52.285-61.043-58.414 3.0039-7.2344 7.918-17.023 15.426-27.676 14.316 3.8164 43.656 14.508 45.953 38.316 0.64453 6.668 6.2422 11.66 12.82 11.66 0.41406 0 0.82422-0.027344 1.25-0.066407 7.082-0.68359 12.277-6.9766 11.594-14.07-3.1719-33.055-32.32-49.473-53.434-57.121 8.5508-8.2539 19-16.199 31.484-23.164 1.5195 1.6094 3.3125 2.9766 5.5859 3.6367 1.457 0.42578 35.75 10.977 42.379 54.055 0.98047 6.3711 6.4766 10.934 12.73 10.934 0.64453 0 1.3164-0.050781 1.9727-0.15234 7.043-1.0859 11.867-7.6602 10.781-14.703-5.7617-37.508-27.328-57.188-43.168-66.809 6.9414-2.2461 14.176-4.2695 22.07-5.8047 3.625-0.71094 7.0938-1.7656 10.434-3.043 0.089843-0.015625 0.19141 0.023437 0.29688 0.011718 6.5391-1.2266 15.297-1.793 19.641 2.5 5.3555 5.2891 4.6562 17.363 4 21.207-1.2773 6.9766 3.3281 13.684 10.305 14.984 0.8125 0.14453 1.5977 0.21875 2.3867 0.21875 6.1016 0 11.516-4.332 12.664-10.535 0.53125-2.8516 4.7344-28.273-11.078-44.086" fill-rule="evenodd"/>
 </g>
</svg>
