<?xml version="1.0" encoding="UTF-8"?>
<svg width="512pt" height="512pt" version="1.1" viewBox="0 0 512 512" xmlns="http://www.w3.org/2000/svg">
 <g>
  <path d="m256 0c-33.617 0-66.906 6.6211-97.965 19.488-31.062 12.863-59.281 31.719-83.055 55.492-23.773 23.773-42.629 51.992-55.492 83.055-12.867 31.059-19.488 64.348-19.488 97.965 0 67.895 26.973 133.01 74.98 181.02 48.012 48.008 113.12 74.98 181.02 74.98s133.01-26.973 181.02-74.98c48.008-48.008 74.98-113.12 74.98-181.02s-26.973-133.01-74.98-181.02c-48.008-48.008-113.12-74.98-181.02-74.98zm0 28.91c29.492 0 58.695 5.875 85.941 17.289 27.246 11.41 52.004 28.137 72.855 49.227 20.855 21.086 37.395 46.121 48.684 73.672 11.285 27.551 17.094 57.082 17.094 86.902 0 60.227-23.66 117.99-65.777 160.57-42.113 42.59-99.234 66.512-158.8 66.516-29.488 0-58.691-5.875-85.941-17.289-27.246-11.41-52-28.137-72.855-49.227-20.852-21.086-37.395-46.121-48.68-73.672-11.289-27.551-17.098-57.078-17.098-86.902 0-29.82 5.8086-59.352 17.094-86.902 11.289-27.551 27.828-52.586 48.684-73.672 20.852-21.09 45.609-37.816 72.855-49.23 27.25-11.41 56.453-17.285 85.941-17.285z"/>
  <path d="m235.36 294.37c0 5.6992-4.6172 10.316-10.316 10.316s-10.32-4.6172-10.32-10.316c0-5.6992 4.6211-10.32 10.32-10.32s10.316 4.6211 10.316 10.32"/>
  <path d="m296.3 294.37c0 5.6992-4.6211 10.316-10.316 10.316-5.6992 0-10.32-4.6172-10.32-10.316 0-5.6992 4.6211-10.32 10.32-10.32 5.6953 0 10.316 4.6211 10.316 10.32"/>
  <path d="m358.86 295.66c0-0.32422-0.96875-0.96875-0.96875-0.96875 0-19.348-12.898-34.5-29.988-39.016v-1.2891c0-16.445-9.9961-30.633-24.184-37.082 17.734-47.723-57.07-81.898-57.07-81.898s17.09 51.59-17.09 51.59c-19.668 0-21.281 15.477-19.348 28.695-16.445 5.1602-28.051 20.312-28.051 38.371v0.96875c-16.445 4.5156-29.02 20.312-29.988 36.434 0 0 0.32422 1.2891 0.32422 2.2578 0 0 0.32422 0.32422 0.32422 0.64453h-0.32422c0 0.32422-0.64453 0.64453-0.64453 1.2891-19.344 2.9062-34.5 19.672-34.5 39.664 0 22.246 18.379 39.98 40.629 39.98h194.11c22.246 0 42.559-17.734 42.559-39.98 0-20.312-16.121-36.758-35.789-39.66zm-133.81 20.312c-11.609 0-20.637-9.6719-20.637-21.281 0-11.93 9.3516-21.281 20.637-21.281 11.609 0 20.637 9.6719 20.637 21.281 0 11.934-9.0312 21.281-20.637 21.281zm61.262 0c-11.609 0-20.637-9.6719-20.637-21.281 0-11.93 9.3516-21.281 20.637-21.281 11.609 0 20.637 9.6719 20.637 21.281 0.32422 11.934-9.0273 21.281-20.637 21.281z"/>
 </g>
</svg>
