<svg width="403" height="443" viewBox="0 0 403 443" fill="none" xmlns="http://www.w3.org/2000/svg">
<path d="M0.35904 303.136C5.2769 419.059 162.958 474.215 295.351 422.888C357.127 398.911 406.436 322.187 402.787 227.659C368.225 226.577 353.5 200.394 352.548 171.399C300.615 168.219 293.058 121.932 312.982 90.4275C291.421 81.2408 280.691 59.9829 285.66 36.98C111.133 -84.4449 -7.2485 124.593 0.35904 303.136Z" fill="#D87220"/>
<path d="M15.6749 286.306C20.2395 393.648 166.254 444.716 288.818 397.189C346.001 374.986 389.007 316.859 395.086 234.524C363.696 229.181 346.369 205.529 345.482 178.654C316.083 175.128 285.314 157.677 293.325 115.486C295.128 106.061 300.615 98.1078 306.377 91.1132C286.438 82.6115 275.254 61.159 279.862 39.8723C118.236 -72.5679 8.62263 120.981 15.6749 286.306Z" fill="#E27D22"/>
<path d="M28.8289 271.682C33.0401 371.084 168.238 418.381 281.753 374.358C334.731 353.792 370.671 307.239 383.138 240.206C354.316 230.601 341.409 210.179 340.594 185.323C335.416 185.057 330.109 183.593 324.903 181.985C295.54 172.942 275.58 148.014 285.935 113.517C288.509 105.001 292.677 97.422 298.035 90.9538C279.517 83.0795 269.191 63.2133 273.431 43.4986C123.811 -60.6057 22.3102 118.615 28.8289 271.682Z" fill="#EA8B24"/>
<path d="M41.9747 258.861C45.8758 350.901 171.05 394.679 276.15 353.916C325.191 334.893 361.08 293.964 370.671 244.014C349.211 234.178 335.64 213.014 334.89 189.989C330.109 189.744 325.271 189.131 320.447 187.689C288.509 178.07 270.417 144.351 280.029 112.421C282.423 104.54 286.296 97.5163 291.214 91.5312C274.088 84.2337 264.497 65.8603 268.47 47.5878C129.905 -48.8153 35.9463 117.13 41.9747 258.861Z" fill="#F59C27"/>
<path d="M73.2536 173.036C82.9451 88.1853 154.232 -15.2196 227.618 64.5983C300.997 144.373 265.591 204.584 201.248 218.581C136.84 232.527 67.1459 226.527 73.2536 173.036Z" fill="#F5A63B"/>
<path d="M85.6279 160.561C93.9782 87.3703 155.538 -1.87228 218.843 67.0066C282.169 135.849 251.617 187.754 196.063 199.861C140.546 211.925 80.3856 206.733 85.6279 160.561Z" fill="#F4B056"/>
<path d="M112.029 131.515C117.675 81.7672 159.506 21.1304 202.548 67.9439C245.561 114.764 224.801 150.004 187.066 158.218C149.338 166.445 108.452 162.912 112.029 131.515Z" fill="#F7BC6D"/>
</svg>
