<svg width="403" height="443" viewBox="0 0 403 443" fill="none" xmlns="http://www.w3.org/2000/svg">
<path d="M0.361616 303.149C5.27951 419.072 162.962 474.228 295.356 422.901C357.133 398.924 406.442 322.2 402.793 227.672C368.23 226.59 353.506 200.407 352.554 171.412C300.62 168.232 293.063 121.945 312.987 90.4405C291.426 81.2537 280.696 59.9959 285.665 36.993C111.137 -84.432 -7.25319 124.599 0.361616 303.149Z" fill="#F59C27"/>
<path d="M15.67 286.318C20.2346 393.66 166.25 444.728 288.815 397.201C345.998 374.998 389.005 316.871 395.084 234.537C363.694 229.193 346.366 205.541 345.479 178.666C316.08 175.14 285.311 157.69 293.322 115.498C295.125 106.074 300.612 98.12 306.374 91.1254C286.436 82.6237 275.251 61.1712 279.859 39.8845C118.239 -72.5557 8.61768 120.993 15.67 286.318Z" fill="#F4BB3A"/>
<path d="M28.8235 271.694C33.0348 371.096 168.234 418.393 281.749 374.37C334.728 353.805 370.668 307.251 383.136 240.218C354.313 230.613 341.406 210.192 340.591 185.336C335.413 185.069 330.106 183.605 324.9 181.997C295.537 172.954 275.577 148.026 285.932 113.529C288.506 105.013 292.674 97.4342 298.032 90.966C279.514 83.0916 269.188 63.2255 273.428 43.5108C123.814 -60.5935 22.312 118.627 28.8235 271.694Z" fill="#F7DC85"/>
<path d="M41.9695 258.873C45.8707 350.914 171.046 394.691 276.147 353.928C325.189 334.905 361.078 293.976 370.668 244.026C349.208 234.19 335.637 213.026 334.887 190.002C330.106 189.756 325.268 189.143 320.444 187.701C288.506 178.082 270.414 144.364 280.026 112.434C282.42 104.552 286.292 97.5285 291.21 91.5434C274.084 84.246 264.494 65.8725 268.467 47.6C129.908 -48.8031 35.9484 117.142 41.9695 258.873Z" fill="white"/>
</svg>
