<svg xmlns="http://www.w3.org/2000/svg" viewBox="0 0 27.65 40.65"><defs><style>.cls-1{fill:#f4ebdf;}.cls-2{fill:#f9f1e4;}.cls-3{fill:#fcf7f0;}.cls-4{fill:#fffefb;}</style></defs><g id="Calque_2" data-name="Calque 2"><g id="bouton_popup" data-name="bouton popup"><path class="cls-1" d="M13.87,40.65c5.54,0,14.3-4.8,13.75-14.94-.47-8.84-6.2-15.84-8.8-17.75-.68-.5.9,2.71,0,7-.06.3-1.12-9.86-9.12-14.92A14.45,14.45,0,0,1,10,8c-1.54,6.21-3.13,8.56-3.18,8.39-.71-2.31,1.24-6.4.88-6.1C7,10.85,1,16.3.12,23.8S2.82,40.62,13.87,40.65Z"/><path class="cls-2" d="M13.87,39.63c5.26,0,13.58-4.56,13.06-14.19C26.48,17.05,21.15,10.25,19,8.25c-.59-.54,1.39,3.65-.32,7.67-.12.27-1-10.63-8.75-15.62-.3-.19,1.47,3.4.24,8.36-1.45,5.89-3.24,8.13-3.34,8-1.22-1.29.82-6,.47-5.76A22.24,22.24,0,0,0,.81,23.62C0,30.74,3.37,39.6,13.87,39.63Z"/><path class="cls-3" d="M13.87,38.67c5,0,12.9-4.33,12.41-13.49-.43-8-4.92-14.38-7-16.29-.56-.51,1.56,3.77-.72,7.52-.15.24-1.26-11.18-8.48-15.75a14.73,14.73,0,0,1,.19,8.52c-1.41,5-3.14,8-3.46,7.74-1.5-1.13.64-6,.31-5.71A22.71,22.71,0,0,0,1.46,23.46C.68,30.22,3.89,38.64,13.87,38.67Z"/><path class="cls-4" d="M13.86,37.75c4.76,0,12.26-4.11,11.79-12.81-.4-7.57-4.16-13.76-6.12-15.57-.53-.49,1.67,3.18-1.05,7.87-.28.47-1.07-11.33-8.09-16.17-.26-.18,1.57,2.79,0,8.76-1.4,5.3-3.26,7.43-3.56,7.25C5,16,7.26,11.31,7,11.57A24.2,24.2,0,0,0,1.82,23.38C.94,29.79,4.39,37.72,13.86,37.75Z"/></g></g></svg>