<svg width="15" height="15" viewBox="0 0 15 15" fill="none" xmlns="http://www.w3.org/2000/svg">
<path d="M8.77993 0.310041C12.6599 0.990041 15.2599 4.69004 14.5799 8.58004C13.8999 12.47 10.1999 15.06 6.30993 14.38C2.42993 13.7 -0.170072 10 0.509928 6.11004C1.18993 2.22004 4.88993 -0.369959 8.77993 0.310041Z" fill="white"/>
<path d="M8.59981 1.32011C11.9298 1.90011 14.1498 5.07011 13.5698 8.40011C12.9898 11.7301 9.81981 13.9501 6.48981 13.3701C3.15981 12.7901 0.939813 9.62011 1.51981 6.29011C2.09981 2.96011 5.26981 0.740106 8.59981 1.32011Z" fill="#F59C27"/>
<path d="M11.6599 5.06997L9.81993 3.21997L7.53992 5.49997L5.26993 3.21997L3.41992 5.06997L5.69992 7.33997L3.41992 9.61997L5.26993 11.46L7.53992 9.18997L9.81993 11.46L11.6599 9.61997L9.38992 7.33997L11.6599 5.06997Z" fill="#F2F2F2"/>
</svg>
