<svg width="397" height="506" viewBox="0 0 397 506" fill="none" xmlns="http://www.w3.org/2000/svg">
<path d="M59.1925 256.903C77.6309 263.84 90.3005 288.3 103.713 299.174C117.904 310.711 140.323 328.594 142.832 345.627C146.077 367.303 138.246 415.111 81.7699 416.258C31.4736 417.296 4.83644 343.867 0.949746 322.862C-4.25655 294.854 13.7275 239.748 59.1925 256.903Z" fill="#D87220"/>
<path d="M145.76 62.2219C187.151 54.5062 188.492 89.3062 189.956 174.763C191.513 264.957 176.039 286.504 139.566 285.624C81.7916 284.254 56.8418 231.095 70.5642 173.249C86.796 104.824 104.708 69.8583 145.76 62.2219Z" fill="#D87220"/>
<path d="M145.514 67.7312C183.841 60.5852 185.088 92.7964 186.465 171.944C187.9 255.432 173.579 275.406 139.796 274.577C86.3343 273.308 63.2088 224.108 75.9361 170.509C90.9565 107.153 107.52 74.8123 145.514 67.7312Z" fill="#E27D22"/>
<path d="M144.874 73.0315C180.359 66.4191 181.535 96.2436 182.789 169.521C184.131 246.815 170.855 265.311 139.581 264.561C90.0638 263.386 68.669 217.834 80.43 168.216C94.3616 109.548 109.706 79.5719 144.874 73.0315Z" fill="#EA8B24"/>
<path d="M143.797 78.6344C176.441 72.5556 177.523 100 178.669 167.43C179.888 238.523 167.694 255.54 138.901 254.855C93.3712 253.766 73.6709 211.849 84.5017 166.218C97.3228 112.23 111.435 84.6628 143.797 78.6344Z" fill="#F59C27"/>
<path d="M121.287 492.391C96.7911 474.667 100.988 436.896 129.781 412.876C165.345 383.232 160.507 348.764 170.061 338.358C180.957 326.503 210.335 325.184 222.204 338.365C234.102 351.562 241.313 385.215 254.624 403.004C268.145 421.039 299.851 438.295 292.907 467.304C286.222 495.326 264.51 502.97 246.057 504.924C227.547 506.907 214.661 494.316 198.285 493.725C180.705 493.047 152.315 514.824 121.287 492.391Z" fill="#D87220"/>
<path d="M127.544 484.033C105.01 467.715 108.882 432.965 135.375 410.878C168.099 383.599 163.635 351.871 172.425 342.309C182.456 331.392 209.461 330.187 220.407 342.309C231.353 354.481 237.987 385.445 250.21 401.778C262.67 418.363 291.817 434.249 285.442 460.951C279.284 486.737 259.31 493.746 242.314 495.57C225.325 497.388 213.463 485.792 198.399 485.237C182.196 484.646 156.092 504.656 127.544 484.033Z" fill="#E27D22"/>
<path d="M133.3 476.519C112.583 461.506 116.138 429.526 140.511 409.227C170.624 384.097 166.528 354.943 174.605 346.146C183.827 336.079 208.698 334.969 218.743 346.16C228.802 357.308 234.917 385.791 246.159 400.833C257.603 416.12 284.449 430.73 278.572 455.283C272.904 479.007 254.545 485.454 238.912 487.127C223.25 488.807 212.361 478.156 198.502 477.63C183.589 477.096 159.577 495.52 133.3 476.519Z" fill="#EA8B24"/>
<path d="M138.593 470.571C119.52 456.783 122.793 427.356 145.212 408.658C172.902 385.575 169.131 358.729 176.58 350.624C185.06 341.401 207.94 340.356 217.185 350.646C226.422 360.9 232.068 387.126 242.416 400.942C252.944 415.011 277.627 428.459 272.218 451.051C267.005 472.864 250.103 478.791 235.724 480.327C221.331 481.892 211.315 472.071 198.566 471.616C184.858 471.104 162.749 488.05 138.593 470.571Z" fill="#F59C27"/>
<path d="M58.7171 259.947C75.7998 266.387 87.5176 289.022 99.9348 299.095C113.08 309.782 133.841 326.345 136.17 342.13C139.17 362.22 131.923 406.466 79.6288 407.519C33.0678 408.478 8.4136 340.493 4.77928 321.067C-0.0304117 295.122 16.6269 244.09 58.7171 259.947Z" fill="#E27D22"/>
<path d="M58.1964 263.22C73.8874 269.126 84.6822 289.943 96.0899 299.238C108.197 309.038 127.306 324.268 129.448 338.776C132.181 357.272 125.525 397.985 77.4352 398.973C34.5878 399.838 11.8734 337.298 8.54913 319.422C4.15046 295.539 19.4737 248.603 58.1964 263.22Z" fill="#EA8B24"/>
<path d="M58.1323 266.385C72.583 271.83 82.5053 291.011 92.9972 299.52C104.138 308.584 121.697 322.559 123.694 335.928C126.218 352.924 120.081 390.392 75.828 391.293C36.4202 392.108 15.5445 334.543 12.4799 318.117C8.42012 296.145 22.5175 252.951 58.1323 266.385Z" fill="#F59C27"/>
<path d="M22.3368 239.439C19.8851 231.572 27.2907 193.786 33.8527 193.859C40.7968 193.931 42.6788 210.811 44.1643 219.176C45.7651 228.161 47.0631 236.627 43.5802 241.71C38.6695 248.9 24.7452 247.248 22.3368 239.439Z" fill="#D87220"/>
<path d="M23.8429 236.447C21.7085 229.632 28.1262 196.779 33.8517 196.837C39.88 196.88 41.5241 211.562 42.8077 218.838C44.1922 226.647 45.3459 234.024 42.3173 238.422C38.0196 244.682 25.9413 243.232 23.8429 236.447Z" fill="#E27D22"/>
<path d="M25.4817 232.45C23.6789 226.711 29.0944 199.028 33.8968 199.078C39.0022 199.114 40.3722 211.474 41.4683 217.618C42.6437 224.194 43.5811 230.424 41.0429 234.123C37.4446 239.395 27.2484 238.183 25.4817 232.45Z" fill="#EA8B24"/>
<path d="M373.999 239.439C376.444 231.572 369.045 193.786 362.498 193.859C355.532 193.931 353.664 210.811 352.186 219.176C350.6 228.161 349.273 236.627 352.756 241.71C357.674 248.9 371.583 247.248 373.999 239.439Z" fill="#D87220"/>
<path d="M372.515 236.447C374.62 229.632 368.202 196.779 362.499 196.837C356.441 196.88 354.812 211.562 353.521 218.838C352.137 226.647 350.997 234.024 354.04 238.422C358.324 244.682 370.395 243.232 372.515 236.447Z" fill="#E27D22"/>
<path d="M370.863 232.45C372.666 226.711 367.251 199.028 362.441 199.078C357.336 199.114 355.966 211.474 354.87 217.618C353.709 224.194 352.764 230.424 355.31 234.123C358.901 239.395 369.09 238.183 370.863 232.45Z" fill="#EA8B24"/>
<path d="M140.763 44.3177C139.509 36.1766 152.438 -0.101631 158.906 0.951166C165.778 2.04002 165.122 19.0146 165.36 27.5307C165.634 36.6453 165.663 45.2119 161.444 49.7115C155.502 56.0788 142.011 52.4084 140.763 44.3177Z" fill="#D87220"/>
<path d="M142.681 41.5845C141.599 34.5322 152.834 2.99159 158.466 3.89296C164.436 4.83759 163.874 19.5912 164.076 26.968C164.285 34.9072 164.314 42.3489 160.665 46.2572C155.502 51.8169 143.748 48.6008 142.681 41.5845Z" fill="#E27D22"/>
<path d="M144.895 37.8704C143.979 31.9213 153.44 5.34905 158.192 6.10619C163.218 6.91382 162.764 19.3527 162.93 25.5974C163.095 32.2531 163.124 38.5266 160.06 41.8364C155.69 46.4874 145.818 43.7978 144.895 37.8704Z" fill="#EA8B24"/>
<path d="M252.785 44.3177C254.018 36.1766 241.117 -0.101631 234.649 0.951166C227.77 2.04002 228.426 19.0146 228.195 27.5307C227.943 36.6453 227.893 45.2119 232.097 49.7115C238.053 56.0788 251.537 52.4084 252.785 44.3177Z" fill="#D87220"/>
<path d="M250.874 41.5845C251.942 34.5322 240.714 2.99159 235.097 3.89296C229.119 4.83759 229.674 19.5912 229.487 26.968C229.278 34.9072 229.242 42.3489 232.905 46.2572C238.053 51.8169 249.778 48.6008 250.874 41.5845Z" fill="#E27D22"/>
<path d="M248.659 37.8704C249.567 31.9213 240.092 5.34905 235.355 6.10619C230.314 6.91382 230.783 19.3527 230.639 25.5974C230.451 32.2531 230.422 38.5266 233.509 41.8364C237.842 46.4874 247.729 43.7978 248.659 37.8704Z" fill="#EA8B24"/>
<path d="M156.944 92.8839C165.186 103.989 170.869 131.866 162.302 161.712C153.995 190.592 107.261 199.303 97.5838 182.66C88.5053 167.092 104.319 121.035 113.671 105.777C123.002 90.5116 144.412 75.9166 156.944 92.8839Z" fill="#F5A63B"/>
<path d="M153.693 96.1281C160.666 105.531 165.476 129.161 158.207 154.414C151.169 178.902 111.617 186.258 103.411 172.167C95.7097 158.971 109.122 119.982 117.025 107.067C124.943 94.1379 143.086 81.7639 153.693 96.1281Z" fill="#F4B056"/>
<path d="M148.86 99.2144C154.095 106.31 157.7 124.107 152.242 143.136C146.963 161.589 117.139 167.149 110.945 156.52C105.154 146.569 115.235 117.184 121.22 107.456C127.169 97.7073 140.827 88.3619 148.86 99.2144Z" fill="#F7BC6D"/>
<path d="M251.833 62.1368C210.478 54.2047 208.942 88.9975 206.995 174.462C204.954 264.613 220.314 286.26 256.816 285.582C314.568 284.522 339.799 231.507 326.387 173.582C310.523 105.042 292.813 69.9967 251.833 62.1368Z" fill="#D87220"/>
<path d="M252.021 67.6454C213.716 60.2903 212.31 92.5304 210.5 171.642C208.625 255.137 222.831 275.169 256.628 274.542C310.098 273.539 333.483 224.462 321.065 170.812C306.384 107.378 289.95 74.914 252.021 67.6454Z" fill="#E27D22"/>
<path d="M252.646 72.9305C217.176 66.1523 215.849 95.9623 214.198 169.233C212.452 246.534 225.612 265.08 256.886 264.518C306.418 263.595 328.073 218.137 316.564 168.475C302.964 109.742 287.778 79.68 252.646 72.9305Z" fill="#EA8B24"/>
<path d="M253.679 78.5403C221.064 72.3028 219.816 99.7404 218.331 167.163C216.716 238.241 228.816 255.338 257.602 254.819C303.16 253.968 323.099 212.152 312.491 166.456C299.98 112.417 286.006 84.7417 253.679 78.5403Z" fill="#F59C27"/>
<path d="M232.953 91.8667C225.468 103.505 221.661 131.686 232.189 160.89C242.385 189.186 289.588 194.774 298.154 177.525C306.18 161.38 287.338 116.485 277.005 101.876C266.664 87.2517 244.346 74.099 232.953 91.8667Z" fill="#F5A63B"/>
<path d="M236.429 94.9025C230.091 104.767 226.875 128.635 235.795 153.362C244.434 177.316 284.404 182.047 291.651 167.452C298.443 153.78 282.493 115.742 273.732 103.39C264.985 91.0086 246.078 79.8677 236.429 94.9025Z" fill="#F4B056"/>
<path d="M241.464 97.6568C236.712 105.099 234.253 123.083 240.967 141.701C247.507 159.757 277.62 163.334 283.078 152.337C288.191 142.019 276.185 113.377 269.572 104.053C262.982 94.7292 248.747 86.3212 241.464 97.6568Z" fill="#F7BC6D"/>
<path d="M23.3385 291.386C22.0044 300.934 31.2561 349.37 63.5827 350.408C95.9094 351.454 103.012 320.05 92.751 307.64C78.7329 290.701 65.2629 268.153 49.1825 268.333C32.5252 268.513 24.5571 282.481 23.3385 291.386Z" fill="#F5A63B"/>
<path d="M27.2849 290.405C26.1456 298.532 34.0415 339.865 61.645 340.752C89.2485 341.646 95.3273 314.857 86.5443 304.257C74.5742 289.785 63.0872 270.546 49.3504 270.69C35.1232 270.871 28.3089 282.769 27.2849 290.405Z" fill="#F4B056"/>
<path d="M34.2728 287.312C33.458 293.16 39.0753 322.675 58.8116 323.302C78.5264 323.951 82.8529 304.799 76.5938 297.242C68.0561 286.894 59.8356 273.15 50.0215 273.251C39.8685 273.359 34.9867 281.911 34.2728 287.312Z" fill="#F7BC6D"/>
<path d="M337.8 260.848C319.355 267.821 306.699 292.244 293.294 303.147C279.103 314.67 256.684 332.539 254.146 349.586C250.937 371.276 258.754 419.07 315.215 420.246C365.505 421.255 392.163 347.833 396.05 326.842C401.256 298.821 383.265 243.722 337.8 260.848Z" fill="#D87220"/>
<path d="M338.269 263.92C321.208 270.352 309.469 292.994 297.073 303.061C283.935 313.747 263.146 330.275 260.817 346.074C257.831 366.164 265.071 410.424 317.357 411.47C363.933 412.429 388.609 344.451 392.2 325.018C397.017 299.066 380.367 248.041 338.269 263.92Z" fill="#E27D22"/>
<path d="M338.819 267.164C323.099 273.077 312.312 293.91 300.904 303.19C288.811 313.011 269.709 328.234 267.546 342.757C264.806 361.224 271.462 401.944 319.559 402.925C362.413 403.79 385.092 341.257 388.438 323.381C392.872 299.491 377.513 252.548 338.819 267.164Z" fill="#EA8B24"/>
<path d="M338.847 270.337C324.411 275.781 314.482 294.955 303.983 303.492C292.842 312.528 275.283 326.531 273.3 339.879C270.776 356.882 276.913 394.35 321.152 395.259C360.581 396.066 381.45 338.509 384.507 322.089C388.589 300.096 374.477 256.924 338.847 270.337Z" fill="#F59C27"/>
<path d="M373.669 295.351C374.996 304.899 365.751 353.313 333.41 354.366C301.091 355.418 293.974 324.022 304.256 311.612C318.26 294.659 331.737 272.103 347.81 272.291C364.46 272.471 372.443 286.439 373.669 295.351Z" fill="#F5A63B"/>
<path d="M369.717 294.357C370.856 302.484 362.953 343.824 335.364 344.718C307.753 345.605 301.71 318.809 310.45 308.209C322.42 293.751 333.9 274.491 347.644 274.664C361.878 274.815 368.678 286.728 369.717 294.357Z" fill="#F4B056"/>
<path d="M362.743 291.299C363.544 297.111 357.934 326.625 338.19 327.274C318.483 327.895 314.156 308.764 320.393 301.2C328.946 290.866 337.173 277.115 346.98 277.223C357.126 277.331 361.986 285.855 362.743 291.299Z" fill="#F7BC6D"/>
<path d="M163.362 408.593C167.061 393.039 172.931 373.822 176.839 361.801C181.62 347.019 213.817 345.634 218.836 362.962C224.626 382.965 226.169 386.571 230.222 411.319C236.675 450.806 153.944 448.152 163.362 408.593Z" fill="#F5A63B"/>
<path d="M168.705 403.56C171.856 390.292 176.86 373.873 180.206 363.576C184.316 350.964 211.805 349.752 216.109 364.578C221.035 381.654 222.347 384.725 225.823 405.889C231.353 439.622 160.65 437.351 168.705 403.56Z" fill="#F4B056"/>
<path d="M180.061 387.429C181.957 379.454 184.943 369.618 186.94 363.453C189.435 355.889 205.919 355.167 208.494 364.044C211.443 374.284 212.236 376.158 214.32 388.835C217.63 409.062 175.23 407.706 180.061 387.429Z" fill="#F7BC6D"/>
</svg>
