<svg width="359" height="528" viewBox="0 0 359 528" fill="none" xmlns="http://www.w3.org/2000/svg">
<path d="M180.142 527.141C251.934 527.343 365.449 464.976 358.317 333.477C352.145 219.025 277.908 128.304 244.284 103.499C235.45 97.0231 255.922 138.573 244.478 193.895C243.692 197.774 229.927 66.0449 126.305 0.468639C122.296 -2.06961 146.099 36.9704 129.413 104.566C109.533 184.968 88.9239 215.448 88.2533 213.299C78.9584 183.374 104.341 130.403 99.596 134.26C91.4044 140.995 13.0936 211.605 1.94552 308.743C-9.18096 405.868 36.8681 526.708 180.142 527.141Z" fill="#D87220"/>
<path d="M180.099 513.967C248.314 514.184 356.161 454.91 349.397 330.002C343.513 221.268 274.461 133.223 246.353 107.263C238.702 100.233 264.279 154.589 242.12 206.717C240.606 210.207 229.342 68.8939 128.771 4.24783C124.964 1.81053 147.779 48.285 131.908 112.52C113.044 188.92 89.9259 217.893 88.5702 216.466C72.7927 199.772 99.2568 138.249 94.7572 141.912C86.9478 148.279 21.4075 214.209 10.8363 306.494C0.243414 398.751 43.9922 513.549 180.099 513.967Z" fill="#E27D22"/>
<path d="M180.078 501.469C244.876 501.65 347.322 445.347 340.882 326.698C335.301 223.372 277.152 140.266 250.443 115.605C243.188 108.92 270.669 164.459 241.068 213.061C239.23 216.111 224.815 68.0849 131.267 8.9047C127.691 6.57557 152.713 52.4011 133.748 119.326C115.475 183.828 92.9845 222.644 88.8814 219.572C69.3903 205.035 97.1524 142.127 92.9052 145.631C85.4707 151.681 29.3263 216.681 19.2598 304.366C9.22221 392.015 50.8077 501.073 180.078 501.469Z" fill="#EA8B24"/>
<path d="M180.027 489.594C241.608 489.76 338.913 436.262 332.805 323.534C327.541 225.4 278.824 145.2 253.463 121.793C246.584 115.426 275.118 162.939 239.791 223.756C236.215 229.892 225.917 76.9557 134.966 14.1484C131.678 11.8626 155.402 50.3329 134.966 127.677C116.823 196.354 92.6952 224.001 88.8807 221.722C65.5316 207.74 94.498 146.945 90.4238 150.255C83.3931 155.973 35.3611 219.884 23.9173 303.386C12.5385 386.435 57.2318 489.198 180.027 489.594Z" fill="#F59C27"/>
<path d="M159.736 70.7613C148.545 44.6361 162.988 158.879 101.767 245.915C65.2295 297.863 127.135 341.626 164.957 302.131C184.333 281.919 198.682 239.202 194.442 190.29C191.421 155.216 169.406 93.346 159.736 70.7613Z" fill="#F5A63B"/>
<path d="M162.128 86.7326C153.035 65.5541 165.972 167.012 115.308 240.297C80.2411 291.069 140.452 314.656 169.354 281.039C184.1 263.855 192.631 224.757 189.191 185.104C186.761 156.679 169.981 105.041 162.128 86.7326Z" fill="#F4B056"/>
<path d="M163.608 99.2584C156.152 79.9836 167.942 169.392 125.765 235.459C95.6883 282.56 134.317 300.444 163.017 272.047C177.677 257.524 185.674 225.731 184.361 190.311C183.474 164.907 170.048 115.945 163.608 99.2584Z" fill="#F7BC6D"/>
</svg>
