<svg width="359" height="528" viewBox="0 0 359 528" fill="none" xmlns="http://www.w3.org/2000/svg">
<path d="M180.148 527.155C251.94 527.364 365.454 464.99 358.323 333.498C352.15 219.039 277.906 128.325 244.289 103.513C235.456 97.0371 255.928 138.594 244.484 193.909C243.698 197.781 229.932 66.0589 126.311 0.475455C122.302 -2.06279 146.105 36.9844 129.419 104.573C109.538 184.975 88.9294 215.462 88.2588 213.299C78.9639 183.374 104.346 130.402 99.6016 134.26C91.41 140.988 13.0992 211.604 1.95107 308.743C-9.18262 405.889 36.8736 526.722 180.148 527.155Z" fill="#F59C27"/>
<path d="M180.099 513.973C248.314 514.196 356.161 454.915 349.397 330.007C343.52 221.281 274.468 133.243 246.36 107.276C238.709 100.238 264.286 154.601 242.127 206.729C240.613 210.219 229.349 68.9066 128.778 4.26058C124.971 1.81607 147.786 48.2834 131.915 112.533C113.051 188.925 89.9331 217.906 88.5774 216.478C72.7999 199.785 99.264 138.261 94.7644 141.932C86.955 148.285 21.4148 214.221 10.8435 306.514C0.250655 398.764 43.9994 513.569 180.099 513.973Z" fill="#F4BB3A"/>
<path d="M180.082 501.484C244.88 501.664 347.326 445.361 340.886 326.712C335.305 223.394 277.156 140.281 250.447 115.619C243.192 108.942 270.673 164.48 241.072 213.075C239.234 216.125 224.819 68.099 131.272 8.91887C127.695 6.58974 152.717 52.408 133.752 119.34C115.48 183.849 92.9886 222.658 88.8856 219.579C69.3944 205.042 97.1566 142.148 92.9093 145.638C85.4749 151.695 29.3305 216.695 19.264 304.38C9.2264 392.029 50.8119 501.087 180.082 501.484Z" fill="#F7DC85"/>
<path d="M180.033 489.615C241.614 489.774 338.919 436.283 332.811 323.555C327.547 225.421 278.83 145.228 253.469 121.814C246.59 115.454 275.123 162.967 239.797 223.777C236.22 229.913 225.923 76.9767 134.972 14.1694C131.683 11.8836 155.407 50.3539 134.972 127.698C116.829 196.383 92.701 224.029 88.8864 221.743C65.5374 207.761 94.5038 146.959 90.4296 150.283C83.3989 156.001 35.3669 219.905 23.9231 303.407C12.537 386.456 57.2304 489.212 180.033 489.615Z" fill="white"/>
</svg>
