<svg width="463" height="443" viewBox="0 0 463 443" fill="none" xmlns="http://www.w3.org/2000/svg">
<path d="M445.846 259.747C445.832 259.711 445.818 259.66 445.781 259.624C445.385 259.011 444.959 258.463 444.57 257.886C443.683 256.617 442.832 255.326 441.88 254.093C426.853 234.004 406.554 223.916 389.248 218.248C389.031 218.161 388.815 218.053 388.57 217.995C388.527 217.967 388.455 217.959 388.39 217.945C376.946 214.246 366.93 212.457 360.779 210.886C355.053 209.414 353.539 187.731 340.819 161.476C340.177 159.529 339.824 157.9 340.322 157.077C344.179 150.653 353.157 152.7 368.855 133.476C368.855 133.454 368.855 133.418 368.855 133.39C382.484 116.264 387.957 93.6429 383.364 73.1061C368.891 8.12837 280.327 -28.2797 235.806 30.2371C235.64 30.3885 235.482 30.4246 235.374 30.6049C218.723 52.0358 218.471 71.5413 213.784 75.2333C212.911 75.904 210.827 75.8391 207.936 75.4713C203.963 74.7935 200.011 74.1661 196.132 73.6686C183.88 71.7433 166.055 69.6016 143.463 72.6302C143.434 72.6302 143.434 72.659 143.398 72.659C33.5899 83.9946 -17.0237 181.551 6.54886 273.311C25.8742 348.636 79.9345 399.149 142.684 413.037C146.066 414.01 150.27 414.796 154.993 415.453C155.52 415.525 156.06 415.611 156.601 415.691C157.12 415.755 157.553 415.849 158.144 415.921C163.791 416.592 169.083 416.895 174.203 417.046C174.535 417.046 174.823 417.061 175.141 417.068C199.449 417.674 217.858 413.066 231.4 408.112C231.992 407.896 232.597 407.679 233.203 407.448C237.176 405.963 240.767 404.442 243.89 403.057C246.269 402.047 248.671 401.269 250.992 400.144C251.519 399.863 252.031 399.56 252.572 399.3C255.492 398.117 257.821 397.368 259.545 397.44C269.77 397.858 296.436 451.543 362.401 440.741C363.238 440.626 364.074 440.439 364.911 440.302C366.699 439.963 368.372 439.797 370.247 439.357C370.442 439.314 370.607 439.083 370.838 439.018C376.29 437.742 381.64 436.177 386.746 433.927C453.497 404.672 483.127 316.432 445.846 259.747Z" fill="#F59C27"/>
<path d="M423.306 242.095C423.176 241.979 423.126 241.857 422.996 241.741C422.636 241.453 422.268 241.215 421.929 240.934C421.027 240.22 420.076 239.52 419.124 238.835C385.434 213.951 351.254 219.582 347.49 217.902C345.046 216.806 344.058 200.892 336.212 178.624C336.119 178.314 336.003 177.968 335.888 177.636C335.823 177.434 335.722 177.225 335.657 177.038C335.21 175.783 334.821 174.593 334.33 173.295C334.244 173.137 334.15 173.086 334.085 172.942C332.21 167.995 330.134 163.164 327.718 158.441C326.86 156.458 326.434 155.052 326.73 154.338C327.862 151.259 339.861 150.747 356.05 134.255C356.273 134.039 356.504 133.823 356.72 133.613C356.785 133.541 356.836 133.484 356.901 133.433L356.915 133.39C373.349 117.122 380.48 93.1745 375.685 71.7004C361.847 9.67909 275.309 -24.0609 235.483 37.3619C235.007 37.7585 234.495 38.1262 234.106 38.768C220.931 60.1196 220.181 77.7864 216.727 80.6563C215.905 81.3558 212.934 81.2404 208.557 80.7357C197.784 78.7526 187.408 77.5484 177.464 77.0292C168.039 76.2937 158.059 76.1062 148.93 77.3682C148.836 77.3754 148.771 77.4403 148.67 77.4619C45.2223 86.6847 -2.66554 177.773 19.335 263.454C36.7999 331.424 84.7382 377.754 140.948 391.989C145.382 393.561 151.353 394.822 159.09 395.731C222.965 403.158 253.799 374.574 261.32 374.971C266.966 375.266 274.588 402.012 306.172 418.683C317.5 424.971 329.946 428.815 342.536 430.033C343.503 430.178 344.361 430.387 345.327 430.517C347.627 430.805 349.69 430.704 351.615 430.416C363.715 430.394 375.664 428.101 386.617 423.291C456.974 392.407 482.818 290.769 423.306 242.095Z" fill="#F4BB3A"/>
<path d="M397.787 233.181C395.998 232.085 393.748 230.975 390.648 229.814C386.61 228.314 382.535 227.319 378.468 226.562C377.545 226.374 376.615 226.244 375.678 226.107C373.442 225.754 371.243 225.444 369.08 225.256C368.258 225.177 367.436 225.127 366.614 225.098C349.935 224.052 336.27 227.095 335.16 226.489C332.823 225.235 337.323 211.318 324.386 176.287C324.192 175.739 324.048 175.184 323.831 174.643C323.24 172.963 322.519 171.333 321.848 169.674C321.372 168.542 321.098 167.569 320.586 166.365C320.521 166.249 320.485 166.192 320.435 166.098C318.971 162.723 317.377 159.392 315.625 156.132C314.572 153.529 314.032 151.539 314.587 150.609C316.541 147.501 334.237 145.994 349.574 129.978C349.625 129.935 349.574 129.863 349.603 129.827C366.131 114.77 373.5 91.6521 368.878 70.9855C356.165 14.0263 277.234 -17.1682 239.968 37.808C239.672 38.1037 239.377 38.2407 239.117 38.6156C224.818 59.2173 222.597 84.6647 220.239 86.7126C217.578 89.0489 198.188 82.6528 179.093 82.8042C179.028 82.8042 178.992 82.8692 178.899 82.8692C63.9129 76.0548 8.9151 168.708 31.1753 255.398C49.2603 325.935 102.888 371.155 162.934 377.717C163.77 377.833 164.477 378.049 165.335 378.114C167.563 378.28 169.632 378.309 171.767 378.402C173.476 378.474 175.12 378.597 176.786 378.619C235.187 379.441 261.305 351.246 265.408 352.493C271.285 354.246 273.65 393.639 318.243 413.505C319.295 413.988 320.356 414.255 321.394 414.471C342.291 422.699 365.857 422.699 385.751 413.974C458.257 382.188 479.486 269.366 397.787 233.181Z" fill="#F7DC85"/>
<path d="M384.437 233.232C378.661 231.364 373.368 230.189 367.953 229.706C345 227.067 325.134 234.515 323.692 233.729C321.161 232.374 329.439 210.885 311.397 169.956C311.145 169.451 310.892 169.112 310.64 168.723C309.739 166.516 308.945 164.122 308.03 162.168C306.487 158.938 304.879 155.736 303.105 152.664C301.165 148.922 299.932 146.196 300.624 144.775C301.987 141.884 321.456 141.97 337.659 130.144C338.265 129.719 338.856 129.33 339.448 128.882C339.642 128.724 339.873 128.608 340.068 128.435C340.104 128.399 340.082 128.356 340.118 128.32C357.569 114.662 365.544 91.811 361.016 71.5122C348.894 17.2644 271.34 -11.8606 238.783 46.4254C237.673 48.4084 236.699 50.4779 235.877 52.5691C235.877 52.5691 235.848 52.5691 235.848 52.5835C225.486 74.4327 226.092 90.0371 224.058 92.2004C222.941 93.3974 212.528 91.4288 200.796 90.751C80.1713 70.5676 21.1426 161.887 42.9917 246.962C60.2114 313.994 112.267 356.128 169.717 359.914C171.094 360.08 172.536 360.18 174.051 360.238C174.887 360.274 175.745 360.325 176.596 360.339C177.144 360.339 177.598 360.397 178.175 360.39C181.997 360.325 185.747 360.108 189.395 359.82C190.347 359.733 191.328 359.632 192.316 359.517C240.485 354.751 268.99 331.12 271.066 332.959C272.444 334.163 273.655 353.532 286.087 372.67C286.152 372.764 286.224 372.857 286.282 372.958C287.068 374.141 287.731 375.331 288.618 376.528C288.978 376.982 289.339 377.299 289.663 377.681C311.7 407.982 352.081 417.161 382.98 403.59C452.494 373.124 471.076 261.513 384.437 233.232Z" fill="white"/>
</svg>
