<svg width="463" height="443" viewBox="0 0 463 443" fill="none" xmlns="http://www.w3.org/2000/svg">
<path d="M445.846 259.747C445.832 259.711 445.817 259.668 445.781 259.625C445.385 259.012 444.959 258.471 444.57 257.887C443.683 256.61 442.832 255.327 441.88 254.094C426.853 234.004 406.554 223.916 389.248 218.241C389.031 218.162 388.815 218.053 388.57 217.989C388.526 217.967 388.454 217.96 388.39 217.938C376.946 214.246 366.93 212.458 360.779 210.879C355.053 209.408 353.539 187.717 340.819 161.462C340.177 159.522 339.824 157.893 340.321 157.063C344.179 150.638 353.157 152.694 368.855 133.469C368.855 133.44 368.855 133.404 368.855 133.383C382.484 116.257 387.957 93.6359 383.363 73.092C368.891 8.1142 280.326 -28.2938 235.806 30.2301C235.64 30.3816 235.482 30.4176 235.373 30.5907C218.723 52.0216 218.471 71.52 213.784 75.2192C212.911 75.897 210.827 75.8249 207.936 75.4716C203.963 74.7865 200.011 74.1664 196.131 73.6688C183.88 71.7363 166.055 69.5947 143.463 72.6233C143.434 72.6233 143.434 72.6449 143.398 72.6449C33.5898 83.9949 -17.0238 181.552 6.54874 273.311C25.874 348.629 79.9344 399.149 142.684 413.037C146.066 414.018 150.27 414.797 154.993 415.446C155.519 415.518 156.06 415.612 156.601 415.684C157.12 415.749 157.553 415.842 158.144 415.914C163.79 416.592 169.083 416.895 174.203 417.039C174.535 417.039 174.823 417.054 175.14 417.061C199.449 417.667 217.858 413.066 231.4 408.112C231.991 407.896 232.597 407.672 233.203 407.442C237.176 405.956 240.767 404.435 243.89 403.05C246.269 402.041 248.67 401.262 250.992 400.137C251.519 399.856 252.031 399.553 252.571 399.286C255.492 398.103 257.821 397.361 259.544 397.426C269.77 397.844 296.436 451.529 362.401 440.727C363.238 440.619 364.074 440.424 364.911 440.287C366.699 439.956 368.372 439.783 370.247 439.35C370.441 439.299 370.607 439.076 370.838 439.011C376.29 437.727 381.64 436.17 386.745 433.92C453.497 404.673 483.127 316.432 445.846 259.747Z" fill="#D87220"/>
<path d="M423.306 242.095C423.176 241.979 423.126 241.857 422.996 241.748C422.636 241.46 422.268 241.222 421.929 240.934C421.027 240.234 420.076 239.52 419.124 238.842C385.434 213.965 351.254 219.596 347.49 217.916C345.046 216.813 344.058 200.906 336.212 178.638C336.119 178.321 336.003 177.982 335.888 177.65C335.823 177.441 335.722 177.239 335.657 177.052C335.21 175.797 334.821 174.607 334.33 173.309C334.244 173.151 334.15 173.1 334.085 172.956C332.21 168.017 330.134 163.171 327.718 158.455C326.86 156.472 326.434 155.073 326.73 154.345C327.862 151.266 339.861 150.761 356.05 134.269C356.273 134.046 356.504 133.844 356.72 133.628C356.785 133.555 356.836 133.491 356.901 133.447L356.915 133.397C373.349 117.143 380.48 93.1814 375.685 71.7073C361.847 9.69321 275.309 -24.054 235.483 37.3688C235.007 37.7654 234.495 38.1259 234.106 38.7677C220.931 60.1265 220.181 77.7861 216.727 80.6633C215.905 81.3627 212.934 81.2473 208.557 80.7426C197.784 78.7668 187.408 77.5625 177.464 77.0434C168.039 76.3006 158.059 76.1204 148.93 77.3823C148.836 77.3895 148.771 77.4544 148.67 77.4688C45.2223 86.6988 -2.66554 177.78 19.335 263.461C36.7999 331.431 84.7382 377.761 140.948 391.988C145.382 393.567 151.353 394.822 159.09 395.731C222.965 403.165 253.799 374.574 261.32 374.97C266.966 375.273 274.588 402.019 306.172 418.683C317.5 424.964 329.946 428.807 342.536 430.026C343.503 430.177 344.361 430.379 345.327 430.509C347.627 430.798 349.69 430.697 351.615 430.415C363.715 430.387 375.664 428.093 386.617 423.284C456.974 392.407 482.818 290.768 423.306 242.095Z" fill="#E27D22"/>
<path d="M397.786 233.19C395.998 232.086 393.748 230.976 390.648 229.829C386.609 228.329 382.535 227.327 378.468 226.577C377.545 226.39 376.615 226.26 375.678 226.116C373.442 225.762 371.243 225.452 369.08 225.272C368.258 225.186 367.436 225.142 366.613 225.113C349.935 224.068 336.27 227.104 335.159 226.505C332.823 225.243 337.323 211.326 324.386 176.303C324.191 175.762 324.047 175.192 323.831 174.658C323.24 172.978 322.519 171.356 321.848 169.697C321.372 168.558 321.098 167.585 320.586 166.395C320.521 166.272 320.485 166.222 320.435 166.114C318.971 162.746 317.377 159.407 315.625 156.155C314.572 153.552 314.031 151.562 314.587 150.639C316.541 147.524 334.236 146.009 349.574 130.008C349.625 129.958 349.574 129.893 349.603 129.857C366.13 114.8 373.5 91.6822 368.878 71.0157C356.165 14.0565 277.234 -17.138 239.968 37.8309C239.672 38.1338 239.376 38.2636 239.117 38.6458C224.818 59.2474 222.597 84.6948 220.239 86.7499C217.578 89.0791 198.188 82.683 179.093 82.8416C179.028 82.8416 178.992 82.9065 178.898 82.9065C63.9127 76.0922 8.91492 168.738 31.1751 255.435C49.2601 325.973 102.888 371.193 162.933 377.755C163.77 377.87 164.476 378.093 165.335 378.151C167.563 378.324 169.632 378.346 171.767 378.44C173.476 378.512 175.12 378.634 176.786 378.656C235.187 379.485 261.305 351.29 265.408 352.531C271.285 354.283 273.65 393.691 318.242 413.542C319.295 414.033 320.355 414.3 321.394 414.516C342.291 422.744 365.856 422.744 385.751 414.018C458.257 382.189 479.486 269.36 397.786 233.19Z" fill="#EA8B24"/>
<path d="M384.437 233.232C378.661 231.357 373.368 230.182 367.952 229.699C345 227.067 325.134 234.509 323.692 233.723C321.161 232.367 329.439 210.886 311.397 169.956C311.145 169.444 310.892 169.105 310.64 168.723C309.738 166.51 308.945 164.115 308.029 162.161C306.486 158.938 304.878 155.729 303.104 152.65C301.165 148.908 299.932 146.189 300.624 144.761C301.987 141.877 321.456 141.963 337.659 130.138C338.265 129.719 338.856 129.33 339.448 128.868C339.642 128.717 339.873 128.602 340.068 128.429C340.104 128.392 340.082 128.342 340.118 128.306C357.569 114.656 365.544 91.797 361.015 71.5054C348.894 17.2575 271.34 -11.8674 238.783 46.4186C237.672 48.4088 236.699 50.4711 235.877 52.5623C235.877 52.5623 235.848 52.5623 235.848 52.5767C225.486 74.4258 226.092 90.0303 224.058 92.2008C222.94 93.405 212.528 91.4292 200.796 90.7514C80.1711 70.568 21.1423 161.887 42.9915 246.962C60.2112 314.002 112.267 356.128 169.716 359.907C171.094 360.065 172.536 360.174 174.05 360.239C174.887 360.275 175.745 360.318 176.596 360.339C177.144 360.339 177.598 360.397 178.175 360.39C181.997 360.325 185.746 360.109 189.395 359.82C190.347 359.741 191.328 359.633 192.316 359.525C240.485 354.751 268.989 331.121 271.066 332.952C272.443 334.164 273.655 353.532 286.087 372.67C286.151 372.757 286.224 372.858 286.281 372.959C287.067 374.141 287.731 375.331 288.618 376.535C288.978 376.997 289.339 377.307 289.663 377.696C311.7 407.989 352.081 417.169 382.98 403.598C452.493 373.124 471.076 261.514 384.437 233.232Z" fill="#F59C27"/>
<path d="M249.493 45.726C257.021 22.8241 303.733 5.81348 323.664 35.3567C341.461 61.7776 321.105 91.2343 289.91 92.6836C258.254 94.1114 242.332 67.5175 249.493 45.726Z" fill="#F5A63B"/>
<path d="M256.767 45.5673C263.055 26.5088 301.944 12.3176 318.544 36.9502C333.348 58.9436 316.387 83.4752 290.435 84.665C264.036 85.8692 250.804 63.746 256.767 45.5673Z" fill="#F4B056"/>
<path d="M267.614 43.9526C272.077 30.3455 299.861 20.207 311.716 37.8017C322.287 53.4999 310.187 71.0297 291.655 71.8806C272.777 72.7387 263.316 56.9467 267.614 43.9526Z" fill="#F7BC6D"/>
<path d="M289.009 297.936C284.235 266.381 329.21 218.363 370.435 241.352C407.225 261.939 400.771 308.882 364.767 329.26C328.251 349.847 293.552 327.977 289.009 297.936Z" fill="#F5A63B"/>
<path d="M297.495 293.393C293.522 267.138 330.997 227.139 365.329 246.313C395.968 263.439 390.581 302.551 360.642 319.482C330.168 336.644 301.303 318.429 297.495 293.393Z" fill="#F4B056"/>
<path d="M307.77 285.116C304.914 266.382 331.674 237.791 356.206 251.484C378.077 263.736 374.284 291.664 352.853 303.749C331.097 316.036 310.467 303.028 307.77 285.116Z" fill="#F7BC6D"/>
<path d="M243.682 242.701C189.441 294.692 103.999 265.3 96.2901 195.058C86.8005 108.275 191.424 73.929 239.124 113.315C286.695 152.557 282.13 205.81 243.682 242.701Z" fill="#F5A63B"/>
<path d="M237.48 222.618C193.35 264.874 123.872 240.999 117.599 183.859C109.883 113.3 194.958 85.365 233.745 117.36C272.41 149.304 268.733 192.613 237.48 222.618Z" fill="#F4B056"/>
<path d="M227.159 195.534C195.668 225.733 146.043 208.643 141.558 167.872C136.063 117.461 196.822 97.4937 224.527 120.345C252.152 143.161 249.527 174.124 227.159 195.534Z" fill="#F7BC6D"/>
</svg>
