<svg xmlns="http://www.w3.org/2000/svg" viewBox="0 0 29.85 34.47"><defs><style>.cls-1{fill:#3a8965;}.cls-2{fill:#4eaa78;}.cls-3{fill:#fff;}</style></defs><g id="Calque_2" data-name="Calque 2"><g id="PopUp"><polygon class="cls-1" points="0 8.62 14.93 0 29.85 8.62 29.85 25.85 14.93 34.47 0 25.85 0 8.62"/><polygon class="cls-2" points="29.85 8.62 14.93 0 0 8.62 0 25.85 0.01 25.85 29.85 8.62"/><path class="cls-3" d="M23.65,15.68a2.15,2.15,0,0,0-1.73-.12c-.38.12-2.38,1-2.34.93a35.39,35.39,0,0,0,4-2.94c1.56-1.44,2.44-2.77,2-2.9a3.81,3.81,0,0,0-3.36.44c-1,.86-1.48,1.69-2.45,2.48a7.83,7.83,0,0,1-1.36.94,5.16,5.16,0,0,0-.44.88c-.11.33-.07.33.28.62a2.15,2.15,0,0,1,.83,1.19,1.78,1.78,0,0,1-.48,1.39c-.4.31-.42.32.24.1a12.69,12.69,0,0,0,3.1-1.41C23.32,16.44,23.75,15.75,23.65,15.68Z"/><path class="cls-3" d="M17.86,23.73A1.67,1.67,0,0,0,16,24.5c-.45.69-.06,1.5.07,1a1.34,1.34,0,0,1,1.34-1.17c.58,0,.94.36.86,1.21a1.23,1.23,0,0,1-1,1.22c-.92.23-2.31,0-2.21-1.75.06-1.16.93-1.57,1.47-2.3a4.19,4.19,0,0,0,.59-1.44c.09,0,0,.15.08.37.06.58.29.72.48.71s.27-.2.49-.46a.9.9,0,0,1,.49-.25.31.31,0,0,0,.09-.57c-.42-.27-.75.1-.72,0a1.61,1.61,0,0,0,.09-.67c0-.55-.34-.6-.58-.53-.09,0-.23.22-.21.18a21.37,21.37,0,0,0,.18-2.52c0-.08.4.2.43.44s-.14.42,0,.55.43,0,.65-.42c.58-1-.41-1.6-.84-1.92a.65.65,0,0,1-.19-.69,6.43,6.43,0,0,1,1.72-2.65c.7-.52.17-1.23-1.05-1.28a4.63,4.63,0,0,0-3.64,2.05c-.35.46-.31.55-1.2.27-1.32-.43-2.07-2-4.71-4.36C6.51,7.55,3.27,8.2,3.31,8.74s1,1.77,2.52,3.18a48.14,48.14,0,0,0,5.11,3.67A24.18,24.18,0,0,0,7.79,14.5c-1.48-.38-3.12-.09-3.37.37a6.74,6.74,0,0,0,2.25,1.68A19.81,19.81,0,0,0,11,18.22a15.57,15.57,0,0,1,2.4.64,21.64,21.64,0,0,0,.51,3.29c.08.9,0,1,0,3.15,0,2,1.71,2.4,2.91,2.36A2.21,2.21,0,0,0,19,25.09,1.46,1.46,0,0,0,17.86,23.73ZM16.45,12.38a.45.45,0,0,1,.43.47.45.45,0,0,1-.47.42.43.43,0,0,1-.42-.46A.45.45,0,0,1,16.45,12.38ZM16,16.57a1,1,0,0,1,1,.7c.24.67-.18,1.76-.37,1.75s-.53-.83-.54-.87c-.1-.31,0-.23.06,0s.31.54.42.55.25-.6.18-1.08a1.12,1.12,0,0,0-.76-.88C15.66,16.6,15.62,16.55,16,16.57Zm-.65,4.79c.08-.2.18-.32.11-.12-.15.42,0,.9.38,1s.73-.42.8-.89-.42-.37-.41-.39a1.54,1.54,0,0,0,.2-.89c-.16-.65-.78-.23-.84-.2s-.19.08,0,0c.56-.42.95-.27,1.07.12a1.06,1.06,0,0,1-.17.86s.09,0,.19,0a.54.54,0,0,1,.19.6c-.11.51-.53,1.06-.91,1.07S15.06,22,15.34,21.36Z"/></g></g></svg>