<svg xmlns="http://www.w3.org/2000/svg" viewBox="0 0 29.85 34.47"><defs><style>.cls-1{fill:#bd4444;}.cls-2{fill:#d75b61;}.cls-3{fill:#fff;}</style></defs><g id="Calque_2" data-name="Calque 2"><g id="PopUp"><polygon class="cls-1" points="0 8.62 14.93 0 29.85 8.62 29.85 25.85 14.93 34.47 0 25.85 0 8.62"/><polygon class="cls-2" points="29.85 8.62 14.93 0 0 8.62 0 25.85 0.01 25.85 29.85 8.62"/><path class="cls-3" d="M23.17,18.12A8.27,8.27,0,0,0,21.44,17a6,6,0,0,0-2.09-3.53h0l-.52-.49c-.46-.48-.92-1.15-.42-1.83.93-1.26,1.09-1.48.9-2.22S17.55,7.2,14.69,8c-2.44.69-2.68,2.17-3.42,3.11a6.94,6.94,0,0,1-.73.62h0l0,0-.16.13,0,0-.13.1c-2.11,1.71-3.55,3.34-3.78,5.26a8.26,8.26,0,0,0,1.47,6.06,9,9,0,0,0-.94.42,1.47,1.47,0,0,0-.41.67,4.68,4.68,0,0,0,.94-.25c-.19.23-.4.63-.36.68a7.55,7.55,0,0,0,1.25-.37l0,0a1.73,1.73,0,0,0-.41.89,13.3,13.3,0,0,0,1.68-.71A2.51,2.51,0,0,1,11,24.43a1.25,1.25,0,0,1,1.11.72c.15.11.21-.54.17-.72A.93.93,0,0,0,12,24a1.3,1.3,0,0,0,.33-.59,5.06,5.06,0,0,0,1.41.2,5.13,5.13,0,0,0,1.76-.31,1.58,1.58,0,0,0,.37.7.86.86,0,0,0-.24.46c0,.18,0,.83.17.72a1.25,1.25,0,0,1,1.11-.72,2.53,2.53,0,0,1,1.36.25,13.3,13.3,0,0,0,1.68.71,1.73,1.73,0,0,0-.41-.89l0,0a7.82,7.82,0,0,0,1.26.37c0-.05-.17-.45-.37-.68a5.06,5.06,0,0,0,.94.25,1.31,1.31,0,0,0-.41-.67,7.31,7.31,0,0,0-.94-.42,4,4,0,0,0,.42-.58c1-.07,1.6,0,1.86.53.43.83-.35,1.41.32,1.87s2.3-1.41,2.45-2.89S24.75,19.55,23.17,18.12ZM15.11,8.69a.41.41,0,1,1-.4.4A.4.4,0,0,1,15.11,8.69Z"/></g></g></svg>